G04 (created by PCBNEW-RS274X (2012-01-19 BZR 3256)-stable) date 11/27/2012 11:43:36 PM*
G01*
G70*
G90*
%MOIN*%
G04 Gerber Fmt 3.4, Leading zero omitted, Abs format*
%FSLAX34Y34*%
G04 APERTURE LIST*
%ADD10C,0.006000*%
%ADD11C,0.008000*%
G04 APERTURE END LIST*
G54D10*
G54D11*
X69924Y-45018D02*
X69867Y-45037D01*
X69771Y-45037D01*
X69733Y-45018D01*
X69714Y-44999D01*
X69695Y-44961D01*
X69695Y-44923D01*
X69714Y-44885D01*
X69733Y-44865D01*
X69771Y-44846D01*
X69848Y-44827D01*
X69886Y-44808D01*
X69905Y-44789D01*
X69924Y-44751D01*
X69924Y-44713D01*
X69905Y-44675D01*
X69886Y-44656D01*
X69848Y-44637D01*
X69752Y-44637D01*
X69695Y-44656D01*
X69562Y-44637D02*
X69467Y-45037D01*
X69390Y-44751D01*
X69314Y-45037D01*
X69219Y-44637D01*
X69086Y-44675D02*
X69067Y-44656D01*
X69029Y-44637D01*
X68933Y-44637D01*
X68895Y-44656D01*
X68876Y-44675D01*
X68857Y-44713D01*
X68857Y-44751D01*
X68876Y-44808D01*
X69105Y-45037D01*
X68857Y-45037D01*
X68686Y-44999D02*
X68667Y-45018D01*
X68686Y-45037D01*
X68705Y-45018D01*
X68686Y-44999D01*
X68686Y-45037D01*
X68324Y-44637D02*
X68401Y-44637D01*
X68439Y-44656D01*
X68458Y-44675D01*
X68496Y-44732D01*
X68515Y-44808D01*
X68515Y-44961D01*
X68496Y-44999D01*
X68477Y-45018D01*
X68439Y-45037D01*
X68362Y-45037D01*
X68324Y-45018D01*
X68305Y-44999D01*
X68286Y-44961D01*
X68286Y-44865D01*
X68305Y-44827D01*
X68324Y-44808D01*
X68362Y-44789D01*
X68439Y-44789D01*
X68477Y-44808D01*
X68496Y-44827D01*
X68515Y-44865D01*
X67810Y-44885D02*
X67505Y-44885D01*
X66934Y-44637D02*
X66857Y-44637D01*
X66819Y-44656D01*
X66781Y-44694D01*
X66762Y-44770D01*
X66762Y-44904D01*
X66781Y-44980D01*
X66819Y-45018D01*
X66857Y-45037D01*
X66934Y-45037D01*
X66972Y-45018D01*
X67010Y-44980D01*
X67029Y-44904D01*
X67029Y-44770D01*
X67010Y-44694D01*
X66972Y-44656D01*
X66934Y-44637D01*
X66591Y-45037D02*
X66591Y-44637D01*
X66362Y-45037D01*
X66362Y-44637D01*
X66172Y-44999D02*
X66153Y-45018D01*
X66172Y-45037D01*
X66191Y-45018D01*
X66172Y-44999D01*
X66172Y-45037D01*
X66172Y-44789D02*
X66153Y-44808D01*
X66172Y-44827D01*
X66191Y-44808D01*
X66172Y-44789D01*
X66172Y-44827D01*
X65448Y-45037D02*
X65582Y-44846D01*
X65677Y-45037D02*
X65677Y-44637D01*
X65524Y-44637D01*
X65486Y-44656D01*
X65467Y-44675D01*
X65448Y-44713D01*
X65448Y-44770D01*
X65467Y-44808D01*
X65486Y-44827D01*
X65524Y-44846D01*
X65677Y-44846D01*
X65201Y-44637D02*
X65124Y-44637D01*
X65086Y-44656D01*
X65048Y-44694D01*
X65029Y-44770D01*
X65029Y-44904D01*
X65048Y-44980D01*
X65086Y-45018D01*
X65124Y-45037D01*
X65201Y-45037D01*
X65239Y-45018D01*
X65277Y-44980D01*
X65296Y-44904D01*
X65296Y-44770D01*
X65277Y-44694D01*
X65239Y-44656D01*
X65201Y-44637D01*
X64858Y-45037D02*
X64858Y-44637D01*
X64724Y-44923D01*
X64591Y-44637D01*
X64591Y-45037D01*
X64115Y-44923D02*
X63924Y-44923D01*
X64153Y-45037D02*
X64020Y-44637D01*
X63886Y-45037D01*
X63543Y-45037D02*
X63772Y-45037D01*
X63658Y-45037D02*
X63658Y-44637D01*
X63696Y-44694D01*
X63734Y-44732D01*
X63772Y-44751D01*
X63200Y-44770D02*
X63200Y-45037D01*
X63296Y-44618D02*
X63391Y-44904D01*
X63143Y-44904D01*
X62686Y-44827D02*
X62381Y-44827D01*
X62381Y-44942D02*
X62686Y-44942D01*
X61810Y-44637D02*
X61771Y-44637D01*
X61733Y-44656D01*
X61714Y-44675D01*
X61695Y-44713D01*
X61676Y-44789D01*
X61676Y-44885D01*
X61695Y-44961D01*
X61714Y-44999D01*
X61733Y-45018D01*
X61771Y-45037D01*
X61810Y-45037D01*
X61848Y-45018D01*
X61867Y-44999D01*
X61886Y-44961D01*
X61905Y-44885D01*
X61905Y-44789D01*
X61886Y-44713D01*
X61867Y-44675D01*
X61848Y-44656D01*
X61810Y-44637D01*
X61486Y-45018D02*
X61486Y-45037D01*
X61505Y-45075D01*
X61524Y-45094D01*
X61505Y-44789D02*
X61486Y-44808D01*
X61505Y-44827D01*
X61524Y-44808D01*
X61505Y-44789D01*
X61505Y-44827D01*
X60934Y-44637D02*
X60857Y-44637D01*
X60819Y-44656D01*
X60781Y-44694D01*
X60762Y-44770D01*
X60762Y-44904D01*
X60781Y-44980D01*
X60819Y-45018D01*
X60857Y-45037D01*
X60934Y-45037D01*
X60972Y-45018D01*
X61010Y-44980D01*
X61029Y-44904D01*
X61029Y-44770D01*
X61010Y-44694D01*
X60972Y-44656D01*
X60934Y-44637D01*
X60457Y-44827D02*
X60591Y-44827D01*
X60591Y-45037D02*
X60591Y-44637D01*
X60400Y-44637D01*
X60114Y-44827D02*
X60248Y-44827D01*
X60248Y-45037D02*
X60248Y-44637D01*
X60057Y-44637D01*
X59905Y-44999D02*
X59886Y-45018D01*
X59905Y-45037D01*
X59924Y-45018D01*
X59905Y-44999D01*
X59905Y-45037D01*
X59905Y-44789D02*
X59886Y-44808D01*
X59905Y-44827D01*
X59924Y-44808D01*
X59905Y-44789D01*
X59905Y-44827D01*
X59181Y-45037D02*
X59315Y-44846D01*
X59410Y-45037D02*
X59410Y-44637D01*
X59257Y-44637D01*
X59219Y-44656D01*
X59200Y-44675D01*
X59181Y-44713D01*
X59181Y-44770D01*
X59200Y-44808D01*
X59219Y-44827D01*
X59257Y-44846D01*
X59410Y-44846D01*
X58934Y-44637D02*
X58857Y-44637D01*
X58819Y-44656D01*
X58781Y-44694D01*
X58762Y-44770D01*
X58762Y-44904D01*
X58781Y-44980D01*
X58819Y-45018D01*
X58857Y-45037D01*
X58934Y-45037D01*
X58972Y-45018D01*
X59010Y-44980D01*
X59029Y-44904D01*
X59029Y-44770D01*
X59010Y-44694D01*
X58972Y-44656D01*
X58934Y-44637D01*
X58591Y-45037D02*
X58591Y-44637D01*
X58457Y-44923D01*
X58324Y-44637D01*
X58324Y-45037D01*
X57848Y-44923D02*
X57657Y-44923D01*
X57886Y-45037D02*
X57753Y-44637D01*
X57619Y-45037D01*
X57276Y-45037D02*
X57505Y-45037D01*
X57391Y-45037D02*
X57391Y-44637D01*
X57429Y-44694D01*
X57467Y-44732D01*
X57505Y-44751D01*
X56933Y-44770D02*
X56933Y-45037D01*
X57029Y-44618D02*
X57124Y-44904D01*
X56876Y-44904D01*
X56419Y-44827D02*
X56114Y-44827D01*
X56114Y-44942D02*
X56419Y-44942D01*
X55409Y-45037D02*
X55638Y-45037D01*
X55524Y-45037D02*
X55524Y-44637D01*
X55562Y-44694D01*
X55600Y-44732D01*
X55638Y-44751D01*
X69924Y-45658D02*
X69867Y-45677D01*
X69771Y-45677D01*
X69733Y-45658D01*
X69714Y-45639D01*
X69695Y-45601D01*
X69695Y-45563D01*
X69714Y-45525D01*
X69733Y-45505D01*
X69771Y-45486D01*
X69848Y-45467D01*
X69886Y-45448D01*
X69905Y-45429D01*
X69924Y-45391D01*
X69924Y-45353D01*
X69905Y-45315D01*
X69886Y-45296D01*
X69848Y-45277D01*
X69752Y-45277D01*
X69695Y-45296D01*
X69562Y-45277D02*
X69467Y-45677D01*
X69390Y-45391D01*
X69314Y-45677D01*
X69219Y-45277D01*
X69086Y-45315D02*
X69067Y-45296D01*
X69029Y-45277D01*
X68933Y-45277D01*
X68895Y-45296D01*
X68876Y-45315D01*
X68857Y-45353D01*
X68857Y-45391D01*
X68876Y-45448D01*
X69105Y-45677D01*
X68857Y-45677D01*
X68686Y-45639D02*
X68667Y-45658D01*
X68686Y-45677D01*
X68705Y-45658D01*
X68686Y-45639D01*
X68686Y-45677D01*
X68534Y-45277D02*
X68267Y-45277D01*
X68439Y-45677D01*
X67810Y-45525D02*
X67505Y-45525D01*
X66934Y-45277D02*
X66857Y-45277D01*
X66819Y-45296D01*
X66781Y-45334D01*
X66762Y-45410D01*
X66762Y-45544D01*
X66781Y-45620D01*
X66819Y-45658D01*
X66857Y-45677D01*
X66934Y-45677D01*
X66972Y-45658D01*
X67010Y-45620D01*
X67029Y-45544D01*
X67029Y-45410D01*
X67010Y-45334D01*
X66972Y-45296D01*
X66934Y-45277D01*
X66591Y-45677D02*
X66591Y-45277D01*
X66362Y-45677D01*
X66362Y-45277D01*
X66172Y-45639D02*
X66153Y-45658D01*
X66172Y-45677D01*
X66191Y-45658D01*
X66172Y-45639D01*
X66172Y-45677D01*
X66172Y-45429D02*
X66153Y-45448D01*
X66172Y-45467D01*
X66191Y-45448D01*
X66172Y-45429D01*
X66172Y-45467D01*
X65448Y-45677D02*
X65582Y-45486D01*
X65677Y-45677D02*
X65677Y-45277D01*
X65524Y-45277D01*
X65486Y-45296D01*
X65467Y-45315D01*
X65448Y-45353D01*
X65448Y-45410D01*
X65467Y-45448D01*
X65486Y-45467D01*
X65524Y-45486D01*
X65677Y-45486D01*
X65201Y-45277D02*
X65124Y-45277D01*
X65086Y-45296D01*
X65048Y-45334D01*
X65029Y-45410D01*
X65029Y-45544D01*
X65048Y-45620D01*
X65086Y-45658D01*
X65124Y-45677D01*
X65201Y-45677D01*
X65239Y-45658D01*
X65277Y-45620D01*
X65296Y-45544D01*
X65296Y-45410D01*
X65277Y-45334D01*
X65239Y-45296D01*
X65201Y-45277D01*
X64858Y-45677D02*
X64858Y-45277D01*
X64724Y-45563D01*
X64591Y-45277D01*
X64591Y-45677D01*
X64115Y-45563D02*
X63924Y-45563D01*
X64153Y-45677D02*
X64020Y-45277D01*
X63886Y-45677D01*
X63543Y-45677D02*
X63772Y-45677D01*
X63658Y-45677D02*
X63658Y-45277D01*
X63696Y-45334D01*
X63734Y-45372D01*
X63772Y-45391D01*
X63410Y-45277D02*
X63162Y-45277D01*
X63296Y-45429D01*
X63238Y-45429D01*
X63200Y-45448D01*
X63181Y-45467D01*
X63162Y-45505D01*
X63162Y-45601D01*
X63181Y-45639D01*
X63200Y-45658D01*
X63238Y-45677D01*
X63353Y-45677D01*
X63391Y-45658D01*
X63410Y-45639D01*
X62686Y-45467D02*
X62381Y-45467D01*
X62381Y-45582D02*
X62686Y-45582D01*
X61810Y-45277D02*
X61771Y-45277D01*
X61733Y-45296D01*
X61714Y-45315D01*
X61695Y-45353D01*
X61676Y-45429D01*
X61676Y-45525D01*
X61695Y-45601D01*
X61714Y-45639D01*
X61733Y-45658D01*
X61771Y-45677D01*
X61810Y-45677D01*
X61848Y-45658D01*
X61867Y-45639D01*
X61886Y-45601D01*
X61905Y-45525D01*
X61905Y-45429D01*
X61886Y-45353D01*
X61867Y-45315D01*
X61848Y-45296D01*
X61810Y-45277D01*
X61486Y-45658D02*
X61486Y-45677D01*
X61505Y-45715D01*
X61524Y-45734D01*
X61505Y-45429D02*
X61486Y-45448D01*
X61505Y-45467D01*
X61524Y-45448D01*
X61505Y-45429D01*
X61505Y-45467D01*
X60934Y-45277D02*
X60857Y-45277D01*
X60819Y-45296D01*
X60781Y-45334D01*
X60762Y-45410D01*
X60762Y-45544D01*
X60781Y-45620D01*
X60819Y-45658D01*
X60857Y-45677D01*
X60934Y-45677D01*
X60972Y-45658D01*
X61010Y-45620D01*
X61029Y-45544D01*
X61029Y-45410D01*
X61010Y-45334D01*
X60972Y-45296D01*
X60934Y-45277D01*
X60457Y-45467D02*
X60591Y-45467D01*
X60591Y-45677D02*
X60591Y-45277D01*
X60400Y-45277D01*
X60114Y-45467D02*
X60248Y-45467D01*
X60248Y-45677D02*
X60248Y-45277D01*
X60057Y-45277D01*
X59905Y-45639D02*
X59886Y-45658D01*
X59905Y-45677D01*
X59924Y-45658D01*
X59905Y-45639D01*
X59905Y-45677D01*
X59905Y-45429D02*
X59886Y-45448D01*
X59905Y-45467D01*
X59924Y-45448D01*
X59905Y-45429D01*
X59905Y-45467D01*
X59181Y-45677D02*
X59315Y-45486D01*
X59410Y-45677D02*
X59410Y-45277D01*
X59257Y-45277D01*
X59219Y-45296D01*
X59200Y-45315D01*
X59181Y-45353D01*
X59181Y-45410D01*
X59200Y-45448D01*
X59219Y-45467D01*
X59257Y-45486D01*
X59410Y-45486D01*
X58934Y-45277D02*
X58857Y-45277D01*
X58819Y-45296D01*
X58781Y-45334D01*
X58762Y-45410D01*
X58762Y-45544D01*
X58781Y-45620D01*
X58819Y-45658D01*
X58857Y-45677D01*
X58934Y-45677D01*
X58972Y-45658D01*
X59010Y-45620D01*
X59029Y-45544D01*
X59029Y-45410D01*
X59010Y-45334D01*
X58972Y-45296D01*
X58934Y-45277D01*
X58591Y-45677D02*
X58591Y-45277D01*
X58457Y-45563D01*
X58324Y-45277D01*
X58324Y-45677D01*
X57848Y-45563D02*
X57657Y-45563D01*
X57886Y-45677D02*
X57753Y-45277D01*
X57619Y-45677D01*
X57276Y-45677D02*
X57505Y-45677D01*
X57391Y-45677D02*
X57391Y-45277D01*
X57429Y-45334D01*
X57467Y-45372D01*
X57505Y-45391D01*
X57143Y-45277D02*
X56895Y-45277D01*
X57029Y-45429D01*
X56971Y-45429D01*
X56933Y-45448D01*
X56914Y-45467D01*
X56895Y-45505D01*
X56895Y-45601D01*
X56914Y-45639D01*
X56933Y-45658D01*
X56971Y-45677D01*
X57086Y-45677D01*
X57124Y-45658D01*
X57143Y-45639D01*
X56419Y-45467D02*
X56114Y-45467D01*
X56114Y-45582D02*
X56419Y-45582D01*
X55409Y-45677D02*
X55638Y-45677D01*
X55524Y-45677D02*
X55524Y-45277D01*
X55562Y-45334D01*
X55600Y-45372D01*
X55638Y-45391D01*
X69924Y-46298D02*
X69867Y-46317D01*
X69771Y-46317D01*
X69733Y-46298D01*
X69714Y-46279D01*
X69695Y-46241D01*
X69695Y-46203D01*
X69714Y-46165D01*
X69733Y-46145D01*
X69771Y-46126D01*
X69848Y-46107D01*
X69886Y-46088D01*
X69905Y-46069D01*
X69924Y-46031D01*
X69924Y-45993D01*
X69905Y-45955D01*
X69886Y-45936D01*
X69848Y-45917D01*
X69752Y-45917D01*
X69695Y-45936D01*
X69562Y-45917D02*
X69467Y-46317D01*
X69390Y-46031D01*
X69314Y-46317D01*
X69219Y-45917D01*
X69086Y-45955D02*
X69067Y-45936D01*
X69029Y-45917D01*
X68933Y-45917D01*
X68895Y-45936D01*
X68876Y-45955D01*
X68857Y-45993D01*
X68857Y-46031D01*
X68876Y-46088D01*
X69105Y-46317D01*
X68857Y-46317D01*
X68686Y-46279D02*
X68667Y-46298D01*
X68686Y-46317D01*
X68705Y-46298D01*
X68686Y-46279D01*
X68686Y-46317D01*
X68439Y-46088D02*
X68477Y-46069D01*
X68496Y-46050D01*
X68515Y-46012D01*
X68515Y-45993D01*
X68496Y-45955D01*
X68477Y-45936D01*
X68439Y-45917D01*
X68362Y-45917D01*
X68324Y-45936D01*
X68305Y-45955D01*
X68286Y-45993D01*
X68286Y-46012D01*
X68305Y-46050D01*
X68324Y-46069D01*
X68362Y-46088D01*
X68439Y-46088D01*
X68477Y-46107D01*
X68496Y-46126D01*
X68515Y-46165D01*
X68515Y-46241D01*
X68496Y-46279D01*
X68477Y-46298D01*
X68439Y-46317D01*
X68362Y-46317D01*
X68324Y-46298D01*
X68305Y-46279D01*
X68286Y-46241D01*
X68286Y-46165D01*
X68305Y-46126D01*
X68324Y-46107D01*
X68362Y-46088D01*
X67810Y-46165D02*
X67505Y-46165D01*
X67010Y-46317D02*
X67010Y-45917D01*
X66781Y-46317D01*
X66781Y-45917D01*
X66515Y-45917D02*
X66438Y-45917D01*
X66400Y-45936D01*
X66362Y-45974D01*
X66343Y-46050D01*
X66343Y-46184D01*
X66362Y-46260D01*
X66400Y-46298D01*
X66438Y-46317D01*
X66515Y-46317D01*
X66553Y-46298D01*
X66591Y-46260D01*
X66610Y-46184D01*
X66610Y-46050D01*
X66591Y-45974D01*
X66553Y-45936D01*
X66515Y-45917D01*
X66229Y-45917D02*
X66000Y-45917D01*
X66115Y-46317D02*
X66115Y-45917D01*
X65562Y-45917D02*
X65562Y-46241D01*
X65543Y-46279D01*
X65524Y-46298D01*
X65486Y-46317D01*
X65409Y-46317D01*
X65371Y-46298D01*
X65352Y-46279D01*
X65333Y-46241D01*
X65333Y-45917D01*
X65162Y-46298D02*
X65105Y-46317D01*
X65009Y-46317D01*
X64971Y-46298D01*
X64952Y-46279D01*
X64933Y-46241D01*
X64933Y-46203D01*
X64952Y-46165D01*
X64971Y-46145D01*
X65009Y-46126D01*
X65086Y-46107D01*
X65124Y-46088D01*
X65143Y-46069D01*
X65162Y-46031D01*
X65162Y-45993D01*
X65143Y-45955D01*
X65124Y-45936D01*
X65086Y-45917D01*
X64990Y-45917D01*
X64933Y-45936D01*
X64762Y-46107D02*
X64628Y-46107D01*
X64571Y-46317D02*
X64762Y-46317D01*
X64762Y-45917D01*
X64571Y-45917D01*
X64400Y-46317D02*
X64400Y-45917D01*
X64305Y-45917D01*
X64247Y-45936D01*
X64209Y-45974D01*
X64190Y-46012D01*
X64171Y-46088D01*
X64171Y-46145D01*
X64190Y-46222D01*
X64209Y-46260D01*
X64247Y-46298D01*
X64305Y-46317D01*
X64400Y-46317D01*
X69924Y-37893D02*
X69867Y-37912D01*
X69771Y-37912D01*
X69733Y-37893D01*
X69714Y-37874D01*
X69695Y-37836D01*
X69695Y-37798D01*
X69714Y-37760D01*
X69733Y-37740D01*
X69771Y-37721D01*
X69848Y-37702D01*
X69886Y-37683D01*
X69905Y-37664D01*
X69924Y-37626D01*
X69924Y-37588D01*
X69905Y-37550D01*
X69886Y-37531D01*
X69848Y-37512D01*
X69752Y-37512D01*
X69695Y-37531D01*
X69562Y-37512D02*
X69467Y-37912D01*
X69390Y-37626D01*
X69314Y-37912D01*
X69219Y-37512D01*
X69086Y-37550D02*
X69067Y-37531D01*
X69029Y-37512D01*
X68933Y-37512D01*
X68895Y-37531D01*
X68876Y-37550D01*
X68857Y-37588D01*
X68857Y-37626D01*
X68876Y-37683D01*
X69105Y-37912D01*
X68857Y-37912D01*
X68686Y-37874D02*
X68667Y-37893D01*
X68686Y-37912D01*
X68705Y-37893D01*
X68686Y-37874D01*
X68686Y-37912D01*
X68286Y-37912D02*
X68515Y-37912D01*
X68401Y-37912D02*
X68401Y-37512D01*
X68439Y-37569D01*
X68477Y-37607D01*
X68515Y-37626D01*
X67810Y-37760D02*
X67505Y-37760D01*
X66934Y-37512D02*
X66857Y-37512D01*
X66819Y-37531D01*
X66781Y-37569D01*
X66762Y-37645D01*
X66762Y-37779D01*
X66781Y-37855D01*
X66819Y-37893D01*
X66857Y-37912D01*
X66934Y-37912D01*
X66972Y-37893D01*
X67010Y-37855D01*
X67029Y-37779D01*
X67029Y-37645D01*
X67010Y-37569D01*
X66972Y-37531D01*
X66934Y-37512D01*
X66591Y-37912D02*
X66591Y-37512D01*
X66362Y-37912D01*
X66362Y-37512D01*
X66172Y-37874D02*
X66153Y-37893D01*
X66172Y-37912D01*
X66191Y-37893D01*
X66172Y-37874D01*
X66172Y-37912D01*
X66172Y-37664D02*
X66153Y-37683D01*
X66172Y-37702D01*
X66191Y-37683D01*
X66172Y-37664D01*
X66172Y-37702D01*
X65677Y-37702D02*
X65543Y-37702D01*
X65486Y-37912D02*
X65677Y-37912D01*
X65677Y-37512D01*
X65486Y-37512D01*
X65315Y-37645D02*
X65315Y-37912D01*
X65315Y-37683D02*
X65296Y-37664D01*
X65258Y-37645D01*
X65200Y-37645D01*
X65162Y-37664D01*
X65143Y-37702D01*
X65143Y-37912D01*
X64781Y-37912D02*
X64781Y-37702D01*
X64800Y-37664D01*
X64838Y-37645D01*
X64915Y-37645D01*
X64953Y-37664D01*
X64781Y-37893D02*
X64819Y-37912D01*
X64915Y-37912D01*
X64953Y-37893D01*
X64972Y-37855D01*
X64972Y-37817D01*
X64953Y-37779D01*
X64915Y-37760D01*
X64819Y-37760D01*
X64781Y-37740D01*
X64591Y-37912D02*
X64591Y-37512D01*
X64591Y-37664D02*
X64553Y-37645D01*
X64476Y-37645D01*
X64438Y-37664D01*
X64419Y-37683D01*
X64400Y-37721D01*
X64400Y-37836D01*
X64419Y-37874D01*
X64438Y-37893D01*
X64476Y-37912D01*
X64553Y-37912D01*
X64591Y-37893D01*
X64172Y-37912D02*
X64210Y-37893D01*
X64229Y-37855D01*
X64229Y-37512D01*
X63866Y-37893D02*
X63904Y-37912D01*
X63981Y-37912D01*
X64019Y-37893D01*
X64038Y-37855D01*
X64038Y-37702D01*
X64019Y-37664D01*
X63981Y-37645D01*
X63904Y-37645D01*
X63866Y-37664D01*
X63847Y-37702D01*
X63847Y-37740D01*
X64038Y-37779D01*
X63371Y-37702D02*
X63237Y-37702D01*
X63180Y-37912D02*
X63371Y-37912D01*
X63371Y-37512D01*
X63180Y-37512D01*
X63009Y-37702D02*
X62875Y-37702D01*
X62818Y-37912D02*
X63009Y-37912D01*
X63009Y-37512D01*
X62818Y-37512D01*
X62647Y-37912D02*
X62647Y-37512D01*
X62494Y-37512D01*
X62456Y-37531D01*
X62437Y-37550D01*
X62418Y-37588D01*
X62418Y-37645D01*
X62437Y-37683D01*
X62456Y-37702D01*
X62494Y-37721D01*
X62647Y-37721D01*
X62018Y-37912D02*
X62152Y-37721D01*
X62247Y-37912D02*
X62247Y-37512D01*
X62094Y-37512D01*
X62056Y-37531D01*
X62037Y-37550D01*
X62018Y-37588D01*
X62018Y-37645D01*
X62037Y-37683D01*
X62056Y-37702D01*
X62094Y-37721D01*
X62247Y-37721D01*
X61771Y-37512D02*
X61694Y-37512D01*
X61656Y-37531D01*
X61618Y-37569D01*
X61599Y-37645D01*
X61599Y-37779D01*
X61618Y-37855D01*
X61656Y-37893D01*
X61694Y-37912D01*
X61771Y-37912D01*
X61809Y-37893D01*
X61847Y-37855D01*
X61866Y-37779D01*
X61866Y-37645D01*
X61847Y-37569D01*
X61809Y-37531D01*
X61771Y-37512D01*
X61428Y-37912D02*
X61428Y-37512D01*
X61294Y-37798D01*
X61161Y-37512D01*
X61161Y-37912D01*
X69924Y-38533D02*
X69867Y-38552D01*
X69771Y-38552D01*
X69733Y-38533D01*
X69714Y-38514D01*
X69695Y-38476D01*
X69695Y-38438D01*
X69714Y-38400D01*
X69733Y-38380D01*
X69771Y-38361D01*
X69848Y-38342D01*
X69886Y-38323D01*
X69905Y-38304D01*
X69924Y-38266D01*
X69924Y-38228D01*
X69905Y-38190D01*
X69886Y-38171D01*
X69848Y-38152D01*
X69752Y-38152D01*
X69695Y-38171D01*
X69562Y-38152D02*
X69467Y-38552D01*
X69390Y-38266D01*
X69314Y-38552D01*
X69219Y-38152D01*
X69086Y-38190D02*
X69067Y-38171D01*
X69029Y-38152D01*
X68933Y-38152D01*
X68895Y-38171D01*
X68876Y-38190D01*
X68857Y-38228D01*
X68857Y-38266D01*
X68876Y-38323D01*
X69105Y-38552D01*
X68857Y-38552D01*
X68686Y-38514D02*
X68667Y-38533D01*
X68686Y-38552D01*
X68705Y-38533D01*
X68686Y-38514D01*
X68686Y-38552D01*
X68515Y-38190D02*
X68496Y-38171D01*
X68458Y-38152D01*
X68362Y-38152D01*
X68324Y-38171D01*
X68305Y-38190D01*
X68286Y-38228D01*
X68286Y-38266D01*
X68305Y-38323D01*
X68534Y-38552D01*
X68286Y-38552D01*
X67810Y-38400D02*
X67505Y-38400D01*
X66934Y-38152D02*
X66857Y-38152D01*
X66819Y-38171D01*
X66781Y-38209D01*
X66762Y-38285D01*
X66762Y-38419D01*
X66781Y-38495D01*
X66819Y-38533D01*
X66857Y-38552D01*
X66934Y-38552D01*
X66972Y-38533D01*
X67010Y-38495D01*
X67029Y-38419D01*
X67029Y-38285D01*
X67010Y-38209D01*
X66972Y-38171D01*
X66934Y-38152D01*
X66591Y-38552D02*
X66591Y-38152D01*
X66362Y-38552D01*
X66362Y-38152D01*
X66172Y-38514D02*
X66153Y-38533D01*
X66172Y-38552D01*
X66191Y-38533D01*
X66172Y-38514D01*
X66172Y-38552D01*
X66172Y-38304D02*
X66153Y-38323D01*
X66172Y-38342D01*
X66191Y-38323D01*
X66172Y-38304D01*
X66172Y-38342D01*
X65677Y-38342D02*
X65543Y-38342D01*
X65486Y-38552D02*
X65677Y-38552D01*
X65677Y-38152D01*
X65486Y-38152D01*
X65315Y-38285D02*
X65315Y-38552D01*
X65315Y-38323D02*
X65296Y-38304D01*
X65258Y-38285D01*
X65200Y-38285D01*
X65162Y-38304D01*
X65143Y-38342D01*
X65143Y-38552D01*
X64781Y-38552D02*
X64781Y-38342D01*
X64800Y-38304D01*
X64838Y-38285D01*
X64915Y-38285D01*
X64953Y-38304D01*
X64781Y-38533D02*
X64819Y-38552D01*
X64915Y-38552D01*
X64953Y-38533D01*
X64972Y-38495D01*
X64972Y-38457D01*
X64953Y-38419D01*
X64915Y-38400D01*
X64819Y-38400D01*
X64781Y-38380D01*
X64591Y-38552D02*
X64591Y-38152D01*
X64591Y-38304D02*
X64553Y-38285D01*
X64476Y-38285D01*
X64438Y-38304D01*
X64419Y-38323D01*
X64400Y-38361D01*
X64400Y-38476D01*
X64419Y-38514D01*
X64438Y-38533D01*
X64476Y-38552D01*
X64553Y-38552D01*
X64591Y-38533D01*
X64172Y-38552D02*
X64210Y-38533D01*
X64229Y-38495D01*
X64229Y-38152D01*
X63866Y-38533D02*
X63904Y-38552D01*
X63981Y-38552D01*
X64019Y-38533D01*
X64038Y-38495D01*
X64038Y-38342D01*
X64019Y-38304D01*
X63981Y-38285D01*
X63904Y-38285D01*
X63866Y-38304D01*
X63847Y-38342D01*
X63847Y-38380D01*
X64038Y-38419D01*
X63371Y-38342D02*
X63237Y-38342D01*
X63180Y-38552D02*
X63371Y-38552D01*
X63371Y-38152D01*
X63180Y-38152D01*
X63009Y-38342D02*
X62875Y-38342D01*
X62818Y-38552D02*
X63009Y-38552D01*
X63009Y-38152D01*
X62818Y-38152D01*
X62647Y-38552D02*
X62647Y-38152D01*
X62494Y-38152D01*
X62456Y-38171D01*
X62437Y-38190D01*
X62418Y-38228D01*
X62418Y-38285D01*
X62437Y-38323D01*
X62456Y-38342D01*
X62494Y-38361D01*
X62647Y-38361D01*
X62018Y-38552D02*
X62152Y-38361D01*
X62247Y-38552D02*
X62247Y-38152D01*
X62094Y-38152D01*
X62056Y-38171D01*
X62037Y-38190D01*
X62018Y-38228D01*
X62018Y-38285D01*
X62037Y-38323D01*
X62056Y-38342D01*
X62094Y-38361D01*
X62247Y-38361D01*
X61771Y-38152D02*
X61694Y-38152D01*
X61656Y-38171D01*
X61618Y-38209D01*
X61599Y-38285D01*
X61599Y-38419D01*
X61618Y-38495D01*
X61656Y-38533D01*
X61694Y-38552D01*
X61771Y-38552D01*
X61809Y-38533D01*
X61847Y-38495D01*
X61866Y-38419D01*
X61866Y-38285D01*
X61847Y-38209D01*
X61809Y-38171D01*
X61771Y-38152D01*
X61428Y-38552D02*
X61428Y-38152D01*
X61294Y-38438D01*
X61161Y-38152D01*
X61161Y-38552D01*
X60704Y-38285D02*
X60628Y-38552D01*
X60551Y-38361D01*
X60475Y-38552D01*
X60399Y-38285D01*
X60247Y-38552D02*
X60247Y-38285D01*
X60247Y-38361D02*
X60228Y-38323D01*
X60209Y-38304D01*
X60171Y-38285D01*
X60132Y-38285D01*
X59999Y-38552D02*
X59999Y-38285D01*
X59999Y-38152D02*
X60018Y-38171D01*
X59999Y-38190D01*
X59980Y-38171D01*
X59999Y-38152D01*
X59999Y-38190D01*
X59866Y-38285D02*
X59714Y-38285D01*
X59809Y-38152D02*
X59809Y-38495D01*
X59790Y-38533D01*
X59752Y-38552D01*
X59714Y-38552D01*
X59427Y-38533D02*
X59465Y-38552D01*
X59542Y-38552D01*
X59580Y-38533D01*
X59599Y-38495D01*
X59599Y-38342D01*
X59580Y-38304D01*
X59542Y-38285D01*
X59465Y-38285D01*
X59427Y-38304D01*
X59408Y-38342D01*
X59408Y-38380D01*
X59599Y-38419D01*
X69924Y-40018D02*
X69867Y-40037D01*
X69771Y-40037D01*
X69733Y-40018D01*
X69714Y-39999D01*
X69695Y-39961D01*
X69695Y-39923D01*
X69714Y-39885D01*
X69733Y-39865D01*
X69771Y-39846D01*
X69848Y-39827D01*
X69886Y-39808D01*
X69905Y-39789D01*
X69924Y-39751D01*
X69924Y-39713D01*
X69905Y-39675D01*
X69886Y-39656D01*
X69848Y-39637D01*
X69752Y-39637D01*
X69695Y-39656D01*
X69562Y-39637D02*
X69467Y-40037D01*
X69390Y-39751D01*
X69314Y-40037D01*
X69219Y-39637D01*
X69086Y-39675D02*
X69067Y-39656D01*
X69029Y-39637D01*
X68933Y-39637D01*
X68895Y-39656D01*
X68876Y-39675D01*
X68857Y-39713D01*
X68857Y-39751D01*
X68876Y-39808D01*
X69105Y-40037D01*
X68857Y-40037D01*
X68686Y-39999D02*
X68667Y-40018D01*
X68686Y-40037D01*
X68705Y-40018D01*
X68686Y-39999D01*
X68686Y-40037D01*
X68534Y-39637D02*
X68286Y-39637D01*
X68420Y-39789D01*
X68362Y-39789D01*
X68324Y-39808D01*
X68305Y-39827D01*
X68286Y-39865D01*
X68286Y-39961D01*
X68305Y-39999D01*
X68324Y-40018D01*
X68362Y-40037D01*
X68477Y-40037D01*
X68515Y-40018D01*
X68534Y-39999D01*
X67810Y-39885D02*
X67505Y-39885D01*
X66934Y-39637D02*
X66857Y-39637D01*
X66819Y-39656D01*
X66781Y-39694D01*
X66762Y-39770D01*
X66762Y-39904D01*
X66781Y-39980D01*
X66819Y-40018D01*
X66857Y-40037D01*
X66934Y-40037D01*
X66972Y-40018D01*
X67010Y-39980D01*
X67029Y-39904D01*
X67029Y-39770D01*
X67010Y-39694D01*
X66972Y-39656D01*
X66934Y-39637D01*
X66591Y-40037D02*
X66591Y-39637D01*
X66362Y-40037D01*
X66362Y-39637D01*
X66172Y-39999D02*
X66153Y-40018D01*
X66172Y-40037D01*
X66191Y-40018D01*
X66172Y-39999D01*
X66172Y-40037D01*
X66172Y-39789D02*
X66153Y-39808D01*
X66172Y-39827D01*
X66191Y-39808D01*
X66172Y-39789D01*
X66172Y-39827D01*
X65448Y-40037D02*
X65582Y-39846D01*
X65677Y-40037D02*
X65677Y-39637D01*
X65524Y-39637D01*
X65486Y-39656D01*
X65467Y-39675D01*
X65448Y-39713D01*
X65448Y-39770D01*
X65467Y-39808D01*
X65486Y-39827D01*
X65524Y-39846D01*
X65677Y-39846D01*
X65201Y-39637D02*
X65124Y-39637D01*
X65086Y-39656D01*
X65048Y-39694D01*
X65029Y-39770D01*
X65029Y-39904D01*
X65048Y-39980D01*
X65086Y-40018D01*
X65124Y-40037D01*
X65201Y-40037D01*
X65239Y-40018D01*
X65277Y-39980D01*
X65296Y-39904D01*
X65296Y-39770D01*
X65277Y-39694D01*
X65239Y-39656D01*
X65201Y-39637D01*
X64858Y-40037D02*
X64858Y-39637D01*
X64724Y-39923D01*
X64591Y-39637D01*
X64591Y-40037D01*
X64115Y-39923D02*
X63924Y-39923D01*
X64153Y-40037D02*
X64020Y-39637D01*
X63886Y-40037D01*
X63543Y-40037D02*
X63772Y-40037D01*
X63658Y-40037D02*
X63658Y-39637D01*
X63696Y-39694D01*
X63734Y-39732D01*
X63772Y-39751D01*
X63410Y-39637D02*
X63143Y-39637D01*
X63315Y-40037D01*
X62686Y-39827D02*
X62381Y-39827D01*
X62381Y-39942D02*
X62686Y-39942D01*
X61810Y-39637D02*
X61771Y-39637D01*
X61733Y-39656D01*
X61714Y-39675D01*
X61695Y-39713D01*
X61676Y-39789D01*
X61676Y-39885D01*
X61695Y-39961D01*
X61714Y-39999D01*
X61733Y-40018D01*
X61771Y-40037D01*
X61810Y-40037D01*
X61848Y-40018D01*
X61867Y-39999D01*
X61886Y-39961D01*
X61905Y-39885D01*
X61905Y-39789D01*
X61886Y-39713D01*
X61867Y-39675D01*
X61848Y-39656D01*
X61810Y-39637D01*
X61486Y-40018D02*
X61486Y-40037D01*
X61505Y-40075D01*
X61524Y-40094D01*
X61505Y-39789D02*
X61486Y-39808D01*
X61505Y-39827D01*
X61524Y-39808D01*
X61505Y-39789D01*
X61505Y-39827D01*
X60934Y-39637D02*
X60857Y-39637D01*
X60819Y-39656D01*
X60781Y-39694D01*
X60762Y-39770D01*
X60762Y-39904D01*
X60781Y-39980D01*
X60819Y-40018D01*
X60857Y-40037D01*
X60934Y-40037D01*
X60972Y-40018D01*
X61010Y-39980D01*
X61029Y-39904D01*
X61029Y-39770D01*
X61010Y-39694D01*
X60972Y-39656D01*
X60934Y-39637D01*
X60457Y-39827D02*
X60591Y-39827D01*
X60591Y-40037D02*
X60591Y-39637D01*
X60400Y-39637D01*
X60114Y-39827D02*
X60248Y-39827D01*
X60248Y-40037D02*
X60248Y-39637D01*
X60057Y-39637D01*
X59905Y-39999D02*
X59886Y-40018D01*
X59905Y-40037D01*
X59924Y-40018D01*
X59905Y-39999D01*
X59905Y-40037D01*
X59905Y-39789D02*
X59886Y-39808D01*
X59905Y-39827D01*
X59924Y-39808D01*
X59905Y-39789D01*
X59905Y-39827D01*
X59181Y-40037D02*
X59315Y-39846D01*
X59410Y-40037D02*
X59410Y-39637D01*
X59257Y-39637D01*
X59219Y-39656D01*
X59200Y-39675D01*
X59181Y-39713D01*
X59181Y-39770D01*
X59200Y-39808D01*
X59219Y-39827D01*
X59257Y-39846D01*
X59410Y-39846D01*
X58934Y-39637D02*
X58857Y-39637D01*
X58819Y-39656D01*
X58781Y-39694D01*
X58762Y-39770D01*
X58762Y-39904D01*
X58781Y-39980D01*
X58819Y-40018D01*
X58857Y-40037D01*
X58934Y-40037D01*
X58972Y-40018D01*
X59010Y-39980D01*
X59029Y-39904D01*
X59029Y-39770D01*
X59010Y-39694D01*
X58972Y-39656D01*
X58934Y-39637D01*
X58591Y-40037D02*
X58591Y-39637D01*
X58457Y-39923D01*
X58324Y-39637D01*
X58324Y-40037D01*
X57848Y-39923D02*
X57657Y-39923D01*
X57886Y-40037D02*
X57753Y-39637D01*
X57619Y-40037D01*
X57276Y-40037D02*
X57505Y-40037D01*
X57391Y-40037D02*
X57391Y-39637D01*
X57429Y-39694D01*
X57467Y-39732D01*
X57505Y-39751D01*
X57143Y-39637D02*
X56876Y-39637D01*
X57048Y-40037D01*
X56419Y-39827D02*
X56114Y-39827D01*
X56114Y-39942D02*
X56419Y-39942D01*
X55409Y-40037D02*
X55638Y-40037D01*
X55524Y-40037D02*
X55524Y-39637D01*
X55562Y-39694D01*
X55600Y-39732D01*
X55638Y-39751D01*
X69924Y-40658D02*
X69867Y-40677D01*
X69771Y-40677D01*
X69733Y-40658D01*
X69714Y-40639D01*
X69695Y-40601D01*
X69695Y-40563D01*
X69714Y-40525D01*
X69733Y-40505D01*
X69771Y-40486D01*
X69848Y-40467D01*
X69886Y-40448D01*
X69905Y-40429D01*
X69924Y-40391D01*
X69924Y-40353D01*
X69905Y-40315D01*
X69886Y-40296D01*
X69848Y-40277D01*
X69752Y-40277D01*
X69695Y-40296D01*
X69562Y-40277D02*
X69467Y-40677D01*
X69390Y-40391D01*
X69314Y-40677D01*
X69219Y-40277D01*
X69086Y-40315D02*
X69067Y-40296D01*
X69029Y-40277D01*
X68933Y-40277D01*
X68895Y-40296D01*
X68876Y-40315D01*
X68857Y-40353D01*
X68857Y-40391D01*
X68876Y-40448D01*
X69105Y-40677D01*
X68857Y-40677D01*
X68686Y-40639D02*
X68667Y-40658D01*
X68686Y-40677D01*
X68705Y-40658D01*
X68686Y-40639D01*
X68686Y-40677D01*
X68324Y-40410D02*
X68324Y-40677D01*
X68420Y-40258D02*
X68515Y-40544D01*
X68267Y-40544D01*
X67810Y-40525D02*
X67505Y-40525D01*
X66934Y-40277D02*
X66857Y-40277D01*
X66819Y-40296D01*
X66781Y-40334D01*
X66762Y-40410D01*
X66762Y-40544D01*
X66781Y-40620D01*
X66819Y-40658D01*
X66857Y-40677D01*
X66934Y-40677D01*
X66972Y-40658D01*
X67010Y-40620D01*
X67029Y-40544D01*
X67029Y-40410D01*
X67010Y-40334D01*
X66972Y-40296D01*
X66934Y-40277D01*
X66591Y-40677D02*
X66591Y-40277D01*
X66362Y-40677D01*
X66362Y-40277D01*
X66172Y-40639D02*
X66153Y-40658D01*
X66172Y-40677D01*
X66191Y-40658D01*
X66172Y-40639D01*
X66172Y-40677D01*
X66172Y-40429D02*
X66153Y-40448D01*
X66172Y-40467D01*
X66191Y-40448D01*
X66172Y-40429D01*
X66172Y-40467D01*
X65448Y-40677D02*
X65582Y-40486D01*
X65677Y-40677D02*
X65677Y-40277D01*
X65524Y-40277D01*
X65486Y-40296D01*
X65467Y-40315D01*
X65448Y-40353D01*
X65448Y-40410D01*
X65467Y-40448D01*
X65486Y-40467D01*
X65524Y-40486D01*
X65677Y-40486D01*
X65201Y-40277D02*
X65124Y-40277D01*
X65086Y-40296D01*
X65048Y-40334D01*
X65029Y-40410D01*
X65029Y-40544D01*
X65048Y-40620D01*
X65086Y-40658D01*
X65124Y-40677D01*
X65201Y-40677D01*
X65239Y-40658D01*
X65277Y-40620D01*
X65296Y-40544D01*
X65296Y-40410D01*
X65277Y-40334D01*
X65239Y-40296D01*
X65201Y-40277D01*
X64858Y-40677D02*
X64858Y-40277D01*
X64724Y-40563D01*
X64591Y-40277D01*
X64591Y-40677D01*
X64115Y-40563D02*
X63924Y-40563D01*
X64153Y-40677D02*
X64020Y-40277D01*
X63886Y-40677D01*
X63543Y-40677D02*
X63772Y-40677D01*
X63658Y-40677D02*
X63658Y-40277D01*
X63696Y-40334D01*
X63734Y-40372D01*
X63772Y-40391D01*
X63200Y-40277D02*
X63277Y-40277D01*
X63315Y-40296D01*
X63334Y-40315D01*
X63372Y-40372D01*
X63391Y-40448D01*
X63391Y-40601D01*
X63372Y-40639D01*
X63353Y-40658D01*
X63315Y-40677D01*
X63238Y-40677D01*
X63200Y-40658D01*
X63181Y-40639D01*
X63162Y-40601D01*
X63162Y-40505D01*
X63181Y-40467D01*
X63200Y-40448D01*
X63238Y-40429D01*
X63315Y-40429D01*
X63353Y-40448D01*
X63372Y-40467D01*
X63391Y-40505D01*
X62686Y-40467D02*
X62381Y-40467D01*
X62381Y-40582D02*
X62686Y-40582D01*
X61810Y-40277D02*
X61771Y-40277D01*
X61733Y-40296D01*
X61714Y-40315D01*
X61695Y-40353D01*
X61676Y-40429D01*
X61676Y-40525D01*
X61695Y-40601D01*
X61714Y-40639D01*
X61733Y-40658D01*
X61771Y-40677D01*
X61810Y-40677D01*
X61848Y-40658D01*
X61867Y-40639D01*
X61886Y-40601D01*
X61905Y-40525D01*
X61905Y-40429D01*
X61886Y-40353D01*
X61867Y-40315D01*
X61848Y-40296D01*
X61810Y-40277D01*
X61486Y-40658D02*
X61486Y-40677D01*
X61505Y-40715D01*
X61524Y-40734D01*
X61505Y-40429D02*
X61486Y-40448D01*
X61505Y-40467D01*
X61524Y-40448D01*
X61505Y-40429D01*
X61505Y-40467D01*
X60934Y-40277D02*
X60857Y-40277D01*
X60819Y-40296D01*
X60781Y-40334D01*
X60762Y-40410D01*
X60762Y-40544D01*
X60781Y-40620D01*
X60819Y-40658D01*
X60857Y-40677D01*
X60934Y-40677D01*
X60972Y-40658D01*
X61010Y-40620D01*
X61029Y-40544D01*
X61029Y-40410D01*
X61010Y-40334D01*
X60972Y-40296D01*
X60934Y-40277D01*
X60457Y-40467D02*
X60591Y-40467D01*
X60591Y-40677D02*
X60591Y-40277D01*
X60400Y-40277D01*
X60114Y-40467D02*
X60248Y-40467D01*
X60248Y-40677D02*
X60248Y-40277D01*
X60057Y-40277D01*
X59905Y-40639D02*
X59886Y-40658D01*
X59905Y-40677D01*
X59924Y-40658D01*
X59905Y-40639D01*
X59905Y-40677D01*
X59905Y-40429D02*
X59886Y-40448D01*
X59905Y-40467D01*
X59924Y-40448D01*
X59905Y-40429D01*
X59905Y-40467D01*
X59181Y-40677D02*
X59315Y-40486D01*
X59410Y-40677D02*
X59410Y-40277D01*
X59257Y-40277D01*
X59219Y-40296D01*
X59200Y-40315D01*
X59181Y-40353D01*
X59181Y-40410D01*
X59200Y-40448D01*
X59219Y-40467D01*
X59257Y-40486D01*
X59410Y-40486D01*
X58934Y-40277D02*
X58857Y-40277D01*
X58819Y-40296D01*
X58781Y-40334D01*
X58762Y-40410D01*
X58762Y-40544D01*
X58781Y-40620D01*
X58819Y-40658D01*
X58857Y-40677D01*
X58934Y-40677D01*
X58972Y-40658D01*
X59010Y-40620D01*
X59029Y-40544D01*
X59029Y-40410D01*
X59010Y-40334D01*
X58972Y-40296D01*
X58934Y-40277D01*
X58591Y-40677D02*
X58591Y-40277D01*
X58457Y-40563D01*
X58324Y-40277D01*
X58324Y-40677D01*
X57848Y-40563D02*
X57657Y-40563D01*
X57886Y-40677D02*
X57753Y-40277D01*
X57619Y-40677D01*
X57276Y-40677D02*
X57505Y-40677D01*
X57391Y-40677D02*
X57391Y-40277D01*
X57429Y-40334D01*
X57467Y-40372D01*
X57505Y-40391D01*
X56933Y-40277D02*
X57010Y-40277D01*
X57048Y-40296D01*
X57067Y-40315D01*
X57105Y-40372D01*
X57124Y-40448D01*
X57124Y-40601D01*
X57105Y-40639D01*
X57086Y-40658D01*
X57048Y-40677D01*
X56971Y-40677D01*
X56933Y-40658D01*
X56914Y-40639D01*
X56895Y-40601D01*
X56895Y-40505D01*
X56914Y-40467D01*
X56933Y-40448D01*
X56971Y-40429D01*
X57048Y-40429D01*
X57086Y-40448D01*
X57105Y-40467D01*
X57124Y-40505D01*
X56419Y-40467D02*
X56114Y-40467D01*
X56114Y-40582D02*
X56419Y-40582D01*
X55409Y-40677D02*
X55638Y-40677D01*
X55524Y-40677D02*
X55524Y-40277D01*
X55562Y-40334D01*
X55600Y-40372D01*
X55638Y-40391D01*
X69924Y-41298D02*
X69867Y-41317D01*
X69771Y-41317D01*
X69733Y-41298D01*
X69714Y-41279D01*
X69695Y-41241D01*
X69695Y-41203D01*
X69714Y-41165D01*
X69733Y-41145D01*
X69771Y-41126D01*
X69848Y-41107D01*
X69886Y-41088D01*
X69905Y-41069D01*
X69924Y-41031D01*
X69924Y-40993D01*
X69905Y-40955D01*
X69886Y-40936D01*
X69848Y-40917D01*
X69752Y-40917D01*
X69695Y-40936D01*
X69562Y-40917D02*
X69467Y-41317D01*
X69390Y-41031D01*
X69314Y-41317D01*
X69219Y-40917D01*
X69086Y-40955D02*
X69067Y-40936D01*
X69029Y-40917D01*
X68933Y-40917D01*
X68895Y-40936D01*
X68876Y-40955D01*
X68857Y-40993D01*
X68857Y-41031D01*
X68876Y-41088D01*
X69105Y-41317D01*
X68857Y-41317D01*
X68686Y-41279D02*
X68667Y-41298D01*
X68686Y-41317D01*
X68705Y-41298D01*
X68686Y-41279D01*
X68686Y-41317D01*
X68305Y-40917D02*
X68496Y-40917D01*
X68515Y-41107D01*
X68496Y-41088D01*
X68458Y-41069D01*
X68362Y-41069D01*
X68324Y-41088D01*
X68305Y-41107D01*
X68286Y-41145D01*
X68286Y-41241D01*
X68305Y-41279D01*
X68324Y-41298D01*
X68362Y-41317D01*
X68458Y-41317D01*
X68496Y-41298D01*
X68515Y-41279D01*
X67810Y-41165D02*
X67505Y-41165D01*
X66934Y-40917D02*
X66857Y-40917D01*
X66819Y-40936D01*
X66781Y-40974D01*
X66762Y-41050D01*
X66762Y-41184D01*
X66781Y-41260D01*
X66819Y-41298D01*
X66857Y-41317D01*
X66934Y-41317D01*
X66972Y-41298D01*
X67010Y-41260D01*
X67029Y-41184D01*
X67029Y-41050D01*
X67010Y-40974D01*
X66972Y-40936D01*
X66934Y-40917D01*
X66591Y-41317D02*
X66591Y-40917D01*
X66362Y-41317D01*
X66362Y-40917D01*
X66172Y-41279D02*
X66153Y-41298D01*
X66172Y-41317D01*
X66191Y-41298D01*
X66172Y-41279D01*
X66172Y-41317D01*
X66172Y-41069D02*
X66153Y-41088D01*
X66172Y-41107D01*
X66191Y-41088D01*
X66172Y-41069D01*
X66172Y-41107D01*
X65448Y-41317D02*
X65582Y-41126D01*
X65677Y-41317D02*
X65677Y-40917D01*
X65524Y-40917D01*
X65486Y-40936D01*
X65467Y-40955D01*
X65448Y-40993D01*
X65448Y-41050D01*
X65467Y-41088D01*
X65486Y-41107D01*
X65524Y-41126D01*
X65677Y-41126D01*
X65201Y-40917D02*
X65124Y-40917D01*
X65086Y-40936D01*
X65048Y-40974D01*
X65029Y-41050D01*
X65029Y-41184D01*
X65048Y-41260D01*
X65086Y-41298D01*
X65124Y-41317D01*
X65201Y-41317D01*
X65239Y-41298D01*
X65277Y-41260D01*
X65296Y-41184D01*
X65296Y-41050D01*
X65277Y-40974D01*
X65239Y-40936D01*
X65201Y-40917D01*
X64858Y-41317D02*
X64858Y-40917D01*
X64724Y-41203D01*
X64591Y-40917D01*
X64591Y-41317D01*
X64115Y-41203D02*
X63924Y-41203D01*
X64153Y-41317D02*
X64020Y-40917D01*
X63886Y-41317D01*
X63543Y-41317D02*
X63772Y-41317D01*
X63658Y-41317D02*
X63658Y-40917D01*
X63696Y-40974D01*
X63734Y-41012D01*
X63772Y-41031D01*
X63181Y-40917D02*
X63372Y-40917D01*
X63391Y-41107D01*
X63372Y-41088D01*
X63334Y-41069D01*
X63238Y-41069D01*
X63200Y-41088D01*
X63181Y-41107D01*
X63162Y-41145D01*
X63162Y-41241D01*
X63181Y-41279D01*
X63200Y-41298D01*
X63238Y-41317D01*
X63334Y-41317D01*
X63372Y-41298D01*
X63391Y-41279D01*
X62686Y-41107D02*
X62381Y-41107D01*
X62381Y-41222D02*
X62686Y-41222D01*
X61810Y-40917D02*
X61771Y-40917D01*
X61733Y-40936D01*
X61714Y-40955D01*
X61695Y-40993D01*
X61676Y-41069D01*
X61676Y-41165D01*
X61695Y-41241D01*
X61714Y-41279D01*
X61733Y-41298D01*
X61771Y-41317D01*
X61810Y-41317D01*
X61848Y-41298D01*
X61867Y-41279D01*
X61886Y-41241D01*
X61905Y-41165D01*
X61905Y-41069D01*
X61886Y-40993D01*
X61867Y-40955D01*
X61848Y-40936D01*
X61810Y-40917D01*
X61486Y-41298D02*
X61486Y-41317D01*
X61505Y-41355D01*
X61524Y-41374D01*
X61505Y-41069D02*
X61486Y-41088D01*
X61505Y-41107D01*
X61524Y-41088D01*
X61505Y-41069D01*
X61505Y-41107D01*
X60934Y-40917D02*
X60857Y-40917D01*
X60819Y-40936D01*
X60781Y-40974D01*
X60762Y-41050D01*
X60762Y-41184D01*
X60781Y-41260D01*
X60819Y-41298D01*
X60857Y-41317D01*
X60934Y-41317D01*
X60972Y-41298D01*
X61010Y-41260D01*
X61029Y-41184D01*
X61029Y-41050D01*
X61010Y-40974D01*
X60972Y-40936D01*
X60934Y-40917D01*
X60457Y-41107D02*
X60591Y-41107D01*
X60591Y-41317D02*
X60591Y-40917D01*
X60400Y-40917D01*
X60114Y-41107D02*
X60248Y-41107D01*
X60248Y-41317D02*
X60248Y-40917D01*
X60057Y-40917D01*
X59905Y-41279D02*
X59886Y-41298D01*
X59905Y-41317D01*
X59924Y-41298D01*
X59905Y-41279D01*
X59905Y-41317D01*
X59905Y-41069D02*
X59886Y-41088D01*
X59905Y-41107D01*
X59924Y-41088D01*
X59905Y-41069D01*
X59905Y-41107D01*
X59181Y-41317D02*
X59315Y-41126D01*
X59410Y-41317D02*
X59410Y-40917D01*
X59257Y-40917D01*
X59219Y-40936D01*
X59200Y-40955D01*
X59181Y-40993D01*
X59181Y-41050D01*
X59200Y-41088D01*
X59219Y-41107D01*
X59257Y-41126D01*
X59410Y-41126D01*
X58934Y-40917D02*
X58857Y-40917D01*
X58819Y-40936D01*
X58781Y-40974D01*
X58762Y-41050D01*
X58762Y-41184D01*
X58781Y-41260D01*
X58819Y-41298D01*
X58857Y-41317D01*
X58934Y-41317D01*
X58972Y-41298D01*
X59010Y-41260D01*
X59029Y-41184D01*
X59029Y-41050D01*
X59010Y-40974D01*
X58972Y-40936D01*
X58934Y-40917D01*
X58591Y-41317D02*
X58591Y-40917D01*
X58457Y-41203D01*
X58324Y-40917D01*
X58324Y-41317D01*
X57848Y-41203D02*
X57657Y-41203D01*
X57886Y-41317D02*
X57753Y-40917D01*
X57619Y-41317D01*
X57276Y-41317D02*
X57505Y-41317D01*
X57391Y-41317D02*
X57391Y-40917D01*
X57429Y-40974D01*
X57467Y-41012D01*
X57505Y-41031D01*
X56914Y-40917D02*
X57105Y-40917D01*
X57124Y-41107D01*
X57105Y-41088D01*
X57067Y-41069D01*
X56971Y-41069D01*
X56933Y-41088D01*
X56914Y-41107D01*
X56895Y-41145D01*
X56895Y-41241D01*
X56914Y-41279D01*
X56933Y-41298D01*
X56971Y-41317D01*
X57067Y-41317D01*
X57105Y-41298D01*
X57124Y-41279D01*
X56419Y-41107D02*
X56114Y-41107D01*
X56114Y-41222D02*
X56419Y-41222D01*
X55409Y-41317D02*
X55638Y-41317D01*
X55524Y-41317D02*
X55524Y-40917D01*
X55562Y-40974D01*
X55600Y-41012D01*
X55638Y-41031D01*
X69924Y-31893D02*
X69867Y-31912D01*
X69771Y-31912D01*
X69733Y-31893D01*
X69714Y-31874D01*
X69695Y-31836D01*
X69695Y-31798D01*
X69714Y-31760D01*
X69733Y-31740D01*
X69771Y-31721D01*
X69848Y-31702D01*
X69886Y-31683D01*
X69905Y-31664D01*
X69924Y-31626D01*
X69924Y-31588D01*
X69905Y-31550D01*
X69886Y-31531D01*
X69848Y-31512D01*
X69752Y-31512D01*
X69695Y-31531D01*
X69562Y-31512D02*
X69467Y-31912D01*
X69390Y-31626D01*
X69314Y-31912D01*
X69219Y-31512D01*
X68857Y-31912D02*
X69086Y-31912D01*
X68972Y-31912D02*
X68972Y-31512D01*
X69010Y-31569D01*
X69048Y-31607D01*
X69086Y-31626D01*
X68686Y-31874D02*
X68667Y-31893D01*
X68686Y-31912D01*
X68705Y-31893D01*
X68686Y-31874D01*
X68686Y-31912D01*
X68286Y-31912D02*
X68515Y-31912D01*
X68401Y-31912D02*
X68401Y-31512D01*
X68439Y-31569D01*
X68477Y-31607D01*
X68515Y-31626D01*
X67810Y-31760D02*
X67505Y-31760D01*
X66934Y-31512D02*
X66857Y-31512D01*
X66819Y-31531D01*
X66781Y-31569D01*
X66762Y-31645D01*
X66762Y-31779D01*
X66781Y-31855D01*
X66819Y-31893D01*
X66857Y-31912D01*
X66934Y-31912D01*
X66972Y-31893D01*
X67010Y-31855D01*
X67029Y-31779D01*
X67029Y-31645D01*
X67010Y-31569D01*
X66972Y-31531D01*
X66934Y-31512D01*
X66591Y-31912D02*
X66591Y-31512D01*
X66362Y-31912D01*
X66362Y-31512D01*
X66172Y-31874D02*
X66153Y-31893D01*
X66172Y-31912D01*
X66191Y-31893D01*
X66172Y-31874D01*
X66172Y-31912D01*
X66172Y-31664D02*
X66153Y-31683D01*
X66172Y-31702D01*
X66191Y-31683D01*
X66172Y-31664D01*
X66172Y-31702D01*
X65696Y-31893D02*
X65639Y-31912D01*
X65543Y-31912D01*
X65505Y-31893D01*
X65486Y-31874D01*
X65467Y-31836D01*
X65467Y-31798D01*
X65486Y-31760D01*
X65505Y-31740D01*
X65543Y-31721D01*
X65620Y-31702D01*
X65658Y-31683D01*
X65677Y-31664D01*
X65696Y-31626D01*
X65696Y-31588D01*
X65677Y-31550D01*
X65658Y-31531D01*
X65620Y-31512D01*
X65524Y-31512D01*
X65467Y-31531D01*
X65143Y-31893D02*
X65181Y-31912D01*
X65258Y-31912D01*
X65296Y-31893D01*
X65315Y-31855D01*
X65315Y-31702D01*
X65296Y-31664D01*
X65258Y-31645D01*
X65181Y-31645D01*
X65143Y-31664D01*
X65124Y-31702D01*
X65124Y-31740D01*
X65315Y-31779D01*
X65010Y-31645D02*
X64858Y-31645D01*
X64953Y-31512D02*
X64953Y-31855D01*
X64934Y-31893D01*
X64896Y-31912D01*
X64858Y-31912D01*
X64419Y-31512D02*
X64419Y-31836D01*
X64400Y-31874D01*
X64381Y-31893D01*
X64343Y-31912D01*
X64266Y-31912D01*
X64228Y-31893D01*
X64209Y-31874D01*
X64190Y-31836D01*
X64190Y-31512D01*
X64019Y-31798D02*
X63828Y-31798D01*
X64057Y-31912D02*
X63924Y-31512D01*
X63790Y-31912D01*
X63428Y-31912D02*
X63562Y-31721D01*
X63657Y-31912D02*
X63657Y-31512D01*
X63504Y-31512D01*
X63466Y-31531D01*
X63447Y-31550D01*
X63428Y-31588D01*
X63428Y-31645D01*
X63447Y-31683D01*
X63466Y-31702D01*
X63504Y-31721D01*
X63657Y-31721D01*
X63314Y-31512D02*
X63085Y-31512D01*
X63200Y-31912D02*
X63200Y-31512D01*
X62475Y-31912D02*
X62475Y-31702D01*
X62494Y-31664D01*
X62532Y-31645D01*
X62609Y-31645D01*
X62647Y-31664D01*
X62475Y-31893D02*
X62513Y-31912D01*
X62609Y-31912D01*
X62647Y-31893D01*
X62666Y-31855D01*
X62666Y-31817D01*
X62647Y-31779D01*
X62609Y-31760D01*
X62513Y-31760D01*
X62475Y-31740D01*
X62113Y-31912D02*
X62113Y-31512D01*
X62113Y-31893D02*
X62151Y-31912D01*
X62228Y-31912D01*
X62266Y-31893D01*
X62285Y-31874D01*
X62304Y-31836D01*
X62304Y-31721D01*
X62285Y-31683D01*
X62266Y-31664D01*
X62228Y-31645D01*
X62151Y-31645D01*
X62113Y-31664D01*
X61751Y-31912D02*
X61751Y-31512D01*
X61751Y-31893D02*
X61789Y-31912D01*
X61866Y-31912D01*
X61904Y-31893D01*
X61923Y-31874D01*
X61942Y-31836D01*
X61942Y-31721D01*
X61923Y-31683D01*
X61904Y-31664D01*
X61866Y-31645D01*
X61789Y-31645D01*
X61751Y-31664D01*
X61561Y-31912D02*
X61561Y-31645D01*
X61561Y-31721D02*
X61542Y-31683D01*
X61523Y-31664D01*
X61485Y-31645D01*
X61446Y-31645D01*
X61160Y-31893D02*
X61198Y-31912D01*
X61275Y-31912D01*
X61313Y-31893D01*
X61332Y-31855D01*
X61332Y-31702D01*
X61313Y-31664D01*
X61275Y-31645D01*
X61198Y-31645D01*
X61160Y-31664D01*
X61141Y-31702D01*
X61141Y-31740D01*
X61332Y-31779D01*
X60989Y-31893D02*
X60951Y-31912D01*
X60875Y-31912D01*
X60836Y-31893D01*
X60817Y-31855D01*
X60817Y-31836D01*
X60836Y-31798D01*
X60875Y-31779D01*
X60932Y-31779D01*
X60970Y-31760D01*
X60989Y-31721D01*
X60989Y-31702D01*
X60970Y-31664D01*
X60932Y-31645D01*
X60875Y-31645D01*
X60836Y-31664D01*
X60665Y-31893D02*
X60627Y-31912D01*
X60551Y-31912D01*
X60512Y-31893D01*
X60493Y-31855D01*
X60493Y-31836D01*
X60512Y-31798D01*
X60551Y-31779D01*
X60608Y-31779D01*
X60646Y-31760D01*
X60665Y-31721D01*
X60665Y-31702D01*
X60646Y-31664D01*
X60608Y-31645D01*
X60551Y-31645D01*
X60512Y-31664D01*
X60074Y-31645D02*
X59922Y-31645D01*
X60017Y-31512D02*
X60017Y-31855D01*
X59998Y-31893D01*
X59960Y-31912D01*
X59922Y-31912D01*
X59731Y-31912D02*
X59769Y-31893D01*
X59788Y-31874D01*
X59807Y-31836D01*
X59807Y-31721D01*
X59788Y-31683D01*
X59769Y-31664D01*
X59731Y-31645D01*
X59673Y-31645D01*
X59635Y-31664D01*
X59616Y-31683D01*
X59597Y-31721D01*
X59597Y-31836D01*
X59616Y-31874D01*
X59635Y-31893D01*
X59673Y-31912D01*
X59731Y-31912D01*
X59045Y-31512D02*
X59006Y-31512D01*
X58968Y-31531D01*
X58949Y-31550D01*
X58930Y-31588D01*
X58911Y-31664D01*
X58911Y-31760D01*
X58930Y-31836D01*
X58949Y-31874D01*
X58968Y-31893D01*
X59006Y-31912D01*
X59045Y-31912D01*
X59083Y-31893D01*
X59102Y-31874D01*
X59121Y-31836D01*
X59140Y-31760D01*
X59140Y-31664D01*
X59121Y-31588D01*
X59102Y-31550D01*
X59083Y-31531D01*
X59045Y-31512D01*
X58778Y-31912D02*
X58568Y-31645D01*
X58778Y-31645D02*
X58568Y-31912D01*
X58435Y-31550D02*
X58416Y-31531D01*
X58378Y-31512D01*
X58282Y-31512D01*
X58244Y-31531D01*
X58225Y-31550D01*
X58206Y-31588D01*
X58206Y-31626D01*
X58225Y-31683D01*
X58454Y-31912D01*
X58206Y-31912D01*
X58035Y-31702D02*
X57901Y-31702D01*
X57844Y-31912D02*
X58035Y-31912D01*
X58035Y-31512D01*
X57844Y-31512D01*
X57616Y-31683D02*
X57654Y-31664D01*
X57673Y-31645D01*
X57692Y-31607D01*
X57692Y-31588D01*
X57673Y-31550D01*
X57654Y-31531D01*
X57616Y-31512D01*
X57539Y-31512D01*
X57501Y-31531D01*
X57482Y-31550D01*
X57463Y-31588D01*
X57463Y-31607D01*
X57482Y-31645D01*
X57501Y-31664D01*
X57539Y-31683D01*
X57616Y-31683D01*
X57654Y-31702D01*
X57673Y-31721D01*
X57692Y-31760D01*
X57692Y-31836D01*
X57673Y-31874D01*
X57654Y-31893D01*
X57616Y-31912D01*
X57539Y-31912D01*
X57501Y-31893D01*
X57482Y-31874D01*
X57463Y-31836D01*
X57463Y-31760D01*
X57482Y-31721D01*
X57501Y-31702D01*
X57539Y-31683D01*
X56872Y-32064D02*
X56892Y-32045D01*
X56930Y-31988D01*
X56949Y-31950D01*
X56968Y-31893D01*
X56987Y-31798D01*
X56987Y-31721D01*
X56968Y-31626D01*
X56949Y-31569D01*
X56930Y-31531D01*
X56892Y-31474D01*
X56872Y-31455D01*
X56491Y-31874D02*
X56510Y-31893D01*
X56567Y-31912D01*
X56605Y-31912D01*
X56663Y-31893D01*
X56701Y-31855D01*
X56720Y-31817D01*
X56739Y-31740D01*
X56739Y-31683D01*
X56720Y-31607D01*
X56701Y-31569D01*
X56663Y-31531D01*
X56605Y-31512D01*
X56567Y-31512D01*
X56510Y-31531D01*
X56491Y-31550D01*
X56244Y-31512D02*
X56167Y-31512D01*
X56129Y-31531D01*
X56091Y-31569D01*
X56072Y-31645D01*
X56072Y-31779D01*
X56091Y-31855D01*
X56129Y-31893D01*
X56167Y-31912D01*
X56244Y-31912D01*
X56282Y-31893D01*
X56320Y-31855D01*
X56339Y-31779D01*
X56339Y-31645D01*
X56320Y-31569D01*
X56282Y-31531D01*
X56244Y-31512D01*
X55901Y-31912D02*
X55901Y-31512D01*
X55767Y-31798D01*
X55634Y-31512D01*
X55634Y-31912D01*
X55272Y-31645D02*
X55272Y-31912D01*
X55368Y-31493D02*
X55463Y-31779D01*
X55215Y-31779D01*
X55101Y-32064D02*
X55082Y-32045D01*
X55044Y-31988D01*
X55025Y-31950D01*
X55006Y-31893D01*
X54987Y-31798D01*
X54987Y-31721D01*
X55006Y-31626D01*
X55025Y-31569D01*
X55044Y-31531D01*
X55082Y-31474D01*
X55101Y-31455D01*
X69924Y-32533D02*
X69867Y-32552D01*
X69771Y-32552D01*
X69733Y-32533D01*
X69714Y-32514D01*
X69695Y-32476D01*
X69695Y-32438D01*
X69714Y-32400D01*
X69733Y-32380D01*
X69771Y-32361D01*
X69848Y-32342D01*
X69886Y-32323D01*
X69905Y-32304D01*
X69924Y-32266D01*
X69924Y-32228D01*
X69905Y-32190D01*
X69886Y-32171D01*
X69848Y-32152D01*
X69752Y-32152D01*
X69695Y-32171D01*
X69562Y-32152D02*
X69467Y-32552D01*
X69390Y-32266D01*
X69314Y-32552D01*
X69219Y-32152D01*
X68857Y-32552D02*
X69086Y-32552D01*
X68972Y-32552D02*
X68972Y-32152D01*
X69010Y-32209D01*
X69048Y-32247D01*
X69086Y-32266D01*
X68686Y-32514D02*
X68667Y-32533D01*
X68686Y-32552D01*
X68705Y-32533D01*
X68686Y-32514D01*
X68686Y-32552D01*
X68515Y-32190D02*
X68496Y-32171D01*
X68458Y-32152D01*
X68362Y-32152D01*
X68324Y-32171D01*
X68305Y-32190D01*
X68286Y-32228D01*
X68286Y-32266D01*
X68305Y-32323D01*
X68534Y-32552D01*
X68286Y-32552D01*
X67810Y-32400D02*
X67505Y-32400D01*
X66934Y-32152D02*
X66857Y-32152D01*
X66819Y-32171D01*
X66781Y-32209D01*
X66762Y-32285D01*
X66762Y-32419D01*
X66781Y-32495D01*
X66819Y-32533D01*
X66857Y-32552D01*
X66934Y-32552D01*
X66972Y-32533D01*
X67010Y-32495D01*
X67029Y-32419D01*
X67029Y-32285D01*
X67010Y-32209D01*
X66972Y-32171D01*
X66934Y-32152D01*
X66591Y-32552D02*
X66591Y-32152D01*
X66362Y-32552D01*
X66362Y-32152D01*
X66172Y-32514D02*
X66153Y-32533D01*
X66172Y-32552D01*
X66191Y-32533D01*
X66172Y-32514D01*
X66172Y-32552D01*
X66172Y-32304D02*
X66153Y-32323D01*
X66172Y-32342D01*
X66191Y-32323D01*
X66172Y-32304D01*
X66172Y-32342D01*
X65696Y-32533D02*
X65639Y-32552D01*
X65543Y-32552D01*
X65505Y-32533D01*
X65486Y-32514D01*
X65467Y-32476D01*
X65467Y-32438D01*
X65486Y-32400D01*
X65505Y-32380D01*
X65543Y-32361D01*
X65620Y-32342D01*
X65658Y-32323D01*
X65677Y-32304D01*
X65696Y-32266D01*
X65696Y-32228D01*
X65677Y-32190D01*
X65658Y-32171D01*
X65620Y-32152D01*
X65524Y-32152D01*
X65467Y-32171D01*
X65143Y-32533D02*
X65181Y-32552D01*
X65258Y-32552D01*
X65296Y-32533D01*
X65315Y-32495D01*
X65315Y-32342D01*
X65296Y-32304D01*
X65258Y-32285D01*
X65181Y-32285D01*
X65143Y-32304D01*
X65124Y-32342D01*
X65124Y-32380D01*
X65315Y-32419D01*
X65010Y-32285D02*
X64858Y-32285D01*
X64953Y-32152D02*
X64953Y-32495D01*
X64934Y-32533D01*
X64896Y-32552D01*
X64858Y-32552D01*
X64419Y-32152D02*
X64419Y-32476D01*
X64400Y-32514D01*
X64381Y-32533D01*
X64343Y-32552D01*
X64266Y-32552D01*
X64228Y-32533D01*
X64209Y-32514D01*
X64190Y-32476D01*
X64190Y-32152D01*
X64019Y-32438D02*
X63828Y-32438D01*
X64057Y-32552D02*
X63924Y-32152D01*
X63790Y-32552D01*
X63428Y-32552D02*
X63562Y-32361D01*
X63657Y-32552D02*
X63657Y-32152D01*
X63504Y-32152D01*
X63466Y-32171D01*
X63447Y-32190D01*
X63428Y-32228D01*
X63428Y-32285D01*
X63447Y-32323D01*
X63466Y-32342D01*
X63504Y-32361D01*
X63657Y-32361D01*
X63314Y-32152D02*
X63085Y-32152D01*
X63200Y-32552D02*
X63200Y-32152D01*
X62475Y-32552D02*
X62475Y-32342D01*
X62494Y-32304D01*
X62532Y-32285D01*
X62609Y-32285D01*
X62647Y-32304D01*
X62475Y-32533D02*
X62513Y-32552D01*
X62609Y-32552D01*
X62647Y-32533D01*
X62666Y-32495D01*
X62666Y-32457D01*
X62647Y-32419D01*
X62609Y-32400D01*
X62513Y-32400D01*
X62475Y-32380D01*
X62113Y-32552D02*
X62113Y-32152D01*
X62113Y-32533D02*
X62151Y-32552D01*
X62228Y-32552D01*
X62266Y-32533D01*
X62285Y-32514D01*
X62304Y-32476D01*
X62304Y-32361D01*
X62285Y-32323D01*
X62266Y-32304D01*
X62228Y-32285D01*
X62151Y-32285D01*
X62113Y-32304D01*
X61751Y-32552D02*
X61751Y-32152D01*
X61751Y-32533D02*
X61789Y-32552D01*
X61866Y-32552D01*
X61904Y-32533D01*
X61923Y-32514D01*
X61942Y-32476D01*
X61942Y-32361D01*
X61923Y-32323D01*
X61904Y-32304D01*
X61866Y-32285D01*
X61789Y-32285D01*
X61751Y-32304D01*
X61561Y-32552D02*
X61561Y-32285D01*
X61561Y-32361D02*
X61542Y-32323D01*
X61523Y-32304D01*
X61485Y-32285D01*
X61446Y-32285D01*
X61160Y-32533D02*
X61198Y-32552D01*
X61275Y-32552D01*
X61313Y-32533D01*
X61332Y-32495D01*
X61332Y-32342D01*
X61313Y-32304D01*
X61275Y-32285D01*
X61198Y-32285D01*
X61160Y-32304D01*
X61141Y-32342D01*
X61141Y-32380D01*
X61332Y-32419D01*
X60989Y-32533D02*
X60951Y-32552D01*
X60875Y-32552D01*
X60836Y-32533D01*
X60817Y-32495D01*
X60817Y-32476D01*
X60836Y-32438D01*
X60875Y-32419D01*
X60932Y-32419D01*
X60970Y-32400D01*
X60989Y-32361D01*
X60989Y-32342D01*
X60970Y-32304D01*
X60932Y-32285D01*
X60875Y-32285D01*
X60836Y-32304D01*
X60665Y-32533D02*
X60627Y-32552D01*
X60551Y-32552D01*
X60512Y-32533D01*
X60493Y-32495D01*
X60493Y-32476D01*
X60512Y-32438D01*
X60551Y-32419D01*
X60608Y-32419D01*
X60646Y-32400D01*
X60665Y-32361D01*
X60665Y-32342D01*
X60646Y-32304D01*
X60608Y-32285D01*
X60551Y-32285D01*
X60512Y-32304D01*
X60074Y-32285D02*
X59922Y-32285D01*
X60017Y-32152D02*
X60017Y-32495D01*
X59998Y-32533D01*
X59960Y-32552D01*
X59922Y-32552D01*
X59731Y-32552D02*
X59769Y-32533D01*
X59788Y-32514D01*
X59807Y-32476D01*
X59807Y-32361D01*
X59788Y-32323D01*
X59769Y-32304D01*
X59731Y-32285D01*
X59673Y-32285D01*
X59635Y-32304D01*
X59616Y-32323D01*
X59597Y-32361D01*
X59597Y-32476D01*
X59616Y-32514D01*
X59635Y-32533D01*
X59673Y-32552D01*
X59731Y-32552D01*
X59045Y-32152D02*
X59006Y-32152D01*
X58968Y-32171D01*
X58949Y-32190D01*
X58930Y-32228D01*
X58911Y-32304D01*
X58911Y-32400D01*
X58930Y-32476D01*
X58949Y-32514D01*
X58968Y-32533D01*
X59006Y-32552D01*
X59045Y-32552D01*
X59083Y-32533D01*
X59102Y-32514D01*
X59121Y-32476D01*
X59140Y-32400D01*
X59140Y-32304D01*
X59121Y-32228D01*
X59102Y-32190D01*
X59083Y-32171D01*
X59045Y-32152D01*
X58778Y-32552D02*
X58568Y-32285D01*
X58778Y-32285D02*
X58568Y-32552D01*
X58454Y-32152D02*
X58206Y-32152D01*
X58340Y-32304D01*
X58282Y-32304D01*
X58244Y-32323D01*
X58225Y-32342D01*
X58206Y-32380D01*
X58206Y-32476D01*
X58225Y-32514D01*
X58244Y-32533D01*
X58282Y-32552D01*
X58397Y-32552D01*
X58435Y-32533D01*
X58454Y-32514D01*
X58035Y-32342D02*
X57901Y-32342D01*
X57844Y-32552D02*
X58035Y-32552D01*
X58035Y-32152D01*
X57844Y-32152D01*
X57616Y-32323D02*
X57654Y-32304D01*
X57673Y-32285D01*
X57692Y-32247D01*
X57692Y-32228D01*
X57673Y-32190D01*
X57654Y-32171D01*
X57616Y-32152D01*
X57539Y-32152D01*
X57501Y-32171D01*
X57482Y-32190D01*
X57463Y-32228D01*
X57463Y-32247D01*
X57482Y-32285D01*
X57501Y-32304D01*
X57539Y-32323D01*
X57616Y-32323D01*
X57654Y-32342D01*
X57673Y-32361D01*
X57692Y-32400D01*
X57692Y-32476D01*
X57673Y-32514D01*
X57654Y-32533D01*
X57616Y-32552D01*
X57539Y-32552D01*
X57501Y-32533D01*
X57482Y-32514D01*
X57463Y-32476D01*
X57463Y-32400D01*
X57482Y-32361D01*
X57501Y-32342D01*
X57539Y-32323D01*
X56872Y-32704D02*
X56892Y-32685D01*
X56930Y-32628D01*
X56949Y-32590D01*
X56968Y-32533D01*
X56987Y-32438D01*
X56987Y-32361D01*
X56968Y-32266D01*
X56949Y-32209D01*
X56930Y-32171D01*
X56892Y-32114D01*
X56872Y-32095D01*
X56491Y-32514D02*
X56510Y-32533D01*
X56567Y-32552D01*
X56605Y-32552D01*
X56663Y-32533D01*
X56701Y-32495D01*
X56720Y-32457D01*
X56739Y-32380D01*
X56739Y-32323D01*
X56720Y-32247D01*
X56701Y-32209D01*
X56663Y-32171D01*
X56605Y-32152D01*
X56567Y-32152D01*
X56510Y-32171D01*
X56491Y-32190D01*
X56244Y-32152D02*
X56167Y-32152D01*
X56129Y-32171D01*
X56091Y-32209D01*
X56072Y-32285D01*
X56072Y-32419D01*
X56091Y-32495D01*
X56129Y-32533D01*
X56167Y-32552D01*
X56244Y-32552D01*
X56282Y-32533D01*
X56320Y-32495D01*
X56339Y-32419D01*
X56339Y-32285D01*
X56320Y-32209D01*
X56282Y-32171D01*
X56244Y-32152D01*
X55901Y-32552D02*
X55901Y-32152D01*
X55767Y-32438D01*
X55634Y-32152D01*
X55634Y-32552D01*
X55482Y-32152D02*
X55234Y-32152D01*
X55368Y-32304D01*
X55310Y-32304D01*
X55272Y-32323D01*
X55253Y-32342D01*
X55234Y-32380D01*
X55234Y-32476D01*
X55253Y-32514D01*
X55272Y-32533D01*
X55310Y-32552D01*
X55425Y-32552D01*
X55463Y-32533D01*
X55482Y-32514D01*
X55101Y-32704D02*
X55082Y-32685D01*
X55044Y-32628D01*
X55025Y-32590D01*
X55006Y-32533D01*
X54987Y-32438D01*
X54987Y-32361D01*
X55006Y-32266D01*
X55025Y-32209D01*
X55044Y-32171D01*
X55082Y-32114D01*
X55101Y-32095D01*
X69924Y-33173D02*
X69867Y-33192D01*
X69771Y-33192D01*
X69733Y-33173D01*
X69714Y-33154D01*
X69695Y-33116D01*
X69695Y-33078D01*
X69714Y-33040D01*
X69733Y-33020D01*
X69771Y-33001D01*
X69848Y-32982D01*
X69886Y-32963D01*
X69905Y-32944D01*
X69924Y-32906D01*
X69924Y-32868D01*
X69905Y-32830D01*
X69886Y-32811D01*
X69848Y-32792D01*
X69752Y-32792D01*
X69695Y-32811D01*
X69562Y-32792D02*
X69467Y-33192D01*
X69390Y-32906D01*
X69314Y-33192D01*
X69219Y-32792D01*
X68857Y-33192D02*
X69086Y-33192D01*
X68972Y-33192D02*
X68972Y-32792D01*
X69010Y-32849D01*
X69048Y-32887D01*
X69086Y-32906D01*
X68686Y-33154D02*
X68667Y-33173D01*
X68686Y-33192D01*
X68705Y-33173D01*
X68686Y-33154D01*
X68686Y-33192D01*
X68534Y-32792D02*
X68286Y-32792D01*
X68420Y-32944D01*
X68362Y-32944D01*
X68324Y-32963D01*
X68305Y-32982D01*
X68286Y-33020D01*
X68286Y-33116D01*
X68305Y-33154D01*
X68324Y-33173D01*
X68362Y-33192D01*
X68477Y-33192D01*
X68515Y-33173D01*
X68534Y-33154D01*
X67810Y-33040D02*
X67505Y-33040D01*
X66934Y-32792D02*
X66857Y-32792D01*
X66819Y-32811D01*
X66781Y-32849D01*
X66762Y-32925D01*
X66762Y-33059D01*
X66781Y-33135D01*
X66819Y-33173D01*
X66857Y-33192D01*
X66934Y-33192D01*
X66972Y-33173D01*
X67010Y-33135D01*
X67029Y-33059D01*
X67029Y-32925D01*
X67010Y-32849D01*
X66972Y-32811D01*
X66934Y-32792D01*
X66591Y-33192D02*
X66591Y-32792D01*
X66362Y-33192D01*
X66362Y-32792D01*
X66172Y-33154D02*
X66153Y-33173D01*
X66172Y-33192D01*
X66191Y-33173D01*
X66172Y-33154D01*
X66172Y-33192D01*
X66172Y-32944D02*
X66153Y-32963D01*
X66172Y-32982D01*
X66191Y-32963D01*
X66172Y-32944D01*
X66172Y-32982D01*
X65696Y-33173D02*
X65639Y-33192D01*
X65543Y-33192D01*
X65505Y-33173D01*
X65486Y-33154D01*
X65467Y-33116D01*
X65467Y-33078D01*
X65486Y-33040D01*
X65505Y-33020D01*
X65543Y-33001D01*
X65620Y-32982D01*
X65658Y-32963D01*
X65677Y-32944D01*
X65696Y-32906D01*
X65696Y-32868D01*
X65677Y-32830D01*
X65658Y-32811D01*
X65620Y-32792D01*
X65524Y-32792D01*
X65467Y-32811D01*
X65143Y-33173D02*
X65181Y-33192D01*
X65258Y-33192D01*
X65296Y-33173D01*
X65315Y-33135D01*
X65315Y-32982D01*
X65296Y-32944D01*
X65258Y-32925D01*
X65181Y-32925D01*
X65143Y-32944D01*
X65124Y-32982D01*
X65124Y-33020D01*
X65315Y-33059D01*
X65010Y-32925D02*
X64858Y-32925D01*
X64953Y-32792D02*
X64953Y-33135D01*
X64934Y-33173D01*
X64896Y-33192D01*
X64858Y-33192D01*
X64419Y-32792D02*
X64419Y-33116D01*
X64400Y-33154D01*
X64381Y-33173D01*
X64343Y-33192D01*
X64266Y-33192D01*
X64228Y-33173D01*
X64209Y-33154D01*
X64190Y-33116D01*
X64190Y-32792D01*
X64019Y-33078D02*
X63828Y-33078D01*
X64057Y-33192D02*
X63924Y-32792D01*
X63790Y-33192D01*
X63428Y-33192D02*
X63562Y-33001D01*
X63657Y-33192D02*
X63657Y-32792D01*
X63504Y-32792D01*
X63466Y-32811D01*
X63447Y-32830D01*
X63428Y-32868D01*
X63428Y-32925D01*
X63447Y-32963D01*
X63466Y-32982D01*
X63504Y-33001D01*
X63657Y-33001D01*
X63314Y-32792D02*
X63085Y-32792D01*
X63200Y-33192D02*
X63200Y-32792D01*
X62475Y-33192D02*
X62475Y-32982D01*
X62494Y-32944D01*
X62532Y-32925D01*
X62609Y-32925D01*
X62647Y-32944D01*
X62475Y-33173D02*
X62513Y-33192D01*
X62609Y-33192D01*
X62647Y-33173D01*
X62666Y-33135D01*
X62666Y-33097D01*
X62647Y-33059D01*
X62609Y-33040D01*
X62513Y-33040D01*
X62475Y-33020D01*
X62113Y-33192D02*
X62113Y-32792D01*
X62113Y-33173D02*
X62151Y-33192D01*
X62228Y-33192D01*
X62266Y-33173D01*
X62285Y-33154D01*
X62304Y-33116D01*
X62304Y-33001D01*
X62285Y-32963D01*
X62266Y-32944D01*
X62228Y-32925D01*
X62151Y-32925D01*
X62113Y-32944D01*
X61751Y-33192D02*
X61751Y-32792D01*
X61751Y-33173D02*
X61789Y-33192D01*
X61866Y-33192D01*
X61904Y-33173D01*
X61923Y-33154D01*
X61942Y-33116D01*
X61942Y-33001D01*
X61923Y-32963D01*
X61904Y-32944D01*
X61866Y-32925D01*
X61789Y-32925D01*
X61751Y-32944D01*
X61561Y-33192D02*
X61561Y-32925D01*
X61561Y-33001D02*
X61542Y-32963D01*
X61523Y-32944D01*
X61485Y-32925D01*
X61446Y-32925D01*
X61160Y-33173D02*
X61198Y-33192D01*
X61275Y-33192D01*
X61313Y-33173D01*
X61332Y-33135D01*
X61332Y-32982D01*
X61313Y-32944D01*
X61275Y-32925D01*
X61198Y-32925D01*
X61160Y-32944D01*
X61141Y-32982D01*
X61141Y-33020D01*
X61332Y-33059D01*
X60989Y-33173D02*
X60951Y-33192D01*
X60875Y-33192D01*
X60836Y-33173D01*
X60817Y-33135D01*
X60817Y-33116D01*
X60836Y-33078D01*
X60875Y-33059D01*
X60932Y-33059D01*
X60970Y-33040D01*
X60989Y-33001D01*
X60989Y-32982D01*
X60970Y-32944D01*
X60932Y-32925D01*
X60875Y-32925D01*
X60836Y-32944D01*
X60665Y-33173D02*
X60627Y-33192D01*
X60551Y-33192D01*
X60512Y-33173D01*
X60493Y-33135D01*
X60493Y-33116D01*
X60512Y-33078D01*
X60551Y-33059D01*
X60608Y-33059D01*
X60646Y-33040D01*
X60665Y-33001D01*
X60665Y-32982D01*
X60646Y-32944D01*
X60608Y-32925D01*
X60551Y-32925D01*
X60512Y-32944D01*
X60074Y-32925D02*
X59922Y-32925D01*
X60017Y-32792D02*
X60017Y-33135D01*
X59998Y-33173D01*
X59960Y-33192D01*
X59922Y-33192D01*
X59731Y-33192D02*
X59769Y-33173D01*
X59788Y-33154D01*
X59807Y-33116D01*
X59807Y-33001D01*
X59788Y-32963D01*
X59769Y-32944D01*
X59731Y-32925D01*
X59673Y-32925D01*
X59635Y-32944D01*
X59616Y-32963D01*
X59597Y-33001D01*
X59597Y-33116D01*
X59616Y-33154D01*
X59635Y-33173D01*
X59673Y-33192D01*
X59731Y-33192D01*
X59045Y-32792D02*
X59006Y-32792D01*
X58968Y-32811D01*
X58949Y-32830D01*
X58930Y-32868D01*
X58911Y-32944D01*
X58911Y-33040D01*
X58930Y-33116D01*
X58949Y-33154D01*
X58968Y-33173D01*
X59006Y-33192D01*
X59045Y-33192D01*
X59083Y-33173D01*
X59102Y-33154D01*
X59121Y-33116D01*
X59140Y-33040D01*
X59140Y-32944D01*
X59121Y-32868D01*
X59102Y-32830D01*
X59083Y-32811D01*
X59045Y-32792D01*
X58778Y-33192D02*
X58568Y-32925D01*
X58778Y-32925D02*
X58568Y-33192D01*
X58435Y-32830D02*
X58416Y-32811D01*
X58378Y-32792D01*
X58282Y-32792D01*
X58244Y-32811D01*
X58225Y-32830D01*
X58206Y-32868D01*
X58206Y-32906D01*
X58225Y-32963D01*
X58454Y-33192D01*
X58206Y-33192D01*
X57901Y-32982D02*
X58035Y-32982D01*
X58035Y-33192D02*
X58035Y-32792D01*
X57844Y-32792D01*
X57635Y-32963D02*
X57673Y-32944D01*
X57692Y-32925D01*
X57711Y-32887D01*
X57711Y-32868D01*
X57692Y-32830D01*
X57673Y-32811D01*
X57635Y-32792D01*
X57558Y-32792D01*
X57520Y-32811D01*
X57501Y-32830D01*
X57482Y-32868D01*
X57482Y-32887D01*
X57501Y-32925D01*
X57520Y-32944D01*
X57558Y-32963D01*
X57635Y-32963D01*
X57673Y-32982D01*
X57692Y-33001D01*
X57711Y-33040D01*
X57711Y-33116D01*
X57692Y-33154D01*
X57673Y-33173D01*
X57635Y-33192D01*
X57558Y-33192D01*
X57520Y-33173D01*
X57501Y-33154D01*
X57482Y-33116D01*
X57482Y-33040D01*
X57501Y-33001D01*
X57520Y-32982D01*
X57558Y-32963D01*
X56891Y-33344D02*
X56911Y-33325D01*
X56949Y-33268D01*
X56968Y-33230D01*
X56987Y-33173D01*
X57006Y-33078D01*
X57006Y-33001D01*
X56987Y-32906D01*
X56968Y-32849D01*
X56949Y-32811D01*
X56911Y-32754D01*
X56891Y-32735D01*
X56510Y-33154D02*
X56529Y-33173D01*
X56586Y-33192D01*
X56624Y-33192D01*
X56682Y-33173D01*
X56720Y-33135D01*
X56739Y-33097D01*
X56758Y-33020D01*
X56758Y-32963D01*
X56739Y-32887D01*
X56720Y-32849D01*
X56682Y-32811D01*
X56624Y-32792D01*
X56586Y-32792D01*
X56529Y-32811D01*
X56510Y-32830D01*
X56263Y-32792D02*
X56186Y-32792D01*
X56148Y-32811D01*
X56110Y-32849D01*
X56091Y-32925D01*
X56091Y-33059D01*
X56110Y-33135D01*
X56148Y-33173D01*
X56186Y-33192D01*
X56263Y-33192D01*
X56301Y-33173D01*
X56339Y-33135D01*
X56358Y-33059D01*
X56358Y-32925D01*
X56339Y-32849D01*
X56301Y-32811D01*
X56263Y-32792D01*
X55920Y-33192D02*
X55920Y-32792D01*
X55786Y-33078D01*
X55653Y-32792D01*
X55653Y-33192D01*
X55482Y-32830D02*
X55463Y-32811D01*
X55425Y-32792D01*
X55329Y-32792D01*
X55291Y-32811D01*
X55272Y-32830D01*
X55253Y-32868D01*
X55253Y-32906D01*
X55272Y-32963D01*
X55501Y-33192D01*
X55253Y-33192D01*
X55120Y-33344D02*
X55101Y-33325D01*
X55063Y-33268D01*
X55044Y-33230D01*
X55025Y-33173D01*
X55006Y-33078D01*
X55006Y-33001D01*
X55025Y-32906D01*
X55044Y-32849D01*
X55063Y-32811D01*
X55101Y-32754D01*
X55120Y-32735D01*
X69924Y-33813D02*
X69867Y-33832D01*
X69771Y-33832D01*
X69733Y-33813D01*
X69714Y-33794D01*
X69695Y-33756D01*
X69695Y-33718D01*
X69714Y-33680D01*
X69733Y-33660D01*
X69771Y-33641D01*
X69848Y-33622D01*
X69886Y-33603D01*
X69905Y-33584D01*
X69924Y-33546D01*
X69924Y-33508D01*
X69905Y-33470D01*
X69886Y-33451D01*
X69848Y-33432D01*
X69752Y-33432D01*
X69695Y-33451D01*
X69562Y-33432D02*
X69467Y-33832D01*
X69390Y-33546D01*
X69314Y-33832D01*
X69219Y-33432D01*
X68857Y-33832D02*
X69086Y-33832D01*
X68972Y-33832D02*
X68972Y-33432D01*
X69010Y-33489D01*
X69048Y-33527D01*
X69086Y-33546D01*
X68686Y-33794D02*
X68667Y-33813D01*
X68686Y-33832D01*
X68705Y-33813D01*
X68686Y-33794D01*
X68686Y-33832D01*
X68324Y-33565D02*
X68324Y-33832D01*
X68420Y-33413D02*
X68515Y-33699D01*
X68267Y-33699D01*
X67810Y-33680D02*
X67505Y-33680D01*
X66934Y-33432D02*
X66857Y-33432D01*
X66819Y-33451D01*
X66781Y-33489D01*
X66762Y-33565D01*
X66762Y-33699D01*
X66781Y-33775D01*
X66819Y-33813D01*
X66857Y-33832D01*
X66934Y-33832D01*
X66972Y-33813D01*
X67010Y-33775D01*
X67029Y-33699D01*
X67029Y-33565D01*
X67010Y-33489D01*
X66972Y-33451D01*
X66934Y-33432D01*
X66591Y-33832D02*
X66591Y-33432D01*
X66362Y-33832D01*
X66362Y-33432D01*
X66172Y-33794D02*
X66153Y-33813D01*
X66172Y-33832D01*
X66191Y-33813D01*
X66172Y-33794D01*
X66172Y-33832D01*
X66172Y-33584D02*
X66153Y-33603D01*
X66172Y-33622D01*
X66191Y-33603D01*
X66172Y-33584D01*
X66172Y-33622D01*
X65696Y-33813D02*
X65639Y-33832D01*
X65543Y-33832D01*
X65505Y-33813D01*
X65486Y-33794D01*
X65467Y-33756D01*
X65467Y-33718D01*
X65486Y-33680D01*
X65505Y-33660D01*
X65543Y-33641D01*
X65620Y-33622D01*
X65658Y-33603D01*
X65677Y-33584D01*
X65696Y-33546D01*
X65696Y-33508D01*
X65677Y-33470D01*
X65658Y-33451D01*
X65620Y-33432D01*
X65524Y-33432D01*
X65467Y-33451D01*
X65143Y-33813D02*
X65181Y-33832D01*
X65258Y-33832D01*
X65296Y-33813D01*
X65315Y-33775D01*
X65315Y-33622D01*
X65296Y-33584D01*
X65258Y-33565D01*
X65181Y-33565D01*
X65143Y-33584D01*
X65124Y-33622D01*
X65124Y-33660D01*
X65315Y-33699D01*
X65010Y-33565D02*
X64858Y-33565D01*
X64953Y-33432D02*
X64953Y-33775D01*
X64934Y-33813D01*
X64896Y-33832D01*
X64858Y-33832D01*
X64419Y-33432D02*
X64419Y-33756D01*
X64400Y-33794D01*
X64381Y-33813D01*
X64343Y-33832D01*
X64266Y-33832D01*
X64228Y-33813D01*
X64209Y-33794D01*
X64190Y-33756D01*
X64190Y-33432D01*
X64019Y-33718D02*
X63828Y-33718D01*
X64057Y-33832D02*
X63924Y-33432D01*
X63790Y-33832D01*
X63428Y-33832D02*
X63562Y-33641D01*
X63657Y-33832D02*
X63657Y-33432D01*
X63504Y-33432D01*
X63466Y-33451D01*
X63447Y-33470D01*
X63428Y-33508D01*
X63428Y-33565D01*
X63447Y-33603D01*
X63466Y-33622D01*
X63504Y-33641D01*
X63657Y-33641D01*
X63314Y-33432D02*
X63085Y-33432D01*
X63200Y-33832D02*
X63200Y-33432D01*
X62475Y-33832D02*
X62475Y-33622D01*
X62494Y-33584D01*
X62532Y-33565D01*
X62609Y-33565D01*
X62647Y-33584D01*
X62475Y-33813D02*
X62513Y-33832D01*
X62609Y-33832D01*
X62647Y-33813D01*
X62666Y-33775D01*
X62666Y-33737D01*
X62647Y-33699D01*
X62609Y-33680D01*
X62513Y-33680D01*
X62475Y-33660D01*
X62113Y-33832D02*
X62113Y-33432D01*
X62113Y-33813D02*
X62151Y-33832D01*
X62228Y-33832D01*
X62266Y-33813D01*
X62285Y-33794D01*
X62304Y-33756D01*
X62304Y-33641D01*
X62285Y-33603D01*
X62266Y-33584D01*
X62228Y-33565D01*
X62151Y-33565D01*
X62113Y-33584D01*
X61751Y-33832D02*
X61751Y-33432D01*
X61751Y-33813D02*
X61789Y-33832D01*
X61866Y-33832D01*
X61904Y-33813D01*
X61923Y-33794D01*
X61942Y-33756D01*
X61942Y-33641D01*
X61923Y-33603D01*
X61904Y-33584D01*
X61866Y-33565D01*
X61789Y-33565D01*
X61751Y-33584D01*
X61561Y-33832D02*
X61561Y-33565D01*
X61561Y-33641D02*
X61542Y-33603D01*
X61523Y-33584D01*
X61485Y-33565D01*
X61446Y-33565D01*
X61160Y-33813D02*
X61198Y-33832D01*
X61275Y-33832D01*
X61313Y-33813D01*
X61332Y-33775D01*
X61332Y-33622D01*
X61313Y-33584D01*
X61275Y-33565D01*
X61198Y-33565D01*
X61160Y-33584D01*
X61141Y-33622D01*
X61141Y-33660D01*
X61332Y-33699D01*
X60989Y-33813D02*
X60951Y-33832D01*
X60875Y-33832D01*
X60836Y-33813D01*
X60817Y-33775D01*
X60817Y-33756D01*
X60836Y-33718D01*
X60875Y-33699D01*
X60932Y-33699D01*
X60970Y-33680D01*
X60989Y-33641D01*
X60989Y-33622D01*
X60970Y-33584D01*
X60932Y-33565D01*
X60875Y-33565D01*
X60836Y-33584D01*
X60665Y-33813D02*
X60627Y-33832D01*
X60551Y-33832D01*
X60512Y-33813D01*
X60493Y-33775D01*
X60493Y-33756D01*
X60512Y-33718D01*
X60551Y-33699D01*
X60608Y-33699D01*
X60646Y-33680D01*
X60665Y-33641D01*
X60665Y-33622D01*
X60646Y-33584D01*
X60608Y-33565D01*
X60551Y-33565D01*
X60512Y-33584D01*
X60074Y-33565D02*
X59922Y-33565D01*
X60017Y-33432D02*
X60017Y-33775D01*
X59998Y-33813D01*
X59960Y-33832D01*
X59922Y-33832D01*
X59731Y-33832D02*
X59769Y-33813D01*
X59788Y-33794D01*
X59807Y-33756D01*
X59807Y-33641D01*
X59788Y-33603D01*
X59769Y-33584D01*
X59731Y-33565D01*
X59673Y-33565D01*
X59635Y-33584D01*
X59616Y-33603D01*
X59597Y-33641D01*
X59597Y-33756D01*
X59616Y-33794D01*
X59635Y-33813D01*
X59673Y-33832D01*
X59731Y-33832D01*
X59045Y-33432D02*
X59006Y-33432D01*
X58968Y-33451D01*
X58949Y-33470D01*
X58930Y-33508D01*
X58911Y-33584D01*
X58911Y-33680D01*
X58930Y-33756D01*
X58949Y-33794D01*
X58968Y-33813D01*
X59006Y-33832D01*
X59045Y-33832D01*
X59083Y-33813D01*
X59102Y-33794D01*
X59121Y-33756D01*
X59140Y-33680D01*
X59140Y-33584D01*
X59121Y-33508D01*
X59102Y-33470D01*
X59083Y-33451D01*
X59045Y-33432D01*
X58778Y-33832D02*
X58568Y-33565D01*
X58778Y-33565D02*
X58568Y-33832D01*
X58454Y-33432D02*
X58206Y-33432D01*
X58340Y-33584D01*
X58282Y-33584D01*
X58244Y-33603D01*
X58225Y-33622D01*
X58206Y-33660D01*
X58206Y-33756D01*
X58225Y-33794D01*
X58244Y-33813D01*
X58282Y-33832D01*
X58397Y-33832D01*
X58435Y-33813D01*
X58454Y-33794D01*
X57901Y-33622D02*
X58035Y-33622D01*
X58035Y-33832D02*
X58035Y-33432D01*
X57844Y-33432D01*
X57635Y-33603D02*
X57673Y-33584D01*
X57692Y-33565D01*
X57711Y-33527D01*
X57711Y-33508D01*
X57692Y-33470D01*
X57673Y-33451D01*
X57635Y-33432D01*
X57558Y-33432D01*
X57520Y-33451D01*
X57501Y-33470D01*
X57482Y-33508D01*
X57482Y-33527D01*
X57501Y-33565D01*
X57520Y-33584D01*
X57558Y-33603D01*
X57635Y-33603D01*
X57673Y-33622D01*
X57692Y-33641D01*
X57711Y-33680D01*
X57711Y-33756D01*
X57692Y-33794D01*
X57673Y-33813D01*
X57635Y-33832D01*
X57558Y-33832D01*
X57520Y-33813D01*
X57501Y-33794D01*
X57482Y-33756D01*
X57482Y-33680D01*
X57501Y-33641D01*
X57520Y-33622D01*
X57558Y-33603D01*
X56891Y-33984D02*
X56911Y-33965D01*
X56949Y-33908D01*
X56968Y-33870D01*
X56987Y-33813D01*
X57006Y-33718D01*
X57006Y-33641D01*
X56987Y-33546D01*
X56968Y-33489D01*
X56949Y-33451D01*
X56911Y-33394D01*
X56891Y-33375D01*
X56510Y-33794D02*
X56529Y-33813D01*
X56586Y-33832D01*
X56624Y-33832D01*
X56682Y-33813D01*
X56720Y-33775D01*
X56739Y-33737D01*
X56758Y-33660D01*
X56758Y-33603D01*
X56739Y-33527D01*
X56720Y-33489D01*
X56682Y-33451D01*
X56624Y-33432D01*
X56586Y-33432D01*
X56529Y-33451D01*
X56510Y-33470D01*
X56263Y-33432D02*
X56186Y-33432D01*
X56148Y-33451D01*
X56110Y-33489D01*
X56091Y-33565D01*
X56091Y-33699D01*
X56110Y-33775D01*
X56148Y-33813D01*
X56186Y-33832D01*
X56263Y-33832D01*
X56301Y-33813D01*
X56339Y-33775D01*
X56358Y-33699D01*
X56358Y-33565D01*
X56339Y-33489D01*
X56301Y-33451D01*
X56263Y-33432D01*
X55920Y-33832D02*
X55920Y-33432D01*
X55786Y-33718D01*
X55653Y-33432D01*
X55653Y-33832D01*
X55253Y-33832D02*
X55482Y-33832D01*
X55368Y-33832D02*
X55368Y-33432D01*
X55406Y-33489D01*
X55444Y-33527D01*
X55482Y-33546D01*
X55120Y-33984D02*
X55101Y-33965D01*
X55063Y-33908D01*
X55044Y-33870D01*
X55025Y-33813D01*
X55006Y-33718D01*
X55006Y-33641D01*
X55025Y-33546D01*
X55044Y-33489D01*
X55063Y-33451D01*
X55101Y-33394D01*
X55120Y-33375D01*
X69924Y-34453D02*
X69867Y-34472D01*
X69771Y-34472D01*
X69733Y-34453D01*
X69714Y-34434D01*
X69695Y-34396D01*
X69695Y-34358D01*
X69714Y-34320D01*
X69733Y-34300D01*
X69771Y-34281D01*
X69848Y-34262D01*
X69886Y-34243D01*
X69905Y-34224D01*
X69924Y-34186D01*
X69924Y-34148D01*
X69905Y-34110D01*
X69886Y-34091D01*
X69848Y-34072D01*
X69752Y-34072D01*
X69695Y-34091D01*
X69562Y-34072D02*
X69467Y-34472D01*
X69390Y-34186D01*
X69314Y-34472D01*
X69219Y-34072D01*
X68857Y-34472D02*
X69086Y-34472D01*
X68972Y-34472D02*
X68972Y-34072D01*
X69010Y-34129D01*
X69048Y-34167D01*
X69086Y-34186D01*
X68686Y-34434D02*
X68667Y-34453D01*
X68686Y-34472D01*
X68705Y-34453D01*
X68686Y-34434D01*
X68686Y-34472D01*
X68305Y-34072D02*
X68496Y-34072D01*
X68515Y-34262D01*
X68496Y-34243D01*
X68458Y-34224D01*
X68362Y-34224D01*
X68324Y-34243D01*
X68305Y-34262D01*
X68286Y-34300D01*
X68286Y-34396D01*
X68305Y-34434D01*
X68324Y-34453D01*
X68362Y-34472D01*
X68458Y-34472D01*
X68496Y-34453D01*
X68515Y-34434D01*
X67810Y-34320D02*
X67505Y-34320D01*
X66934Y-34072D02*
X66857Y-34072D01*
X66819Y-34091D01*
X66781Y-34129D01*
X66762Y-34205D01*
X66762Y-34339D01*
X66781Y-34415D01*
X66819Y-34453D01*
X66857Y-34472D01*
X66934Y-34472D01*
X66972Y-34453D01*
X67010Y-34415D01*
X67029Y-34339D01*
X67029Y-34205D01*
X67010Y-34129D01*
X66972Y-34091D01*
X66934Y-34072D01*
X66591Y-34472D02*
X66591Y-34072D01*
X66362Y-34472D01*
X66362Y-34072D01*
X66172Y-34434D02*
X66153Y-34453D01*
X66172Y-34472D01*
X66191Y-34453D01*
X66172Y-34434D01*
X66172Y-34472D01*
X66172Y-34224D02*
X66153Y-34243D01*
X66172Y-34262D01*
X66191Y-34243D01*
X66172Y-34224D01*
X66172Y-34262D01*
X65677Y-34072D02*
X65677Y-34396D01*
X65658Y-34434D01*
X65639Y-34453D01*
X65601Y-34472D01*
X65524Y-34472D01*
X65486Y-34453D01*
X65467Y-34434D01*
X65448Y-34396D01*
X65448Y-34072D01*
X65277Y-34453D02*
X65239Y-34472D01*
X65163Y-34472D01*
X65124Y-34453D01*
X65105Y-34415D01*
X65105Y-34396D01*
X65124Y-34358D01*
X65163Y-34339D01*
X65220Y-34339D01*
X65258Y-34320D01*
X65277Y-34281D01*
X65277Y-34262D01*
X65258Y-34224D01*
X65220Y-34205D01*
X65163Y-34205D01*
X65124Y-34224D01*
X64781Y-34453D02*
X64819Y-34472D01*
X64896Y-34472D01*
X64934Y-34453D01*
X64953Y-34415D01*
X64953Y-34262D01*
X64934Y-34224D01*
X64896Y-34205D01*
X64819Y-34205D01*
X64781Y-34224D01*
X64762Y-34262D01*
X64762Y-34300D01*
X64953Y-34339D01*
X64286Y-34472D02*
X64286Y-34072D01*
X63867Y-34472D02*
X64001Y-34281D01*
X64096Y-34472D02*
X64096Y-34072D01*
X63943Y-34072D01*
X63905Y-34091D01*
X63886Y-34110D01*
X63867Y-34148D01*
X63867Y-34205D01*
X63886Y-34243D01*
X63905Y-34262D01*
X63943Y-34281D01*
X64096Y-34281D01*
X63429Y-34510D02*
X63467Y-34491D01*
X63505Y-34453D01*
X63562Y-34396D01*
X63601Y-34377D01*
X63639Y-34377D01*
X63620Y-34472D02*
X63658Y-34453D01*
X63696Y-34415D01*
X63715Y-34339D01*
X63715Y-34205D01*
X63696Y-34129D01*
X63658Y-34091D01*
X63620Y-34072D01*
X63543Y-34072D01*
X63505Y-34091D01*
X63467Y-34129D01*
X63448Y-34205D01*
X63448Y-34339D01*
X63467Y-34415D01*
X63505Y-34453D01*
X63543Y-34472D01*
X63620Y-34472D01*
X63315Y-34072D02*
X63067Y-34072D01*
X63201Y-34224D01*
X63143Y-34224D01*
X63105Y-34243D01*
X63086Y-34262D01*
X63067Y-34300D01*
X63067Y-34396D01*
X63086Y-34434D01*
X63105Y-34453D01*
X63143Y-34472D01*
X63258Y-34472D01*
X63296Y-34453D01*
X63315Y-34434D01*
X62648Y-34205D02*
X62496Y-34205D01*
X62591Y-34472D02*
X62591Y-34129D01*
X62572Y-34091D01*
X62534Y-34072D01*
X62496Y-34072D01*
X62305Y-34472D02*
X62343Y-34453D01*
X62362Y-34434D01*
X62381Y-34396D01*
X62381Y-34281D01*
X62362Y-34243D01*
X62343Y-34224D01*
X62305Y-34205D01*
X62247Y-34205D01*
X62209Y-34224D01*
X62190Y-34243D01*
X62171Y-34281D01*
X62171Y-34396D01*
X62190Y-34434D01*
X62209Y-34453D01*
X62247Y-34472D01*
X62305Y-34472D01*
X62000Y-34472D02*
X62000Y-34205D01*
X62000Y-34281D02*
X61981Y-34243D01*
X61962Y-34224D01*
X61924Y-34205D01*
X61885Y-34205D01*
X61447Y-34072D02*
X61447Y-34396D01*
X61428Y-34434D01*
X61409Y-34453D01*
X61371Y-34472D01*
X61294Y-34472D01*
X61256Y-34453D01*
X61237Y-34434D01*
X61218Y-34396D01*
X61218Y-34072D01*
X61047Y-34358D02*
X60856Y-34358D01*
X61085Y-34472D02*
X60952Y-34072D01*
X60818Y-34472D01*
X60456Y-34472D02*
X60590Y-34281D01*
X60685Y-34472D02*
X60685Y-34072D01*
X60532Y-34072D01*
X60494Y-34091D01*
X60475Y-34110D01*
X60456Y-34148D01*
X60456Y-34205D01*
X60475Y-34243D01*
X60494Y-34262D01*
X60532Y-34281D01*
X60685Y-34281D01*
X60342Y-34072D02*
X60113Y-34072D01*
X60228Y-34472D02*
X60228Y-34072D01*
X59560Y-34624D02*
X59580Y-34605D01*
X59618Y-34548D01*
X59637Y-34510D01*
X59656Y-34453D01*
X59675Y-34358D01*
X59675Y-34281D01*
X59656Y-34186D01*
X59637Y-34129D01*
X59618Y-34091D01*
X59580Y-34034D01*
X59560Y-34015D01*
X59179Y-34434D02*
X59198Y-34453D01*
X59255Y-34472D01*
X59293Y-34472D01*
X59351Y-34453D01*
X59389Y-34415D01*
X59408Y-34377D01*
X59427Y-34300D01*
X59427Y-34243D01*
X59408Y-34167D01*
X59389Y-34129D01*
X59351Y-34091D01*
X59293Y-34072D01*
X59255Y-34072D01*
X59198Y-34091D01*
X59179Y-34110D01*
X58932Y-34072D02*
X58855Y-34072D01*
X58817Y-34091D01*
X58779Y-34129D01*
X58760Y-34205D01*
X58760Y-34339D01*
X58779Y-34415D01*
X58817Y-34453D01*
X58855Y-34472D01*
X58932Y-34472D01*
X58970Y-34453D01*
X59008Y-34415D01*
X59027Y-34339D01*
X59027Y-34205D01*
X59008Y-34129D01*
X58970Y-34091D01*
X58932Y-34072D01*
X58589Y-34472D02*
X58589Y-34072D01*
X58455Y-34358D01*
X58322Y-34072D01*
X58322Y-34472D01*
X58151Y-34110D02*
X58132Y-34091D01*
X58094Y-34072D01*
X57998Y-34072D01*
X57960Y-34091D01*
X57941Y-34110D01*
X57922Y-34148D01*
X57922Y-34186D01*
X57941Y-34243D01*
X58170Y-34472D01*
X57922Y-34472D01*
X57732Y-34453D02*
X57732Y-34472D01*
X57751Y-34510D01*
X57770Y-34529D01*
X57027Y-34434D02*
X57046Y-34453D01*
X57103Y-34472D01*
X57141Y-34472D01*
X57199Y-34453D01*
X57237Y-34415D01*
X57256Y-34377D01*
X57275Y-34300D01*
X57275Y-34243D01*
X57256Y-34167D01*
X57237Y-34129D01*
X57199Y-34091D01*
X57141Y-34072D01*
X57103Y-34072D01*
X57046Y-34091D01*
X57027Y-34110D01*
X56780Y-34072D02*
X56703Y-34072D01*
X56665Y-34091D01*
X56627Y-34129D01*
X56608Y-34205D01*
X56608Y-34339D01*
X56627Y-34415D01*
X56665Y-34453D01*
X56703Y-34472D01*
X56780Y-34472D01*
X56818Y-34453D01*
X56856Y-34415D01*
X56875Y-34339D01*
X56875Y-34205D01*
X56856Y-34129D01*
X56818Y-34091D01*
X56780Y-34072D01*
X56437Y-34472D02*
X56437Y-34072D01*
X56303Y-34358D01*
X56170Y-34072D01*
X56170Y-34472D01*
X55808Y-34205D02*
X55808Y-34472D01*
X55904Y-34053D02*
X55999Y-34339D01*
X55751Y-34339D01*
X55637Y-34624D02*
X55618Y-34605D01*
X55580Y-34548D01*
X55561Y-34510D01*
X55542Y-34453D01*
X55523Y-34358D01*
X55523Y-34281D01*
X55542Y-34186D01*
X55561Y-34129D01*
X55580Y-34091D01*
X55618Y-34034D01*
X55637Y-34015D01*
X69924Y-35093D02*
X69867Y-35112D01*
X69771Y-35112D01*
X69733Y-35093D01*
X69714Y-35074D01*
X69695Y-35036D01*
X69695Y-34998D01*
X69714Y-34960D01*
X69733Y-34940D01*
X69771Y-34921D01*
X69848Y-34902D01*
X69886Y-34883D01*
X69905Y-34864D01*
X69924Y-34826D01*
X69924Y-34788D01*
X69905Y-34750D01*
X69886Y-34731D01*
X69848Y-34712D01*
X69752Y-34712D01*
X69695Y-34731D01*
X69562Y-34712D02*
X69467Y-35112D01*
X69390Y-34826D01*
X69314Y-35112D01*
X69219Y-34712D01*
X68857Y-35112D02*
X69086Y-35112D01*
X68972Y-35112D02*
X68972Y-34712D01*
X69010Y-34769D01*
X69048Y-34807D01*
X69086Y-34826D01*
X68686Y-35074D02*
X68667Y-35093D01*
X68686Y-35112D01*
X68705Y-35093D01*
X68686Y-35074D01*
X68686Y-35112D01*
X68324Y-34712D02*
X68401Y-34712D01*
X68439Y-34731D01*
X68458Y-34750D01*
X68496Y-34807D01*
X68515Y-34883D01*
X68515Y-35036D01*
X68496Y-35074D01*
X68477Y-35093D01*
X68439Y-35112D01*
X68362Y-35112D01*
X68324Y-35093D01*
X68305Y-35074D01*
X68286Y-35036D01*
X68286Y-34940D01*
X68305Y-34902D01*
X68324Y-34883D01*
X68362Y-34864D01*
X68439Y-34864D01*
X68477Y-34883D01*
X68496Y-34902D01*
X68515Y-34940D01*
X67810Y-34960D02*
X67505Y-34960D01*
X66934Y-34712D02*
X66857Y-34712D01*
X66819Y-34731D01*
X66781Y-34769D01*
X66762Y-34845D01*
X66762Y-34979D01*
X66781Y-35055D01*
X66819Y-35093D01*
X66857Y-35112D01*
X66934Y-35112D01*
X66972Y-35093D01*
X67010Y-35055D01*
X67029Y-34979D01*
X67029Y-34845D01*
X67010Y-34769D01*
X66972Y-34731D01*
X66934Y-34712D01*
X66591Y-35112D02*
X66591Y-34712D01*
X66362Y-35112D01*
X66362Y-34712D01*
X66172Y-35074D02*
X66153Y-35093D01*
X66172Y-35112D01*
X66191Y-35093D01*
X66172Y-35074D01*
X66172Y-35112D01*
X66172Y-34864D02*
X66153Y-34883D01*
X66172Y-34902D01*
X66191Y-34883D01*
X66172Y-34864D01*
X66172Y-34902D01*
X65677Y-34712D02*
X65677Y-35036D01*
X65658Y-35074D01*
X65639Y-35093D01*
X65601Y-35112D01*
X65524Y-35112D01*
X65486Y-35093D01*
X65467Y-35074D01*
X65448Y-35036D01*
X65448Y-34712D01*
X65277Y-35093D02*
X65239Y-35112D01*
X65163Y-35112D01*
X65124Y-35093D01*
X65105Y-35055D01*
X65105Y-35036D01*
X65124Y-34998D01*
X65163Y-34979D01*
X65220Y-34979D01*
X65258Y-34960D01*
X65277Y-34921D01*
X65277Y-34902D01*
X65258Y-34864D01*
X65220Y-34845D01*
X65163Y-34845D01*
X65124Y-34864D01*
X64781Y-35093D02*
X64819Y-35112D01*
X64896Y-35112D01*
X64934Y-35093D01*
X64953Y-35055D01*
X64953Y-34902D01*
X64934Y-34864D01*
X64896Y-34845D01*
X64819Y-34845D01*
X64781Y-34864D01*
X64762Y-34902D01*
X64762Y-34940D01*
X64953Y-34979D01*
X64286Y-35112D02*
X64286Y-34712D01*
X63867Y-35112D02*
X64001Y-34921D01*
X64096Y-35112D02*
X64096Y-34712D01*
X63943Y-34712D01*
X63905Y-34731D01*
X63886Y-34750D01*
X63867Y-34788D01*
X63867Y-34845D01*
X63886Y-34883D01*
X63905Y-34902D01*
X63943Y-34921D01*
X64096Y-34921D01*
X63429Y-35150D02*
X63467Y-35131D01*
X63505Y-35093D01*
X63562Y-35036D01*
X63601Y-35017D01*
X63639Y-35017D01*
X63620Y-35112D02*
X63658Y-35093D01*
X63696Y-35055D01*
X63715Y-34979D01*
X63715Y-34845D01*
X63696Y-34769D01*
X63658Y-34731D01*
X63620Y-34712D01*
X63543Y-34712D01*
X63505Y-34731D01*
X63467Y-34769D01*
X63448Y-34845D01*
X63448Y-34979D01*
X63467Y-35055D01*
X63505Y-35093D01*
X63543Y-35112D01*
X63620Y-35112D01*
X63105Y-34845D02*
X63105Y-35112D01*
X63201Y-34693D02*
X63296Y-34979D01*
X63048Y-34979D01*
X62648Y-34845D02*
X62496Y-34845D01*
X62591Y-35112D02*
X62591Y-34769D01*
X62572Y-34731D01*
X62534Y-34712D01*
X62496Y-34712D01*
X62305Y-35112D02*
X62343Y-35093D01*
X62362Y-35074D01*
X62381Y-35036D01*
X62381Y-34921D01*
X62362Y-34883D01*
X62343Y-34864D01*
X62305Y-34845D01*
X62247Y-34845D01*
X62209Y-34864D01*
X62190Y-34883D01*
X62171Y-34921D01*
X62171Y-35036D01*
X62190Y-35074D01*
X62209Y-35093D01*
X62247Y-35112D01*
X62305Y-35112D01*
X62000Y-35112D02*
X62000Y-34845D01*
X62000Y-34921D02*
X61981Y-34883D01*
X61962Y-34864D01*
X61924Y-34845D01*
X61885Y-34845D01*
X61447Y-34712D02*
X61447Y-35036D01*
X61428Y-35074D01*
X61409Y-35093D01*
X61371Y-35112D01*
X61294Y-35112D01*
X61256Y-35093D01*
X61237Y-35074D01*
X61218Y-35036D01*
X61218Y-34712D01*
X61047Y-34998D02*
X60856Y-34998D01*
X61085Y-35112D02*
X60952Y-34712D01*
X60818Y-35112D01*
X60456Y-35112D02*
X60590Y-34921D01*
X60685Y-35112D02*
X60685Y-34712D01*
X60532Y-34712D01*
X60494Y-34731D01*
X60475Y-34750D01*
X60456Y-34788D01*
X60456Y-34845D01*
X60475Y-34883D01*
X60494Y-34902D01*
X60532Y-34921D01*
X60685Y-34921D01*
X60342Y-34712D02*
X60113Y-34712D01*
X60228Y-35112D02*
X60228Y-34712D01*
X59560Y-35264D02*
X59580Y-35245D01*
X59618Y-35188D01*
X59637Y-35150D01*
X59656Y-35093D01*
X59675Y-34998D01*
X59675Y-34921D01*
X59656Y-34826D01*
X59637Y-34769D01*
X59618Y-34731D01*
X59580Y-34674D01*
X59560Y-34655D01*
X59179Y-35074D02*
X59198Y-35093D01*
X59255Y-35112D01*
X59293Y-35112D01*
X59351Y-35093D01*
X59389Y-35055D01*
X59408Y-35017D01*
X59427Y-34940D01*
X59427Y-34883D01*
X59408Y-34807D01*
X59389Y-34769D01*
X59351Y-34731D01*
X59293Y-34712D01*
X59255Y-34712D01*
X59198Y-34731D01*
X59179Y-34750D01*
X58932Y-34712D02*
X58855Y-34712D01*
X58817Y-34731D01*
X58779Y-34769D01*
X58760Y-34845D01*
X58760Y-34979D01*
X58779Y-35055D01*
X58817Y-35093D01*
X58855Y-35112D01*
X58932Y-35112D01*
X58970Y-35093D01*
X59008Y-35055D01*
X59027Y-34979D01*
X59027Y-34845D01*
X59008Y-34769D01*
X58970Y-34731D01*
X58932Y-34712D01*
X58589Y-35112D02*
X58589Y-34712D01*
X58455Y-34998D01*
X58322Y-34712D01*
X58322Y-35112D01*
X57922Y-35112D02*
X58151Y-35112D01*
X58037Y-35112D02*
X58037Y-34712D01*
X58075Y-34769D01*
X58113Y-34807D01*
X58151Y-34826D01*
X57732Y-35093D02*
X57732Y-35112D01*
X57751Y-35150D01*
X57770Y-35169D01*
X57027Y-35074D02*
X57046Y-35093D01*
X57103Y-35112D01*
X57141Y-35112D01*
X57199Y-35093D01*
X57237Y-35055D01*
X57256Y-35017D01*
X57275Y-34940D01*
X57275Y-34883D01*
X57256Y-34807D01*
X57237Y-34769D01*
X57199Y-34731D01*
X57141Y-34712D01*
X57103Y-34712D01*
X57046Y-34731D01*
X57027Y-34750D01*
X56780Y-34712D02*
X56703Y-34712D01*
X56665Y-34731D01*
X56627Y-34769D01*
X56608Y-34845D01*
X56608Y-34979D01*
X56627Y-35055D01*
X56665Y-35093D01*
X56703Y-35112D01*
X56780Y-35112D01*
X56818Y-35093D01*
X56856Y-35055D01*
X56875Y-34979D01*
X56875Y-34845D01*
X56856Y-34769D01*
X56818Y-34731D01*
X56780Y-34712D01*
X56437Y-35112D02*
X56437Y-34712D01*
X56303Y-34998D01*
X56170Y-34712D01*
X56170Y-35112D01*
X56018Y-34712D02*
X55770Y-34712D01*
X55904Y-34864D01*
X55846Y-34864D01*
X55808Y-34883D01*
X55789Y-34902D01*
X55770Y-34940D01*
X55770Y-35036D01*
X55789Y-35074D01*
X55808Y-35093D01*
X55846Y-35112D01*
X55961Y-35112D01*
X55999Y-35093D01*
X56018Y-35074D01*
X55637Y-35264D02*
X55618Y-35245D01*
X55580Y-35188D01*
X55561Y-35150D01*
X55542Y-35093D01*
X55523Y-34998D01*
X55523Y-34921D01*
X55542Y-34826D01*
X55561Y-34769D01*
X55580Y-34731D01*
X55618Y-34674D01*
X55637Y-34655D01*
X69924Y-35733D02*
X69867Y-35752D01*
X69771Y-35752D01*
X69733Y-35733D01*
X69714Y-35714D01*
X69695Y-35676D01*
X69695Y-35638D01*
X69714Y-35600D01*
X69733Y-35580D01*
X69771Y-35561D01*
X69848Y-35542D01*
X69886Y-35523D01*
X69905Y-35504D01*
X69924Y-35466D01*
X69924Y-35428D01*
X69905Y-35390D01*
X69886Y-35371D01*
X69848Y-35352D01*
X69752Y-35352D01*
X69695Y-35371D01*
X69562Y-35352D02*
X69467Y-35752D01*
X69390Y-35466D01*
X69314Y-35752D01*
X69219Y-35352D01*
X68857Y-35752D02*
X69086Y-35752D01*
X68972Y-35752D02*
X68972Y-35352D01*
X69010Y-35409D01*
X69048Y-35447D01*
X69086Y-35466D01*
X68686Y-35714D02*
X68667Y-35733D01*
X68686Y-35752D01*
X68705Y-35733D01*
X68686Y-35714D01*
X68686Y-35752D01*
X68534Y-35352D02*
X68267Y-35352D01*
X68439Y-35752D01*
X67810Y-35600D02*
X67505Y-35600D01*
X66934Y-35352D02*
X66857Y-35352D01*
X66819Y-35371D01*
X66781Y-35409D01*
X66762Y-35485D01*
X66762Y-35619D01*
X66781Y-35695D01*
X66819Y-35733D01*
X66857Y-35752D01*
X66934Y-35752D01*
X66972Y-35733D01*
X67010Y-35695D01*
X67029Y-35619D01*
X67029Y-35485D01*
X67010Y-35409D01*
X66972Y-35371D01*
X66934Y-35352D01*
X66591Y-35752D02*
X66591Y-35352D01*
X66362Y-35752D01*
X66362Y-35352D01*
X66172Y-35714D02*
X66153Y-35733D01*
X66172Y-35752D01*
X66191Y-35733D01*
X66172Y-35714D01*
X66172Y-35752D01*
X66172Y-35504D02*
X66153Y-35523D01*
X66172Y-35542D01*
X66191Y-35523D01*
X66172Y-35504D01*
X66172Y-35542D01*
X65677Y-35352D02*
X65677Y-35676D01*
X65658Y-35714D01*
X65639Y-35733D01*
X65601Y-35752D01*
X65524Y-35752D01*
X65486Y-35733D01*
X65467Y-35714D01*
X65448Y-35676D01*
X65448Y-35352D01*
X65277Y-35733D02*
X65239Y-35752D01*
X65163Y-35752D01*
X65124Y-35733D01*
X65105Y-35695D01*
X65105Y-35676D01*
X65124Y-35638D01*
X65163Y-35619D01*
X65220Y-35619D01*
X65258Y-35600D01*
X65277Y-35561D01*
X65277Y-35542D01*
X65258Y-35504D01*
X65220Y-35485D01*
X65163Y-35485D01*
X65124Y-35504D01*
X64781Y-35733D02*
X64819Y-35752D01*
X64896Y-35752D01*
X64934Y-35733D01*
X64953Y-35695D01*
X64953Y-35542D01*
X64934Y-35504D01*
X64896Y-35485D01*
X64819Y-35485D01*
X64781Y-35504D01*
X64762Y-35542D01*
X64762Y-35580D01*
X64953Y-35619D01*
X64286Y-35752D02*
X64286Y-35352D01*
X63867Y-35752D02*
X64001Y-35561D01*
X64096Y-35752D02*
X64096Y-35352D01*
X63943Y-35352D01*
X63905Y-35371D01*
X63886Y-35390D01*
X63867Y-35428D01*
X63867Y-35485D01*
X63886Y-35523D01*
X63905Y-35542D01*
X63943Y-35561D01*
X64096Y-35561D01*
X63429Y-35790D02*
X63467Y-35771D01*
X63505Y-35733D01*
X63562Y-35676D01*
X63601Y-35657D01*
X63639Y-35657D01*
X63620Y-35752D02*
X63658Y-35733D01*
X63696Y-35695D01*
X63715Y-35619D01*
X63715Y-35485D01*
X63696Y-35409D01*
X63658Y-35371D01*
X63620Y-35352D01*
X63543Y-35352D01*
X63505Y-35371D01*
X63467Y-35409D01*
X63448Y-35485D01*
X63448Y-35619D01*
X63467Y-35695D01*
X63505Y-35733D01*
X63543Y-35752D01*
X63620Y-35752D01*
X63086Y-35352D02*
X63277Y-35352D01*
X63296Y-35542D01*
X63277Y-35523D01*
X63239Y-35504D01*
X63143Y-35504D01*
X63105Y-35523D01*
X63086Y-35542D01*
X63067Y-35580D01*
X63067Y-35676D01*
X63086Y-35714D01*
X63105Y-35733D01*
X63143Y-35752D01*
X63239Y-35752D01*
X63277Y-35733D01*
X63296Y-35714D01*
X62648Y-35485D02*
X62496Y-35485D01*
X62591Y-35752D02*
X62591Y-35409D01*
X62572Y-35371D01*
X62534Y-35352D01*
X62496Y-35352D01*
X62305Y-35752D02*
X62343Y-35733D01*
X62362Y-35714D01*
X62381Y-35676D01*
X62381Y-35561D01*
X62362Y-35523D01*
X62343Y-35504D01*
X62305Y-35485D01*
X62247Y-35485D01*
X62209Y-35504D01*
X62190Y-35523D01*
X62171Y-35561D01*
X62171Y-35676D01*
X62190Y-35714D01*
X62209Y-35733D01*
X62247Y-35752D01*
X62305Y-35752D01*
X62000Y-35752D02*
X62000Y-35485D01*
X62000Y-35561D02*
X61981Y-35523D01*
X61962Y-35504D01*
X61924Y-35485D01*
X61885Y-35485D01*
X61447Y-35352D02*
X61447Y-35676D01*
X61428Y-35714D01*
X61409Y-35733D01*
X61371Y-35752D01*
X61294Y-35752D01*
X61256Y-35733D01*
X61237Y-35714D01*
X61218Y-35676D01*
X61218Y-35352D01*
X61047Y-35638D02*
X60856Y-35638D01*
X61085Y-35752D02*
X60952Y-35352D01*
X60818Y-35752D01*
X60456Y-35752D02*
X60590Y-35561D01*
X60685Y-35752D02*
X60685Y-35352D01*
X60532Y-35352D01*
X60494Y-35371D01*
X60475Y-35390D01*
X60456Y-35428D01*
X60456Y-35485D01*
X60475Y-35523D01*
X60494Y-35542D01*
X60532Y-35561D01*
X60685Y-35561D01*
X60342Y-35352D02*
X60113Y-35352D01*
X60228Y-35752D02*
X60228Y-35352D01*
X69924Y-36373D02*
X69867Y-36392D01*
X69771Y-36392D01*
X69733Y-36373D01*
X69714Y-36354D01*
X69695Y-36316D01*
X69695Y-36278D01*
X69714Y-36240D01*
X69733Y-36220D01*
X69771Y-36201D01*
X69848Y-36182D01*
X69886Y-36163D01*
X69905Y-36144D01*
X69924Y-36106D01*
X69924Y-36068D01*
X69905Y-36030D01*
X69886Y-36011D01*
X69848Y-35992D01*
X69752Y-35992D01*
X69695Y-36011D01*
X69562Y-35992D02*
X69467Y-36392D01*
X69390Y-36106D01*
X69314Y-36392D01*
X69219Y-35992D01*
X68857Y-36392D02*
X69086Y-36392D01*
X68972Y-36392D02*
X68972Y-35992D01*
X69010Y-36049D01*
X69048Y-36087D01*
X69086Y-36106D01*
X68686Y-36354D02*
X68667Y-36373D01*
X68686Y-36392D01*
X68705Y-36373D01*
X68686Y-36354D01*
X68686Y-36392D01*
X68439Y-36163D02*
X68477Y-36144D01*
X68496Y-36125D01*
X68515Y-36087D01*
X68515Y-36068D01*
X68496Y-36030D01*
X68477Y-36011D01*
X68439Y-35992D01*
X68362Y-35992D01*
X68324Y-36011D01*
X68305Y-36030D01*
X68286Y-36068D01*
X68286Y-36087D01*
X68305Y-36125D01*
X68324Y-36144D01*
X68362Y-36163D01*
X68439Y-36163D01*
X68477Y-36182D01*
X68496Y-36201D01*
X68515Y-36240D01*
X68515Y-36316D01*
X68496Y-36354D01*
X68477Y-36373D01*
X68439Y-36392D01*
X68362Y-36392D01*
X68324Y-36373D01*
X68305Y-36354D01*
X68286Y-36316D01*
X68286Y-36240D01*
X68305Y-36201D01*
X68324Y-36182D01*
X68362Y-36163D01*
X67810Y-36240D02*
X67505Y-36240D01*
X66934Y-35992D02*
X66857Y-35992D01*
X66819Y-36011D01*
X66781Y-36049D01*
X66762Y-36125D01*
X66762Y-36259D01*
X66781Y-36335D01*
X66819Y-36373D01*
X66857Y-36392D01*
X66934Y-36392D01*
X66972Y-36373D01*
X67010Y-36335D01*
X67029Y-36259D01*
X67029Y-36125D01*
X67010Y-36049D01*
X66972Y-36011D01*
X66934Y-35992D01*
X66591Y-36392D02*
X66591Y-35992D01*
X66362Y-36392D01*
X66362Y-35992D01*
X66172Y-36354D02*
X66153Y-36373D01*
X66172Y-36392D01*
X66191Y-36373D01*
X66172Y-36354D01*
X66172Y-36392D01*
X66172Y-36144D02*
X66153Y-36163D01*
X66172Y-36182D01*
X66191Y-36163D01*
X66172Y-36144D01*
X66172Y-36182D01*
X65677Y-35992D02*
X65677Y-36316D01*
X65658Y-36354D01*
X65639Y-36373D01*
X65601Y-36392D01*
X65524Y-36392D01*
X65486Y-36373D01*
X65467Y-36354D01*
X65448Y-36316D01*
X65448Y-35992D01*
X65277Y-36373D02*
X65239Y-36392D01*
X65163Y-36392D01*
X65124Y-36373D01*
X65105Y-36335D01*
X65105Y-36316D01*
X65124Y-36278D01*
X65163Y-36259D01*
X65220Y-36259D01*
X65258Y-36240D01*
X65277Y-36201D01*
X65277Y-36182D01*
X65258Y-36144D01*
X65220Y-36125D01*
X65163Y-36125D01*
X65124Y-36144D01*
X64781Y-36373D02*
X64819Y-36392D01*
X64896Y-36392D01*
X64934Y-36373D01*
X64953Y-36335D01*
X64953Y-36182D01*
X64934Y-36144D01*
X64896Y-36125D01*
X64819Y-36125D01*
X64781Y-36144D01*
X64762Y-36182D01*
X64762Y-36220D01*
X64953Y-36259D01*
X64286Y-36392D02*
X64286Y-35992D01*
X63867Y-36392D02*
X64001Y-36201D01*
X64096Y-36392D02*
X64096Y-35992D01*
X63943Y-35992D01*
X63905Y-36011D01*
X63886Y-36030D01*
X63867Y-36068D01*
X63867Y-36125D01*
X63886Y-36163D01*
X63905Y-36182D01*
X63943Y-36201D01*
X64096Y-36201D01*
X63429Y-36430D02*
X63467Y-36411D01*
X63505Y-36373D01*
X63562Y-36316D01*
X63601Y-36297D01*
X63639Y-36297D01*
X63620Y-36392D02*
X63658Y-36373D01*
X63696Y-36335D01*
X63715Y-36259D01*
X63715Y-36125D01*
X63696Y-36049D01*
X63658Y-36011D01*
X63620Y-35992D01*
X63543Y-35992D01*
X63505Y-36011D01*
X63467Y-36049D01*
X63448Y-36125D01*
X63448Y-36259D01*
X63467Y-36335D01*
X63505Y-36373D01*
X63543Y-36392D01*
X63620Y-36392D01*
X63315Y-35992D02*
X63048Y-35992D01*
X63220Y-36392D01*
X62648Y-36125D02*
X62496Y-36125D01*
X62591Y-36392D02*
X62591Y-36049D01*
X62572Y-36011D01*
X62534Y-35992D01*
X62496Y-35992D01*
X62305Y-36392D02*
X62343Y-36373D01*
X62362Y-36354D01*
X62381Y-36316D01*
X62381Y-36201D01*
X62362Y-36163D01*
X62343Y-36144D01*
X62305Y-36125D01*
X62247Y-36125D01*
X62209Y-36144D01*
X62190Y-36163D01*
X62171Y-36201D01*
X62171Y-36316D01*
X62190Y-36354D01*
X62209Y-36373D01*
X62247Y-36392D01*
X62305Y-36392D01*
X62000Y-36392D02*
X62000Y-36125D01*
X62000Y-36201D02*
X61981Y-36163D01*
X61962Y-36144D01*
X61924Y-36125D01*
X61885Y-36125D01*
X61447Y-35992D02*
X61447Y-36316D01*
X61428Y-36354D01*
X61409Y-36373D01*
X61371Y-36392D01*
X61294Y-36392D01*
X61256Y-36373D01*
X61237Y-36354D01*
X61218Y-36316D01*
X61218Y-35992D01*
X61047Y-36278D02*
X60856Y-36278D01*
X61085Y-36392D02*
X60952Y-35992D01*
X60818Y-36392D01*
X60456Y-36392D02*
X60590Y-36201D01*
X60685Y-36392D02*
X60685Y-35992D01*
X60532Y-35992D01*
X60494Y-36011D01*
X60475Y-36030D01*
X60456Y-36068D01*
X60456Y-36125D01*
X60475Y-36163D01*
X60494Y-36182D01*
X60532Y-36201D01*
X60685Y-36201D01*
X60342Y-35992D02*
X60113Y-35992D01*
X60228Y-36392D02*
X60228Y-35992D01*
M02*
