G04 (created by PCBNEW-RS274X (2012-01-19 BZR 3256)-stable) date 11/27/2012 11:43:36 PM*
G01*
G70*
G90*
%MOIN*%
G04 Gerber Fmt 3.4, Leading zero omitted, Abs format*
%FSLAX34Y34*%
G04 APERTURE LIST*
%ADD10C,0.006000*%
%ADD11C,0.160000*%
%ADD12R,0.055000X0.055000*%
%ADD13C,0.055000*%
%ADD14R,0.060000X0.060000*%
%ADD15C,0.060000*%
%ADD16C,0.159400*%
%ADD17R,0.070000X0.300000*%
%ADD18O,0.060000X0.060000*%
%ADD19C,0.035000*%
%ADD20C,0.014500*%
%ADD21C,0.024900*%
%ADD22C,0.010000*%
G04 APERTURE END LIST*
G54D10*
G54D11*
X79500Y-26500D03*
X79500Y-48750D03*
G54D12*
X76000Y-47000D03*
G54D13*
X76000Y-45000D03*
G54D12*
X47000Y-24750D03*
G54D13*
X49000Y-24750D03*
G54D12*
X76000Y-44000D03*
G54D13*
X76000Y-42000D03*
G54D12*
X52000Y-24750D03*
G54D13*
X53000Y-24750D03*
X54000Y-24750D03*
X55000Y-24750D03*
X56000Y-24750D03*
X57000Y-24750D03*
G54D12*
X62000Y-43000D03*
G54D13*
X63000Y-43000D03*
X64000Y-43000D03*
X65000Y-43000D03*
X66000Y-43000D03*
X67000Y-43000D03*
X68000Y-43000D03*
X69000Y-43000D03*
X70000Y-43000D03*
X71000Y-43000D03*
G54D14*
X42000Y-22750D03*
G54D15*
X42000Y-21750D03*
X43000Y-22750D03*
X43000Y-21750D03*
X44000Y-22750D03*
X44000Y-21750D03*
X45000Y-22750D03*
X45000Y-21750D03*
X46000Y-22750D03*
X46000Y-21750D03*
X47000Y-22750D03*
X47000Y-21750D03*
X48000Y-22750D03*
X48000Y-21750D03*
X49000Y-22750D03*
X49000Y-21750D03*
X50000Y-22750D03*
X50000Y-21750D03*
X51000Y-22750D03*
X51000Y-21750D03*
X52000Y-22750D03*
X52000Y-21750D03*
X53000Y-22750D03*
X53000Y-21750D03*
X54000Y-22750D03*
X54000Y-21750D03*
X55000Y-21750D03*
X55000Y-22750D03*
X56000Y-21750D03*
X56000Y-22750D03*
X57000Y-22750D03*
X57000Y-21750D03*
X58000Y-22750D03*
X58000Y-21750D03*
G54D12*
X63000Y-47000D03*
G54D13*
X64000Y-47000D03*
X65000Y-47000D03*
X66000Y-47000D03*
X67000Y-47000D03*
X68000Y-47000D03*
X69000Y-47000D03*
X70000Y-47000D03*
X71000Y-47000D03*
X72000Y-47000D03*
X72000Y-44000D03*
X71000Y-44000D03*
X70000Y-44000D03*
X69000Y-44000D03*
X68000Y-44000D03*
X67000Y-44000D03*
X66000Y-44000D03*
X65000Y-44000D03*
X64000Y-44000D03*
X63000Y-44000D03*
G54D12*
X75000Y-37000D03*
G54D13*
X75000Y-36000D03*
X75000Y-35000D03*
X75000Y-34000D03*
X75000Y-33000D03*
X75000Y-32000D03*
X75000Y-31000D03*
X75000Y-30000D03*
X75000Y-29000D03*
X75000Y-28000D03*
X72000Y-28000D03*
X72000Y-29000D03*
X72000Y-30000D03*
X72000Y-31000D03*
X72000Y-32000D03*
X72000Y-33000D03*
X72000Y-34000D03*
X72000Y-35000D03*
X72000Y-36000D03*
X72000Y-37000D03*
G54D12*
X43000Y-47000D03*
G54D13*
X44000Y-47000D03*
X45000Y-47000D03*
X46000Y-47000D03*
X47000Y-47000D03*
X48000Y-47000D03*
X49000Y-47000D03*
X50000Y-47000D03*
X50000Y-44000D03*
X49000Y-44000D03*
X48000Y-44000D03*
X47000Y-44000D03*
X46000Y-44000D03*
X45000Y-44000D03*
X44000Y-44000D03*
X43000Y-44000D03*
G54D12*
X53000Y-47000D03*
G54D13*
X54000Y-47000D03*
X55000Y-47000D03*
X56000Y-47000D03*
X57000Y-47000D03*
X58000Y-47000D03*
X59000Y-47000D03*
X60000Y-47000D03*
X60000Y-44000D03*
X59000Y-44000D03*
X58000Y-44000D03*
X57000Y-44000D03*
X56000Y-44000D03*
X55000Y-44000D03*
X54000Y-44000D03*
X53000Y-44000D03*
G54D12*
X63000Y-42000D03*
G54D13*
X64000Y-42000D03*
X65000Y-42000D03*
X66000Y-42000D03*
X67000Y-42000D03*
X68000Y-42000D03*
X69000Y-42000D03*
X70000Y-42000D03*
X70000Y-39000D03*
X69000Y-39000D03*
X68000Y-39000D03*
X67000Y-39000D03*
X66000Y-39000D03*
X65000Y-39000D03*
X64000Y-39000D03*
X63000Y-39000D03*
G54D12*
X43000Y-42000D03*
G54D13*
X44000Y-42000D03*
X45000Y-42000D03*
X46000Y-42000D03*
X47000Y-42000D03*
X48000Y-42000D03*
X49000Y-42000D03*
X50000Y-42000D03*
X50000Y-39000D03*
X49000Y-39000D03*
X48000Y-39000D03*
X47000Y-39000D03*
X46000Y-39000D03*
X45000Y-39000D03*
X44000Y-39000D03*
X43000Y-39000D03*
G54D12*
X53000Y-42000D03*
G54D13*
X54000Y-42000D03*
X55000Y-42000D03*
X56000Y-42000D03*
X57000Y-42000D03*
X58000Y-42000D03*
X59000Y-42000D03*
X59000Y-39000D03*
X58000Y-39000D03*
X57000Y-39000D03*
X56000Y-39000D03*
X55000Y-39000D03*
X54000Y-39000D03*
X53000Y-39000D03*
G54D16*
X77500Y-38539D03*
X77500Y-28701D03*
G54D14*
X76940Y-35780D03*
G54D15*
X76940Y-34700D03*
X76940Y-33620D03*
X76940Y-32540D03*
X76940Y-31460D03*
X78060Y-32000D03*
X78060Y-33080D03*
X78060Y-34170D03*
X78060Y-35240D03*
G54D13*
X41500Y-39500D03*
X41500Y-41500D03*
X74500Y-39500D03*
X72500Y-39500D03*
X51500Y-39500D03*
X51500Y-41500D03*
X41500Y-44500D03*
X41500Y-46500D03*
X51500Y-44500D03*
X51500Y-46500D03*
X61500Y-44500D03*
X61500Y-46500D03*
X54000Y-33000D03*
X54000Y-35000D03*
X72500Y-38500D03*
X74500Y-38500D03*
X60000Y-25000D03*
X60000Y-27000D03*
G54D17*
X70000Y-51375D03*
X69000Y-51375D03*
X68000Y-51375D03*
X67000Y-51375D03*
X66000Y-51375D03*
X65000Y-51375D03*
X64000Y-51375D03*
X63000Y-51375D03*
X61000Y-51375D03*
X60000Y-51375D03*
X59000Y-51375D03*
X58000Y-51375D03*
X57000Y-51375D03*
X56000Y-51375D03*
X55000Y-51375D03*
X54000Y-51375D03*
X53000Y-51375D03*
X52000Y-51375D03*
X51000Y-51375D03*
X50000Y-51375D03*
X49000Y-51375D03*
X48000Y-51375D03*
X47000Y-51375D03*
X46000Y-51375D03*
X45000Y-51375D03*
X44000Y-51375D03*
X43000Y-51375D03*
X42000Y-51375D03*
X41000Y-51375D03*
G54D13*
X72500Y-26500D03*
X74500Y-26500D03*
X56000Y-27750D03*
X56000Y-25750D03*
X58000Y-27750D03*
X58000Y-25750D03*
G54D12*
X56000Y-37000D03*
G54D13*
X57000Y-37000D03*
X58000Y-37000D03*
X59000Y-37000D03*
X60000Y-37000D03*
X61000Y-37000D03*
X62000Y-37000D03*
X63000Y-37000D03*
X64000Y-37000D03*
X65000Y-37000D03*
X66000Y-37000D03*
X67000Y-37000D03*
X68000Y-37000D03*
X69000Y-37000D03*
X69000Y-31000D03*
X68000Y-31000D03*
X67000Y-31000D03*
X66000Y-31000D03*
X65000Y-31000D03*
X64000Y-31000D03*
X63000Y-31000D03*
X62000Y-31000D03*
X61000Y-31000D03*
X60000Y-31000D03*
X59000Y-31000D03*
X58000Y-31000D03*
X57000Y-31000D03*
X56000Y-31000D03*
G54D18*
X42000Y-24750D03*
G54D15*
X43000Y-24750D03*
G54D13*
X58000Y-29250D03*
X56000Y-29250D03*
X54000Y-25750D03*
X54000Y-27750D03*
G54D12*
X78500Y-44000D03*
G54D13*
X78500Y-42000D03*
G54D12*
X42000Y-32000D03*
G54D13*
X43000Y-32000D03*
X42000Y-33000D03*
X43000Y-33000D03*
X42000Y-34000D03*
X43000Y-34000D03*
X42000Y-35000D03*
X43000Y-35000D03*
X42000Y-36000D03*
X43000Y-37000D03*
X43000Y-36000D03*
X44000Y-37000D03*
X44000Y-36000D03*
X45000Y-37000D03*
X45000Y-36000D03*
X46000Y-37000D03*
X46000Y-36000D03*
X47000Y-37000D03*
X47000Y-36000D03*
X48000Y-37000D03*
X48000Y-36000D03*
X49000Y-37000D03*
X49000Y-36000D03*
X50000Y-37000D03*
X50000Y-36000D03*
X51000Y-37000D03*
X52000Y-36000D03*
X51000Y-36000D03*
X52000Y-35000D03*
X51000Y-35000D03*
X52000Y-34000D03*
X51000Y-34000D03*
X52000Y-33000D03*
X51000Y-33000D03*
X52000Y-32000D03*
X51000Y-32000D03*
X52000Y-31000D03*
X51000Y-31000D03*
X52000Y-30000D03*
X51000Y-30000D03*
X52000Y-29000D03*
X51000Y-29000D03*
X52000Y-28000D03*
X51000Y-27000D03*
X51000Y-28000D03*
X50000Y-27000D03*
X50000Y-28000D03*
X49000Y-27000D03*
X49000Y-28000D03*
X48000Y-27000D03*
X48000Y-28000D03*
X47000Y-27000D03*
X47000Y-28000D03*
X46000Y-27000D03*
X46000Y-28000D03*
X45000Y-27000D03*
X45000Y-28000D03*
X44000Y-27000D03*
X44000Y-28000D03*
X43000Y-27000D03*
X42000Y-28000D03*
X43000Y-28000D03*
X42000Y-29000D03*
X43000Y-29000D03*
X42000Y-30000D03*
X43000Y-30000D03*
X42000Y-31000D03*
X43000Y-31000D03*
G54D12*
X63000Y-24500D03*
G54D13*
X62000Y-25500D03*
X63000Y-25500D03*
X62000Y-26500D03*
X63000Y-26500D03*
X62000Y-27500D03*
X63000Y-28500D03*
X63000Y-27500D03*
X64000Y-28500D03*
X64000Y-27500D03*
X65000Y-28500D03*
X65000Y-27500D03*
X66000Y-28500D03*
X66000Y-27500D03*
X67000Y-28500D03*
X67000Y-27500D03*
X68000Y-28500D03*
X69000Y-27500D03*
X68000Y-27500D03*
X69000Y-26500D03*
X68000Y-26500D03*
X69000Y-25500D03*
X68000Y-25500D03*
X69000Y-24500D03*
X68000Y-24500D03*
X69000Y-23500D03*
X68000Y-23500D03*
X69000Y-22500D03*
X68000Y-21500D03*
X68000Y-22500D03*
X67000Y-21500D03*
X67000Y-22500D03*
X66000Y-21500D03*
X66000Y-22500D03*
X65000Y-21500D03*
X65000Y-22500D03*
X64000Y-21500D03*
X64000Y-22500D03*
X63000Y-21500D03*
X62000Y-22500D03*
X63000Y-22500D03*
X62000Y-23500D03*
X63000Y-23500D03*
X62000Y-24500D03*
G54D19*
X56000Y-33000D03*
X56500Y-32500D03*
X58500Y-43500D03*
X59500Y-43000D03*
X71000Y-45000D03*
X62000Y-45000D03*
X62750Y-46000D03*
X69000Y-46000D03*
X61750Y-47875D03*
X62500Y-47750D03*
X64500Y-38500D03*
X43750Y-40000D03*
X48875Y-40375D03*
X49500Y-40000D03*
X52750Y-39500D03*
X53500Y-38750D03*
X48500Y-49250D03*
X60000Y-45250D03*
X55750Y-32500D03*
X63500Y-45500D03*
X62000Y-35750D03*
X62500Y-35500D03*
X61000Y-35000D03*
X68000Y-32500D03*
X66750Y-33250D03*
X65500Y-34250D03*
X64500Y-34250D03*
X50750Y-42000D03*
X49000Y-32000D03*
X50750Y-26000D03*
X43500Y-46000D03*
X44500Y-46000D03*
X46500Y-46250D03*
X47875Y-46125D03*
X47250Y-46000D03*
X63500Y-36500D03*
X58750Y-27500D03*
X41500Y-48000D03*
X45250Y-30000D03*
X48500Y-33000D03*
X41500Y-47500D03*
X52750Y-36500D03*
X51750Y-47250D03*
X55000Y-32000D03*
X52248Y-43250D03*
X55750Y-32000D03*
X52250Y-47250D03*
X60000Y-49500D03*
X61500Y-49500D03*
X60000Y-41750D03*
X75500Y-49500D03*
X60500Y-40750D03*
X71500Y-20750D03*
X70500Y-20750D03*
X71000Y-20750D03*
X75000Y-49500D03*
X72750Y-36750D03*
X49000Y-29500D03*
X45000Y-34000D03*
X50125Y-32000D03*
X72750Y-36250D03*
X41375Y-32000D03*
X40375Y-32000D03*
X72750Y-35750D03*
X46000Y-29000D03*
X48625Y-33500D03*
X51500Y-45250D03*
X48000Y-34125D03*
X60500Y-21750D03*
X59500Y-22750D03*
X55000Y-27750D03*
X57000Y-27750D03*
X59500Y-21750D03*
X70500Y-39500D03*
X66000Y-46000D03*
X60000Y-22250D03*
X61250Y-23500D03*
X60500Y-33750D03*
X60000Y-33750D03*
X61000Y-33750D03*
X76000Y-40250D03*
X76000Y-40750D03*
X61000Y-40250D03*
X40500Y-49000D03*
X41000Y-20500D03*
X40500Y-21000D03*
X61000Y-40750D03*
X60500Y-28500D03*
X60500Y-30500D03*
X59500Y-29500D03*
X61000Y-30000D03*
X54250Y-47500D03*
X48625Y-48375D03*
X61000Y-29000D03*
X74750Y-44500D03*
X66000Y-26500D03*
X46500Y-39500D03*
X46500Y-41500D03*
X41500Y-45500D03*
X58000Y-44750D03*
X49500Y-30250D03*
G54D20*
X48000Y-44000D02*
X48000Y-43500D01*
X47000Y-42000D02*
X47000Y-42500D01*
X47000Y-42500D02*
X48000Y-43500D01*
X49000Y-42500D02*
X50000Y-43500D01*
X50000Y-44000D02*
X50000Y-43500D01*
X49000Y-42000D02*
X49000Y-42500D01*
X49000Y-44000D02*
X49000Y-43500D01*
X48000Y-42500D02*
X49000Y-43500D01*
X48000Y-42000D02*
X48000Y-42500D01*
X50698Y-42698D02*
X50000Y-42000D01*
X49000Y-47000D02*
X50698Y-45302D01*
X50698Y-42750D02*
X50698Y-45302D01*
X50698Y-42750D02*
X50698Y-42698D01*
X42000Y-46250D02*
X42000Y-37000D01*
X41000Y-49000D02*
X42000Y-48000D01*
X41000Y-51375D02*
X41000Y-49000D01*
X42000Y-48000D02*
X42000Y-47500D01*
X42000Y-37000D02*
X41500Y-36500D01*
X41500Y-35500D02*
X42000Y-35000D01*
X42000Y-47500D02*
X42000Y-46250D01*
X41500Y-36500D02*
X41500Y-35500D01*
X42250Y-36750D02*
X42250Y-45750D01*
X42000Y-49250D02*
X42000Y-48750D01*
X43000Y-35250D02*
X42500Y-35750D01*
X43000Y-35000D02*
X43000Y-35250D01*
X42000Y-48500D02*
X42250Y-48250D01*
X42250Y-48250D02*
X42250Y-45750D01*
X42000Y-51375D02*
X42000Y-49250D01*
X42500Y-36500D02*
X42500Y-35750D01*
X42250Y-36750D02*
X42500Y-36500D01*
X42000Y-48750D02*
X42000Y-48500D01*
X55500Y-47500D02*
X54250Y-48750D01*
X54250Y-48750D02*
X52500Y-48750D01*
X51000Y-49750D02*
X52000Y-48750D01*
X55500Y-35500D02*
X56000Y-35000D01*
X55500Y-46000D02*
X55500Y-35500D01*
X56000Y-35000D02*
X56000Y-33000D01*
X55500Y-47250D02*
X55500Y-46000D01*
X51000Y-51375D02*
X51000Y-49750D01*
X55500Y-47250D02*
X55500Y-47500D01*
X52000Y-48750D02*
X52500Y-48750D01*
X52750Y-48998D02*
X53001Y-48998D01*
X56250Y-47500D02*
X56000Y-47500D01*
X55998Y-47500D02*
X54499Y-48999D01*
X52000Y-49748D02*
X52750Y-48998D01*
X56250Y-47500D02*
X56500Y-47250D01*
X53001Y-48999D02*
X53001Y-48999D01*
X53001Y-48998D02*
X53001Y-48999D01*
X56000Y-47500D02*
X55998Y-47500D01*
X56500Y-47250D02*
X56500Y-46000D01*
X54499Y-48999D02*
X53001Y-48999D01*
X56500Y-33500D02*
X56500Y-32500D01*
X56500Y-46000D02*
X56500Y-33500D01*
X52000Y-51375D02*
X52000Y-49748D01*
X57000Y-47750D02*
X57500Y-47250D01*
X57500Y-47250D02*
X57500Y-46000D01*
X56500Y-47750D02*
X56250Y-47750D01*
X54749Y-49249D02*
X53751Y-49249D01*
X53501Y-49249D02*
X53751Y-49249D01*
X54749Y-49249D02*
X56248Y-47750D01*
X57000Y-37000D02*
X57000Y-37750D01*
X57000Y-37750D02*
X57500Y-38250D01*
X53000Y-49750D02*
X53501Y-49249D01*
X56500Y-47750D02*
X56750Y-47750D01*
X57500Y-46000D02*
X57500Y-38250D01*
X53000Y-51375D02*
X53000Y-49750D01*
X56750Y-47750D02*
X57000Y-47750D01*
X56248Y-47750D02*
X56250Y-47750D01*
X56250Y-48250D02*
X56498Y-48002D01*
X54000Y-51375D02*
X54000Y-49750D01*
X57750Y-48000D02*
X58500Y-47250D01*
X55000Y-49500D02*
X54500Y-49500D01*
X54000Y-49750D02*
X54250Y-49500D01*
X56500Y-48002D02*
X56500Y-48000D01*
X58500Y-43500D02*
X58500Y-46000D01*
X56751Y-48000D02*
X57000Y-48000D01*
X54250Y-49500D02*
X54500Y-49500D01*
X57000Y-48000D02*
X57750Y-48000D01*
X56751Y-48000D02*
X56500Y-48000D01*
X55000Y-49500D02*
X55250Y-49250D01*
X58500Y-46000D02*
X58500Y-47250D01*
X55250Y-49250D02*
X56250Y-48250D01*
X56498Y-48002D02*
X56500Y-48002D01*
X56750Y-48250D02*
X57248Y-48250D01*
X58500Y-48250D02*
X59250Y-47500D01*
X57248Y-48250D02*
X57252Y-48250D01*
X59500Y-43000D02*
X59500Y-47250D01*
X56751Y-48252D02*
X56751Y-48249D01*
X56751Y-48249D02*
X56750Y-48250D01*
X59250Y-47500D02*
X59500Y-47250D01*
X55000Y-51375D02*
X55000Y-50003D01*
X55000Y-50003D02*
X56751Y-48252D01*
X57252Y-48250D02*
X58500Y-48250D01*
X72000Y-44000D02*
X71000Y-45000D01*
X60500Y-47250D02*
X60750Y-47000D01*
X59750Y-47500D02*
X58500Y-48750D01*
X60250Y-47500D02*
X60500Y-47250D01*
X60750Y-47000D02*
X60750Y-46500D01*
X60750Y-46500D02*
X60750Y-46250D01*
X60750Y-46250D02*
X62000Y-45000D01*
X60250Y-47500D02*
X59750Y-47500D01*
X58500Y-48750D02*
X57250Y-48750D01*
X56000Y-49750D02*
X57000Y-48750D01*
X57000Y-48750D02*
X57250Y-48750D01*
X56000Y-51375D02*
X56000Y-49750D01*
X62500Y-46250D02*
X62750Y-46000D01*
X57000Y-49750D02*
X57750Y-49000D01*
X58500Y-49000D02*
X58000Y-49000D01*
X60000Y-47750D02*
X61000Y-47750D01*
X58750Y-49000D02*
X60000Y-47750D01*
X70000Y-47000D02*
X69000Y-46000D01*
X61000Y-47750D02*
X62500Y-46250D01*
X58500Y-49000D02*
X58750Y-49000D01*
X57000Y-51375D02*
X57000Y-49750D01*
X57750Y-49000D02*
X58000Y-49000D01*
X59000Y-49500D02*
X60250Y-48250D01*
X60500Y-48000D02*
X61500Y-48000D01*
X58000Y-49750D02*
X58250Y-49500D01*
X58000Y-51375D02*
X58000Y-49750D01*
X60250Y-48250D02*
X60500Y-48000D01*
X61625Y-48000D02*
X61750Y-47875D01*
X58500Y-49500D02*
X59000Y-49500D01*
X61500Y-48000D02*
X61625Y-48000D01*
X58250Y-49500D02*
X58500Y-49500D01*
X60500Y-48500D02*
X60750Y-48250D01*
X59000Y-50000D02*
X60500Y-48500D01*
X62000Y-48250D02*
X62500Y-47750D01*
X60750Y-48250D02*
X62000Y-48250D01*
X59000Y-51375D02*
X59000Y-50000D01*
X61000Y-49002D02*
X61002Y-49002D01*
X61002Y-49000D02*
X61002Y-48998D01*
X62500Y-48750D02*
X64000Y-47250D01*
X61002Y-49002D02*
X61002Y-49000D01*
X60000Y-51375D02*
X60000Y-50002D01*
X60000Y-50002D02*
X61000Y-49002D01*
X61002Y-48998D02*
X61250Y-48750D01*
X64000Y-47250D02*
X64000Y-47000D01*
X61250Y-48750D02*
X62500Y-48750D01*
X64500Y-38500D02*
X63000Y-37000D01*
X42500Y-47750D02*
X42500Y-45500D01*
X43000Y-51375D02*
X43000Y-48250D01*
X42500Y-45500D02*
X42500Y-37500D01*
X43000Y-48250D02*
X42500Y-47750D01*
X42500Y-37500D02*
X43000Y-37000D01*
X45000Y-46500D02*
X45000Y-45750D01*
X44500Y-42500D02*
X45500Y-43500D01*
X43500Y-46750D02*
X43750Y-46500D01*
X44000Y-41250D02*
X43750Y-41000D01*
X45500Y-43500D02*
X45500Y-45250D01*
X45500Y-45250D02*
X45000Y-45750D01*
X44000Y-51375D02*
X44000Y-48750D01*
X45000Y-46500D02*
X45000Y-47000D01*
X43750Y-41000D02*
X43750Y-40000D01*
X44500Y-41750D02*
X44500Y-42250D01*
X43500Y-47500D02*
X43500Y-46750D01*
X44000Y-48000D02*
X43500Y-47500D01*
X43750Y-46500D02*
X45000Y-46500D01*
X44500Y-42250D02*
X44500Y-42500D01*
X44500Y-41750D02*
X44000Y-41250D01*
X44000Y-48750D02*
X44000Y-48000D01*
X48500Y-42500D02*
X48500Y-40750D01*
X47000Y-46500D02*
X48000Y-46500D01*
X48000Y-46500D02*
X49500Y-45000D01*
X44000Y-47000D02*
X44500Y-47500D01*
X45000Y-51375D02*
X45000Y-48250D01*
X46250Y-47500D02*
X46500Y-47250D01*
X46750Y-46500D02*
X47000Y-46500D01*
X44500Y-47500D02*
X45000Y-47500D01*
X46500Y-46750D02*
X46750Y-46500D01*
X49500Y-43500D02*
X48500Y-42500D01*
X46500Y-47250D02*
X46500Y-46750D01*
X45000Y-47500D02*
X46250Y-47500D01*
X45000Y-48250D02*
X45000Y-47500D01*
X48875Y-40375D02*
X48500Y-40750D01*
X49500Y-45000D02*
X49500Y-43500D01*
X48250Y-47000D02*
X48000Y-47000D01*
X50450Y-44800D02*
X50450Y-43450D01*
X49500Y-41500D02*
X49500Y-40000D01*
X48250Y-47000D02*
X50450Y-44800D01*
X50450Y-43450D02*
X49500Y-42500D01*
X46000Y-51375D02*
X46000Y-49000D01*
X48000Y-47000D02*
X48250Y-47000D01*
X47500Y-47500D02*
X48000Y-47000D01*
X48250Y-47000D02*
X49750Y-45500D01*
X47500Y-47500D02*
X46000Y-49000D01*
X49500Y-42500D02*
X49500Y-41500D01*
X47000Y-51375D02*
X47000Y-48750D01*
X47000Y-48750D02*
X48000Y-47750D01*
X52750Y-43500D02*
X52750Y-43000D01*
X52500Y-40000D02*
X52500Y-39750D01*
X52500Y-42750D02*
X52750Y-43000D01*
X52250Y-47750D02*
X53000Y-47000D01*
X52500Y-39750D02*
X52750Y-39500D01*
X52500Y-46500D02*
X53000Y-47000D01*
X52500Y-43750D02*
X52750Y-43500D01*
X52500Y-42500D02*
X52500Y-42750D01*
X48000Y-47750D02*
X52250Y-47750D01*
X52500Y-42500D02*
X52500Y-40000D01*
X52500Y-46500D02*
X52500Y-43750D01*
X48000Y-48500D02*
X48000Y-48250D01*
X54000Y-47000D02*
X53500Y-46500D01*
X48000Y-51375D02*
X48000Y-48500D01*
X53000Y-48000D02*
X54000Y-47000D01*
X48250Y-48000D02*
X53000Y-48000D01*
X53500Y-46500D02*
X53500Y-39500D01*
X53500Y-38750D02*
X53500Y-39500D01*
X48000Y-48250D02*
X48250Y-48000D01*
X49000Y-51375D02*
X49000Y-49750D01*
X49000Y-49750D02*
X48500Y-49250D01*
X59500Y-31500D02*
X59500Y-40500D01*
X60000Y-45250D02*
X60500Y-44750D01*
X59500Y-40500D02*
X60500Y-41500D01*
X60500Y-44750D02*
X60500Y-41500D01*
X59000Y-31000D02*
X59500Y-31500D01*
X54000Y-48500D02*
X55000Y-47500D01*
X54000Y-48500D02*
X51500Y-48500D01*
X54500Y-46500D02*
X54500Y-42750D01*
X51250Y-48500D02*
X51500Y-48500D01*
X55500Y-32750D02*
X55750Y-32500D01*
X54500Y-42750D02*
X54500Y-35500D01*
X54500Y-35500D02*
X55500Y-34500D01*
X55000Y-47500D02*
X55000Y-47000D01*
X55500Y-34500D02*
X55500Y-32750D01*
X50000Y-49750D02*
X51250Y-48500D01*
X54500Y-46500D02*
X55000Y-47000D01*
X50000Y-51375D02*
X50000Y-49750D01*
X61500Y-49000D02*
X62750Y-49000D01*
X64500Y-47250D02*
X62750Y-49000D01*
X64500Y-46500D02*
X63500Y-45500D01*
X64500Y-46750D02*
X64500Y-46500D01*
X64500Y-46750D02*
X64500Y-47250D01*
X61000Y-49750D02*
X61000Y-49500D01*
X61000Y-51375D02*
X61000Y-49750D01*
X61500Y-49000D02*
X61000Y-49500D01*
X69500Y-40750D02*
X72500Y-43750D01*
X72500Y-47250D02*
X72500Y-43750D01*
X65750Y-47500D02*
X72250Y-47500D01*
X64750Y-48500D02*
X64250Y-49000D01*
X62500Y-33750D02*
X62000Y-34250D01*
X62500Y-31750D02*
X62500Y-33750D01*
X62500Y-31750D02*
X62500Y-26000D01*
X72250Y-47500D02*
X72500Y-47250D01*
X63000Y-49750D02*
X63000Y-51375D01*
X62500Y-26000D02*
X62000Y-25500D01*
X62000Y-35750D02*
X62000Y-34250D01*
X69500Y-40750D02*
X68500Y-39750D01*
X64250Y-49000D02*
X63750Y-49000D01*
X67500Y-38500D02*
X67500Y-39250D01*
X68500Y-39750D02*
X68250Y-39500D01*
X68250Y-39500D02*
X67750Y-39500D01*
X66000Y-37000D02*
X67250Y-38250D01*
X67500Y-38500D02*
X67250Y-38250D01*
X67500Y-39250D02*
X67750Y-39500D01*
X64750Y-48500D02*
X65750Y-47500D01*
X63000Y-49750D02*
X63750Y-49000D01*
X68000Y-38000D02*
X67000Y-37000D01*
X70500Y-41250D02*
X72750Y-43500D01*
X63500Y-26000D02*
X63000Y-25500D01*
X72500Y-47750D02*
X72750Y-47500D01*
X69500Y-40250D02*
X70500Y-41250D01*
X64000Y-51375D02*
X64000Y-49750D01*
X72000Y-47750D02*
X72500Y-47750D01*
X63500Y-33500D02*
X62500Y-34500D01*
X66000Y-47750D02*
X72000Y-47750D01*
X62500Y-34500D02*
X62500Y-35500D01*
X68250Y-38250D02*
X68000Y-38000D01*
X65500Y-48250D02*
X66000Y-47750D01*
X64000Y-49750D02*
X65500Y-48250D01*
X63500Y-31250D02*
X63500Y-33500D01*
X68250Y-38250D02*
X68500Y-38500D01*
X68500Y-39250D02*
X69500Y-40250D01*
X68500Y-38500D02*
X68500Y-39250D01*
X72750Y-43500D02*
X72750Y-47500D01*
X63500Y-31250D02*
X63500Y-26000D01*
X65000Y-51375D02*
X65000Y-49750D01*
X61500Y-33750D02*
X61000Y-34250D01*
X66750Y-48000D02*
X65000Y-49750D01*
X73000Y-43250D02*
X73000Y-47748D01*
X70750Y-41000D02*
X73000Y-43250D01*
X73000Y-47748D02*
X72750Y-47998D01*
X69000Y-38000D02*
X68750Y-37750D01*
X68000Y-37000D02*
X68750Y-37750D01*
X61500Y-27000D02*
X62000Y-26500D01*
X61000Y-35000D02*
X61000Y-34250D01*
X61500Y-31500D02*
X61500Y-33750D01*
X61500Y-27750D02*
X61500Y-27000D01*
X70750Y-41000D02*
X69500Y-39750D01*
X69500Y-38500D02*
X69000Y-38000D01*
X69500Y-39750D02*
X69500Y-38500D01*
X61500Y-27750D02*
X61500Y-31500D01*
X72750Y-47998D02*
X66750Y-47998D01*
X66750Y-47998D02*
X66750Y-48000D01*
X66750Y-48000D02*
X66750Y-48000D01*
X69500Y-36750D02*
X69500Y-37250D01*
X67250Y-48500D02*
X67500Y-48250D01*
X69500Y-36750D02*
X69500Y-31500D01*
X71000Y-40748D02*
X73250Y-42998D01*
X69500Y-37250D02*
X71000Y-38750D01*
X72998Y-48250D02*
X73000Y-48248D01*
X71000Y-38750D02*
X71000Y-40748D01*
X73250Y-48000D02*
X73250Y-42998D01*
X67500Y-48250D02*
X72500Y-48250D01*
X73000Y-48250D02*
X72998Y-48250D01*
X72500Y-48250D02*
X72998Y-48250D01*
X66000Y-49750D02*
X67250Y-48500D01*
X73000Y-48250D02*
X73250Y-48000D01*
X66000Y-51375D02*
X66000Y-49750D01*
X69500Y-31500D02*
X69000Y-31000D01*
X73250Y-48500D02*
X73500Y-48250D01*
X68500Y-30500D02*
X68000Y-31000D01*
X68000Y-32500D02*
X68000Y-31000D01*
X67000Y-49750D02*
X68000Y-48750D01*
X69750Y-36500D02*
X69750Y-37000D01*
X69750Y-31000D02*
X69750Y-36500D01*
X72750Y-48500D02*
X73250Y-48500D01*
X67000Y-51375D02*
X67000Y-49750D01*
X73500Y-42750D02*
X73500Y-48250D01*
X69500Y-30750D02*
X69750Y-31000D01*
X71251Y-38501D02*
X71251Y-40501D01*
X68250Y-48500D02*
X72750Y-48500D01*
X68002Y-30998D02*
X68000Y-31000D01*
X69750Y-37000D02*
X71251Y-38501D01*
X68000Y-48750D02*
X68250Y-48500D01*
X71251Y-40501D02*
X73500Y-42750D01*
X69500Y-30750D02*
X69250Y-30500D01*
X69250Y-30500D02*
X68500Y-30500D01*
X73250Y-48500D02*
X73248Y-48500D01*
X70000Y-36750D02*
X71500Y-38250D01*
X68000Y-51375D02*
X68000Y-49750D01*
X68000Y-49750D02*
X68750Y-49000D01*
X69000Y-48750D02*
X73000Y-48750D01*
X66750Y-33250D02*
X67000Y-33000D01*
X69500Y-30250D02*
X67750Y-30250D01*
X71500Y-40250D02*
X73750Y-42500D01*
X70000Y-36250D02*
X70000Y-36750D01*
X67750Y-30250D02*
X67000Y-31000D01*
X69750Y-30500D02*
X69500Y-30250D01*
X68750Y-49000D02*
X69000Y-48750D01*
X70000Y-30750D02*
X69750Y-30500D01*
X70000Y-36250D02*
X70000Y-30750D01*
X73750Y-48500D02*
X73500Y-48750D01*
X71500Y-38250D02*
X71500Y-40250D01*
X67000Y-33000D02*
X67000Y-31000D01*
X73500Y-48750D02*
X73000Y-48750D01*
X73750Y-48500D02*
X73750Y-42500D01*
X73748Y-49000D02*
X73750Y-49000D01*
X69000Y-51375D02*
X69000Y-49750D01*
X66000Y-33750D02*
X65500Y-34250D01*
X70250Y-36002D02*
X70252Y-36004D01*
X71748Y-39998D02*
X74000Y-42250D01*
X70000Y-30250D02*
X69750Y-30000D01*
X69750Y-30000D02*
X67000Y-30000D01*
X69750Y-49000D02*
X73250Y-49000D01*
X70250Y-36004D02*
X70250Y-36500D01*
X70250Y-36004D02*
X70250Y-36004D01*
X70250Y-30500D02*
X70250Y-36002D01*
X70252Y-36004D02*
X70250Y-36004D01*
X74000Y-42250D02*
X74000Y-48750D01*
X70000Y-30250D02*
X70250Y-30500D01*
X71748Y-37998D02*
X71748Y-39998D01*
X70250Y-36500D02*
X71748Y-37998D01*
X67000Y-30000D02*
X66000Y-31000D01*
X73750Y-49000D02*
X74000Y-48750D01*
X66000Y-31000D02*
X66000Y-33750D01*
X69000Y-49750D02*
X69750Y-49000D01*
X73250Y-49000D02*
X73748Y-49000D01*
X71998Y-37750D02*
X70500Y-36252D01*
X70500Y-35750D02*
X70500Y-30250D01*
X72000Y-37754D02*
X71998Y-37752D01*
X74250Y-49000D02*
X74250Y-42000D01*
X70250Y-30000D02*
X70000Y-29750D01*
X74000Y-49250D02*
X74250Y-49000D01*
X70250Y-49500D02*
X70250Y-49498D01*
X66250Y-29750D02*
X65000Y-31000D01*
X70498Y-49250D02*
X73500Y-49250D01*
X70250Y-49498D02*
X70498Y-49250D01*
X70000Y-29750D02*
X66250Y-29750D01*
X70000Y-49750D02*
X70250Y-49500D01*
X70498Y-49250D02*
X70498Y-49248D01*
X73500Y-49250D02*
X74000Y-49250D01*
X71998Y-37752D02*
X71998Y-37750D01*
X74250Y-42000D02*
X72000Y-39750D01*
X71998Y-37752D02*
X71996Y-37750D01*
X65000Y-31000D02*
X65000Y-33750D01*
X65000Y-33750D02*
X64500Y-34250D01*
X70000Y-51375D02*
X70000Y-49750D01*
X70500Y-36252D02*
X70500Y-35750D01*
X72000Y-39750D02*
X72000Y-37754D01*
X70500Y-30250D02*
X70250Y-30000D01*
X70498Y-49248D02*
X70498Y-49250D01*
X48250Y-28750D02*
X46500Y-30500D01*
X42250Y-29500D02*
X41750Y-29500D01*
X42500Y-30250D02*
X42500Y-29750D01*
X41500Y-22250D02*
X42000Y-21750D01*
X42750Y-30500D02*
X42500Y-30250D01*
X41500Y-29250D02*
X41500Y-22250D01*
X46500Y-30500D02*
X42750Y-30500D01*
X42500Y-29750D02*
X42250Y-29500D01*
X41750Y-29500D02*
X41500Y-29250D01*
X49000Y-28000D02*
X48250Y-28750D01*
X45000Y-25750D02*
X45000Y-27000D01*
X47002Y-24000D02*
X46750Y-24000D01*
X46750Y-24000D02*
X45000Y-25750D01*
X48750Y-24000D02*
X47002Y-24000D01*
X48750Y-24000D02*
X49002Y-23748D01*
X49000Y-23750D02*
X49500Y-23250D01*
X49500Y-23250D02*
X49500Y-22250D01*
X49500Y-22250D02*
X50000Y-21750D01*
X49002Y-23748D02*
X49000Y-23750D01*
X50000Y-37000D02*
X49500Y-37500D01*
X49500Y-39250D02*
X49500Y-39500D01*
X49500Y-37500D02*
X49500Y-39250D01*
X50750Y-42000D02*
X50750Y-40750D01*
X50750Y-40750D02*
X49500Y-39500D01*
X47500Y-23000D02*
X47500Y-22250D01*
X47000Y-23500D02*
X46250Y-23500D01*
X44000Y-25750D02*
X44000Y-26000D01*
X47250Y-23250D02*
X47000Y-23500D01*
X46250Y-23500D02*
X44000Y-25750D01*
X47250Y-23250D02*
X47500Y-23000D01*
X44000Y-27000D02*
X44000Y-26000D01*
X47500Y-22250D02*
X48000Y-21750D01*
X43500Y-27500D02*
X43500Y-26250D01*
X46500Y-23000D02*
X46500Y-22250D01*
X47000Y-21750D02*
X46500Y-22250D01*
X43500Y-25500D02*
X45750Y-23250D01*
X43000Y-28000D02*
X43500Y-27500D01*
X46250Y-23250D02*
X46500Y-23000D01*
X43500Y-25750D02*
X43500Y-27500D01*
X46250Y-23250D02*
X45750Y-23250D01*
X43500Y-25750D02*
X43500Y-25500D01*
X58500Y-23000D02*
X58500Y-23125D01*
X51500Y-30750D02*
X51750Y-30500D01*
X50750Y-34500D02*
X50500Y-34250D01*
X58500Y-22250D02*
X58500Y-23000D01*
X51750Y-30500D02*
X52250Y-30500D01*
X51250Y-34500D02*
X50750Y-34500D01*
X56000Y-26500D02*
X57000Y-25500D01*
X51250Y-31500D02*
X51500Y-31250D01*
X51750Y-34000D02*
X51250Y-34500D01*
X52250Y-30500D02*
X53250Y-29500D01*
X58500Y-23125D02*
X58500Y-23250D01*
X50500Y-34250D02*
X50500Y-33750D01*
X53250Y-27750D02*
X54500Y-26500D01*
X58500Y-23250D02*
X57500Y-24250D01*
X51500Y-31250D02*
X51500Y-30750D01*
X52000Y-34000D02*
X51750Y-34000D01*
X54500Y-26500D02*
X56000Y-26500D01*
X57000Y-24750D02*
X57500Y-24250D01*
X58000Y-21750D02*
X58500Y-22250D01*
X50750Y-31500D02*
X51250Y-31500D01*
X50500Y-33750D02*
X50500Y-31750D01*
X53250Y-29500D02*
X53250Y-27750D01*
X57000Y-25500D02*
X57000Y-24750D01*
X50500Y-31750D02*
X50750Y-31500D01*
G54D21*
X43000Y-22750D02*
X43000Y-24750D01*
G54D20*
X57500Y-23250D02*
X57000Y-23750D01*
X48000Y-28000D02*
X48250Y-28000D01*
X48750Y-27500D02*
X51250Y-27500D01*
X48250Y-28000D02*
X48750Y-27500D01*
X57500Y-22250D02*
X57500Y-23250D01*
X56500Y-24250D02*
X56500Y-25000D01*
X55500Y-25250D02*
X53750Y-25250D01*
X56250Y-25250D02*
X55500Y-25250D01*
X56500Y-25000D02*
X56250Y-25250D01*
X57000Y-21750D02*
X57500Y-22250D01*
X51250Y-27500D02*
X51500Y-27500D01*
X57000Y-23750D02*
X56500Y-24250D01*
X51500Y-27500D02*
X53750Y-25250D01*
X53000Y-24750D02*
X51750Y-26000D01*
X49500Y-33000D02*
X49500Y-32500D01*
X50500Y-35750D02*
X49500Y-34750D01*
X49500Y-32500D02*
X49250Y-32250D01*
X51000Y-37000D02*
X50500Y-36500D01*
X53500Y-24250D02*
X53500Y-21500D01*
X50500Y-36500D02*
X50500Y-35750D01*
X45500Y-21250D02*
X45000Y-21750D01*
X53250Y-21250D02*
X45500Y-21250D01*
X49250Y-32250D02*
X49000Y-32000D01*
X50750Y-26000D02*
X51500Y-26000D01*
X53000Y-24750D02*
X53500Y-24250D01*
X51500Y-26000D02*
X51750Y-26000D01*
X53500Y-21500D02*
X53250Y-21250D01*
X49500Y-34750D02*
X49500Y-33000D01*
X43500Y-46000D02*
X43500Y-43250D01*
X43000Y-42000D02*
X43000Y-42750D01*
X43500Y-43250D02*
X43000Y-42750D01*
X44500Y-43250D02*
X44000Y-42750D01*
X44500Y-46000D02*
X44500Y-43250D01*
X44000Y-42750D02*
X44000Y-42000D01*
X46500Y-46250D02*
X46500Y-46000D01*
X46500Y-46000D02*
X46500Y-43750D01*
X46500Y-43750D02*
X45000Y-42250D01*
X45000Y-42250D02*
X45000Y-42000D01*
X48500Y-43500D02*
X47500Y-42500D01*
X47875Y-46125D02*
X48500Y-45500D01*
X48500Y-36500D02*
X48500Y-37500D01*
X48500Y-36500D02*
X49000Y-36000D01*
X48500Y-45500D02*
X48500Y-43500D01*
X47500Y-38500D02*
X48500Y-37500D01*
X47500Y-42500D02*
X47500Y-41000D01*
X47500Y-41000D02*
X47500Y-38500D01*
X47500Y-45750D02*
X47500Y-43500D01*
X47500Y-45750D02*
X47250Y-46000D01*
X46000Y-42000D02*
X47500Y-43500D01*
X44500Y-28500D02*
X42750Y-28500D01*
X45500Y-23000D02*
X45500Y-22250D01*
X45000Y-28000D02*
X44500Y-28500D01*
X45500Y-22250D02*
X46000Y-21750D01*
X42750Y-28500D02*
X42500Y-28250D01*
X42500Y-26250D02*
X42500Y-26000D01*
X42500Y-28250D02*
X42500Y-26250D01*
X42500Y-26000D02*
X45500Y-23000D01*
X46500Y-23750D02*
X44500Y-25750D01*
X44250Y-29500D02*
X42750Y-29500D01*
X45250Y-27500D02*
X45500Y-27750D01*
X44500Y-25750D02*
X44500Y-26000D01*
X42500Y-29250D02*
X42500Y-28750D01*
X44500Y-26750D02*
X44500Y-27250D01*
X46750Y-23750D02*
X47750Y-23750D01*
X45500Y-27750D02*
X45500Y-28250D01*
X48500Y-22250D02*
X48500Y-23000D01*
X42750Y-29500D02*
X42500Y-29250D01*
X45500Y-28250D02*
X44250Y-29500D01*
X44750Y-27500D02*
X45250Y-27500D01*
X42000Y-28250D02*
X42000Y-28000D01*
X46750Y-23750D02*
X46500Y-23750D01*
X48000Y-23500D02*
X48500Y-23000D01*
X42500Y-28750D02*
X42000Y-28250D01*
X49000Y-21750D02*
X48500Y-22250D01*
X44500Y-27250D02*
X44750Y-27500D01*
X47750Y-23750D02*
X48000Y-23500D01*
X44500Y-26750D02*
X44500Y-26000D01*
X56500Y-22250D02*
X56000Y-21750D01*
X56500Y-23500D02*
X56500Y-22250D01*
X56000Y-24750D02*
X56000Y-24000D01*
X56000Y-24000D02*
X56500Y-23500D01*
X69500Y-41750D02*
X68500Y-40750D01*
X70000Y-42500D02*
X69750Y-42500D01*
X65500Y-38500D02*
X64500Y-37500D01*
X63750Y-36500D02*
X63500Y-36500D01*
X64500Y-36750D02*
X64250Y-36500D01*
X64250Y-36500D02*
X63750Y-36500D01*
X67500Y-40750D02*
X67000Y-40750D01*
X69500Y-42250D02*
X69500Y-41750D01*
X65500Y-39250D02*
X65500Y-38500D01*
X68500Y-40750D02*
X67500Y-40750D01*
X67000Y-40750D02*
X65500Y-39250D01*
X70500Y-42500D02*
X70000Y-42500D01*
X69750Y-42500D02*
X69500Y-42250D01*
X71000Y-43000D02*
X70500Y-42500D01*
X64500Y-37500D02*
X64500Y-36750D01*
X58000Y-30000D02*
X58750Y-29250D01*
X52500Y-33500D02*
X53000Y-33000D01*
X53000Y-31750D02*
X54750Y-30000D01*
X51500Y-33500D02*
X52500Y-33500D01*
X53000Y-33000D02*
X53000Y-32000D01*
X53000Y-32000D02*
X53000Y-31750D01*
X54750Y-30000D02*
X55000Y-30000D01*
X58750Y-29250D02*
X58750Y-27500D01*
X51000Y-34000D02*
X51500Y-33500D01*
X55000Y-30000D02*
X58000Y-30000D01*
X71000Y-30250D02*
X71000Y-33000D01*
X70250Y-29500D02*
X70500Y-29750D01*
X66000Y-29500D02*
X67498Y-29500D01*
X65000Y-28500D02*
X66000Y-29500D01*
X70500Y-29750D02*
X71000Y-30250D01*
X71000Y-33000D02*
X72000Y-34000D01*
X67498Y-29500D02*
X70250Y-29500D01*
X70750Y-29500D02*
X71250Y-30000D01*
X66000Y-28504D02*
X66744Y-29248D01*
X72000Y-32000D02*
X71250Y-31250D01*
X71250Y-30000D02*
X71250Y-31250D01*
X70750Y-29500D02*
X70498Y-29248D01*
X66744Y-29252D02*
X66744Y-29248D01*
X66000Y-28500D02*
X66000Y-28504D01*
X66744Y-29248D02*
X66744Y-29252D01*
X66744Y-29248D02*
X70498Y-29248D01*
X47500Y-25250D02*
X48500Y-24250D01*
X49500Y-24250D02*
X48500Y-24250D01*
X45500Y-27250D02*
X45500Y-26750D01*
X47000Y-25250D02*
X47500Y-25250D01*
X46000Y-27894D02*
X46000Y-27750D01*
X50500Y-23250D02*
X50500Y-22250D01*
X49500Y-24250D02*
X50500Y-23250D01*
X50500Y-22250D02*
X51000Y-21750D01*
X46000Y-27750D02*
X45500Y-27250D01*
X46000Y-28000D02*
X46000Y-27894D01*
X45500Y-26750D02*
X47000Y-25250D01*
X41500Y-48000D02*
X40750Y-47250D01*
X50000Y-35750D02*
X50000Y-36000D01*
X49000Y-33250D02*
X49000Y-34750D01*
X49000Y-34750D02*
X49750Y-35500D01*
X49000Y-32750D02*
X48750Y-32500D01*
X40750Y-47250D02*
X40750Y-33500D01*
X41750Y-32500D02*
X46750Y-32500D01*
X48750Y-32500D02*
X48250Y-32500D01*
X49750Y-35500D02*
X50000Y-35750D01*
X40750Y-33500D02*
X41750Y-32500D01*
X46750Y-32500D02*
X48250Y-32500D01*
X49000Y-33250D02*
X49000Y-32750D01*
X48750Y-26500D02*
X48500Y-26750D01*
X54000Y-24750D02*
X53750Y-24750D01*
X54500Y-23500D02*
X54500Y-22250D01*
X48500Y-26750D02*
X48500Y-27000D01*
X53750Y-24750D02*
X52000Y-26500D01*
X47500Y-27750D02*
X47500Y-28250D01*
X47750Y-27500D02*
X47500Y-27750D01*
X47500Y-28250D02*
X45750Y-30000D01*
X45750Y-30000D02*
X45250Y-30000D01*
X54500Y-24250D02*
X54000Y-24750D01*
X54500Y-22250D02*
X54000Y-21750D01*
X52000Y-26500D02*
X48750Y-26500D01*
X54500Y-23500D02*
X54500Y-24250D01*
X48250Y-27500D02*
X47750Y-27500D01*
X48500Y-27000D02*
X48500Y-27250D01*
X48500Y-27250D02*
X48250Y-27500D01*
X45500Y-38500D02*
X46000Y-39000D01*
X45500Y-35750D02*
X45500Y-38500D01*
X45500Y-35250D02*
X47750Y-33000D01*
X47750Y-33000D02*
X48500Y-33000D01*
X45500Y-35750D02*
X45500Y-35250D01*
X47250Y-26000D02*
X48750Y-26000D01*
X52000Y-21750D02*
X51500Y-22250D01*
X47000Y-27750D02*
X46500Y-27250D01*
X47000Y-28000D02*
X47000Y-27750D01*
X48750Y-26000D02*
X49250Y-25500D01*
X46500Y-27250D02*
X46500Y-26750D01*
X51500Y-23250D02*
X51500Y-22250D01*
X49250Y-25500D02*
X51500Y-23250D01*
X46500Y-26750D02*
X47250Y-26000D01*
X47750Y-26250D02*
X49500Y-26250D01*
X47000Y-27000D02*
X47750Y-26250D01*
X52500Y-23250D02*
X52500Y-22250D01*
X52500Y-22250D02*
X53000Y-21750D01*
X49750Y-26000D02*
X52500Y-23250D01*
X49500Y-26250D02*
X49750Y-26000D01*
X55500Y-22250D02*
X55000Y-21750D01*
X55500Y-24250D02*
X55500Y-22250D01*
X41000Y-21500D02*
X41500Y-21000D01*
X41500Y-21000D02*
X54250Y-21000D01*
X41000Y-31000D02*
X41000Y-21500D01*
X55000Y-24750D02*
X55500Y-24250D01*
X42000Y-32000D02*
X41000Y-31000D01*
X54250Y-21000D02*
X55000Y-21750D01*
X62500Y-23000D02*
X63250Y-23000D01*
X71500Y-30500D02*
X71500Y-29750D01*
X71500Y-29750D02*
X71750Y-29500D01*
X63750Y-23000D02*
X64000Y-23000D01*
X72000Y-31000D02*
X71500Y-30500D01*
X72500Y-29250D02*
X72500Y-28750D01*
X71750Y-29500D02*
X72250Y-29500D01*
X72250Y-29500D02*
X72500Y-29250D01*
X62500Y-23000D02*
X62000Y-22500D01*
X63250Y-23000D02*
X63750Y-23000D01*
X72250Y-28500D02*
X71750Y-28500D01*
X71750Y-28500D02*
X69250Y-26000D01*
X69250Y-26000D02*
X67000Y-26000D01*
X72500Y-28750D02*
X72250Y-28500D01*
X64000Y-23000D02*
X67000Y-26000D01*
X41500Y-47500D02*
X41000Y-47000D01*
X41000Y-34000D02*
X42000Y-33000D01*
X41000Y-47000D02*
X41000Y-34000D01*
X73750Y-26000D02*
X68500Y-20750D01*
X61500Y-22250D02*
X62750Y-21000D01*
X72000Y-36000D02*
X73750Y-34250D01*
X73750Y-34250D02*
X73750Y-34000D01*
X68500Y-20750D02*
X63000Y-20750D01*
X61500Y-23000D02*
X62000Y-23500D01*
X73750Y-34000D02*
X73750Y-26000D01*
X61500Y-22250D02*
X61500Y-23000D01*
X62750Y-21000D02*
X63000Y-20750D01*
X73500Y-33500D02*
X73500Y-26250D01*
X63500Y-21250D02*
X63500Y-22000D01*
X63750Y-21000D02*
X63500Y-21250D01*
X72000Y-35000D02*
X73500Y-33500D01*
X68250Y-21000D02*
X63750Y-21000D01*
X69750Y-22500D02*
X73500Y-26250D01*
X68250Y-21000D02*
X69750Y-22500D01*
X63500Y-22000D02*
X63000Y-22500D01*
X64500Y-22750D02*
X64500Y-22000D01*
X73000Y-29000D02*
X73000Y-29000D01*
X73002Y-29250D02*
X73002Y-29000D01*
X64500Y-22000D02*
X64000Y-21500D01*
X72000Y-30000D02*
X72252Y-30000D01*
X72252Y-30000D02*
X73002Y-29250D01*
X73002Y-29000D02*
X73000Y-29000D01*
X73000Y-29000D02*
X73000Y-28250D01*
X64750Y-23000D02*
X64500Y-22750D01*
X72250Y-27500D02*
X69750Y-25000D01*
X69750Y-25000D02*
X66750Y-25000D01*
X66750Y-25000D02*
X64750Y-23000D01*
X73000Y-28250D02*
X72250Y-27500D01*
X45500Y-41250D02*
X43500Y-39250D01*
X47000Y-43750D02*
X45500Y-42250D01*
X45500Y-42250D02*
X45500Y-41500D01*
X47000Y-44000D02*
X47000Y-43750D01*
X45500Y-41500D02*
X45500Y-41250D01*
X43500Y-34500D02*
X43000Y-34000D01*
X43500Y-39250D02*
X43500Y-34500D01*
X53250Y-35500D02*
X53250Y-36000D01*
X53250Y-36000D02*
X52750Y-36500D01*
X52000Y-42500D02*
X52000Y-38500D01*
X52000Y-47000D02*
X52000Y-44000D01*
X52000Y-38500D02*
X52750Y-37750D01*
X52000Y-44000D02*
X52000Y-43750D01*
X51750Y-43000D02*
X52000Y-42750D01*
X52000Y-43750D02*
X51750Y-43500D01*
X51750Y-43500D02*
X51750Y-43000D01*
X52000Y-42750D02*
X52000Y-42500D01*
X53250Y-34500D02*
X54500Y-33250D01*
X51750Y-47250D02*
X52000Y-47000D01*
X55000Y-32000D02*
X54500Y-32500D01*
X54500Y-33250D02*
X54500Y-32500D01*
X53250Y-35500D02*
X53250Y-34500D01*
X52750Y-37750D02*
X52750Y-36500D01*
X53500Y-34750D02*
X55000Y-33250D01*
X52250Y-38750D02*
X53500Y-37500D01*
X53500Y-34752D02*
X53500Y-34750D01*
X55000Y-33250D02*
X55000Y-32750D01*
X52248Y-38752D02*
X52250Y-38750D01*
X55750Y-32000D02*
X55000Y-32750D01*
X52250Y-47250D02*
X52248Y-47248D01*
X52248Y-38752D02*
X52248Y-43250D01*
X53500Y-37500D02*
X53500Y-34752D01*
X52248Y-47248D02*
X52248Y-43250D01*
X62375Y-48500D02*
X62625Y-48250D01*
X63500Y-47375D02*
X63500Y-46500D01*
X62500Y-44250D02*
X62500Y-41000D01*
X61000Y-48500D02*
X60750Y-48750D01*
X62625Y-48250D02*
X63500Y-47375D01*
X62500Y-44250D02*
X62500Y-45250D01*
X63500Y-46500D02*
X63500Y-46250D01*
X62000Y-31750D02*
X62000Y-33750D01*
X61500Y-40000D02*
X61500Y-34250D01*
X62000Y-33750D02*
X61500Y-34250D01*
X62000Y-31000D02*
X62000Y-31750D01*
X62375Y-48500D02*
X61000Y-48500D01*
X63500Y-46250D02*
X62500Y-45250D01*
X62500Y-41000D02*
X61500Y-40000D01*
X60000Y-49500D02*
X60750Y-48750D01*
X64000Y-48250D02*
X64500Y-48250D01*
X65500Y-45500D02*
X65500Y-47250D01*
X61752Y-49250D02*
X62500Y-49250D01*
X64500Y-44000D02*
X64500Y-40750D01*
X61502Y-49500D02*
X61752Y-49250D01*
X63000Y-49250D02*
X63750Y-48500D01*
X64500Y-40750D02*
X64000Y-40250D01*
X64000Y-39000D02*
X64000Y-40250D01*
X63750Y-48500D02*
X64000Y-48250D01*
X64750Y-48000D02*
X64500Y-48250D01*
X65500Y-47250D02*
X64750Y-48000D01*
X64500Y-44500D02*
X64500Y-44000D01*
X65500Y-45500D02*
X64500Y-44500D01*
X63000Y-49250D02*
X62500Y-49250D01*
X61500Y-49500D02*
X61502Y-49500D01*
X72000Y-29000D02*
X71750Y-29000D01*
X67250Y-27000D02*
X66250Y-26000D01*
X69750Y-27000D02*
X67250Y-27000D01*
X71750Y-29000D02*
X69750Y-27000D01*
X63000Y-23500D02*
X63750Y-23500D01*
X63750Y-23500D02*
X65250Y-25000D01*
X66250Y-26000D02*
X65250Y-25000D01*
X60000Y-41750D02*
X58500Y-40250D01*
X58500Y-40250D02*
X58500Y-39250D01*
X58500Y-38500D02*
X58500Y-39250D01*
X58500Y-38500D02*
X57500Y-37500D01*
X57500Y-31500D02*
X57000Y-31000D01*
X57500Y-37500D02*
X57500Y-31500D01*
X64000Y-43000D02*
X64000Y-42000D01*
X63000Y-42000D02*
X63000Y-40750D01*
X63000Y-34500D02*
X63000Y-35750D01*
X64000Y-33500D02*
X63000Y-34500D01*
X63000Y-35750D02*
X62500Y-36250D01*
X63000Y-43000D02*
X63000Y-42000D01*
X63000Y-40750D02*
X62500Y-40250D01*
X62500Y-40250D02*
X62500Y-36250D01*
X64000Y-31000D02*
X64000Y-33500D01*
X63000Y-39000D02*
X63000Y-40250D01*
X63500Y-43250D02*
X63500Y-40750D01*
X63500Y-43500D02*
X63500Y-43250D01*
X64000Y-44000D02*
X63500Y-43500D01*
X63000Y-40250D02*
X63500Y-40750D01*
X69250Y-24000D02*
X73250Y-28000D01*
X72000Y-33000D02*
X73250Y-31750D01*
X73250Y-31750D02*
X73250Y-28000D01*
X65000Y-22500D02*
X66500Y-24000D01*
X66500Y-24000D02*
X69250Y-24000D01*
X51500Y-37500D02*
X51500Y-37250D01*
X53250Y-32000D02*
X55000Y-30250D01*
X55250Y-30250D02*
X55750Y-30250D01*
X58125Y-30250D02*
X58250Y-30250D01*
X57000Y-30250D02*
X58125Y-30250D01*
X55000Y-30250D02*
X55250Y-30250D01*
X51500Y-37250D02*
X51500Y-34750D01*
X51750Y-34500D02*
X52250Y-34500D01*
X53250Y-32750D02*
X53250Y-33000D01*
X53250Y-32250D02*
X53250Y-32000D01*
X52250Y-34500D02*
X53250Y-33500D01*
X50000Y-39000D02*
X51500Y-37500D01*
X53250Y-32750D02*
X53250Y-32250D01*
X59000Y-30250D02*
X59250Y-30250D01*
X61250Y-28250D02*
X61250Y-28000D01*
X59250Y-30250D02*
X61250Y-28250D01*
X61250Y-28000D02*
X61250Y-25500D01*
X58250Y-30250D02*
X59000Y-30250D01*
X61750Y-25000D02*
X63250Y-25000D01*
X66500Y-27000D02*
X65250Y-27000D01*
X61250Y-25500D02*
X61750Y-25000D01*
X63250Y-25000D02*
X65250Y-27000D01*
X67000Y-27500D02*
X66500Y-27000D01*
X51500Y-34750D02*
X51750Y-34500D01*
X57000Y-30250D02*
X55750Y-30250D01*
X53250Y-33500D02*
X53250Y-33000D01*
G54D21*
X61000Y-40750D02*
X60500Y-40750D01*
X71000Y-20750D02*
X70500Y-20750D01*
X79250Y-42500D02*
X79250Y-37500D01*
X72750Y-36750D02*
X74500Y-38500D01*
X78539Y-37500D02*
X77500Y-38539D01*
X79250Y-29750D02*
X79250Y-28750D01*
X50125Y-28875D02*
X51000Y-28000D01*
X50125Y-28875D02*
X49625Y-28875D01*
X65000Y-44000D02*
X65000Y-44250D01*
X49625Y-28875D02*
X49000Y-29500D01*
X44000Y-37000D02*
X44500Y-36500D01*
X44500Y-34500D02*
X45000Y-34000D01*
X44500Y-36500D02*
X44500Y-34500D01*
X51500Y-42050D02*
X51500Y-41500D01*
X65500Y-36750D02*
X65750Y-36500D01*
X66000Y-38250D02*
X65500Y-37750D01*
X66000Y-45250D02*
X65000Y-44250D01*
X79250Y-28750D02*
X80500Y-27500D01*
X78500Y-47750D02*
X78500Y-47250D01*
X50750Y-35000D02*
X50500Y-34750D01*
X66000Y-45500D02*
X66000Y-45250D01*
X79250Y-31000D02*
X79250Y-29750D01*
X79250Y-31000D02*
X77400Y-31000D01*
X78500Y-47250D02*
X78500Y-45500D01*
X79250Y-29750D02*
X78549Y-29750D01*
X46000Y-26750D02*
X47000Y-25750D01*
X48000Y-34750D02*
X48000Y-34250D01*
X74500Y-38000D02*
X74500Y-38500D01*
X66000Y-45500D02*
X66000Y-46000D01*
X74500Y-38000D02*
X74500Y-37500D01*
X68500Y-36500D02*
X69000Y-37000D01*
X76500Y-45500D02*
X78500Y-45500D01*
X65750Y-36500D02*
X68500Y-36500D01*
X78500Y-44000D02*
X78500Y-43500D01*
X78500Y-44750D02*
X78500Y-44000D01*
X78000Y-44000D02*
X78500Y-44000D01*
X74500Y-38000D02*
X73000Y-36500D01*
X48000Y-35000D02*
X48000Y-34750D01*
X48000Y-34250D02*
X48000Y-34125D01*
X72000Y-47000D02*
X72000Y-46500D01*
X79250Y-37500D02*
X79250Y-37250D01*
X41375Y-32000D02*
X40375Y-32000D01*
X74500Y-37500D02*
X72750Y-35750D01*
X73000Y-36500D02*
X72750Y-36250D01*
X77750Y-43750D02*
X78000Y-44000D01*
X46000Y-27000D02*
X46000Y-27250D01*
X46500Y-28500D02*
X46000Y-29000D01*
X46500Y-27750D02*
X46500Y-28500D01*
X47500Y-35500D02*
X48000Y-35000D01*
X48000Y-36000D02*
X47500Y-35500D01*
X48000Y-33500D02*
X48000Y-34125D01*
X48625Y-33500D02*
X48000Y-33500D01*
X46000Y-27250D02*
X46500Y-27750D01*
X48000Y-36000D02*
X47500Y-36500D01*
X47500Y-36500D02*
X46500Y-36500D01*
X72000Y-28000D02*
X69500Y-25500D01*
X60000Y-22250D02*
X60500Y-21750D01*
X69500Y-25500D02*
X69000Y-25500D01*
X70750Y-24750D02*
X70750Y-24250D01*
X70750Y-24250D02*
X69000Y-22500D01*
X72500Y-26500D02*
X70750Y-24750D01*
X69000Y-37250D02*
X70500Y-38750D01*
X70500Y-38750D02*
X70500Y-39500D01*
X69000Y-37000D02*
X69000Y-37250D01*
X79250Y-31500D02*
X79250Y-31000D01*
X46000Y-27000D02*
X46000Y-26750D01*
X51498Y-45250D02*
X50998Y-44750D01*
X79250Y-37250D02*
X79250Y-31500D01*
X60000Y-22250D02*
X61250Y-23500D01*
X61000Y-40250D02*
X60500Y-39750D01*
X76000Y-40750D02*
X76000Y-42000D01*
X76000Y-40250D02*
X76000Y-40750D01*
X51500Y-45250D02*
X51498Y-45250D01*
X60500Y-28500D02*
X60500Y-27500D01*
X60750Y-45500D02*
X61000Y-45250D01*
X61000Y-45250D02*
X61000Y-40750D01*
X60000Y-47000D02*
X60000Y-46250D01*
X60000Y-46250D02*
X60750Y-45500D01*
X60500Y-27500D02*
X60000Y-27000D01*
X60500Y-31750D02*
X60500Y-30500D01*
X60500Y-28500D02*
X59500Y-29500D01*
X60500Y-30500D02*
X61000Y-30000D01*
X60500Y-33750D02*
X60500Y-31750D01*
X60500Y-39750D02*
X60500Y-33750D01*
X47000Y-25750D02*
X47125Y-25625D01*
X50500Y-34750D02*
X50125Y-34375D01*
X66000Y-39000D02*
X66000Y-38250D01*
X65500Y-37750D02*
X65500Y-36750D01*
X77400Y-31000D02*
X76940Y-31460D01*
X79250Y-37500D02*
X78539Y-37500D01*
X78549Y-29750D02*
X77500Y-28701D01*
X51500Y-45250D02*
X51500Y-46500D01*
X47125Y-25625D02*
X48125Y-25625D01*
X46500Y-36500D02*
X46000Y-37000D01*
X50998Y-42552D02*
X51500Y-42050D01*
X50998Y-44750D02*
X50998Y-42552D01*
X50125Y-33500D02*
X50125Y-32000D01*
X50125Y-34375D02*
X50125Y-33500D01*
X76000Y-42000D02*
X77750Y-43750D01*
X80500Y-27500D02*
X79500Y-26500D01*
X51000Y-35000D02*
X50750Y-35000D01*
X50125Y-32000D02*
X50125Y-28875D01*
X58750Y-25750D02*
X60000Y-27000D01*
X79500Y-48750D02*
X78500Y-47750D01*
X58000Y-25750D02*
X58750Y-25750D01*
X78500Y-45500D02*
X78500Y-44750D01*
X78500Y-43500D02*
X78500Y-43250D01*
X76000Y-45000D02*
X76500Y-45500D01*
X78500Y-43250D02*
X79250Y-42500D01*
X48125Y-25625D02*
X49000Y-24750D01*
G54D20*
X67500Y-28000D02*
X68000Y-28500D01*
X64250Y-27500D02*
X64750Y-28000D01*
X64000Y-27500D02*
X64250Y-27500D01*
X64750Y-28000D02*
X67500Y-28000D01*
X68000Y-43000D02*
X68000Y-42000D01*
X66000Y-43000D02*
X66000Y-42000D01*
X69250Y-45250D02*
X71000Y-47000D01*
X66500Y-44250D02*
X66500Y-43500D01*
X66000Y-43000D02*
X66500Y-43500D01*
X69250Y-45250D02*
X67500Y-45250D01*
X66500Y-44250D02*
X67500Y-45250D01*
X68500Y-43500D02*
X69000Y-43000D01*
X67500Y-43500D02*
X68500Y-43500D01*
X69000Y-43000D02*
X69000Y-42000D01*
X67000Y-44000D02*
X67500Y-43500D01*
X48750Y-48250D02*
X48625Y-48375D01*
X49000Y-48250D02*
X48750Y-48250D01*
X49000Y-48250D02*
X53500Y-48250D01*
X53500Y-48250D02*
X53750Y-48000D01*
X53750Y-48000D02*
X54250Y-47500D01*
X52250Y-31000D02*
X54000Y-29250D01*
X52000Y-31000D02*
X52250Y-31000D01*
X54000Y-29250D02*
X54000Y-27750D01*
X52750Y-27000D02*
X54000Y-25750D01*
X51000Y-30750D02*
X51500Y-30250D01*
X51500Y-28750D02*
X51750Y-28500D01*
X51500Y-30250D02*
X51500Y-28750D01*
X51750Y-28500D02*
X52250Y-28500D01*
X52250Y-28500D02*
X52750Y-28000D01*
X52750Y-27000D02*
X52750Y-28000D01*
X51000Y-31000D02*
X51000Y-30750D01*
X54500Y-29250D02*
X54750Y-29250D01*
X54750Y-29250D02*
X55500Y-29250D01*
X51750Y-31500D02*
X52250Y-31500D01*
X55500Y-29250D02*
X56000Y-29250D01*
X51500Y-32250D02*
X51500Y-31750D01*
X51000Y-33000D02*
X51000Y-32750D01*
X51500Y-31750D02*
X51750Y-31500D01*
X56000Y-27750D02*
X56000Y-29250D01*
X52250Y-31500D02*
X54500Y-29250D01*
X51000Y-32750D02*
X51500Y-32250D01*
X41750Y-21250D02*
X41250Y-21750D01*
X49750Y-33250D02*
X49750Y-33250D01*
X46750Y-31500D02*
X46500Y-31500D01*
X44000Y-21750D02*
X43500Y-21250D01*
X43500Y-21250D02*
X41750Y-21250D01*
X42500Y-30750D02*
X42500Y-31250D01*
X49250Y-31500D02*
X49750Y-32000D01*
X50000Y-34750D02*
X49750Y-34500D01*
X41750Y-30500D02*
X42250Y-30500D01*
X41250Y-30000D02*
X41750Y-30500D01*
X42750Y-31500D02*
X46500Y-31500D01*
X42500Y-31250D02*
X42750Y-31500D01*
X42250Y-30500D02*
X42500Y-30750D01*
X49750Y-32000D02*
X49750Y-33248D01*
X49750Y-34500D02*
X49750Y-33250D01*
X46750Y-31500D02*
X49250Y-31500D01*
X51000Y-36000D02*
X51000Y-35750D01*
X49750Y-33248D02*
X49748Y-33250D01*
X49748Y-33250D02*
X49750Y-33250D01*
X51000Y-35750D02*
X50000Y-34750D01*
X41250Y-21750D02*
X41250Y-30000D01*
X58500Y-30750D02*
X58750Y-30500D01*
X58500Y-31750D02*
X58500Y-31000D01*
X58500Y-31000D02*
X58500Y-30750D01*
X58750Y-30500D02*
X59250Y-30500D01*
X59500Y-30500D02*
X61000Y-29000D01*
X59250Y-30500D02*
X59500Y-30500D01*
X59000Y-38250D02*
X58500Y-37750D01*
X58500Y-37750D02*
X58500Y-31750D01*
X59000Y-39000D02*
X59000Y-38250D01*
X54498Y-29752D02*
X54748Y-29752D01*
X52500Y-32500D02*
X52500Y-32000D01*
X52500Y-32000D02*
X52500Y-31750D01*
X57498Y-29752D02*
X58000Y-29250D01*
X52000Y-33000D02*
X52500Y-32500D01*
X54748Y-29752D02*
X57498Y-29752D01*
X58000Y-27750D02*
X58000Y-29250D01*
X52500Y-31750D02*
X54498Y-29752D01*
X67000Y-43000D02*
X67000Y-42000D01*
X65500Y-44250D02*
X67000Y-45750D01*
X68000Y-46000D02*
X67750Y-45750D01*
X69000Y-47000D02*
X68000Y-46000D01*
X65000Y-43000D02*
X65000Y-42000D01*
X65500Y-44250D02*
X65500Y-43500D01*
X67000Y-45750D02*
X67750Y-45750D01*
X65500Y-43500D02*
X65000Y-43000D01*
G54D21*
X74750Y-44500D02*
X74750Y-45750D01*
X75313Y-46313D02*
X76000Y-47000D01*
X60000Y-25000D02*
X60500Y-24500D01*
X46500Y-40750D02*
X46500Y-40500D01*
X61500Y-43500D02*
X62000Y-43000D01*
X41500Y-45500D02*
X41500Y-44500D01*
X74750Y-45750D02*
X76000Y-47000D01*
X61500Y-44500D02*
X61500Y-43500D01*
X46500Y-41250D02*
X46500Y-41000D01*
X72500Y-38500D02*
X72500Y-37500D01*
X65000Y-46250D02*
X63000Y-44250D01*
X54000Y-33250D02*
X54000Y-33000D01*
X75250Y-46250D02*
X75313Y-46313D01*
X58000Y-47000D02*
X58000Y-45500D01*
X72500Y-37500D02*
X72000Y-37000D01*
X46500Y-41250D02*
X46500Y-41500D01*
X74750Y-40750D02*
X74750Y-44500D01*
X51500Y-38250D02*
X52000Y-37750D01*
X58000Y-45500D02*
X58000Y-44750D01*
X65000Y-47000D02*
X65000Y-46250D01*
X72500Y-38500D02*
X74750Y-40750D01*
X46500Y-37500D02*
X46500Y-39500D01*
X47000Y-37000D02*
X46500Y-37500D01*
X63000Y-44250D02*
X63000Y-44000D01*
X48750Y-31000D02*
X49500Y-30250D01*
X43000Y-31000D02*
X48750Y-31000D01*
X52000Y-36000D02*
X52000Y-37750D01*
X52750Y-34500D02*
X54000Y-33250D01*
X52000Y-36000D02*
X52750Y-35250D01*
X46500Y-40500D02*
X46500Y-39500D01*
X62500Y-24000D02*
X63500Y-24000D01*
X63500Y-24000D02*
X65500Y-26000D01*
X60500Y-24500D02*
X62000Y-24500D01*
X62000Y-24500D02*
X62500Y-24000D01*
X51500Y-39500D02*
X51500Y-38250D01*
X65500Y-26000D02*
X66000Y-26500D01*
X52750Y-35250D02*
X52750Y-34500D01*
X46500Y-41000D02*
X46500Y-40750D01*
X75250Y-43250D02*
X75250Y-39750D01*
X75250Y-39750D02*
X75000Y-39500D01*
X76000Y-44000D02*
X75500Y-43500D01*
X74500Y-39500D02*
X75000Y-39500D01*
X75500Y-43500D02*
X75250Y-43250D01*
X75000Y-37000D02*
X75000Y-39500D01*
X75750Y-39250D02*
X75750Y-28750D01*
X78500Y-42000D02*
X75750Y-39250D01*
X75000Y-28000D02*
X75000Y-27000D01*
X75000Y-27000D02*
X74500Y-26500D01*
X75750Y-28750D02*
X75000Y-28000D01*
G54D10*
G36*
X41571Y-41500D02*
X41500Y-41571D01*
X41429Y-41500D01*
X41500Y-41429D01*
X41571Y-41500D01*
X41571Y-41500D01*
G37*
G54D22*
X41571Y-41500D02*
X41500Y-41571D01*
X41429Y-41500D01*
X41500Y-41429D01*
X41571Y-41500D01*
G54D10*
G36*
X41571Y-46500D02*
X41500Y-46571D01*
X41429Y-46500D01*
X41500Y-46429D01*
X41571Y-46500D01*
X41571Y-46500D01*
G37*
G54D22*
X41571Y-46500D02*
X41500Y-46571D01*
X41429Y-46500D01*
X41500Y-46429D01*
X41571Y-46500D01*
G54D10*
G36*
X42071Y-30000D02*
X42000Y-30071D01*
X41929Y-30000D01*
X42000Y-29929D01*
X42071Y-30000D01*
X42071Y-30000D01*
G37*
G54D22*
X42071Y-30000D02*
X42000Y-30071D01*
X41929Y-30000D01*
X42000Y-29929D01*
X42071Y-30000D01*
G54D10*
G36*
X42071Y-36000D02*
X42000Y-36071D01*
X41929Y-36000D01*
X42000Y-35929D01*
X42071Y-36000D01*
X42071Y-36000D01*
G37*
G54D22*
X42071Y-36000D02*
X42000Y-36071D01*
X41929Y-36000D01*
X42000Y-35929D01*
X42071Y-36000D01*
G54D10*
G36*
X42877Y-25238D02*
X42308Y-25808D01*
X42250Y-25896D01*
X42246Y-25914D01*
X42228Y-26000D01*
X42229Y-26004D01*
X42229Y-26250D01*
X42229Y-27581D01*
X42095Y-27526D01*
X41906Y-27526D01*
X41771Y-27581D01*
X41771Y-25187D01*
X41893Y-25239D01*
X42088Y-25239D01*
X42106Y-25239D01*
X42286Y-25165D01*
X42423Y-25027D01*
X42498Y-24848D01*
X42498Y-24653D01*
X42424Y-24473D01*
X42286Y-24336D01*
X42107Y-24261D01*
X41912Y-24261D01*
X41894Y-24261D01*
X41771Y-24311D01*
X41771Y-23299D01*
X41888Y-23300D01*
X41950Y-23238D01*
X41950Y-22850D01*
X41950Y-22800D01*
X41950Y-22700D01*
X42050Y-22700D01*
X42050Y-22800D01*
X42050Y-22850D01*
X42050Y-23238D01*
X42112Y-23300D01*
X42349Y-23299D01*
X42441Y-23261D01*
X42511Y-23191D01*
X42549Y-23100D01*
X42549Y-23001D01*
X42549Y-22962D01*
X42578Y-23032D01*
X42677Y-23131D01*
X42677Y-24369D01*
X42578Y-24468D01*
X42502Y-24651D01*
X42502Y-24849D01*
X42578Y-25032D01*
X42718Y-25172D01*
X42877Y-25238D01*
X42877Y-25238D01*
G37*
G54D22*
X42877Y-25238D02*
X42308Y-25808D01*
X42250Y-25896D01*
X42246Y-25914D01*
X42228Y-26000D01*
X42229Y-26004D01*
X42229Y-26250D01*
X42229Y-27581D01*
X42095Y-27526D01*
X41906Y-27526D01*
X41771Y-27581D01*
X41771Y-25187D01*
X41893Y-25239D01*
X42088Y-25239D01*
X42106Y-25239D01*
X42286Y-25165D01*
X42423Y-25027D01*
X42498Y-24848D01*
X42498Y-24653D01*
X42424Y-24473D01*
X42286Y-24336D01*
X42107Y-24261D01*
X41912Y-24261D01*
X41894Y-24261D01*
X41771Y-24311D01*
X41771Y-23299D01*
X41888Y-23300D01*
X41950Y-23238D01*
X41950Y-22850D01*
X41950Y-22800D01*
X41950Y-22700D01*
X42050Y-22700D01*
X42050Y-22800D01*
X42050Y-22850D01*
X42050Y-23238D01*
X42112Y-23300D01*
X42349Y-23299D01*
X42441Y-23261D01*
X42511Y-23191D01*
X42549Y-23100D01*
X42549Y-23001D01*
X42549Y-22962D01*
X42578Y-23032D01*
X42677Y-23131D01*
X42677Y-24369D01*
X42578Y-24468D01*
X42502Y-24651D01*
X42502Y-24849D01*
X42578Y-25032D01*
X42718Y-25172D01*
X42877Y-25238D01*
G54D10*
G36*
X44605Y-27723D02*
X44598Y-27731D01*
X44526Y-27905D01*
X44526Y-28090D01*
X44506Y-28109D01*
X44519Y-28074D01*
X44508Y-27870D01*
X44452Y-27733D01*
X44361Y-27710D01*
X44106Y-27965D01*
X44071Y-28000D01*
X44000Y-28071D01*
X43929Y-28000D01*
X44000Y-27929D01*
X44035Y-27894D01*
X44290Y-27639D01*
X44267Y-27548D01*
X44074Y-27481D01*
X43870Y-27492D01*
X43763Y-27535D01*
X43771Y-27500D01*
X43771Y-27418D01*
X43905Y-27474D01*
X44094Y-27474D01*
X44268Y-27402D01*
X44276Y-27393D01*
X44308Y-27442D01*
X44556Y-27689D01*
X44558Y-27692D01*
X44605Y-27723D01*
X44605Y-27723D01*
G37*
G54D22*
X44605Y-27723D02*
X44598Y-27731D01*
X44526Y-27905D01*
X44526Y-28090D01*
X44506Y-28109D01*
X44519Y-28074D01*
X44508Y-27870D01*
X44452Y-27733D01*
X44361Y-27710D01*
X44106Y-27965D01*
X44071Y-28000D01*
X44000Y-28071D01*
X43929Y-28000D01*
X44000Y-27929D01*
X44035Y-27894D01*
X44290Y-27639D01*
X44267Y-27548D01*
X44074Y-27481D01*
X43870Y-27492D01*
X43763Y-27535D01*
X43771Y-27500D01*
X43771Y-27418D01*
X43905Y-27474D01*
X44094Y-27474D01*
X44268Y-27402D01*
X44276Y-27393D01*
X44308Y-27442D01*
X44556Y-27689D01*
X44558Y-27692D01*
X44605Y-27723D01*
G54D10*
G36*
X45071Y-22750D02*
X45000Y-22821D01*
X44929Y-22891D01*
X44929Y-22750D01*
X44622Y-22442D01*
X44528Y-22469D01*
X44502Y-22542D01*
X44472Y-22469D01*
X44378Y-22442D01*
X44071Y-22750D01*
X44378Y-23058D01*
X44472Y-23031D01*
X44497Y-22957D01*
X44528Y-23031D01*
X44622Y-23058D01*
X44929Y-22750D01*
X44929Y-22891D01*
X44692Y-23128D01*
X44719Y-23222D01*
X44849Y-23267D01*
X44308Y-23807D01*
X44308Y-23128D01*
X44000Y-22821D01*
X43692Y-23128D01*
X43719Y-23222D01*
X43921Y-23293D01*
X44134Y-23282D01*
X44281Y-23222D01*
X44308Y-23128D01*
X44308Y-23807D01*
X43488Y-24627D01*
X43422Y-24468D01*
X43323Y-24369D01*
X43323Y-23131D01*
X43422Y-23032D01*
X43475Y-22902D01*
X43528Y-23031D01*
X43622Y-23058D01*
X43929Y-22750D01*
X43622Y-22442D01*
X43528Y-22469D01*
X43479Y-22606D01*
X43422Y-22468D01*
X43282Y-22328D01*
X43099Y-22252D01*
X42901Y-22252D01*
X42718Y-22328D01*
X42578Y-22468D01*
X42549Y-22537D01*
X42549Y-22499D01*
X42549Y-22400D01*
X42511Y-22309D01*
X42441Y-22239D01*
X42349Y-22201D01*
X42213Y-22200D01*
X42282Y-22172D01*
X42422Y-22032D01*
X42498Y-21849D01*
X42498Y-21651D01*
X42444Y-21521D01*
X42555Y-21521D01*
X42502Y-21651D01*
X42502Y-21849D01*
X42578Y-22032D01*
X42718Y-22172D01*
X42901Y-22248D01*
X43099Y-22248D01*
X43282Y-22172D01*
X43422Y-22032D01*
X43498Y-21849D01*
X43498Y-21651D01*
X43484Y-21618D01*
X43506Y-21640D01*
X43502Y-21651D01*
X43502Y-21849D01*
X43578Y-22032D01*
X43718Y-22172D01*
X43847Y-22225D01*
X43719Y-22278D01*
X43692Y-22372D01*
X44000Y-22679D01*
X44308Y-22372D01*
X44281Y-22278D01*
X44143Y-22229D01*
X44282Y-22172D01*
X44422Y-22032D01*
X44498Y-21849D01*
X44498Y-21651D01*
X44422Y-21468D01*
X44282Y-21328D01*
X44144Y-21271D01*
X44855Y-21271D01*
X44718Y-21328D01*
X44578Y-21468D01*
X44502Y-21651D01*
X44502Y-21849D01*
X44578Y-22032D01*
X44718Y-22172D01*
X44847Y-22225D01*
X44719Y-22278D01*
X44692Y-22372D01*
X44965Y-22644D01*
X45000Y-22679D01*
X45071Y-22750D01*
X45071Y-22750D01*
G37*
G54D22*
X45071Y-22750D02*
X45000Y-22821D01*
X44929Y-22891D01*
X44929Y-22750D01*
X44622Y-22442D01*
X44528Y-22469D01*
X44502Y-22542D01*
X44472Y-22469D01*
X44378Y-22442D01*
X44071Y-22750D01*
X44378Y-23058D01*
X44472Y-23031D01*
X44497Y-22957D01*
X44528Y-23031D01*
X44622Y-23058D01*
X44929Y-22750D01*
X44929Y-22891D01*
X44692Y-23128D01*
X44719Y-23222D01*
X44849Y-23267D01*
X44308Y-23807D01*
X44308Y-23128D01*
X44000Y-22821D01*
X43692Y-23128D01*
X43719Y-23222D01*
X43921Y-23293D01*
X44134Y-23282D01*
X44281Y-23222D01*
X44308Y-23128D01*
X44308Y-23807D01*
X43488Y-24627D01*
X43422Y-24468D01*
X43323Y-24369D01*
X43323Y-23131D01*
X43422Y-23032D01*
X43475Y-22902D01*
X43528Y-23031D01*
X43622Y-23058D01*
X43929Y-22750D01*
X43622Y-22442D01*
X43528Y-22469D01*
X43479Y-22606D01*
X43422Y-22468D01*
X43282Y-22328D01*
X43099Y-22252D01*
X42901Y-22252D01*
X42718Y-22328D01*
X42578Y-22468D01*
X42549Y-22537D01*
X42549Y-22499D01*
X42549Y-22400D01*
X42511Y-22309D01*
X42441Y-22239D01*
X42349Y-22201D01*
X42213Y-22200D01*
X42282Y-22172D01*
X42422Y-22032D01*
X42498Y-21849D01*
X42498Y-21651D01*
X42444Y-21521D01*
X42555Y-21521D01*
X42502Y-21651D01*
X42502Y-21849D01*
X42578Y-22032D01*
X42718Y-22172D01*
X42901Y-22248D01*
X43099Y-22248D01*
X43282Y-22172D01*
X43422Y-22032D01*
X43498Y-21849D01*
X43498Y-21651D01*
X43484Y-21618D01*
X43506Y-21640D01*
X43502Y-21651D01*
X43502Y-21849D01*
X43578Y-22032D01*
X43718Y-22172D01*
X43847Y-22225D01*
X43719Y-22278D01*
X43692Y-22372D01*
X44000Y-22679D01*
X44308Y-22372D01*
X44281Y-22278D01*
X44143Y-22229D01*
X44282Y-22172D01*
X44422Y-22032D01*
X44498Y-21849D01*
X44498Y-21651D01*
X44422Y-21468D01*
X44282Y-21328D01*
X44144Y-21271D01*
X44855Y-21271D01*
X44718Y-21328D01*
X44578Y-21468D01*
X44502Y-21651D01*
X44502Y-21849D01*
X44578Y-22032D01*
X44718Y-22172D01*
X44847Y-22225D01*
X44719Y-22278D01*
X44692Y-22372D01*
X44965Y-22644D01*
X45000Y-22679D01*
X45071Y-22750D01*
G54D10*
G36*
X46071Y-27000D02*
X46000Y-27071D01*
X45929Y-27000D01*
X46000Y-26929D01*
X46071Y-27000D01*
X46071Y-27000D01*
G37*
G54D22*
X46071Y-27000D02*
X46000Y-27071D01*
X45929Y-27000D01*
X46000Y-26929D01*
X46071Y-27000D01*
G54D10*
G36*
X46896Y-28470D02*
X45637Y-29729D01*
X45507Y-29729D01*
X45462Y-29683D01*
X45325Y-29626D01*
X45176Y-29626D01*
X45039Y-29683D01*
X44933Y-29788D01*
X44876Y-29925D01*
X44876Y-30074D01*
X44933Y-30211D01*
X44950Y-30229D01*
X43418Y-30229D01*
X43474Y-30095D01*
X43474Y-29906D01*
X43418Y-29771D01*
X44245Y-29771D01*
X44250Y-29772D01*
X44250Y-29771D01*
X44335Y-29753D01*
X44353Y-29750D01*
X44354Y-29750D01*
X44442Y-29692D01*
X45689Y-28443D01*
X45691Y-28442D01*
X45692Y-28442D01*
X45723Y-28394D01*
X45731Y-28402D01*
X45905Y-28474D01*
X46094Y-28474D01*
X46268Y-28402D01*
X46402Y-28269D01*
X46474Y-28095D01*
X46474Y-27906D01*
X46402Y-27732D01*
X46269Y-27598D01*
X46199Y-27569D01*
X46192Y-27558D01*
X46138Y-27504D01*
X46267Y-27452D01*
X46275Y-27416D01*
X46307Y-27448D01*
X46310Y-27444D01*
X46597Y-27731D01*
X46526Y-27905D01*
X46526Y-28094D01*
X46598Y-28268D01*
X46731Y-28402D01*
X46896Y-28470D01*
X46896Y-28470D01*
G37*
G54D22*
X46896Y-28470D02*
X45637Y-29729D01*
X45507Y-29729D01*
X45462Y-29683D01*
X45325Y-29626D01*
X45176Y-29626D01*
X45039Y-29683D01*
X44933Y-29788D01*
X44876Y-29925D01*
X44876Y-30074D01*
X44933Y-30211D01*
X44950Y-30229D01*
X43418Y-30229D01*
X43474Y-30095D01*
X43474Y-29906D01*
X43418Y-29771D01*
X44245Y-29771D01*
X44250Y-29772D01*
X44250Y-29771D01*
X44335Y-29753D01*
X44353Y-29750D01*
X44354Y-29750D01*
X44442Y-29692D01*
X45689Y-28443D01*
X45691Y-28442D01*
X45692Y-28442D01*
X45723Y-28394D01*
X45731Y-28402D01*
X45905Y-28474D01*
X46094Y-28474D01*
X46268Y-28402D01*
X46402Y-28269D01*
X46474Y-28095D01*
X46474Y-27906D01*
X46402Y-27732D01*
X46269Y-27598D01*
X46199Y-27569D01*
X46192Y-27558D01*
X46138Y-27504D01*
X46267Y-27452D01*
X46275Y-27416D01*
X46307Y-27448D01*
X46310Y-27444D01*
X46597Y-27731D01*
X46526Y-27905D01*
X46526Y-28094D01*
X46598Y-28268D01*
X46731Y-28402D01*
X46896Y-28470D01*
G54D10*
G36*
X47071Y-22750D02*
X47000Y-22821D01*
X46929Y-22750D01*
X47000Y-22679D01*
X47071Y-22750D01*
X47071Y-22750D01*
G37*
G54D22*
X47071Y-22750D02*
X47000Y-22821D01*
X46929Y-22750D01*
X47000Y-22679D01*
X47071Y-22750D01*
G54D10*
G36*
X47614Y-32771D02*
X47558Y-32808D01*
X47556Y-32810D01*
X45308Y-35058D01*
X45250Y-35146D01*
X45246Y-35164D01*
X45228Y-35250D01*
X45229Y-35254D01*
X45229Y-35581D01*
X45095Y-35526D01*
X44906Y-35526D01*
X44732Y-35598D01*
X44598Y-35731D01*
X44526Y-35905D01*
X44526Y-36094D01*
X44598Y-36268D01*
X44731Y-36402D01*
X44905Y-36474D01*
X45094Y-36474D01*
X45229Y-36418D01*
X45229Y-36581D01*
X45095Y-36526D01*
X44906Y-36526D01*
X44732Y-36598D01*
X44598Y-36731D01*
X44526Y-36905D01*
X44526Y-37094D01*
X44598Y-37268D01*
X44731Y-37402D01*
X44905Y-37474D01*
X45094Y-37474D01*
X45229Y-37418D01*
X45229Y-38495D01*
X45228Y-38500D01*
X45246Y-38585D01*
X45246Y-38588D01*
X45095Y-38526D01*
X44906Y-38526D01*
X44732Y-38598D01*
X44598Y-38731D01*
X44526Y-38905D01*
X44526Y-39094D01*
X44598Y-39268D01*
X44731Y-39402D01*
X44905Y-39474D01*
X45094Y-39474D01*
X45268Y-39402D01*
X45402Y-39269D01*
X45474Y-39095D01*
X45474Y-38906D01*
X45440Y-38824D01*
X45526Y-38910D01*
X45526Y-39094D01*
X45598Y-39268D01*
X45731Y-39402D01*
X45905Y-39474D01*
X46094Y-39474D01*
X46126Y-39460D01*
X46126Y-39574D01*
X46177Y-39696D01*
X46177Y-40500D01*
X46177Y-40750D01*
X46177Y-41000D01*
X46177Y-41250D01*
X46177Y-41302D01*
X46126Y-41425D01*
X46126Y-41538D01*
X46095Y-41526D01*
X45906Y-41526D01*
X45771Y-41581D01*
X45771Y-41500D01*
X45771Y-41250D01*
X45750Y-41146D01*
X45692Y-41058D01*
X45689Y-41056D01*
X44519Y-39885D01*
X44519Y-37074D01*
X44508Y-36870D01*
X44452Y-36733D01*
X44361Y-36710D01*
X44071Y-37000D01*
X44361Y-37290D01*
X44452Y-37267D01*
X44519Y-37074D01*
X44519Y-39885D01*
X44103Y-39469D01*
X44268Y-39402D01*
X44402Y-39269D01*
X44474Y-39095D01*
X44474Y-38906D01*
X44402Y-38732D01*
X44269Y-38598D01*
X44095Y-38526D01*
X43906Y-38526D01*
X43771Y-38581D01*
X43771Y-37465D01*
X43926Y-37519D01*
X44130Y-37508D01*
X44267Y-37452D01*
X44290Y-37361D01*
X44035Y-37106D01*
X44000Y-37071D01*
X43929Y-37000D01*
X44000Y-36929D01*
X44035Y-36894D01*
X44290Y-36639D01*
X44267Y-36548D01*
X44074Y-36481D01*
X43870Y-36492D01*
X43771Y-36532D01*
X43771Y-36418D01*
X43905Y-36474D01*
X44094Y-36474D01*
X44268Y-36402D01*
X44402Y-36269D01*
X44474Y-36095D01*
X44474Y-35906D01*
X44402Y-35732D01*
X44269Y-35598D01*
X44095Y-35526D01*
X43906Y-35526D01*
X43771Y-35581D01*
X43771Y-34500D01*
X43750Y-34397D01*
X43750Y-34396D01*
X43692Y-34308D01*
X43474Y-34090D01*
X43474Y-33906D01*
X43402Y-33732D01*
X43269Y-33598D01*
X43095Y-33526D01*
X42906Y-33526D01*
X42732Y-33598D01*
X42598Y-33731D01*
X42526Y-33905D01*
X42526Y-34094D01*
X42598Y-34268D01*
X42731Y-34402D01*
X42905Y-34474D01*
X43090Y-34474D01*
X43175Y-34559D01*
X43095Y-34526D01*
X42906Y-34526D01*
X42732Y-34598D01*
X42598Y-34731D01*
X42526Y-34905D01*
X42526Y-35094D01*
X42598Y-35268D01*
X42310Y-35555D01*
X42307Y-35552D01*
X42275Y-35583D01*
X42267Y-35548D01*
X42074Y-35481D01*
X41893Y-35490D01*
X41910Y-35474D01*
X42094Y-35474D01*
X42268Y-35402D01*
X42402Y-35269D01*
X42474Y-35095D01*
X42474Y-34906D01*
X42402Y-34732D01*
X42269Y-34598D01*
X42095Y-34526D01*
X41906Y-34526D01*
X41732Y-34598D01*
X41598Y-34731D01*
X41526Y-34905D01*
X41526Y-35090D01*
X41308Y-35308D01*
X41271Y-35364D01*
X41271Y-34112D01*
X41559Y-33824D01*
X41526Y-33905D01*
X41526Y-34094D01*
X41598Y-34268D01*
X41731Y-34402D01*
X41905Y-34474D01*
X42094Y-34474D01*
X42268Y-34402D01*
X42402Y-34269D01*
X42474Y-34095D01*
X42474Y-33906D01*
X42402Y-33732D01*
X42269Y-33598D01*
X42095Y-33526D01*
X41906Y-33526D01*
X41823Y-33560D01*
X41909Y-33474D01*
X42094Y-33474D01*
X42268Y-33402D01*
X42402Y-33269D01*
X42474Y-33095D01*
X42474Y-32906D01*
X42418Y-32771D01*
X42581Y-32771D01*
X42526Y-32905D01*
X42526Y-33094D01*
X42598Y-33268D01*
X42731Y-33402D01*
X42905Y-33474D01*
X43094Y-33474D01*
X43268Y-33402D01*
X43402Y-33269D01*
X43474Y-33095D01*
X43474Y-32906D01*
X43418Y-32771D01*
X46750Y-32771D01*
X47614Y-32771D01*
X47614Y-32771D01*
G37*
G54D22*
X47614Y-32771D02*
X47558Y-32808D01*
X47556Y-32810D01*
X45308Y-35058D01*
X45250Y-35146D01*
X45246Y-35164D01*
X45228Y-35250D01*
X45229Y-35254D01*
X45229Y-35581D01*
X45095Y-35526D01*
X44906Y-35526D01*
X44732Y-35598D01*
X44598Y-35731D01*
X44526Y-35905D01*
X44526Y-36094D01*
X44598Y-36268D01*
X44731Y-36402D01*
X44905Y-36474D01*
X45094Y-36474D01*
X45229Y-36418D01*
X45229Y-36581D01*
X45095Y-36526D01*
X44906Y-36526D01*
X44732Y-36598D01*
X44598Y-36731D01*
X44526Y-36905D01*
X44526Y-37094D01*
X44598Y-37268D01*
X44731Y-37402D01*
X44905Y-37474D01*
X45094Y-37474D01*
X45229Y-37418D01*
X45229Y-38495D01*
X45228Y-38500D01*
X45246Y-38585D01*
X45246Y-38588D01*
X45095Y-38526D01*
X44906Y-38526D01*
X44732Y-38598D01*
X44598Y-38731D01*
X44526Y-38905D01*
X44526Y-39094D01*
X44598Y-39268D01*
X44731Y-39402D01*
X44905Y-39474D01*
X45094Y-39474D01*
X45268Y-39402D01*
X45402Y-39269D01*
X45474Y-39095D01*
X45474Y-38906D01*
X45440Y-38824D01*
X45526Y-38910D01*
X45526Y-39094D01*
X45598Y-39268D01*
X45731Y-39402D01*
X45905Y-39474D01*
X46094Y-39474D01*
X46126Y-39460D01*
X46126Y-39574D01*
X46177Y-39696D01*
X46177Y-40500D01*
X46177Y-40750D01*
X46177Y-41000D01*
X46177Y-41250D01*
X46177Y-41302D01*
X46126Y-41425D01*
X46126Y-41538D01*
X46095Y-41526D01*
X45906Y-41526D01*
X45771Y-41581D01*
X45771Y-41500D01*
X45771Y-41250D01*
X45750Y-41146D01*
X45692Y-41058D01*
X45689Y-41056D01*
X44519Y-39885D01*
X44519Y-37074D01*
X44508Y-36870D01*
X44452Y-36733D01*
X44361Y-36710D01*
X44071Y-37000D01*
X44361Y-37290D01*
X44452Y-37267D01*
X44519Y-37074D01*
X44519Y-39885D01*
X44103Y-39469D01*
X44268Y-39402D01*
X44402Y-39269D01*
X44474Y-39095D01*
X44474Y-38906D01*
X44402Y-38732D01*
X44269Y-38598D01*
X44095Y-38526D01*
X43906Y-38526D01*
X43771Y-38581D01*
X43771Y-37465D01*
X43926Y-37519D01*
X44130Y-37508D01*
X44267Y-37452D01*
X44290Y-37361D01*
X44035Y-37106D01*
X44000Y-37071D01*
X43929Y-37000D01*
X44000Y-36929D01*
X44035Y-36894D01*
X44290Y-36639D01*
X44267Y-36548D01*
X44074Y-36481D01*
X43870Y-36492D01*
X43771Y-36532D01*
X43771Y-36418D01*
X43905Y-36474D01*
X44094Y-36474D01*
X44268Y-36402D01*
X44402Y-36269D01*
X44474Y-36095D01*
X44474Y-35906D01*
X44402Y-35732D01*
X44269Y-35598D01*
X44095Y-35526D01*
X43906Y-35526D01*
X43771Y-35581D01*
X43771Y-34500D01*
X43750Y-34397D01*
X43750Y-34396D01*
X43692Y-34308D01*
X43474Y-34090D01*
X43474Y-33906D01*
X43402Y-33732D01*
X43269Y-33598D01*
X43095Y-33526D01*
X42906Y-33526D01*
X42732Y-33598D01*
X42598Y-33731D01*
X42526Y-33905D01*
X42526Y-34094D01*
X42598Y-34268D01*
X42731Y-34402D01*
X42905Y-34474D01*
X43090Y-34474D01*
X43175Y-34559D01*
X43095Y-34526D01*
X42906Y-34526D01*
X42732Y-34598D01*
X42598Y-34731D01*
X42526Y-34905D01*
X42526Y-35094D01*
X42598Y-35268D01*
X42310Y-35555D01*
X42307Y-35552D01*
X42275Y-35583D01*
X42267Y-35548D01*
X42074Y-35481D01*
X41893Y-35490D01*
X41910Y-35474D01*
X42094Y-35474D01*
X42268Y-35402D01*
X42402Y-35269D01*
X42474Y-35095D01*
X42474Y-34906D01*
X42402Y-34732D01*
X42269Y-34598D01*
X42095Y-34526D01*
X41906Y-34526D01*
X41732Y-34598D01*
X41598Y-34731D01*
X41526Y-34905D01*
X41526Y-35090D01*
X41308Y-35308D01*
X41271Y-35364D01*
X41271Y-34112D01*
X41559Y-33824D01*
X41526Y-33905D01*
X41526Y-34094D01*
X41598Y-34268D01*
X41731Y-34402D01*
X41905Y-34474D01*
X42094Y-34474D01*
X42268Y-34402D01*
X42402Y-34269D01*
X42474Y-34095D01*
X42474Y-33906D01*
X42402Y-33732D01*
X42269Y-33598D01*
X42095Y-33526D01*
X41906Y-33526D01*
X41823Y-33560D01*
X41909Y-33474D01*
X42094Y-33474D01*
X42268Y-33402D01*
X42402Y-33269D01*
X42474Y-33095D01*
X42474Y-32906D01*
X42418Y-32771D01*
X42581Y-32771D01*
X42526Y-32905D01*
X42526Y-33094D01*
X42598Y-33268D01*
X42731Y-33402D01*
X42905Y-33474D01*
X43094Y-33474D01*
X43268Y-33402D01*
X43402Y-33269D01*
X43474Y-33095D01*
X43474Y-32906D01*
X43418Y-32771D01*
X46750Y-32771D01*
X47614Y-32771D01*
G54D10*
G36*
X48071Y-22750D02*
X48000Y-22821D01*
X47929Y-22750D01*
X48000Y-22679D01*
X48071Y-22750D01*
X48071Y-22750D01*
G37*
G54D22*
X48071Y-22750D02*
X48000Y-22821D01*
X47929Y-22750D01*
X48000Y-22679D01*
X48071Y-22750D01*
G54D10*
G36*
X48071Y-27000D02*
X48000Y-27071D01*
X47929Y-27000D01*
X48000Y-26929D01*
X48071Y-27000D01*
X48071Y-27000D01*
G37*
G54D22*
X48071Y-27000D02*
X48000Y-27071D01*
X47929Y-27000D01*
X48000Y-26929D01*
X48071Y-27000D01*
G54D10*
G36*
X49071Y-22750D02*
X49000Y-22821D01*
X48929Y-22750D01*
X49000Y-22679D01*
X49071Y-22750D01*
X49071Y-22750D01*
G37*
G54D22*
X49071Y-22750D02*
X49000Y-22821D01*
X48929Y-22750D01*
X49000Y-22679D01*
X49071Y-22750D01*
G54D10*
G36*
X49106Y-25259D02*
X49058Y-25308D01*
X48637Y-25729D01*
X47250Y-25729D01*
X47146Y-25750D01*
X47058Y-25808D01*
X47056Y-25810D01*
X46310Y-26555D01*
X46307Y-26552D01*
X46275Y-26583D01*
X46267Y-26548D01*
X46132Y-26501D01*
X47112Y-25521D01*
X47495Y-25521D01*
X47500Y-25522D01*
X47500Y-25521D01*
X47585Y-25503D01*
X47603Y-25500D01*
X47604Y-25500D01*
X47692Y-25442D01*
X48493Y-24639D01*
X48481Y-24676D01*
X48492Y-24880D01*
X48548Y-25017D01*
X48639Y-25040D01*
X48894Y-24785D01*
X48929Y-24750D01*
X49000Y-24679D01*
X49071Y-24750D01*
X49000Y-24821D01*
X48965Y-24856D01*
X48710Y-25111D01*
X48733Y-25202D01*
X48926Y-25269D01*
X49106Y-25259D01*
X49106Y-25259D01*
G37*
G54D22*
X49106Y-25259D02*
X49058Y-25308D01*
X48637Y-25729D01*
X47250Y-25729D01*
X47146Y-25750D01*
X47058Y-25808D01*
X47056Y-25810D01*
X46310Y-26555D01*
X46307Y-26552D01*
X46275Y-26583D01*
X46267Y-26548D01*
X46132Y-26501D01*
X47112Y-25521D01*
X47495Y-25521D01*
X47500Y-25522D01*
X47500Y-25521D01*
X47585Y-25503D01*
X47603Y-25500D01*
X47604Y-25500D01*
X47692Y-25442D01*
X48493Y-24639D01*
X48481Y-24676D01*
X48492Y-24880D01*
X48548Y-25017D01*
X48639Y-25040D01*
X48894Y-24785D01*
X48929Y-24750D01*
X49000Y-24679D01*
X49071Y-24750D01*
X49000Y-24821D01*
X48965Y-24856D01*
X48710Y-25111D01*
X48733Y-25202D01*
X48926Y-25269D01*
X49106Y-25259D01*
G54D10*
G36*
X50246Y-36588D02*
X50095Y-36526D01*
X49906Y-36526D01*
X49732Y-36598D01*
X49598Y-36731D01*
X49526Y-36905D01*
X49526Y-37090D01*
X49440Y-37175D01*
X49474Y-37095D01*
X49474Y-36906D01*
X49402Y-36732D01*
X49269Y-36598D01*
X49095Y-36526D01*
X48906Y-36526D01*
X48824Y-36559D01*
X48910Y-36474D01*
X49094Y-36474D01*
X49268Y-36402D01*
X49402Y-36269D01*
X49474Y-36095D01*
X49474Y-35906D01*
X49402Y-35732D01*
X49269Y-35598D01*
X49095Y-35526D01*
X48906Y-35526D01*
X48732Y-35598D01*
X48598Y-35731D01*
X48526Y-35905D01*
X48526Y-36090D01*
X48506Y-36109D01*
X48519Y-36074D01*
X48508Y-35870D01*
X48452Y-35733D01*
X48361Y-35710D01*
X48290Y-35781D01*
X48290Y-35639D01*
X48267Y-35548D01*
X48074Y-35481D01*
X47870Y-35492D01*
X47733Y-35548D01*
X47710Y-35639D01*
X48000Y-35929D01*
X48290Y-35639D01*
X48290Y-35781D01*
X48106Y-35965D01*
X48071Y-36000D01*
X48000Y-36071D01*
X47965Y-36106D01*
X47929Y-36142D01*
X47929Y-36000D01*
X47639Y-35710D01*
X47548Y-35733D01*
X47481Y-35926D01*
X47492Y-36130D01*
X47548Y-36267D01*
X47639Y-36290D01*
X47929Y-36000D01*
X47929Y-36142D01*
X47710Y-36361D01*
X47733Y-36452D01*
X47926Y-36519D01*
X48130Y-36508D01*
X48235Y-36464D01*
X48228Y-36500D01*
X48229Y-36504D01*
X48229Y-36581D01*
X48095Y-36526D01*
X47906Y-36526D01*
X47732Y-36598D01*
X47598Y-36731D01*
X47526Y-36905D01*
X47526Y-37094D01*
X47598Y-37268D01*
X47731Y-37402D01*
X47905Y-37474D01*
X48094Y-37474D01*
X48177Y-37439D01*
X47308Y-38308D01*
X47250Y-38396D01*
X47246Y-38414D01*
X47228Y-38500D01*
X47229Y-38504D01*
X47229Y-38581D01*
X47095Y-38526D01*
X46906Y-38526D01*
X46823Y-38560D01*
X46823Y-37633D01*
X46982Y-37474D01*
X47094Y-37474D01*
X47268Y-37402D01*
X47402Y-37269D01*
X47474Y-37095D01*
X47474Y-36906D01*
X47474Y-36095D01*
X47474Y-35906D01*
X47402Y-35732D01*
X47269Y-35598D01*
X47095Y-35526D01*
X46906Y-35526D01*
X46732Y-35598D01*
X46598Y-35731D01*
X46526Y-35905D01*
X46526Y-36094D01*
X46598Y-36268D01*
X46731Y-36402D01*
X46905Y-36474D01*
X47094Y-36474D01*
X47268Y-36402D01*
X47402Y-36269D01*
X47474Y-36095D01*
X47474Y-36906D01*
X47402Y-36732D01*
X47269Y-36598D01*
X47095Y-36526D01*
X46906Y-36526D01*
X46732Y-36598D01*
X46598Y-36731D01*
X46526Y-36905D01*
X46526Y-37018D01*
X46516Y-37027D01*
X46508Y-36870D01*
X46452Y-36733D01*
X46361Y-36710D01*
X46106Y-36965D01*
X46071Y-37000D01*
X46000Y-37071D01*
X45929Y-37000D01*
X46000Y-36929D01*
X46035Y-36894D01*
X46290Y-36639D01*
X46267Y-36548D01*
X46074Y-36481D01*
X45870Y-36492D01*
X45771Y-36532D01*
X45771Y-36418D01*
X45905Y-36474D01*
X46094Y-36474D01*
X46268Y-36402D01*
X46402Y-36269D01*
X46474Y-36095D01*
X46474Y-35906D01*
X46402Y-35732D01*
X46269Y-35598D01*
X46095Y-35526D01*
X45906Y-35526D01*
X45771Y-35581D01*
X45771Y-35362D01*
X47862Y-33271D01*
X48242Y-33271D01*
X48288Y-33317D01*
X48425Y-33374D01*
X48574Y-33374D01*
X48711Y-33317D01*
X48729Y-33299D01*
X48729Y-34745D01*
X48728Y-34750D01*
X48746Y-34835D01*
X48750Y-34854D01*
X48808Y-34942D01*
X49556Y-35689D01*
X49558Y-35692D01*
X49597Y-35731D01*
X49526Y-35905D01*
X49526Y-36094D01*
X49598Y-36268D01*
X49731Y-36402D01*
X49905Y-36474D01*
X50094Y-36474D01*
X50229Y-36418D01*
X50229Y-36495D01*
X50228Y-36500D01*
X50246Y-36585D01*
X50246Y-36588D01*
X50246Y-36588D01*
G37*
G54D22*
X50246Y-36588D02*
X50095Y-36526D01*
X49906Y-36526D01*
X49732Y-36598D01*
X49598Y-36731D01*
X49526Y-36905D01*
X49526Y-37090D01*
X49440Y-37175D01*
X49474Y-37095D01*
X49474Y-36906D01*
X49402Y-36732D01*
X49269Y-36598D01*
X49095Y-36526D01*
X48906Y-36526D01*
X48824Y-36559D01*
X48910Y-36474D01*
X49094Y-36474D01*
X49268Y-36402D01*
X49402Y-36269D01*
X49474Y-36095D01*
X49474Y-35906D01*
X49402Y-35732D01*
X49269Y-35598D01*
X49095Y-35526D01*
X48906Y-35526D01*
X48732Y-35598D01*
X48598Y-35731D01*
X48526Y-35905D01*
X48526Y-36090D01*
X48506Y-36109D01*
X48519Y-36074D01*
X48508Y-35870D01*
X48452Y-35733D01*
X48361Y-35710D01*
X48290Y-35781D01*
X48290Y-35639D01*
X48267Y-35548D01*
X48074Y-35481D01*
X47870Y-35492D01*
X47733Y-35548D01*
X47710Y-35639D01*
X48000Y-35929D01*
X48290Y-35639D01*
X48290Y-35781D01*
X48106Y-35965D01*
X48071Y-36000D01*
X48000Y-36071D01*
X47965Y-36106D01*
X47929Y-36142D01*
X47929Y-36000D01*
X47639Y-35710D01*
X47548Y-35733D01*
X47481Y-35926D01*
X47492Y-36130D01*
X47548Y-36267D01*
X47639Y-36290D01*
X47929Y-36000D01*
X47929Y-36142D01*
X47710Y-36361D01*
X47733Y-36452D01*
X47926Y-36519D01*
X48130Y-36508D01*
X48235Y-36464D01*
X48228Y-36500D01*
X48229Y-36504D01*
X48229Y-36581D01*
X48095Y-36526D01*
X47906Y-36526D01*
X47732Y-36598D01*
X47598Y-36731D01*
X47526Y-36905D01*
X47526Y-37094D01*
X47598Y-37268D01*
X47731Y-37402D01*
X47905Y-37474D01*
X48094Y-37474D01*
X48177Y-37439D01*
X47308Y-38308D01*
X47250Y-38396D01*
X47246Y-38414D01*
X47228Y-38500D01*
X47229Y-38504D01*
X47229Y-38581D01*
X47095Y-38526D01*
X46906Y-38526D01*
X46823Y-38560D01*
X46823Y-37633D01*
X46982Y-37474D01*
X47094Y-37474D01*
X47268Y-37402D01*
X47402Y-37269D01*
X47474Y-37095D01*
X47474Y-36906D01*
X47474Y-36095D01*
X47474Y-35906D01*
X47402Y-35732D01*
X47269Y-35598D01*
X47095Y-35526D01*
X46906Y-35526D01*
X46732Y-35598D01*
X46598Y-35731D01*
X46526Y-35905D01*
X46526Y-36094D01*
X46598Y-36268D01*
X46731Y-36402D01*
X46905Y-36474D01*
X47094Y-36474D01*
X47268Y-36402D01*
X47402Y-36269D01*
X47474Y-36095D01*
X47474Y-36906D01*
X47402Y-36732D01*
X47269Y-36598D01*
X47095Y-36526D01*
X46906Y-36526D01*
X46732Y-36598D01*
X46598Y-36731D01*
X46526Y-36905D01*
X46526Y-37018D01*
X46516Y-37027D01*
X46508Y-36870D01*
X46452Y-36733D01*
X46361Y-36710D01*
X46106Y-36965D01*
X46071Y-37000D01*
X46000Y-37071D01*
X45929Y-37000D01*
X46000Y-36929D01*
X46035Y-36894D01*
X46290Y-36639D01*
X46267Y-36548D01*
X46074Y-36481D01*
X45870Y-36492D01*
X45771Y-36532D01*
X45771Y-36418D01*
X45905Y-36474D01*
X46094Y-36474D01*
X46268Y-36402D01*
X46402Y-36269D01*
X46474Y-36095D01*
X46474Y-35906D01*
X46402Y-35732D01*
X46269Y-35598D01*
X46095Y-35526D01*
X45906Y-35526D01*
X45771Y-35581D01*
X45771Y-35362D01*
X47862Y-33271D01*
X48242Y-33271D01*
X48288Y-33317D01*
X48425Y-33374D01*
X48574Y-33374D01*
X48711Y-33317D01*
X48729Y-33299D01*
X48729Y-34745D01*
X48728Y-34750D01*
X48746Y-34835D01*
X48750Y-34854D01*
X48808Y-34942D01*
X49556Y-35689D01*
X49558Y-35692D01*
X49597Y-35731D01*
X49526Y-35905D01*
X49526Y-36094D01*
X49598Y-36268D01*
X49731Y-36402D01*
X49905Y-36474D01*
X50094Y-36474D01*
X50229Y-36418D01*
X50229Y-36495D01*
X50228Y-36500D01*
X50246Y-36585D01*
X50246Y-36588D01*
G54D10*
G36*
X51071Y-22750D02*
X51000Y-22821D01*
X50929Y-22750D01*
X51000Y-22679D01*
X51071Y-22750D01*
X51071Y-22750D01*
G37*
G54D22*
X51071Y-22750D02*
X51000Y-22821D01*
X50929Y-22750D01*
X51000Y-22679D01*
X51071Y-22750D01*
G54D10*
G36*
X51071Y-32000D02*
X51000Y-32071D01*
X50929Y-32000D01*
X51000Y-31929D01*
X51071Y-32000D01*
X51071Y-32000D01*
G37*
G54D22*
X51071Y-32000D02*
X51000Y-32071D01*
X50929Y-32000D01*
X51000Y-31929D01*
X51071Y-32000D01*
G54D10*
G36*
X51071Y-35000D02*
X51000Y-35071D01*
X50929Y-35000D01*
X51000Y-34929D01*
X51071Y-35000D01*
X51071Y-35000D01*
G37*
G54D22*
X51071Y-35000D02*
X51000Y-35071D01*
X50929Y-35000D01*
X51000Y-34929D01*
X51071Y-35000D01*
G54D10*
G36*
X51606Y-28276D02*
X51558Y-28308D01*
X51556Y-28310D01*
X51308Y-28558D01*
X51290Y-28584D01*
X51290Y-28361D01*
X51000Y-28071D01*
X50710Y-28361D01*
X50733Y-28452D01*
X50926Y-28519D01*
X51130Y-28508D01*
X51267Y-28452D01*
X51290Y-28361D01*
X51290Y-28584D01*
X51276Y-28605D01*
X51269Y-28598D01*
X51095Y-28526D01*
X50906Y-28526D01*
X50732Y-28598D01*
X50598Y-28731D01*
X50526Y-28905D01*
X50526Y-29094D01*
X50598Y-29268D01*
X50731Y-29402D01*
X50905Y-29474D01*
X51094Y-29474D01*
X51229Y-29418D01*
X51229Y-29581D01*
X51095Y-29526D01*
X50906Y-29526D01*
X50732Y-29598D01*
X50598Y-29731D01*
X50526Y-29905D01*
X50526Y-30094D01*
X50598Y-30268D01*
X50731Y-30402D01*
X50895Y-30470D01*
X50808Y-30558D01*
X50800Y-30569D01*
X50732Y-30598D01*
X50598Y-30731D01*
X50526Y-30905D01*
X50526Y-31094D01*
X50598Y-31268D01*
X50606Y-31276D01*
X50558Y-31308D01*
X50556Y-31310D01*
X50308Y-31558D01*
X50250Y-31646D01*
X50246Y-31664D01*
X50228Y-31750D01*
X50229Y-31754D01*
X50229Y-33750D01*
X50229Y-34245D01*
X50228Y-34250D01*
X50246Y-34335D01*
X50250Y-34354D01*
X50308Y-34442D01*
X50556Y-34689D01*
X50552Y-34693D01*
X50582Y-34723D01*
X50548Y-34733D01*
X50501Y-34867D01*
X50192Y-34558D01*
X50189Y-34556D01*
X50021Y-34387D01*
X50021Y-33250D01*
X50020Y-33249D01*
X50021Y-33249D01*
X50020Y-33248D01*
X50021Y-33248D01*
X50021Y-32000D01*
X50000Y-31897D01*
X50000Y-31896D01*
X49942Y-31808D01*
X49442Y-31308D01*
X49354Y-31250D01*
X49335Y-31246D01*
X49250Y-31228D01*
X49245Y-31229D01*
X48976Y-31229D01*
X48978Y-31228D01*
X49589Y-30617D01*
X49711Y-30567D01*
X49817Y-30462D01*
X49874Y-30325D01*
X49874Y-30176D01*
X49817Y-30039D01*
X49712Y-29933D01*
X49575Y-29876D01*
X49426Y-29876D01*
X49289Y-29933D01*
X49183Y-30038D01*
X49131Y-30161D01*
X48616Y-30677D01*
X46706Y-30677D01*
X48439Y-28943D01*
X48441Y-28942D01*
X48442Y-28942D01*
X48909Y-28474D01*
X49094Y-28474D01*
X49268Y-28402D01*
X49402Y-28269D01*
X49474Y-28095D01*
X49474Y-27906D01*
X49418Y-27771D01*
X49581Y-27771D01*
X49526Y-27905D01*
X49526Y-28094D01*
X49598Y-28268D01*
X49731Y-28402D01*
X49905Y-28474D01*
X50094Y-28474D01*
X50268Y-28402D01*
X50402Y-28269D01*
X50474Y-28095D01*
X50474Y-27906D01*
X50418Y-27771D01*
X50534Y-27771D01*
X50481Y-27926D01*
X50492Y-28130D01*
X50548Y-28267D01*
X50639Y-28290D01*
X50894Y-28035D01*
X50929Y-28000D01*
X51000Y-27929D01*
X51071Y-28000D01*
X51106Y-28035D01*
X51361Y-28290D01*
X51452Y-28267D01*
X51519Y-28074D01*
X51508Y-27870D01*
X51467Y-27771D01*
X51495Y-27771D01*
X51500Y-27772D01*
X51500Y-27771D01*
X51585Y-27753D01*
X51588Y-27753D01*
X51526Y-27905D01*
X51526Y-28094D01*
X51598Y-28268D01*
X51606Y-28276D01*
X51606Y-28276D01*
G37*
G54D22*
X51606Y-28276D02*
X51558Y-28308D01*
X51556Y-28310D01*
X51308Y-28558D01*
X51290Y-28584D01*
X51290Y-28361D01*
X51000Y-28071D01*
X50710Y-28361D01*
X50733Y-28452D01*
X50926Y-28519D01*
X51130Y-28508D01*
X51267Y-28452D01*
X51290Y-28361D01*
X51290Y-28584D01*
X51276Y-28605D01*
X51269Y-28598D01*
X51095Y-28526D01*
X50906Y-28526D01*
X50732Y-28598D01*
X50598Y-28731D01*
X50526Y-28905D01*
X50526Y-29094D01*
X50598Y-29268D01*
X50731Y-29402D01*
X50905Y-29474D01*
X51094Y-29474D01*
X51229Y-29418D01*
X51229Y-29581D01*
X51095Y-29526D01*
X50906Y-29526D01*
X50732Y-29598D01*
X50598Y-29731D01*
X50526Y-29905D01*
X50526Y-30094D01*
X50598Y-30268D01*
X50731Y-30402D01*
X50895Y-30470D01*
X50808Y-30558D01*
X50800Y-30569D01*
X50732Y-30598D01*
X50598Y-30731D01*
X50526Y-30905D01*
X50526Y-31094D01*
X50598Y-31268D01*
X50606Y-31276D01*
X50558Y-31308D01*
X50556Y-31310D01*
X50308Y-31558D01*
X50250Y-31646D01*
X50246Y-31664D01*
X50228Y-31750D01*
X50229Y-31754D01*
X50229Y-33750D01*
X50229Y-34245D01*
X50228Y-34250D01*
X50246Y-34335D01*
X50250Y-34354D01*
X50308Y-34442D01*
X50556Y-34689D01*
X50552Y-34693D01*
X50582Y-34723D01*
X50548Y-34733D01*
X50501Y-34867D01*
X50192Y-34558D01*
X50189Y-34556D01*
X50021Y-34387D01*
X50021Y-33250D01*
X50020Y-33249D01*
X50021Y-33249D01*
X50020Y-33248D01*
X50021Y-33248D01*
X50021Y-32000D01*
X50000Y-31897D01*
X50000Y-31896D01*
X49942Y-31808D01*
X49442Y-31308D01*
X49354Y-31250D01*
X49335Y-31246D01*
X49250Y-31228D01*
X49245Y-31229D01*
X48976Y-31229D01*
X48978Y-31228D01*
X49589Y-30617D01*
X49711Y-30567D01*
X49817Y-30462D01*
X49874Y-30325D01*
X49874Y-30176D01*
X49817Y-30039D01*
X49712Y-29933D01*
X49575Y-29876D01*
X49426Y-29876D01*
X49289Y-29933D01*
X49183Y-30038D01*
X49131Y-30161D01*
X48616Y-30677D01*
X46706Y-30677D01*
X48439Y-28943D01*
X48441Y-28942D01*
X48442Y-28942D01*
X48909Y-28474D01*
X49094Y-28474D01*
X49268Y-28402D01*
X49402Y-28269D01*
X49474Y-28095D01*
X49474Y-27906D01*
X49418Y-27771D01*
X49581Y-27771D01*
X49526Y-27905D01*
X49526Y-28094D01*
X49598Y-28268D01*
X49731Y-28402D01*
X49905Y-28474D01*
X50094Y-28474D01*
X50268Y-28402D01*
X50402Y-28269D01*
X50474Y-28095D01*
X50474Y-27906D01*
X50418Y-27771D01*
X50534Y-27771D01*
X50481Y-27926D01*
X50492Y-28130D01*
X50548Y-28267D01*
X50639Y-28290D01*
X50894Y-28035D01*
X50929Y-28000D01*
X51000Y-27929D01*
X51071Y-28000D01*
X51106Y-28035D01*
X51361Y-28290D01*
X51452Y-28267D01*
X51519Y-28074D01*
X51508Y-27870D01*
X51467Y-27771D01*
X51495Y-27771D01*
X51500Y-27772D01*
X51500Y-27771D01*
X51585Y-27753D01*
X51588Y-27753D01*
X51526Y-27905D01*
X51526Y-28094D01*
X51598Y-28268D01*
X51606Y-28276D01*
G54D10*
G36*
X51729Y-46034D02*
X51574Y-45981D01*
X51370Y-45992D01*
X51233Y-46048D01*
X51210Y-46139D01*
X51465Y-46394D01*
X51500Y-46429D01*
X51571Y-46500D01*
X51500Y-46571D01*
X51465Y-46606D01*
X51429Y-46642D01*
X51429Y-46500D01*
X51139Y-46210D01*
X51048Y-46233D01*
X50981Y-46426D01*
X50992Y-46630D01*
X51048Y-46767D01*
X51139Y-46790D01*
X51429Y-46500D01*
X51429Y-46642D01*
X51210Y-46861D01*
X51233Y-46952D01*
X51426Y-47019D01*
X51453Y-47017D01*
X51433Y-47038D01*
X51376Y-47175D01*
X51376Y-47324D01*
X51433Y-47461D01*
X51450Y-47479D01*
X50519Y-47479D01*
X50519Y-47074D01*
X50508Y-46870D01*
X50452Y-46733D01*
X50361Y-46710D01*
X50071Y-47000D01*
X50361Y-47290D01*
X50452Y-47267D01*
X50519Y-47074D01*
X50519Y-47479D01*
X50200Y-47479D01*
X50267Y-47452D01*
X50290Y-47361D01*
X50000Y-47071D01*
X49710Y-47361D01*
X49733Y-47452D01*
X49810Y-47479D01*
X48000Y-47479D01*
X47896Y-47500D01*
X47860Y-47523D01*
X47910Y-47474D01*
X48094Y-47474D01*
X48268Y-47402D01*
X48402Y-47269D01*
X48430Y-47199D01*
X48442Y-47192D01*
X48530Y-47103D01*
X48598Y-47268D01*
X48731Y-47402D01*
X48905Y-47474D01*
X49094Y-47474D01*
X49268Y-47402D01*
X49402Y-47269D01*
X49474Y-47095D01*
X49474Y-46909D01*
X49493Y-46890D01*
X49481Y-46926D01*
X49492Y-47130D01*
X49548Y-47267D01*
X49639Y-47290D01*
X49894Y-47035D01*
X49929Y-47000D01*
X50000Y-46929D01*
X50035Y-46894D01*
X50290Y-46639D01*
X50267Y-46548D01*
X50074Y-46481D01*
X49892Y-46490D01*
X50887Y-45495D01*
X50889Y-45494D01*
X50890Y-45494D01*
X50948Y-45406D01*
X50948Y-45405D01*
X50969Y-45302D01*
X50969Y-42750D01*
X50969Y-42698D01*
X50948Y-42595D01*
X50948Y-42594D01*
X50890Y-42506D01*
X50758Y-42374D01*
X50824Y-42374D01*
X50961Y-42317D01*
X51067Y-42212D01*
X51124Y-42075D01*
X51124Y-41926D01*
X51067Y-41789D01*
X51021Y-41742D01*
X51021Y-41700D01*
X51048Y-41767D01*
X51139Y-41790D01*
X51429Y-41500D01*
X51139Y-41210D01*
X51048Y-41233D01*
X51021Y-41310D01*
X51021Y-40750D01*
X51020Y-40749D01*
X51021Y-40749D01*
X51000Y-40646D01*
X50942Y-40558D01*
X50939Y-40556D01*
X49824Y-39440D01*
X49905Y-39474D01*
X50094Y-39474D01*
X50268Y-39402D01*
X50402Y-39269D01*
X50474Y-39095D01*
X50474Y-38909D01*
X51188Y-38195D01*
X51177Y-38250D01*
X51177Y-39152D01*
X51098Y-39231D01*
X51026Y-39405D01*
X51026Y-39594D01*
X51098Y-39768D01*
X51231Y-39902D01*
X51405Y-39974D01*
X51594Y-39974D01*
X51729Y-39918D01*
X51729Y-41034D01*
X51574Y-40981D01*
X51370Y-40992D01*
X51233Y-41048D01*
X51210Y-41139D01*
X51465Y-41394D01*
X51500Y-41429D01*
X51571Y-41500D01*
X51500Y-41571D01*
X51465Y-41606D01*
X51210Y-41861D01*
X51233Y-41952D01*
X51426Y-42019D01*
X51630Y-42008D01*
X51729Y-41967D01*
X51729Y-42500D01*
X51729Y-42637D01*
X51558Y-42808D01*
X51500Y-42896D01*
X51496Y-42914D01*
X51478Y-43000D01*
X51479Y-43004D01*
X51479Y-43495D01*
X51478Y-43500D01*
X51496Y-43585D01*
X51500Y-43604D01*
X51558Y-43692D01*
X51729Y-43862D01*
X51729Y-44000D01*
X51729Y-44081D01*
X51595Y-44026D01*
X51406Y-44026D01*
X51232Y-44098D01*
X51098Y-44231D01*
X51026Y-44405D01*
X51026Y-44594D01*
X51098Y-44768D01*
X51231Y-44902D01*
X51405Y-44974D01*
X51594Y-44974D01*
X51729Y-44918D01*
X51729Y-46034D01*
X51729Y-46034D01*
G37*
G54D22*
X51729Y-46034D02*
X51574Y-45981D01*
X51370Y-45992D01*
X51233Y-46048D01*
X51210Y-46139D01*
X51465Y-46394D01*
X51500Y-46429D01*
X51571Y-46500D01*
X51500Y-46571D01*
X51465Y-46606D01*
X51429Y-46642D01*
X51429Y-46500D01*
X51139Y-46210D01*
X51048Y-46233D01*
X50981Y-46426D01*
X50992Y-46630D01*
X51048Y-46767D01*
X51139Y-46790D01*
X51429Y-46500D01*
X51429Y-46642D01*
X51210Y-46861D01*
X51233Y-46952D01*
X51426Y-47019D01*
X51453Y-47017D01*
X51433Y-47038D01*
X51376Y-47175D01*
X51376Y-47324D01*
X51433Y-47461D01*
X51450Y-47479D01*
X50519Y-47479D01*
X50519Y-47074D01*
X50508Y-46870D01*
X50452Y-46733D01*
X50361Y-46710D01*
X50071Y-47000D01*
X50361Y-47290D01*
X50452Y-47267D01*
X50519Y-47074D01*
X50519Y-47479D01*
X50200Y-47479D01*
X50267Y-47452D01*
X50290Y-47361D01*
X50000Y-47071D01*
X49710Y-47361D01*
X49733Y-47452D01*
X49810Y-47479D01*
X48000Y-47479D01*
X47896Y-47500D01*
X47860Y-47523D01*
X47910Y-47474D01*
X48094Y-47474D01*
X48268Y-47402D01*
X48402Y-47269D01*
X48430Y-47199D01*
X48442Y-47192D01*
X48530Y-47103D01*
X48598Y-47268D01*
X48731Y-47402D01*
X48905Y-47474D01*
X49094Y-47474D01*
X49268Y-47402D01*
X49402Y-47269D01*
X49474Y-47095D01*
X49474Y-46909D01*
X49493Y-46890D01*
X49481Y-46926D01*
X49492Y-47130D01*
X49548Y-47267D01*
X49639Y-47290D01*
X49894Y-47035D01*
X49929Y-47000D01*
X50000Y-46929D01*
X50035Y-46894D01*
X50290Y-46639D01*
X50267Y-46548D01*
X50074Y-46481D01*
X49892Y-46490D01*
X50887Y-45495D01*
X50889Y-45494D01*
X50890Y-45494D01*
X50948Y-45406D01*
X50948Y-45405D01*
X50969Y-45302D01*
X50969Y-42750D01*
X50969Y-42698D01*
X50948Y-42595D01*
X50948Y-42594D01*
X50890Y-42506D01*
X50758Y-42374D01*
X50824Y-42374D01*
X50961Y-42317D01*
X51067Y-42212D01*
X51124Y-42075D01*
X51124Y-41926D01*
X51067Y-41789D01*
X51021Y-41742D01*
X51021Y-41700D01*
X51048Y-41767D01*
X51139Y-41790D01*
X51429Y-41500D01*
X51139Y-41210D01*
X51048Y-41233D01*
X51021Y-41310D01*
X51021Y-40750D01*
X51020Y-40749D01*
X51021Y-40749D01*
X51000Y-40646D01*
X50942Y-40558D01*
X50939Y-40556D01*
X49824Y-39440D01*
X49905Y-39474D01*
X50094Y-39474D01*
X50268Y-39402D01*
X50402Y-39269D01*
X50474Y-39095D01*
X50474Y-38909D01*
X51188Y-38195D01*
X51177Y-38250D01*
X51177Y-39152D01*
X51098Y-39231D01*
X51026Y-39405D01*
X51026Y-39594D01*
X51098Y-39768D01*
X51231Y-39902D01*
X51405Y-39974D01*
X51594Y-39974D01*
X51729Y-39918D01*
X51729Y-41034D01*
X51574Y-40981D01*
X51370Y-40992D01*
X51233Y-41048D01*
X51210Y-41139D01*
X51465Y-41394D01*
X51500Y-41429D01*
X51571Y-41500D01*
X51500Y-41571D01*
X51465Y-41606D01*
X51210Y-41861D01*
X51233Y-41952D01*
X51426Y-42019D01*
X51630Y-42008D01*
X51729Y-41967D01*
X51729Y-42500D01*
X51729Y-42637D01*
X51558Y-42808D01*
X51500Y-42896D01*
X51496Y-42914D01*
X51478Y-43000D01*
X51479Y-43004D01*
X51479Y-43495D01*
X51478Y-43500D01*
X51496Y-43585D01*
X51500Y-43604D01*
X51558Y-43692D01*
X51729Y-43862D01*
X51729Y-44000D01*
X51729Y-44081D01*
X51595Y-44026D01*
X51406Y-44026D01*
X51232Y-44098D01*
X51098Y-44231D01*
X51026Y-44405D01*
X51026Y-44594D01*
X51098Y-44768D01*
X51231Y-44902D01*
X51405Y-44974D01*
X51594Y-44974D01*
X51729Y-44918D01*
X51729Y-46034D01*
G54D10*
G36*
X52071Y-22750D02*
X52000Y-22821D01*
X51929Y-22750D01*
X52000Y-22679D01*
X52071Y-22750D01*
X52071Y-22750D01*
G37*
G54D22*
X52071Y-22750D02*
X52000Y-22821D01*
X51929Y-22750D01*
X52000Y-22679D01*
X52071Y-22750D01*
G54D10*
G36*
X52071Y-32000D02*
X52000Y-32071D01*
X51929Y-32000D01*
X52000Y-31929D01*
X52071Y-32000D01*
X52071Y-32000D01*
G37*
G54D22*
X52071Y-32000D02*
X52000Y-32071D01*
X51929Y-32000D01*
X52000Y-31929D01*
X52071Y-32000D01*
G54D10*
G36*
X53071Y-22750D02*
X53000Y-22821D01*
X52929Y-22750D01*
X53000Y-22679D01*
X53071Y-22750D01*
X53071Y-22750D01*
G37*
G54D22*
X53071Y-22750D02*
X53000Y-22821D01*
X52929Y-22750D01*
X53000Y-22679D01*
X53071Y-22750D01*
G54D10*
G36*
X54071Y-22750D02*
X54000Y-22821D01*
X53929Y-22750D01*
X54000Y-22679D01*
X54071Y-22750D01*
X54071Y-22750D01*
G37*
G54D22*
X54071Y-22750D02*
X54000Y-22821D01*
X53929Y-22750D01*
X54000Y-22679D01*
X54071Y-22750D01*
G54D10*
G36*
X55229Y-34387D02*
X54506Y-35109D01*
X54519Y-35074D01*
X54508Y-34870D01*
X54452Y-34733D01*
X54361Y-34710D01*
X54106Y-34965D01*
X54071Y-35000D01*
X54000Y-35071D01*
X53929Y-35000D01*
X54000Y-34929D01*
X54035Y-34894D01*
X54290Y-34639D01*
X54267Y-34548D01*
X54132Y-34501D01*
X55189Y-33443D01*
X55191Y-33442D01*
X55192Y-33442D01*
X55229Y-33385D01*
X55229Y-34387D01*
X55229Y-34387D01*
G37*
G54D22*
X55229Y-34387D02*
X54506Y-35109D01*
X54519Y-35074D01*
X54508Y-34870D01*
X54452Y-34733D01*
X54361Y-34710D01*
X54106Y-34965D01*
X54071Y-35000D01*
X54000Y-35071D01*
X53929Y-35000D01*
X54000Y-34929D01*
X54035Y-34894D01*
X54290Y-34639D01*
X54267Y-34548D01*
X54132Y-34501D01*
X55189Y-33443D01*
X55191Y-33442D01*
X55192Y-33442D01*
X55229Y-33385D01*
X55229Y-34387D01*
G54D10*
G36*
X56071Y-22750D02*
X56000Y-22821D01*
X55929Y-22750D01*
X56000Y-22679D01*
X56071Y-22750D01*
X56071Y-22750D01*
G37*
G54D22*
X56071Y-22750D02*
X56000Y-22821D01*
X55929Y-22750D01*
X56000Y-22679D01*
X56071Y-22750D01*
G54D10*
G36*
X56071Y-25750D02*
X56000Y-25821D01*
X55965Y-25856D01*
X55710Y-26111D01*
X55733Y-26202D01*
X55810Y-26229D01*
X54500Y-26229D01*
X54499Y-26229D01*
X54396Y-26250D01*
X54308Y-26308D01*
X54306Y-26310D01*
X53058Y-27558D01*
X53021Y-27614D01*
X53021Y-27112D01*
X53909Y-26224D01*
X54094Y-26224D01*
X54268Y-26152D01*
X54402Y-26019D01*
X54474Y-25845D01*
X54474Y-25656D01*
X54418Y-25521D01*
X55500Y-25521D01*
X55534Y-25521D01*
X55481Y-25676D01*
X55492Y-25880D01*
X55548Y-26017D01*
X55639Y-26040D01*
X55894Y-25785D01*
X55929Y-25750D01*
X56000Y-25679D01*
X56071Y-25750D01*
X56071Y-25750D01*
G37*
G54D22*
X56071Y-25750D02*
X56000Y-25821D01*
X55965Y-25856D01*
X55710Y-26111D01*
X55733Y-26202D01*
X55810Y-26229D01*
X54500Y-26229D01*
X54499Y-26229D01*
X54396Y-26250D01*
X54308Y-26308D01*
X54306Y-26310D01*
X53058Y-27558D01*
X53021Y-27614D01*
X53021Y-27112D01*
X53909Y-26224D01*
X54094Y-26224D01*
X54268Y-26152D01*
X54402Y-26019D01*
X54474Y-25845D01*
X54474Y-25656D01*
X54418Y-25521D01*
X55500Y-25521D01*
X55534Y-25521D01*
X55481Y-25676D01*
X55492Y-25880D01*
X55548Y-26017D01*
X55639Y-26040D01*
X55894Y-25785D01*
X55929Y-25750D01*
X56000Y-25679D01*
X56071Y-25750D01*
G54D10*
G36*
X56071Y-47000D02*
X56000Y-47071D01*
X55929Y-47000D01*
X56000Y-46929D01*
X56071Y-47000D01*
X56071Y-47000D01*
G37*
G54D22*
X56071Y-47000D02*
X56000Y-47071D01*
X55929Y-47000D01*
X56000Y-46929D01*
X56071Y-47000D01*
G54D10*
G36*
X57071Y-22750D02*
X57000Y-22821D01*
X56929Y-22750D01*
X57000Y-22679D01*
X57071Y-22750D01*
X57071Y-22750D01*
G37*
G54D22*
X57071Y-22750D02*
X57000Y-22821D01*
X56929Y-22750D01*
X57000Y-22679D01*
X57071Y-22750D01*
G54D10*
G36*
X57071Y-47000D02*
X57000Y-47071D01*
X56929Y-47000D01*
X57000Y-46929D01*
X57071Y-47000D01*
X57071Y-47000D01*
G37*
G54D22*
X57071Y-47000D02*
X57000Y-47071D01*
X56929Y-47000D01*
X57000Y-46929D01*
X57071Y-47000D01*
G54D10*
G36*
X60229Y-43581D02*
X60095Y-43526D01*
X59906Y-43526D01*
X59771Y-43581D01*
X59771Y-43257D01*
X59817Y-43212D01*
X59874Y-43075D01*
X59874Y-42926D01*
X59817Y-42789D01*
X59712Y-42683D01*
X59575Y-42626D01*
X59519Y-42626D01*
X59519Y-42074D01*
X59508Y-41870D01*
X59452Y-41733D01*
X59361Y-41710D01*
X59290Y-41781D01*
X59290Y-41639D01*
X59267Y-41548D01*
X59074Y-41481D01*
X58870Y-41492D01*
X58733Y-41548D01*
X58710Y-41639D01*
X59000Y-41929D01*
X59290Y-41639D01*
X59290Y-41781D01*
X59071Y-42000D01*
X59361Y-42290D01*
X59452Y-42267D01*
X59519Y-42074D01*
X59519Y-42626D01*
X59426Y-42626D01*
X59290Y-42682D01*
X59290Y-42361D01*
X59000Y-42071D01*
X58929Y-42142D01*
X58929Y-42000D01*
X58639Y-41710D01*
X58548Y-41733D01*
X58481Y-41926D01*
X58492Y-42130D01*
X58548Y-42267D01*
X58639Y-42290D01*
X58929Y-42000D01*
X58929Y-42142D01*
X58710Y-42361D01*
X58733Y-42452D01*
X58926Y-42519D01*
X59130Y-42508D01*
X59267Y-42452D01*
X59290Y-42361D01*
X59290Y-42682D01*
X59289Y-42683D01*
X59183Y-42788D01*
X59126Y-42925D01*
X59126Y-43074D01*
X59183Y-43211D01*
X59229Y-43257D01*
X59229Y-43581D01*
X59095Y-43526D01*
X58906Y-43526D01*
X58874Y-43539D01*
X58874Y-43426D01*
X58817Y-43289D01*
X58712Y-43183D01*
X58575Y-43126D01*
X58426Y-43126D01*
X58289Y-43183D01*
X58183Y-43288D01*
X58126Y-43425D01*
X58126Y-43538D01*
X58095Y-43526D01*
X57906Y-43526D01*
X57771Y-43581D01*
X57771Y-42418D01*
X57905Y-42474D01*
X58094Y-42474D01*
X58268Y-42402D01*
X58402Y-42269D01*
X58474Y-42095D01*
X58474Y-41906D01*
X58402Y-41732D01*
X58269Y-41598D01*
X58095Y-41526D01*
X57906Y-41526D01*
X57771Y-41581D01*
X57771Y-39418D01*
X57905Y-39474D01*
X58094Y-39474D01*
X58229Y-39418D01*
X58229Y-40245D01*
X58228Y-40250D01*
X58246Y-40335D01*
X58250Y-40354D01*
X58308Y-40442D01*
X59626Y-41759D01*
X59626Y-41824D01*
X59683Y-41961D01*
X59788Y-42067D01*
X59925Y-42124D01*
X60074Y-42124D01*
X60211Y-42067D01*
X60229Y-42049D01*
X60229Y-43581D01*
X60229Y-43581D01*
G37*
G54D22*
X60229Y-43581D02*
X60095Y-43526D01*
X59906Y-43526D01*
X59771Y-43581D01*
X59771Y-43257D01*
X59817Y-43212D01*
X59874Y-43075D01*
X59874Y-42926D01*
X59817Y-42789D01*
X59712Y-42683D01*
X59575Y-42626D01*
X59519Y-42626D01*
X59519Y-42074D01*
X59508Y-41870D01*
X59452Y-41733D01*
X59361Y-41710D01*
X59290Y-41781D01*
X59290Y-41639D01*
X59267Y-41548D01*
X59074Y-41481D01*
X58870Y-41492D01*
X58733Y-41548D01*
X58710Y-41639D01*
X59000Y-41929D01*
X59290Y-41639D01*
X59290Y-41781D01*
X59071Y-42000D01*
X59361Y-42290D01*
X59452Y-42267D01*
X59519Y-42074D01*
X59519Y-42626D01*
X59426Y-42626D01*
X59290Y-42682D01*
X59290Y-42361D01*
X59000Y-42071D01*
X58929Y-42142D01*
X58929Y-42000D01*
X58639Y-41710D01*
X58548Y-41733D01*
X58481Y-41926D01*
X58492Y-42130D01*
X58548Y-42267D01*
X58639Y-42290D01*
X58929Y-42000D01*
X58929Y-42142D01*
X58710Y-42361D01*
X58733Y-42452D01*
X58926Y-42519D01*
X59130Y-42508D01*
X59267Y-42452D01*
X59290Y-42361D01*
X59290Y-42682D01*
X59289Y-42683D01*
X59183Y-42788D01*
X59126Y-42925D01*
X59126Y-43074D01*
X59183Y-43211D01*
X59229Y-43257D01*
X59229Y-43581D01*
X59095Y-43526D01*
X58906Y-43526D01*
X58874Y-43539D01*
X58874Y-43426D01*
X58817Y-43289D01*
X58712Y-43183D01*
X58575Y-43126D01*
X58426Y-43126D01*
X58289Y-43183D01*
X58183Y-43288D01*
X58126Y-43425D01*
X58126Y-43538D01*
X58095Y-43526D01*
X57906Y-43526D01*
X57771Y-43581D01*
X57771Y-42418D01*
X57905Y-42474D01*
X58094Y-42474D01*
X58268Y-42402D01*
X58402Y-42269D01*
X58474Y-42095D01*
X58474Y-41906D01*
X58402Y-41732D01*
X58269Y-41598D01*
X58095Y-41526D01*
X57906Y-41526D01*
X57771Y-41581D01*
X57771Y-39418D01*
X57905Y-39474D01*
X58094Y-39474D01*
X58229Y-39418D01*
X58229Y-40245D01*
X58228Y-40250D01*
X58246Y-40335D01*
X58250Y-40354D01*
X58308Y-40442D01*
X59626Y-41759D01*
X59626Y-41824D01*
X59683Y-41961D01*
X59788Y-42067D01*
X59925Y-42124D01*
X60074Y-42124D01*
X60211Y-42067D01*
X60229Y-42049D01*
X60229Y-43581D01*
G54D10*
G36*
X62229Y-42527D02*
X61686Y-42527D01*
X61613Y-42557D01*
X61557Y-42613D01*
X61527Y-42685D01*
X61527Y-42764D01*
X61527Y-43017D01*
X61272Y-43272D01*
X61202Y-43376D01*
X61177Y-43500D01*
X61177Y-44152D01*
X61098Y-44231D01*
X61026Y-44405D01*
X61026Y-44594D01*
X61098Y-44768D01*
X61231Y-44902D01*
X61405Y-44974D01*
X61594Y-44974D01*
X61626Y-44960D01*
X61626Y-44990D01*
X60558Y-46058D01*
X60500Y-46146D01*
X60496Y-46164D01*
X60478Y-46250D01*
X60479Y-46254D01*
X60479Y-46500D01*
X60479Y-46799D01*
X60452Y-46733D01*
X60361Y-46710D01*
X60106Y-46965D01*
X60071Y-47000D01*
X60000Y-47071D01*
X59929Y-47000D01*
X60000Y-46929D01*
X60035Y-46894D01*
X60290Y-46639D01*
X60267Y-46548D01*
X60074Y-46481D01*
X59870Y-46492D01*
X59771Y-46532D01*
X59771Y-45549D01*
X59788Y-45567D01*
X59925Y-45624D01*
X60074Y-45624D01*
X60211Y-45567D01*
X60317Y-45462D01*
X60374Y-45325D01*
X60374Y-45260D01*
X60692Y-44942D01*
X60750Y-44854D01*
X60750Y-44853D01*
X60771Y-44750D01*
X60771Y-41500D01*
X60750Y-41397D01*
X60750Y-41396D01*
X60692Y-41308D01*
X60689Y-41306D01*
X59771Y-40387D01*
X59771Y-37418D01*
X59905Y-37474D01*
X60094Y-37474D01*
X60268Y-37402D01*
X60402Y-37269D01*
X60474Y-37095D01*
X60474Y-36906D01*
X60402Y-36732D01*
X60269Y-36598D01*
X60095Y-36526D01*
X59906Y-36526D01*
X59771Y-36581D01*
X59771Y-31500D01*
X59753Y-31411D01*
X59905Y-31474D01*
X60094Y-31474D01*
X60268Y-31402D01*
X60402Y-31269D01*
X60474Y-31095D01*
X60474Y-30906D01*
X60402Y-30732D01*
X60269Y-30598D01*
X60095Y-30526D01*
X59906Y-30526D01*
X59823Y-30559D01*
X61009Y-29374D01*
X61074Y-29374D01*
X61211Y-29317D01*
X61229Y-29299D01*
X61229Y-30581D01*
X61095Y-30526D01*
X60906Y-30526D01*
X60732Y-30598D01*
X60598Y-30731D01*
X60526Y-30905D01*
X60526Y-31094D01*
X60598Y-31268D01*
X60731Y-31402D01*
X60905Y-31474D01*
X61094Y-31474D01*
X61229Y-31418D01*
X61229Y-31500D01*
X61229Y-33637D01*
X60808Y-34058D01*
X60750Y-34146D01*
X60746Y-34164D01*
X60728Y-34250D01*
X60729Y-34254D01*
X60729Y-34742D01*
X60683Y-34788D01*
X60626Y-34925D01*
X60626Y-35074D01*
X60683Y-35211D01*
X60788Y-35317D01*
X60925Y-35374D01*
X61074Y-35374D01*
X61211Y-35317D01*
X61229Y-35299D01*
X61229Y-36581D01*
X61095Y-36526D01*
X60906Y-36526D01*
X60732Y-36598D01*
X60598Y-36731D01*
X60526Y-36905D01*
X60526Y-37094D01*
X60598Y-37268D01*
X60731Y-37402D01*
X60905Y-37474D01*
X61094Y-37474D01*
X61229Y-37418D01*
X61229Y-39995D01*
X61228Y-40000D01*
X61246Y-40085D01*
X61250Y-40104D01*
X61308Y-40192D01*
X62229Y-41112D01*
X62229Y-42527D01*
X62229Y-42527D01*
G37*
G54D22*
X62229Y-42527D02*
X61686Y-42527D01*
X61613Y-42557D01*
X61557Y-42613D01*
X61527Y-42685D01*
X61527Y-42764D01*
X61527Y-43017D01*
X61272Y-43272D01*
X61202Y-43376D01*
X61177Y-43500D01*
X61177Y-44152D01*
X61098Y-44231D01*
X61026Y-44405D01*
X61026Y-44594D01*
X61098Y-44768D01*
X61231Y-44902D01*
X61405Y-44974D01*
X61594Y-44974D01*
X61626Y-44960D01*
X61626Y-44990D01*
X60558Y-46058D01*
X60500Y-46146D01*
X60496Y-46164D01*
X60478Y-46250D01*
X60479Y-46254D01*
X60479Y-46500D01*
X60479Y-46799D01*
X60452Y-46733D01*
X60361Y-46710D01*
X60106Y-46965D01*
X60071Y-47000D01*
X60000Y-47071D01*
X59929Y-47000D01*
X60000Y-46929D01*
X60035Y-46894D01*
X60290Y-46639D01*
X60267Y-46548D01*
X60074Y-46481D01*
X59870Y-46492D01*
X59771Y-46532D01*
X59771Y-45549D01*
X59788Y-45567D01*
X59925Y-45624D01*
X60074Y-45624D01*
X60211Y-45567D01*
X60317Y-45462D01*
X60374Y-45325D01*
X60374Y-45260D01*
X60692Y-44942D01*
X60750Y-44854D01*
X60750Y-44853D01*
X60771Y-44750D01*
X60771Y-41500D01*
X60750Y-41397D01*
X60750Y-41396D01*
X60692Y-41308D01*
X60689Y-41306D01*
X59771Y-40387D01*
X59771Y-37418D01*
X59905Y-37474D01*
X60094Y-37474D01*
X60268Y-37402D01*
X60402Y-37269D01*
X60474Y-37095D01*
X60474Y-36906D01*
X60402Y-36732D01*
X60269Y-36598D01*
X60095Y-36526D01*
X59906Y-36526D01*
X59771Y-36581D01*
X59771Y-31500D01*
X59753Y-31411D01*
X59905Y-31474D01*
X60094Y-31474D01*
X60268Y-31402D01*
X60402Y-31269D01*
X60474Y-31095D01*
X60474Y-30906D01*
X60402Y-30732D01*
X60269Y-30598D01*
X60095Y-30526D01*
X59906Y-30526D01*
X59823Y-30559D01*
X61009Y-29374D01*
X61074Y-29374D01*
X61211Y-29317D01*
X61229Y-29299D01*
X61229Y-30581D01*
X61095Y-30526D01*
X60906Y-30526D01*
X60732Y-30598D01*
X60598Y-30731D01*
X60526Y-30905D01*
X60526Y-31094D01*
X60598Y-31268D01*
X60731Y-31402D01*
X60905Y-31474D01*
X61094Y-31474D01*
X61229Y-31418D01*
X61229Y-31500D01*
X61229Y-33637D01*
X60808Y-34058D01*
X60750Y-34146D01*
X60746Y-34164D01*
X60728Y-34250D01*
X60729Y-34254D01*
X60729Y-34742D01*
X60683Y-34788D01*
X60626Y-34925D01*
X60626Y-35074D01*
X60683Y-35211D01*
X60788Y-35317D01*
X60925Y-35374D01*
X61074Y-35374D01*
X61211Y-35317D01*
X61229Y-35299D01*
X61229Y-36581D01*
X61095Y-36526D01*
X60906Y-36526D01*
X60732Y-36598D01*
X60598Y-36731D01*
X60526Y-36905D01*
X60526Y-37094D01*
X60598Y-37268D01*
X60731Y-37402D01*
X60905Y-37474D01*
X61094Y-37474D01*
X61229Y-37418D01*
X61229Y-39995D01*
X61228Y-40000D01*
X61246Y-40085D01*
X61250Y-40104D01*
X61308Y-40192D01*
X62229Y-41112D01*
X62229Y-42527D01*
G54D10*
G36*
X62546Y-45679D02*
X62539Y-45683D01*
X62433Y-45788D01*
X62376Y-45925D01*
X62376Y-45990D01*
X62308Y-46058D01*
X62306Y-46060D01*
X62004Y-46362D01*
X61952Y-46233D01*
X61861Y-46210D01*
X61606Y-46465D01*
X61571Y-46500D01*
X61500Y-46571D01*
X61465Y-46606D01*
X61210Y-46861D01*
X61233Y-46952D01*
X61367Y-46998D01*
X60887Y-47479D01*
X60654Y-47479D01*
X60689Y-47443D01*
X60691Y-47442D01*
X60692Y-47442D01*
X60939Y-47193D01*
X60941Y-47192D01*
X60942Y-47192D01*
X61000Y-47104D01*
X61021Y-47000D01*
X61021Y-46700D01*
X61048Y-46767D01*
X61139Y-46790D01*
X61394Y-46535D01*
X61429Y-46500D01*
X61500Y-46429D01*
X61535Y-46394D01*
X61790Y-46139D01*
X61767Y-46048D01*
X61574Y-45981D01*
X61392Y-45990D01*
X62009Y-45374D01*
X62074Y-45374D01*
X62211Y-45317D01*
X62236Y-45291D01*
X62246Y-45335D01*
X62250Y-45354D01*
X62308Y-45442D01*
X62546Y-45679D01*
X62546Y-45679D01*
G37*
G54D22*
X62546Y-45679D02*
X62539Y-45683D01*
X62433Y-45788D01*
X62376Y-45925D01*
X62376Y-45990D01*
X62308Y-46058D01*
X62306Y-46060D01*
X62004Y-46362D01*
X61952Y-46233D01*
X61861Y-46210D01*
X61606Y-46465D01*
X61571Y-46500D01*
X61500Y-46571D01*
X61465Y-46606D01*
X61210Y-46861D01*
X61233Y-46952D01*
X61367Y-46998D01*
X60887Y-47479D01*
X60654Y-47479D01*
X60689Y-47443D01*
X60691Y-47442D01*
X60692Y-47442D01*
X60939Y-47193D01*
X60941Y-47192D01*
X60942Y-47192D01*
X61000Y-47104D01*
X61021Y-47000D01*
X61021Y-46700D01*
X61048Y-46767D01*
X61139Y-46790D01*
X61394Y-46535D01*
X61429Y-46500D01*
X61500Y-46429D01*
X61535Y-46394D01*
X61790Y-46139D01*
X61767Y-46048D01*
X61574Y-45981D01*
X61392Y-45990D01*
X62009Y-45374D01*
X62074Y-45374D01*
X62211Y-45317D01*
X62236Y-45291D01*
X62246Y-45335D01*
X62250Y-45354D01*
X62308Y-45442D01*
X62546Y-45679D01*
G54D10*
G36*
X63229Y-46475D02*
X63112Y-46475D01*
X63050Y-46537D01*
X63050Y-46900D01*
X63050Y-46950D01*
X63050Y-47050D01*
X62950Y-47050D01*
X62900Y-47050D01*
X62537Y-47050D01*
X62475Y-47112D01*
X62476Y-47226D01*
X62476Y-47325D01*
X62497Y-47376D01*
X62426Y-47376D01*
X62289Y-47433D01*
X62183Y-47538D01*
X62126Y-47675D01*
X62126Y-47740D01*
X62106Y-47759D01*
X62067Y-47664D01*
X61962Y-47558D01*
X61825Y-47501D01*
X61676Y-47501D01*
X61601Y-47531D01*
X62488Y-46644D01*
X62476Y-46675D01*
X62476Y-46774D01*
X62475Y-46888D01*
X62537Y-46950D01*
X62950Y-46950D01*
X62950Y-46537D01*
X62888Y-46475D01*
X62676Y-46476D01*
X62643Y-46489D01*
X62689Y-46443D01*
X62691Y-46442D01*
X62692Y-46442D01*
X62759Y-46374D01*
X62824Y-46374D01*
X62961Y-46317D01*
X63067Y-46212D01*
X63070Y-46203D01*
X63229Y-46362D01*
X63229Y-46475D01*
X63229Y-46475D01*
G37*
G54D22*
X63229Y-46475D02*
X63112Y-46475D01*
X63050Y-46537D01*
X63050Y-46900D01*
X63050Y-46950D01*
X63050Y-47050D01*
X62950Y-47050D01*
X62900Y-47050D01*
X62537Y-47050D01*
X62475Y-47112D01*
X62476Y-47226D01*
X62476Y-47325D01*
X62497Y-47376D01*
X62426Y-47376D01*
X62289Y-47433D01*
X62183Y-47538D01*
X62126Y-47675D01*
X62126Y-47740D01*
X62106Y-47759D01*
X62067Y-47664D01*
X61962Y-47558D01*
X61825Y-47501D01*
X61676Y-47501D01*
X61601Y-47531D01*
X62488Y-46644D01*
X62476Y-46675D01*
X62476Y-46774D01*
X62475Y-46888D01*
X62537Y-46950D01*
X62950Y-46950D01*
X62950Y-46537D01*
X62888Y-46475D01*
X62676Y-46476D01*
X62643Y-46489D01*
X62689Y-46443D01*
X62691Y-46442D01*
X62692Y-46442D01*
X62759Y-46374D01*
X62824Y-46374D01*
X62961Y-46317D01*
X63067Y-46212D01*
X63070Y-46203D01*
X63229Y-46362D01*
X63229Y-46475D01*
G54D10*
G36*
X65071Y-44000D02*
X65000Y-44071D01*
X64929Y-44000D01*
X65000Y-43929D01*
X65071Y-44000D01*
X65071Y-44000D01*
G37*
G54D22*
X65071Y-44000D02*
X65000Y-44071D01*
X64929Y-44000D01*
X65000Y-43929D01*
X65071Y-44000D01*
G54D10*
G36*
X66071Y-44000D02*
X66000Y-44071D01*
X65929Y-44000D01*
X66000Y-43929D01*
X66071Y-44000D01*
X66071Y-44000D01*
G37*
G54D22*
X66071Y-44000D02*
X66000Y-44071D01*
X65929Y-44000D01*
X66000Y-43929D01*
X66071Y-44000D01*
G54D10*
G36*
X68071Y-24500D02*
X68000Y-24571D01*
X67929Y-24500D01*
X68000Y-24429D01*
X68071Y-24500D01*
X68071Y-24500D01*
G37*
G54D22*
X68071Y-24500D02*
X68000Y-24571D01*
X67929Y-24500D01*
X68000Y-24429D01*
X68071Y-24500D01*
G54D10*
G36*
X68071Y-26500D02*
X68000Y-26571D01*
X67929Y-26500D01*
X68000Y-26429D01*
X68071Y-26500D01*
X68071Y-26500D01*
G37*
G54D22*
X68071Y-26500D02*
X68000Y-26571D01*
X67929Y-26500D01*
X68000Y-26429D01*
X68071Y-26500D01*
G54D10*
G36*
X68071Y-39000D02*
X68000Y-39071D01*
X67929Y-39000D01*
X68000Y-38929D01*
X68071Y-39000D01*
X68071Y-39000D01*
G37*
G54D22*
X68071Y-39000D02*
X68000Y-39071D01*
X67929Y-39000D01*
X68000Y-38929D01*
X68071Y-39000D01*
G54D10*
G36*
X68175Y-46559D02*
X68095Y-46526D01*
X67906Y-46526D01*
X67732Y-46598D01*
X67598Y-46731D01*
X67526Y-46905D01*
X67526Y-47094D01*
X67581Y-47229D01*
X67418Y-47229D01*
X67474Y-47095D01*
X67474Y-46906D01*
X67402Y-46732D01*
X67269Y-46598D01*
X67095Y-46526D01*
X66906Y-46526D01*
X66732Y-46598D01*
X66598Y-46731D01*
X66526Y-46905D01*
X66526Y-47094D01*
X66581Y-47229D01*
X66418Y-47229D01*
X66474Y-47095D01*
X66474Y-46906D01*
X66402Y-46732D01*
X66269Y-46598D01*
X66095Y-46526D01*
X65906Y-46526D01*
X65771Y-46581D01*
X65771Y-45500D01*
X65750Y-45397D01*
X65750Y-45396D01*
X65692Y-45308D01*
X65689Y-45306D01*
X64890Y-44506D01*
X64926Y-44519D01*
X65130Y-44508D01*
X65267Y-44452D01*
X65275Y-44416D01*
X65307Y-44448D01*
X65310Y-44444D01*
X66806Y-45939D01*
X66808Y-45942D01*
X66896Y-46000D01*
X66897Y-46000D01*
X67000Y-46021D01*
X67637Y-46021D01*
X67806Y-46189D01*
X67808Y-46192D01*
X68175Y-46559D01*
X68175Y-46559D01*
G37*
G54D22*
X68175Y-46559D02*
X68095Y-46526D01*
X67906Y-46526D01*
X67732Y-46598D01*
X67598Y-46731D01*
X67526Y-46905D01*
X67526Y-47094D01*
X67581Y-47229D01*
X67418Y-47229D01*
X67474Y-47095D01*
X67474Y-46906D01*
X67402Y-46732D01*
X67269Y-46598D01*
X67095Y-46526D01*
X66906Y-46526D01*
X66732Y-46598D01*
X66598Y-46731D01*
X66526Y-46905D01*
X66526Y-47094D01*
X66581Y-47229D01*
X66418Y-47229D01*
X66474Y-47095D01*
X66474Y-46906D01*
X66402Y-46732D01*
X66269Y-46598D01*
X66095Y-46526D01*
X65906Y-46526D01*
X65771Y-46581D01*
X65771Y-45500D01*
X65750Y-45397D01*
X65750Y-45396D01*
X65692Y-45308D01*
X65689Y-45306D01*
X64890Y-44506D01*
X64926Y-44519D01*
X65130Y-44508D01*
X65267Y-44452D01*
X65275Y-44416D01*
X65307Y-44448D01*
X65310Y-44444D01*
X66806Y-45939D01*
X66808Y-45942D01*
X66896Y-46000D01*
X66897Y-46000D01*
X67000Y-46021D01*
X67637Y-46021D01*
X67806Y-46189D01*
X67808Y-46192D01*
X68175Y-46559D01*
G54D10*
G36*
X68896Y-41529D02*
X68732Y-41598D01*
X68598Y-41731D01*
X68526Y-41905D01*
X68526Y-42094D01*
X68598Y-42268D01*
X68729Y-42399D01*
X68729Y-42600D01*
X68598Y-42731D01*
X68526Y-42905D01*
X68526Y-43090D01*
X68440Y-43175D01*
X68474Y-43095D01*
X68474Y-42906D01*
X68402Y-42732D01*
X68271Y-42600D01*
X68271Y-42399D01*
X68402Y-42269D01*
X68474Y-42095D01*
X68474Y-41906D01*
X68402Y-41732D01*
X68269Y-41598D01*
X68095Y-41526D01*
X67906Y-41526D01*
X67732Y-41598D01*
X67598Y-41731D01*
X67526Y-41905D01*
X67526Y-42094D01*
X67598Y-42268D01*
X67729Y-42399D01*
X67729Y-42600D01*
X67598Y-42731D01*
X67526Y-42905D01*
X67526Y-43094D01*
X67581Y-43229D01*
X67500Y-43229D01*
X67411Y-43246D01*
X67474Y-43095D01*
X67474Y-42906D01*
X67402Y-42732D01*
X67271Y-42600D01*
X67271Y-42399D01*
X67402Y-42269D01*
X67474Y-42095D01*
X67474Y-41906D01*
X67402Y-41732D01*
X67269Y-41598D01*
X67095Y-41526D01*
X66906Y-41526D01*
X66732Y-41598D01*
X66598Y-41731D01*
X66526Y-41905D01*
X66526Y-42094D01*
X66598Y-42268D01*
X66729Y-42399D01*
X66729Y-42600D01*
X66598Y-42731D01*
X66526Y-42905D01*
X66526Y-43094D01*
X66559Y-43175D01*
X66474Y-43090D01*
X66474Y-42906D01*
X66402Y-42732D01*
X66271Y-42600D01*
X66271Y-42399D01*
X66402Y-42269D01*
X66474Y-42095D01*
X66474Y-41906D01*
X66402Y-41732D01*
X66269Y-41598D01*
X66095Y-41526D01*
X65906Y-41526D01*
X65732Y-41598D01*
X65598Y-41731D01*
X65526Y-41905D01*
X65526Y-42094D01*
X65598Y-42268D01*
X65729Y-42399D01*
X65729Y-42600D01*
X65598Y-42731D01*
X65526Y-42905D01*
X65526Y-43094D01*
X65559Y-43175D01*
X65474Y-43090D01*
X65474Y-42906D01*
X65402Y-42732D01*
X65271Y-42600D01*
X65271Y-42399D01*
X65402Y-42269D01*
X65474Y-42095D01*
X65474Y-41906D01*
X65402Y-41732D01*
X65269Y-41598D01*
X65095Y-41526D01*
X64906Y-41526D01*
X64771Y-41581D01*
X64771Y-40750D01*
X64750Y-40647D01*
X64750Y-40646D01*
X64692Y-40558D01*
X64271Y-40137D01*
X64271Y-39399D01*
X64402Y-39269D01*
X64474Y-39095D01*
X64474Y-38906D01*
X64460Y-38874D01*
X64499Y-38874D01*
X64481Y-38926D01*
X64492Y-39130D01*
X64548Y-39267D01*
X64639Y-39290D01*
X64894Y-39035D01*
X64929Y-39000D01*
X65000Y-38929D01*
X65071Y-39000D01*
X65000Y-39071D01*
X64965Y-39106D01*
X64710Y-39361D01*
X64733Y-39452D01*
X64926Y-39519D01*
X65130Y-39508D01*
X65267Y-39452D01*
X65275Y-39416D01*
X65307Y-39448D01*
X65310Y-39444D01*
X66806Y-40939D01*
X66808Y-40942D01*
X66896Y-41000D01*
X66897Y-41000D01*
X67000Y-41021D01*
X67500Y-41021D01*
X68387Y-41021D01*
X68896Y-41529D01*
X68896Y-41529D01*
G37*
G54D22*
X68896Y-41529D02*
X68732Y-41598D01*
X68598Y-41731D01*
X68526Y-41905D01*
X68526Y-42094D01*
X68598Y-42268D01*
X68729Y-42399D01*
X68729Y-42600D01*
X68598Y-42731D01*
X68526Y-42905D01*
X68526Y-43090D01*
X68440Y-43175D01*
X68474Y-43095D01*
X68474Y-42906D01*
X68402Y-42732D01*
X68271Y-42600D01*
X68271Y-42399D01*
X68402Y-42269D01*
X68474Y-42095D01*
X68474Y-41906D01*
X68402Y-41732D01*
X68269Y-41598D01*
X68095Y-41526D01*
X67906Y-41526D01*
X67732Y-41598D01*
X67598Y-41731D01*
X67526Y-41905D01*
X67526Y-42094D01*
X67598Y-42268D01*
X67729Y-42399D01*
X67729Y-42600D01*
X67598Y-42731D01*
X67526Y-42905D01*
X67526Y-43094D01*
X67581Y-43229D01*
X67500Y-43229D01*
X67411Y-43246D01*
X67474Y-43095D01*
X67474Y-42906D01*
X67402Y-42732D01*
X67271Y-42600D01*
X67271Y-42399D01*
X67402Y-42269D01*
X67474Y-42095D01*
X67474Y-41906D01*
X67402Y-41732D01*
X67269Y-41598D01*
X67095Y-41526D01*
X66906Y-41526D01*
X66732Y-41598D01*
X66598Y-41731D01*
X66526Y-41905D01*
X66526Y-42094D01*
X66598Y-42268D01*
X66729Y-42399D01*
X66729Y-42600D01*
X66598Y-42731D01*
X66526Y-42905D01*
X66526Y-43094D01*
X66559Y-43175D01*
X66474Y-43090D01*
X66474Y-42906D01*
X66402Y-42732D01*
X66271Y-42600D01*
X66271Y-42399D01*
X66402Y-42269D01*
X66474Y-42095D01*
X66474Y-41906D01*
X66402Y-41732D01*
X66269Y-41598D01*
X66095Y-41526D01*
X65906Y-41526D01*
X65732Y-41598D01*
X65598Y-41731D01*
X65526Y-41905D01*
X65526Y-42094D01*
X65598Y-42268D01*
X65729Y-42399D01*
X65729Y-42600D01*
X65598Y-42731D01*
X65526Y-42905D01*
X65526Y-43094D01*
X65559Y-43175D01*
X65474Y-43090D01*
X65474Y-42906D01*
X65402Y-42732D01*
X65271Y-42600D01*
X65271Y-42399D01*
X65402Y-42269D01*
X65474Y-42095D01*
X65474Y-41906D01*
X65402Y-41732D01*
X65269Y-41598D01*
X65095Y-41526D01*
X64906Y-41526D01*
X64771Y-41581D01*
X64771Y-40750D01*
X64750Y-40647D01*
X64750Y-40646D01*
X64692Y-40558D01*
X64271Y-40137D01*
X64271Y-39399D01*
X64402Y-39269D01*
X64474Y-39095D01*
X64474Y-38906D01*
X64460Y-38874D01*
X64499Y-38874D01*
X64481Y-38926D01*
X64492Y-39130D01*
X64548Y-39267D01*
X64639Y-39290D01*
X64894Y-39035D01*
X64929Y-39000D01*
X65000Y-38929D01*
X65071Y-39000D01*
X65000Y-39071D01*
X64965Y-39106D01*
X64710Y-39361D01*
X64733Y-39452D01*
X64926Y-39519D01*
X65130Y-39508D01*
X65267Y-39452D01*
X65275Y-39416D01*
X65307Y-39448D01*
X65310Y-39444D01*
X66806Y-40939D01*
X66808Y-40942D01*
X66896Y-41000D01*
X66897Y-41000D01*
X67000Y-41021D01*
X67500Y-41021D01*
X68387Y-41021D01*
X68896Y-41529D01*
G54D10*
G36*
X69071Y-25500D02*
X69000Y-25571D01*
X68929Y-25500D01*
X69000Y-25429D01*
X69071Y-25500D01*
X69071Y-25500D01*
G37*
G54D22*
X69071Y-25500D02*
X69000Y-25571D01*
X68929Y-25500D01*
X69000Y-25429D01*
X69071Y-25500D01*
G54D10*
G36*
X69071Y-39000D02*
X69000Y-39071D01*
X68929Y-39000D01*
X69000Y-38929D01*
X69071Y-39000D01*
X69071Y-39000D01*
G37*
G54D22*
X69071Y-39000D02*
X69000Y-39071D01*
X68929Y-39000D01*
X69000Y-38929D01*
X69071Y-39000D01*
G54D10*
G36*
X69896Y-41530D02*
X69732Y-41598D01*
X69723Y-41606D01*
X69692Y-41558D01*
X69689Y-41556D01*
X68692Y-40558D01*
X68604Y-40500D01*
X68585Y-40496D01*
X68500Y-40478D01*
X68495Y-40479D01*
X67500Y-40479D01*
X67112Y-40479D01*
X66138Y-39504D01*
X66267Y-39452D01*
X66290Y-39361D01*
X66035Y-39106D01*
X66000Y-39071D01*
X65929Y-39000D01*
X66000Y-38929D01*
X66035Y-38894D01*
X66290Y-38639D01*
X66267Y-38548D01*
X66074Y-38481D01*
X65870Y-38492D01*
X65771Y-38532D01*
X65771Y-38500D01*
X65750Y-38397D01*
X65750Y-38396D01*
X65692Y-38308D01*
X65689Y-38306D01*
X64824Y-37440D01*
X64905Y-37474D01*
X65094Y-37474D01*
X65268Y-37402D01*
X65402Y-37269D01*
X65474Y-37095D01*
X65474Y-36906D01*
X65402Y-36732D01*
X65269Y-36598D01*
X65095Y-36526D01*
X64906Y-36526D01*
X64732Y-36598D01*
X64723Y-36606D01*
X64692Y-36558D01*
X64689Y-36556D01*
X64442Y-36308D01*
X64354Y-36250D01*
X64335Y-36246D01*
X64250Y-36228D01*
X64245Y-36229D01*
X63757Y-36229D01*
X63712Y-36183D01*
X63575Y-36126D01*
X63426Y-36126D01*
X63289Y-36183D01*
X63183Y-36288D01*
X63126Y-36425D01*
X63126Y-36538D01*
X63095Y-36526D01*
X62906Y-36526D01*
X62771Y-36581D01*
X62771Y-36363D01*
X63192Y-35942D01*
X63250Y-35854D01*
X63250Y-35853D01*
X63271Y-35750D01*
X63271Y-34612D01*
X64189Y-33693D01*
X64191Y-33692D01*
X64192Y-33692D01*
X64250Y-33604D01*
X64250Y-33603D01*
X64271Y-33500D01*
X64271Y-31399D01*
X64402Y-31269D01*
X64474Y-31095D01*
X64474Y-30906D01*
X64402Y-30732D01*
X64269Y-30598D01*
X64095Y-30526D01*
X63906Y-30526D01*
X63771Y-30581D01*
X63771Y-28918D01*
X63905Y-28974D01*
X64094Y-28974D01*
X64268Y-28902D01*
X64402Y-28769D01*
X64474Y-28595D01*
X64474Y-28406D01*
X64402Y-28232D01*
X64269Y-28098D01*
X64095Y-28026D01*
X63906Y-28026D01*
X63771Y-28081D01*
X63771Y-27918D01*
X63905Y-27974D01*
X64094Y-27974D01*
X64268Y-27902D01*
X64558Y-28192D01*
X64605Y-28223D01*
X64598Y-28231D01*
X64526Y-28405D01*
X64526Y-28594D01*
X64598Y-28768D01*
X64731Y-28902D01*
X64905Y-28974D01*
X65090Y-28974D01*
X65806Y-29689D01*
X65808Y-29692D01*
X65878Y-29738D01*
X65090Y-30526D01*
X64906Y-30526D01*
X64732Y-30598D01*
X64598Y-30731D01*
X64526Y-30905D01*
X64526Y-31094D01*
X64598Y-31268D01*
X64729Y-31399D01*
X64729Y-33637D01*
X64490Y-33876D01*
X64426Y-33876D01*
X64289Y-33933D01*
X64183Y-34038D01*
X64126Y-34175D01*
X64126Y-34324D01*
X64183Y-34461D01*
X64288Y-34567D01*
X64425Y-34624D01*
X64574Y-34624D01*
X64711Y-34567D01*
X64817Y-34462D01*
X64874Y-34325D01*
X64874Y-34260D01*
X65192Y-33942D01*
X65250Y-33854D01*
X65250Y-33853D01*
X65271Y-33750D01*
X65271Y-31399D01*
X65402Y-31269D01*
X65474Y-31095D01*
X65474Y-30909D01*
X65559Y-30824D01*
X65526Y-30905D01*
X65526Y-31094D01*
X65598Y-31268D01*
X65729Y-31399D01*
X65729Y-33637D01*
X65490Y-33876D01*
X65426Y-33876D01*
X65289Y-33933D01*
X65183Y-34038D01*
X65126Y-34175D01*
X65126Y-34324D01*
X65183Y-34461D01*
X65288Y-34567D01*
X65425Y-34624D01*
X65574Y-34624D01*
X65711Y-34567D01*
X65817Y-34462D01*
X65874Y-34325D01*
X65874Y-34260D01*
X66192Y-33942D01*
X66250Y-33854D01*
X66250Y-33853D01*
X66271Y-33750D01*
X66271Y-31399D01*
X66402Y-31269D01*
X66474Y-31095D01*
X66474Y-30909D01*
X66559Y-30824D01*
X66526Y-30905D01*
X66526Y-31094D01*
X66598Y-31268D01*
X66729Y-31399D01*
X66729Y-32876D01*
X66676Y-32876D01*
X66539Y-32933D01*
X66433Y-33038D01*
X66376Y-33175D01*
X66376Y-33324D01*
X66433Y-33461D01*
X66538Y-33567D01*
X66675Y-33624D01*
X66824Y-33624D01*
X66961Y-33567D01*
X67067Y-33462D01*
X67124Y-33325D01*
X67124Y-33259D01*
X67189Y-33193D01*
X67191Y-33192D01*
X67192Y-33192D01*
X67250Y-33104D01*
X67271Y-33000D01*
X67271Y-31399D01*
X67402Y-31269D01*
X67474Y-31095D01*
X67474Y-30909D01*
X67559Y-30823D01*
X67526Y-30905D01*
X67526Y-31094D01*
X67598Y-31268D01*
X67729Y-31399D01*
X67729Y-32242D01*
X67683Y-32288D01*
X67626Y-32425D01*
X67626Y-32574D01*
X67683Y-32711D01*
X67788Y-32817D01*
X67925Y-32874D01*
X68074Y-32874D01*
X68211Y-32817D01*
X68317Y-32712D01*
X68374Y-32575D01*
X68374Y-32426D01*
X68317Y-32289D01*
X68271Y-32242D01*
X68271Y-31399D01*
X68402Y-31269D01*
X68474Y-31095D01*
X68474Y-30910D01*
X68559Y-30824D01*
X68526Y-30905D01*
X68526Y-31094D01*
X68598Y-31268D01*
X68731Y-31402D01*
X68905Y-31474D01*
X69090Y-31474D01*
X69229Y-31613D01*
X69229Y-36534D01*
X69074Y-36481D01*
X68870Y-36492D01*
X68733Y-36548D01*
X68710Y-36639D01*
X68965Y-36894D01*
X69000Y-36929D01*
X69071Y-37000D01*
X69000Y-37071D01*
X68929Y-37000D01*
X68894Y-36965D01*
X68639Y-36710D01*
X68548Y-36733D01*
X68481Y-36926D01*
X68490Y-37107D01*
X68474Y-37090D01*
X68474Y-36906D01*
X68402Y-36732D01*
X68269Y-36598D01*
X68095Y-36526D01*
X67906Y-36526D01*
X67732Y-36598D01*
X67598Y-36731D01*
X67526Y-36905D01*
X67526Y-37094D01*
X67560Y-37176D01*
X67474Y-37090D01*
X67474Y-36906D01*
X67402Y-36732D01*
X67269Y-36598D01*
X67095Y-36526D01*
X66906Y-36526D01*
X66732Y-36598D01*
X66598Y-36731D01*
X66526Y-36905D01*
X66526Y-37094D01*
X66560Y-37176D01*
X66474Y-37090D01*
X66474Y-36906D01*
X66402Y-36732D01*
X66269Y-36598D01*
X66095Y-36526D01*
X65906Y-36526D01*
X65732Y-36598D01*
X65598Y-36731D01*
X65526Y-36905D01*
X65526Y-37094D01*
X65598Y-37268D01*
X65731Y-37402D01*
X65905Y-37474D01*
X66090Y-37474D01*
X67056Y-38439D01*
X67058Y-38442D01*
X67109Y-38493D01*
X67074Y-38481D01*
X66870Y-38492D01*
X66733Y-38548D01*
X66710Y-38639D01*
X66965Y-38894D01*
X67000Y-38929D01*
X67071Y-39000D01*
X67000Y-39071D01*
X66965Y-39106D01*
X66929Y-39142D01*
X66929Y-39000D01*
X66639Y-38710D01*
X66548Y-38733D01*
X66503Y-38859D01*
X66452Y-38733D01*
X66361Y-38710D01*
X66071Y-39000D01*
X66361Y-39290D01*
X66452Y-39267D01*
X66496Y-39140D01*
X66548Y-39267D01*
X66639Y-39290D01*
X66929Y-39000D01*
X66929Y-39142D01*
X66710Y-39361D01*
X66733Y-39452D01*
X66926Y-39519D01*
X67130Y-39508D01*
X67267Y-39452D01*
X67275Y-39416D01*
X67307Y-39448D01*
X67310Y-39444D01*
X67556Y-39689D01*
X67558Y-39692D01*
X67646Y-39750D01*
X67750Y-39771D01*
X68137Y-39771D01*
X68306Y-39939D01*
X68308Y-39942D01*
X69306Y-40939D01*
X69308Y-40942D01*
X69896Y-41530D01*
X69896Y-41530D01*
G37*
G54D22*
X69896Y-41530D02*
X69732Y-41598D01*
X69723Y-41606D01*
X69692Y-41558D01*
X69689Y-41556D01*
X68692Y-40558D01*
X68604Y-40500D01*
X68585Y-40496D01*
X68500Y-40478D01*
X68495Y-40479D01*
X67500Y-40479D01*
X67112Y-40479D01*
X66138Y-39504D01*
X66267Y-39452D01*
X66290Y-39361D01*
X66035Y-39106D01*
X66000Y-39071D01*
X65929Y-39000D01*
X66000Y-38929D01*
X66035Y-38894D01*
X66290Y-38639D01*
X66267Y-38548D01*
X66074Y-38481D01*
X65870Y-38492D01*
X65771Y-38532D01*
X65771Y-38500D01*
X65750Y-38397D01*
X65750Y-38396D01*
X65692Y-38308D01*
X65689Y-38306D01*
X64824Y-37440D01*
X64905Y-37474D01*
X65094Y-37474D01*
X65268Y-37402D01*
X65402Y-37269D01*
X65474Y-37095D01*
X65474Y-36906D01*
X65402Y-36732D01*
X65269Y-36598D01*
X65095Y-36526D01*
X64906Y-36526D01*
X64732Y-36598D01*
X64723Y-36606D01*
X64692Y-36558D01*
X64689Y-36556D01*
X64442Y-36308D01*
X64354Y-36250D01*
X64335Y-36246D01*
X64250Y-36228D01*
X64245Y-36229D01*
X63757Y-36229D01*
X63712Y-36183D01*
X63575Y-36126D01*
X63426Y-36126D01*
X63289Y-36183D01*
X63183Y-36288D01*
X63126Y-36425D01*
X63126Y-36538D01*
X63095Y-36526D01*
X62906Y-36526D01*
X62771Y-36581D01*
X62771Y-36363D01*
X63192Y-35942D01*
X63250Y-35854D01*
X63250Y-35853D01*
X63271Y-35750D01*
X63271Y-34612D01*
X64189Y-33693D01*
X64191Y-33692D01*
X64192Y-33692D01*
X64250Y-33604D01*
X64250Y-33603D01*
X64271Y-33500D01*
X64271Y-31399D01*
X64402Y-31269D01*
X64474Y-31095D01*
X64474Y-30906D01*
X64402Y-30732D01*
X64269Y-30598D01*
X64095Y-30526D01*
X63906Y-30526D01*
X63771Y-30581D01*
X63771Y-28918D01*
X63905Y-28974D01*
X64094Y-28974D01*
X64268Y-28902D01*
X64402Y-28769D01*
X64474Y-28595D01*
X64474Y-28406D01*
X64402Y-28232D01*
X64269Y-28098D01*
X64095Y-28026D01*
X63906Y-28026D01*
X63771Y-28081D01*
X63771Y-27918D01*
X63905Y-27974D01*
X64094Y-27974D01*
X64268Y-27902D01*
X64558Y-28192D01*
X64605Y-28223D01*
X64598Y-28231D01*
X64526Y-28405D01*
X64526Y-28594D01*
X64598Y-28768D01*
X64731Y-28902D01*
X64905Y-28974D01*
X65090Y-28974D01*
X65806Y-29689D01*
X65808Y-29692D01*
X65878Y-29738D01*
X65090Y-30526D01*
X64906Y-30526D01*
X64732Y-30598D01*
X64598Y-30731D01*
X64526Y-30905D01*
X64526Y-31094D01*
X64598Y-31268D01*
X64729Y-31399D01*
X64729Y-33637D01*
X64490Y-33876D01*
X64426Y-33876D01*
X64289Y-33933D01*
X64183Y-34038D01*
X64126Y-34175D01*
X64126Y-34324D01*
X64183Y-34461D01*
X64288Y-34567D01*
X64425Y-34624D01*
X64574Y-34624D01*
X64711Y-34567D01*
X64817Y-34462D01*
X64874Y-34325D01*
X64874Y-34260D01*
X65192Y-33942D01*
X65250Y-33854D01*
X65250Y-33853D01*
X65271Y-33750D01*
X65271Y-31399D01*
X65402Y-31269D01*
X65474Y-31095D01*
X65474Y-30909D01*
X65559Y-30824D01*
X65526Y-30905D01*
X65526Y-31094D01*
X65598Y-31268D01*
X65729Y-31399D01*
X65729Y-33637D01*
X65490Y-33876D01*
X65426Y-33876D01*
X65289Y-33933D01*
X65183Y-34038D01*
X65126Y-34175D01*
X65126Y-34324D01*
X65183Y-34461D01*
X65288Y-34567D01*
X65425Y-34624D01*
X65574Y-34624D01*
X65711Y-34567D01*
X65817Y-34462D01*
X65874Y-34325D01*
X65874Y-34260D01*
X66192Y-33942D01*
X66250Y-33854D01*
X66250Y-33853D01*
X66271Y-33750D01*
X66271Y-31399D01*
X66402Y-31269D01*
X66474Y-31095D01*
X66474Y-30909D01*
X66559Y-30824D01*
X66526Y-30905D01*
X66526Y-31094D01*
X66598Y-31268D01*
X66729Y-31399D01*
X66729Y-32876D01*
X66676Y-32876D01*
X66539Y-32933D01*
X66433Y-33038D01*
X66376Y-33175D01*
X66376Y-33324D01*
X66433Y-33461D01*
X66538Y-33567D01*
X66675Y-33624D01*
X66824Y-33624D01*
X66961Y-33567D01*
X67067Y-33462D01*
X67124Y-33325D01*
X67124Y-33259D01*
X67189Y-33193D01*
X67191Y-33192D01*
X67192Y-33192D01*
X67250Y-33104D01*
X67271Y-33000D01*
X67271Y-31399D01*
X67402Y-31269D01*
X67474Y-31095D01*
X67474Y-30909D01*
X67559Y-30823D01*
X67526Y-30905D01*
X67526Y-31094D01*
X67598Y-31268D01*
X67729Y-31399D01*
X67729Y-32242D01*
X67683Y-32288D01*
X67626Y-32425D01*
X67626Y-32574D01*
X67683Y-32711D01*
X67788Y-32817D01*
X67925Y-32874D01*
X68074Y-32874D01*
X68211Y-32817D01*
X68317Y-32712D01*
X68374Y-32575D01*
X68374Y-32426D01*
X68317Y-32289D01*
X68271Y-32242D01*
X68271Y-31399D01*
X68402Y-31269D01*
X68474Y-31095D01*
X68474Y-30910D01*
X68559Y-30824D01*
X68526Y-30905D01*
X68526Y-31094D01*
X68598Y-31268D01*
X68731Y-31402D01*
X68905Y-31474D01*
X69090Y-31474D01*
X69229Y-31613D01*
X69229Y-36534D01*
X69074Y-36481D01*
X68870Y-36492D01*
X68733Y-36548D01*
X68710Y-36639D01*
X68965Y-36894D01*
X69000Y-36929D01*
X69071Y-37000D01*
X69000Y-37071D01*
X68929Y-37000D01*
X68894Y-36965D01*
X68639Y-36710D01*
X68548Y-36733D01*
X68481Y-36926D01*
X68490Y-37107D01*
X68474Y-37090D01*
X68474Y-36906D01*
X68402Y-36732D01*
X68269Y-36598D01*
X68095Y-36526D01*
X67906Y-36526D01*
X67732Y-36598D01*
X67598Y-36731D01*
X67526Y-36905D01*
X67526Y-37094D01*
X67560Y-37176D01*
X67474Y-37090D01*
X67474Y-36906D01*
X67402Y-36732D01*
X67269Y-36598D01*
X67095Y-36526D01*
X66906Y-36526D01*
X66732Y-36598D01*
X66598Y-36731D01*
X66526Y-36905D01*
X66526Y-37094D01*
X66560Y-37176D01*
X66474Y-37090D01*
X66474Y-36906D01*
X66402Y-36732D01*
X66269Y-36598D01*
X66095Y-36526D01*
X65906Y-36526D01*
X65732Y-36598D01*
X65598Y-36731D01*
X65526Y-36905D01*
X65526Y-37094D01*
X65598Y-37268D01*
X65731Y-37402D01*
X65905Y-37474D01*
X66090Y-37474D01*
X67056Y-38439D01*
X67058Y-38442D01*
X67109Y-38493D01*
X67074Y-38481D01*
X66870Y-38492D01*
X66733Y-38548D01*
X66710Y-38639D01*
X66965Y-38894D01*
X67000Y-38929D01*
X67071Y-39000D01*
X67000Y-39071D01*
X66965Y-39106D01*
X66929Y-39142D01*
X66929Y-39000D01*
X66639Y-38710D01*
X66548Y-38733D01*
X66503Y-38859D01*
X66452Y-38733D01*
X66361Y-38710D01*
X66071Y-39000D01*
X66361Y-39290D01*
X66452Y-39267D01*
X66496Y-39140D01*
X66548Y-39267D01*
X66639Y-39290D01*
X66929Y-39000D01*
X66929Y-39142D01*
X66710Y-39361D01*
X66733Y-39452D01*
X66926Y-39519D01*
X67130Y-39508D01*
X67267Y-39452D01*
X67275Y-39416D01*
X67307Y-39448D01*
X67310Y-39444D01*
X67556Y-39689D01*
X67558Y-39692D01*
X67646Y-39750D01*
X67750Y-39771D01*
X68137Y-39771D01*
X68306Y-39939D01*
X68308Y-39942D01*
X69306Y-40939D01*
X69308Y-40942D01*
X69896Y-41530D01*
G54D10*
G36*
X70729Y-40595D02*
X69771Y-39637D01*
X69771Y-39418D01*
X69905Y-39474D01*
X70094Y-39474D01*
X70268Y-39402D01*
X70402Y-39269D01*
X70474Y-39095D01*
X70474Y-38906D01*
X70402Y-38732D01*
X70269Y-38598D01*
X70095Y-38526D01*
X69906Y-38526D01*
X69771Y-38581D01*
X69771Y-38500D01*
X69750Y-38397D01*
X69750Y-38396D01*
X69692Y-38308D01*
X69192Y-37808D01*
X69189Y-37806D01*
X68942Y-37558D01*
X68939Y-37556D01*
X68889Y-37506D01*
X68926Y-37519D01*
X69130Y-37508D01*
X69267Y-37452D01*
X69275Y-37416D01*
X69307Y-37448D01*
X69310Y-37444D01*
X70729Y-38862D01*
X70729Y-40595D01*
X70729Y-40595D01*
G37*
G54D22*
X70729Y-40595D02*
X69771Y-39637D01*
X69771Y-39418D01*
X69905Y-39474D01*
X70094Y-39474D01*
X70268Y-39402D01*
X70402Y-39269D01*
X70474Y-39095D01*
X70474Y-38906D01*
X70402Y-38732D01*
X70269Y-38598D01*
X70095Y-38526D01*
X69906Y-38526D01*
X69771Y-38581D01*
X69771Y-38500D01*
X69750Y-38397D01*
X69750Y-38396D01*
X69692Y-38308D01*
X69192Y-37808D01*
X69189Y-37806D01*
X68942Y-37558D01*
X68939Y-37556D01*
X68889Y-37506D01*
X68926Y-37519D01*
X69130Y-37508D01*
X69267Y-37452D01*
X69275Y-37416D01*
X69307Y-37448D01*
X69310Y-37444D01*
X70729Y-38862D01*
X70729Y-40595D01*
G54D10*
G36*
X72071Y-28000D02*
X72000Y-28071D01*
X71929Y-28000D01*
X71894Y-27965D01*
X71639Y-27710D01*
X71548Y-27733D01*
X71501Y-27867D01*
X69444Y-25810D01*
X69448Y-25807D01*
X69416Y-25775D01*
X69452Y-25767D01*
X69519Y-25574D01*
X69508Y-25370D01*
X69467Y-25271D01*
X69637Y-25271D01*
X71862Y-27495D01*
X71733Y-27548D01*
X71710Y-27639D01*
X71965Y-27894D01*
X72000Y-27929D01*
X72071Y-28000D01*
X72071Y-28000D01*
G37*
G54D22*
X72071Y-28000D02*
X72000Y-28071D01*
X71929Y-28000D01*
X71894Y-27965D01*
X71639Y-27710D01*
X71548Y-27733D01*
X71501Y-27867D01*
X69444Y-25810D01*
X69448Y-25807D01*
X69416Y-25775D01*
X69452Y-25767D01*
X69519Y-25574D01*
X69508Y-25370D01*
X69467Y-25271D01*
X69637Y-25271D01*
X71862Y-27495D01*
X71733Y-27548D01*
X71710Y-27639D01*
X71965Y-27894D01*
X72000Y-27929D01*
X72071Y-28000D01*
G54D10*
G36*
X72229Y-46534D02*
X72074Y-46481D01*
X71870Y-46492D01*
X71733Y-46548D01*
X71710Y-46639D01*
X71965Y-46894D01*
X72000Y-46929D01*
X72071Y-47000D01*
X72000Y-47071D01*
X71929Y-47000D01*
X71894Y-46965D01*
X71639Y-46710D01*
X71548Y-46733D01*
X71481Y-46926D01*
X71492Y-47130D01*
X71532Y-47229D01*
X71418Y-47229D01*
X71474Y-47095D01*
X71474Y-46906D01*
X71402Y-46732D01*
X71269Y-46598D01*
X71095Y-46526D01*
X70909Y-46526D01*
X70474Y-46090D01*
X70474Y-44095D01*
X70474Y-43906D01*
X70402Y-43732D01*
X70269Y-43598D01*
X70095Y-43526D01*
X69906Y-43526D01*
X69732Y-43598D01*
X69598Y-43731D01*
X69526Y-43905D01*
X69526Y-44094D01*
X69598Y-44268D01*
X69731Y-44402D01*
X69905Y-44474D01*
X70094Y-44474D01*
X70268Y-44402D01*
X70402Y-44269D01*
X70474Y-44095D01*
X70474Y-46090D01*
X69442Y-45058D01*
X69354Y-45000D01*
X69335Y-44996D01*
X69250Y-44978D01*
X69245Y-44979D01*
X67612Y-44979D01*
X67103Y-44470D01*
X67268Y-44402D01*
X67402Y-44269D01*
X67474Y-44095D01*
X67474Y-43910D01*
X67559Y-43824D01*
X67526Y-43905D01*
X67526Y-44094D01*
X67598Y-44268D01*
X67731Y-44402D01*
X67905Y-44474D01*
X68094Y-44474D01*
X68268Y-44402D01*
X68402Y-44269D01*
X68474Y-44095D01*
X68474Y-43906D01*
X68418Y-43771D01*
X68495Y-43771D01*
X68500Y-43772D01*
X68500Y-43771D01*
X68585Y-43753D01*
X68588Y-43753D01*
X68526Y-43905D01*
X68526Y-44094D01*
X68598Y-44268D01*
X68731Y-44402D01*
X68905Y-44474D01*
X69094Y-44474D01*
X69268Y-44402D01*
X69402Y-44269D01*
X69474Y-44095D01*
X69474Y-43906D01*
X69402Y-43732D01*
X69269Y-43598D01*
X69095Y-43526D01*
X68906Y-43526D01*
X68824Y-43559D01*
X68910Y-43474D01*
X69094Y-43474D01*
X69268Y-43402D01*
X69402Y-43269D01*
X69474Y-43095D01*
X69474Y-42906D01*
X69402Y-42732D01*
X69271Y-42600D01*
X69271Y-42399D01*
X69276Y-42393D01*
X69308Y-42442D01*
X69556Y-42689D01*
X69558Y-42692D01*
X69605Y-42723D01*
X69598Y-42731D01*
X69526Y-42905D01*
X69526Y-43094D01*
X69598Y-43268D01*
X69731Y-43402D01*
X69905Y-43474D01*
X70094Y-43474D01*
X70268Y-43402D01*
X70402Y-43269D01*
X70474Y-43095D01*
X70474Y-42906D01*
X70440Y-42824D01*
X70526Y-42910D01*
X70526Y-43094D01*
X70598Y-43268D01*
X70731Y-43402D01*
X70905Y-43474D01*
X71094Y-43474D01*
X71268Y-43402D01*
X71402Y-43269D01*
X71470Y-43103D01*
X71896Y-43529D01*
X71732Y-43598D01*
X71598Y-43731D01*
X71526Y-43905D01*
X71526Y-44090D01*
X71440Y-44176D01*
X71474Y-44095D01*
X71474Y-43906D01*
X71402Y-43732D01*
X71269Y-43598D01*
X71095Y-43526D01*
X70906Y-43526D01*
X70732Y-43598D01*
X70598Y-43731D01*
X70526Y-43905D01*
X70526Y-44094D01*
X70598Y-44268D01*
X70731Y-44402D01*
X70905Y-44474D01*
X71094Y-44474D01*
X71176Y-44439D01*
X70990Y-44626D01*
X70926Y-44626D01*
X70789Y-44683D01*
X70683Y-44788D01*
X70626Y-44925D01*
X70626Y-45074D01*
X70683Y-45211D01*
X70788Y-45317D01*
X70925Y-45374D01*
X71074Y-45374D01*
X71211Y-45317D01*
X71317Y-45212D01*
X71374Y-45075D01*
X71374Y-45009D01*
X71909Y-44474D01*
X72094Y-44474D01*
X72229Y-44418D01*
X72229Y-46534D01*
X72229Y-46534D01*
G37*
G54D22*
X72229Y-46534D02*
X72074Y-46481D01*
X71870Y-46492D01*
X71733Y-46548D01*
X71710Y-46639D01*
X71965Y-46894D01*
X72000Y-46929D01*
X72071Y-47000D01*
X72000Y-47071D01*
X71929Y-47000D01*
X71894Y-46965D01*
X71639Y-46710D01*
X71548Y-46733D01*
X71481Y-46926D01*
X71492Y-47130D01*
X71532Y-47229D01*
X71418Y-47229D01*
X71474Y-47095D01*
X71474Y-46906D01*
X71402Y-46732D01*
X71269Y-46598D01*
X71095Y-46526D01*
X70909Y-46526D01*
X70474Y-46090D01*
X70474Y-44095D01*
X70474Y-43906D01*
X70402Y-43732D01*
X70269Y-43598D01*
X70095Y-43526D01*
X69906Y-43526D01*
X69732Y-43598D01*
X69598Y-43731D01*
X69526Y-43905D01*
X69526Y-44094D01*
X69598Y-44268D01*
X69731Y-44402D01*
X69905Y-44474D01*
X70094Y-44474D01*
X70268Y-44402D01*
X70402Y-44269D01*
X70474Y-44095D01*
X70474Y-46090D01*
X69442Y-45058D01*
X69354Y-45000D01*
X69335Y-44996D01*
X69250Y-44978D01*
X69245Y-44979D01*
X67612Y-44979D01*
X67103Y-44470D01*
X67268Y-44402D01*
X67402Y-44269D01*
X67474Y-44095D01*
X67474Y-43910D01*
X67559Y-43824D01*
X67526Y-43905D01*
X67526Y-44094D01*
X67598Y-44268D01*
X67731Y-44402D01*
X67905Y-44474D01*
X68094Y-44474D01*
X68268Y-44402D01*
X68402Y-44269D01*
X68474Y-44095D01*
X68474Y-43906D01*
X68418Y-43771D01*
X68495Y-43771D01*
X68500Y-43772D01*
X68500Y-43771D01*
X68585Y-43753D01*
X68588Y-43753D01*
X68526Y-43905D01*
X68526Y-44094D01*
X68598Y-44268D01*
X68731Y-44402D01*
X68905Y-44474D01*
X69094Y-44474D01*
X69268Y-44402D01*
X69402Y-44269D01*
X69474Y-44095D01*
X69474Y-43906D01*
X69402Y-43732D01*
X69269Y-43598D01*
X69095Y-43526D01*
X68906Y-43526D01*
X68824Y-43559D01*
X68910Y-43474D01*
X69094Y-43474D01*
X69268Y-43402D01*
X69402Y-43269D01*
X69474Y-43095D01*
X69474Y-42906D01*
X69402Y-42732D01*
X69271Y-42600D01*
X69271Y-42399D01*
X69276Y-42393D01*
X69308Y-42442D01*
X69556Y-42689D01*
X69558Y-42692D01*
X69605Y-42723D01*
X69598Y-42731D01*
X69526Y-42905D01*
X69526Y-43094D01*
X69598Y-43268D01*
X69731Y-43402D01*
X69905Y-43474D01*
X70094Y-43474D01*
X70268Y-43402D01*
X70402Y-43269D01*
X70474Y-43095D01*
X70474Y-42906D01*
X70440Y-42824D01*
X70526Y-42910D01*
X70526Y-43094D01*
X70598Y-43268D01*
X70731Y-43402D01*
X70905Y-43474D01*
X71094Y-43474D01*
X71268Y-43402D01*
X71402Y-43269D01*
X71470Y-43103D01*
X71896Y-43529D01*
X71732Y-43598D01*
X71598Y-43731D01*
X71526Y-43905D01*
X71526Y-44090D01*
X71440Y-44176D01*
X71474Y-44095D01*
X71474Y-43906D01*
X71402Y-43732D01*
X71269Y-43598D01*
X71095Y-43526D01*
X70906Y-43526D01*
X70732Y-43598D01*
X70598Y-43731D01*
X70526Y-43905D01*
X70526Y-44094D01*
X70598Y-44268D01*
X70731Y-44402D01*
X70905Y-44474D01*
X71094Y-44474D01*
X71176Y-44439D01*
X70990Y-44626D01*
X70926Y-44626D01*
X70789Y-44683D01*
X70683Y-44788D01*
X70626Y-44925D01*
X70626Y-45074D01*
X70683Y-45211D01*
X70788Y-45317D01*
X70925Y-45374D01*
X71074Y-45374D01*
X71211Y-45317D01*
X71317Y-45212D01*
X71374Y-45075D01*
X71374Y-45009D01*
X71909Y-44474D01*
X72094Y-44474D01*
X72229Y-44418D01*
X72229Y-46534D01*
G54D10*
G36*
X73229Y-27595D02*
X73019Y-27385D01*
X73019Y-26574D01*
X73008Y-26370D01*
X72952Y-26233D01*
X72861Y-26210D01*
X72790Y-26281D01*
X72790Y-26139D01*
X72767Y-26048D01*
X72574Y-25981D01*
X72370Y-25992D01*
X72233Y-26048D01*
X72210Y-26139D01*
X72500Y-26429D01*
X72790Y-26139D01*
X72790Y-26281D01*
X72571Y-26500D01*
X72861Y-26790D01*
X72952Y-26767D01*
X73019Y-26574D01*
X73019Y-27385D01*
X72637Y-27004D01*
X72767Y-26952D01*
X72790Y-26861D01*
X72535Y-26606D01*
X72500Y-26571D01*
X72429Y-26500D01*
X72394Y-26465D01*
X72139Y-26210D01*
X72048Y-26233D01*
X72001Y-26367D01*
X69442Y-23808D01*
X69394Y-23776D01*
X69402Y-23769D01*
X69474Y-23595D01*
X69474Y-23406D01*
X69402Y-23232D01*
X69290Y-23119D01*
X69290Y-22861D01*
X69000Y-22571D01*
X68929Y-22642D01*
X68929Y-22500D01*
X68639Y-22210D01*
X68548Y-22233D01*
X68481Y-22426D01*
X68492Y-22630D01*
X68548Y-22767D01*
X68639Y-22790D01*
X68929Y-22500D01*
X68929Y-22642D01*
X68710Y-22861D01*
X68733Y-22952D01*
X68926Y-23019D01*
X69130Y-23008D01*
X69267Y-22952D01*
X69290Y-22861D01*
X69290Y-23119D01*
X69269Y-23098D01*
X69095Y-23026D01*
X68906Y-23026D01*
X68732Y-23098D01*
X68598Y-23231D01*
X68526Y-23405D01*
X68526Y-23594D01*
X68581Y-23729D01*
X68418Y-23729D01*
X68474Y-23595D01*
X68474Y-23406D01*
X68474Y-22595D01*
X68474Y-22406D01*
X68402Y-22232D01*
X68269Y-22098D01*
X68095Y-22026D01*
X67906Y-22026D01*
X67732Y-22098D01*
X67598Y-22231D01*
X67526Y-22405D01*
X67526Y-22594D01*
X67598Y-22768D01*
X67731Y-22902D01*
X67905Y-22974D01*
X68094Y-22974D01*
X68268Y-22902D01*
X68402Y-22769D01*
X68474Y-22595D01*
X68474Y-23406D01*
X68402Y-23232D01*
X68269Y-23098D01*
X68095Y-23026D01*
X67906Y-23026D01*
X67732Y-23098D01*
X67598Y-23231D01*
X67526Y-23405D01*
X67526Y-23594D01*
X67581Y-23729D01*
X67474Y-23729D01*
X67474Y-22595D01*
X67474Y-22406D01*
X67402Y-22232D01*
X67269Y-22098D01*
X67095Y-22026D01*
X66906Y-22026D01*
X66732Y-22098D01*
X66598Y-22231D01*
X66526Y-22405D01*
X66526Y-22594D01*
X66598Y-22768D01*
X66731Y-22902D01*
X66905Y-22974D01*
X67094Y-22974D01*
X67268Y-22902D01*
X67402Y-22769D01*
X67474Y-22595D01*
X67474Y-23729D01*
X66612Y-23729D01*
X65824Y-22940D01*
X65905Y-22974D01*
X66094Y-22974D01*
X66268Y-22902D01*
X66402Y-22769D01*
X66474Y-22595D01*
X66474Y-22406D01*
X66402Y-22232D01*
X66269Y-22098D01*
X66095Y-22026D01*
X65906Y-22026D01*
X65732Y-22098D01*
X65598Y-22231D01*
X65526Y-22405D01*
X65526Y-22594D01*
X65560Y-22676D01*
X65474Y-22590D01*
X65474Y-22406D01*
X65402Y-22232D01*
X65269Y-22098D01*
X65095Y-22026D01*
X64906Y-22026D01*
X64771Y-22081D01*
X64771Y-22000D01*
X64753Y-21911D01*
X64905Y-21974D01*
X65094Y-21974D01*
X65268Y-21902D01*
X65402Y-21769D01*
X65474Y-21595D01*
X65474Y-21406D01*
X65418Y-21271D01*
X65581Y-21271D01*
X65526Y-21405D01*
X65526Y-21594D01*
X65598Y-21768D01*
X65731Y-21902D01*
X65905Y-21974D01*
X66094Y-21974D01*
X66268Y-21902D01*
X66402Y-21769D01*
X66474Y-21595D01*
X66474Y-21406D01*
X66418Y-21271D01*
X66581Y-21271D01*
X66526Y-21405D01*
X66526Y-21594D01*
X66598Y-21768D01*
X66731Y-21902D01*
X66905Y-21974D01*
X67094Y-21974D01*
X67268Y-21902D01*
X67402Y-21769D01*
X67474Y-21595D01*
X67474Y-21406D01*
X67418Y-21271D01*
X67581Y-21271D01*
X67526Y-21405D01*
X67526Y-21594D01*
X67598Y-21768D01*
X67731Y-21902D01*
X67905Y-21974D01*
X68094Y-21974D01*
X68268Y-21902D01*
X68402Y-21769D01*
X68470Y-21604D01*
X68861Y-21995D01*
X68733Y-22048D01*
X68710Y-22139D01*
X68965Y-22394D01*
X69000Y-22429D01*
X69071Y-22500D01*
X69106Y-22535D01*
X69361Y-22790D01*
X69452Y-22767D01*
X69498Y-22631D01*
X69556Y-22689D01*
X69558Y-22692D01*
X73229Y-26362D01*
X73229Y-27595D01*
X73229Y-27595D01*
G37*
G54D22*
X73229Y-27595D02*
X73019Y-27385D01*
X73019Y-26574D01*
X73008Y-26370D01*
X72952Y-26233D01*
X72861Y-26210D01*
X72790Y-26281D01*
X72790Y-26139D01*
X72767Y-26048D01*
X72574Y-25981D01*
X72370Y-25992D01*
X72233Y-26048D01*
X72210Y-26139D01*
X72500Y-26429D01*
X72790Y-26139D01*
X72790Y-26281D01*
X72571Y-26500D01*
X72861Y-26790D01*
X72952Y-26767D01*
X73019Y-26574D01*
X73019Y-27385D01*
X72637Y-27004D01*
X72767Y-26952D01*
X72790Y-26861D01*
X72535Y-26606D01*
X72500Y-26571D01*
X72429Y-26500D01*
X72394Y-26465D01*
X72139Y-26210D01*
X72048Y-26233D01*
X72001Y-26367D01*
X69442Y-23808D01*
X69394Y-23776D01*
X69402Y-23769D01*
X69474Y-23595D01*
X69474Y-23406D01*
X69402Y-23232D01*
X69290Y-23119D01*
X69290Y-22861D01*
X69000Y-22571D01*
X68929Y-22642D01*
X68929Y-22500D01*
X68639Y-22210D01*
X68548Y-22233D01*
X68481Y-22426D01*
X68492Y-22630D01*
X68548Y-22767D01*
X68639Y-22790D01*
X68929Y-22500D01*
X68929Y-22642D01*
X68710Y-22861D01*
X68733Y-22952D01*
X68926Y-23019D01*
X69130Y-23008D01*
X69267Y-22952D01*
X69290Y-22861D01*
X69290Y-23119D01*
X69269Y-23098D01*
X69095Y-23026D01*
X68906Y-23026D01*
X68732Y-23098D01*
X68598Y-23231D01*
X68526Y-23405D01*
X68526Y-23594D01*
X68581Y-23729D01*
X68418Y-23729D01*
X68474Y-23595D01*
X68474Y-23406D01*
X68474Y-22595D01*
X68474Y-22406D01*
X68402Y-22232D01*
X68269Y-22098D01*
X68095Y-22026D01*
X67906Y-22026D01*
X67732Y-22098D01*
X67598Y-22231D01*
X67526Y-22405D01*
X67526Y-22594D01*
X67598Y-22768D01*
X67731Y-22902D01*
X67905Y-22974D01*
X68094Y-22974D01*
X68268Y-22902D01*
X68402Y-22769D01*
X68474Y-22595D01*
X68474Y-23406D01*
X68402Y-23232D01*
X68269Y-23098D01*
X68095Y-23026D01*
X67906Y-23026D01*
X67732Y-23098D01*
X67598Y-23231D01*
X67526Y-23405D01*
X67526Y-23594D01*
X67581Y-23729D01*
X67474Y-23729D01*
X67474Y-22595D01*
X67474Y-22406D01*
X67402Y-22232D01*
X67269Y-22098D01*
X67095Y-22026D01*
X66906Y-22026D01*
X66732Y-22098D01*
X66598Y-22231D01*
X66526Y-22405D01*
X66526Y-22594D01*
X66598Y-22768D01*
X66731Y-22902D01*
X66905Y-22974D01*
X67094Y-22974D01*
X67268Y-22902D01*
X67402Y-22769D01*
X67474Y-22595D01*
X67474Y-23729D01*
X66612Y-23729D01*
X65824Y-22940D01*
X65905Y-22974D01*
X66094Y-22974D01*
X66268Y-22902D01*
X66402Y-22769D01*
X66474Y-22595D01*
X66474Y-22406D01*
X66402Y-22232D01*
X66269Y-22098D01*
X66095Y-22026D01*
X65906Y-22026D01*
X65732Y-22098D01*
X65598Y-22231D01*
X65526Y-22405D01*
X65526Y-22594D01*
X65560Y-22676D01*
X65474Y-22590D01*
X65474Y-22406D01*
X65402Y-22232D01*
X65269Y-22098D01*
X65095Y-22026D01*
X64906Y-22026D01*
X64771Y-22081D01*
X64771Y-22000D01*
X64753Y-21911D01*
X64905Y-21974D01*
X65094Y-21974D01*
X65268Y-21902D01*
X65402Y-21769D01*
X65474Y-21595D01*
X65474Y-21406D01*
X65418Y-21271D01*
X65581Y-21271D01*
X65526Y-21405D01*
X65526Y-21594D01*
X65598Y-21768D01*
X65731Y-21902D01*
X65905Y-21974D01*
X66094Y-21974D01*
X66268Y-21902D01*
X66402Y-21769D01*
X66474Y-21595D01*
X66474Y-21406D01*
X66418Y-21271D01*
X66581Y-21271D01*
X66526Y-21405D01*
X66526Y-21594D01*
X66598Y-21768D01*
X66731Y-21902D01*
X66905Y-21974D01*
X67094Y-21974D01*
X67268Y-21902D01*
X67402Y-21769D01*
X67474Y-21595D01*
X67474Y-21406D01*
X67418Y-21271D01*
X67581Y-21271D01*
X67526Y-21405D01*
X67526Y-21594D01*
X67598Y-21768D01*
X67731Y-21902D01*
X67905Y-21974D01*
X68094Y-21974D01*
X68268Y-21902D01*
X68402Y-21769D01*
X68470Y-21604D01*
X68861Y-21995D01*
X68733Y-22048D01*
X68710Y-22139D01*
X68965Y-22394D01*
X69000Y-22429D01*
X69071Y-22500D01*
X69106Y-22535D01*
X69361Y-22790D01*
X69452Y-22767D01*
X69498Y-22631D01*
X69556Y-22689D01*
X69558Y-22692D01*
X73229Y-26362D01*
X73229Y-27595D01*
G54D10*
G36*
X74427Y-41793D02*
X72638Y-40004D01*
X72767Y-39952D01*
X72790Y-39861D01*
X72535Y-39606D01*
X72500Y-39571D01*
X72429Y-39500D01*
X72500Y-39429D01*
X72571Y-39500D01*
X72606Y-39535D01*
X72861Y-39790D01*
X72952Y-39767D01*
X73019Y-39574D01*
X73013Y-39469D01*
X74427Y-40883D01*
X74427Y-41793D01*
X74427Y-41793D01*
G37*
G54D22*
X74427Y-41793D02*
X72638Y-40004D01*
X72767Y-39952D01*
X72790Y-39861D01*
X72535Y-39606D01*
X72500Y-39571D01*
X72429Y-39500D01*
X72500Y-39429D01*
X72571Y-39500D01*
X72606Y-39535D01*
X72861Y-39790D01*
X72952Y-39767D01*
X73019Y-39574D01*
X73013Y-39469D01*
X74427Y-40883D01*
X74427Y-41793D01*
G54D10*
G36*
X80726Y-48972D02*
X80665Y-49276D01*
X80530Y-49478D01*
X80530Y-48946D01*
X80530Y-26696D01*
X80527Y-26286D01*
X80377Y-25924D01*
X80233Y-25838D01*
X80162Y-25909D01*
X80162Y-25767D01*
X80076Y-25623D01*
X79696Y-25470D01*
X79286Y-25473D01*
X78924Y-25623D01*
X78838Y-25767D01*
X79500Y-26429D01*
X80162Y-25767D01*
X80162Y-25909D01*
X79571Y-26500D01*
X80233Y-27162D01*
X80377Y-27076D01*
X80530Y-26696D01*
X80530Y-48946D01*
X80527Y-48536D01*
X80377Y-48174D01*
X80233Y-48088D01*
X80162Y-48159D01*
X80162Y-48017D01*
X80162Y-27233D01*
X79500Y-26571D01*
X79429Y-26642D01*
X79429Y-26500D01*
X78767Y-25838D01*
X78623Y-25924D01*
X78470Y-26304D01*
X78473Y-26714D01*
X78623Y-27076D01*
X78767Y-27162D01*
X79429Y-26500D01*
X79429Y-26642D01*
X78838Y-27233D01*
X78924Y-27377D01*
X79304Y-27530D01*
X79714Y-27527D01*
X80076Y-27377D01*
X80162Y-27233D01*
X80162Y-48017D01*
X80076Y-47873D01*
X79696Y-47720D01*
X79286Y-47723D01*
X79025Y-47831D01*
X79025Y-44112D01*
X79025Y-43888D01*
X79024Y-43676D01*
X78986Y-43584D01*
X78916Y-43514D01*
X78825Y-43476D01*
X78726Y-43476D01*
X78612Y-43475D01*
X78550Y-43537D01*
X78550Y-43950D01*
X78963Y-43950D01*
X79025Y-43888D01*
X79025Y-44112D01*
X78963Y-44050D01*
X78550Y-44050D01*
X78550Y-44463D01*
X78612Y-44525D01*
X78726Y-44524D01*
X78825Y-44524D01*
X78916Y-44486D01*
X78986Y-44416D01*
X79024Y-44324D01*
X79025Y-44112D01*
X79025Y-47831D01*
X78924Y-47873D01*
X78838Y-48017D01*
X79500Y-48679D01*
X80162Y-48017D01*
X80162Y-48159D01*
X79571Y-48750D01*
X80233Y-49412D01*
X80377Y-49326D01*
X80530Y-48946D01*
X80530Y-49478D01*
X80509Y-49510D01*
X80276Y-49665D01*
X79972Y-49726D01*
X79837Y-49726D01*
X80076Y-49627D01*
X80162Y-49483D01*
X79500Y-48821D01*
X79429Y-48892D01*
X79429Y-48750D01*
X78767Y-48088D01*
X78623Y-48174D01*
X78470Y-48554D01*
X78473Y-48964D01*
X78623Y-49326D01*
X78767Y-49412D01*
X79429Y-48750D01*
X79429Y-48892D01*
X78838Y-49483D01*
X78924Y-49627D01*
X79169Y-49726D01*
X78450Y-49726D01*
X78450Y-44463D01*
X78450Y-44050D01*
X78450Y-43950D01*
X78450Y-43537D01*
X78388Y-43475D01*
X78274Y-43476D01*
X78175Y-43476D01*
X78084Y-43514D01*
X78014Y-43584D01*
X77976Y-43676D01*
X77975Y-43888D01*
X78037Y-43950D01*
X78450Y-43950D01*
X78450Y-44050D01*
X78037Y-44050D01*
X77975Y-44112D01*
X77976Y-44324D01*
X78014Y-44416D01*
X78084Y-44486D01*
X78175Y-44524D01*
X78274Y-44524D01*
X78388Y-44525D01*
X78450Y-44463D01*
X78450Y-49726D01*
X76519Y-49726D01*
X76519Y-45074D01*
X76519Y-42074D01*
X76508Y-41870D01*
X76452Y-41733D01*
X76361Y-41710D01*
X76290Y-41781D01*
X76290Y-41639D01*
X76267Y-41548D01*
X76074Y-41481D01*
X75870Y-41492D01*
X75733Y-41548D01*
X75710Y-41639D01*
X76000Y-41929D01*
X76290Y-41639D01*
X76290Y-41781D01*
X76071Y-42000D01*
X76361Y-42290D01*
X76452Y-42267D01*
X76519Y-42074D01*
X76519Y-45074D01*
X76508Y-44870D01*
X76452Y-44733D01*
X76361Y-44710D01*
X76290Y-44781D01*
X76290Y-44639D01*
X76267Y-44548D01*
X76074Y-44481D01*
X75870Y-44492D01*
X75733Y-44548D01*
X75710Y-44639D01*
X76000Y-44929D01*
X76290Y-44639D01*
X76290Y-44781D01*
X76071Y-45000D01*
X76361Y-45290D01*
X76452Y-45267D01*
X76519Y-45074D01*
X76519Y-49726D01*
X72050Y-49726D01*
X72050Y-49521D01*
X73500Y-49521D01*
X73995Y-49521D01*
X74000Y-49522D01*
X74000Y-49521D01*
X74085Y-49503D01*
X74103Y-49500D01*
X74104Y-49500D01*
X74192Y-49442D01*
X74439Y-49193D01*
X74441Y-49192D01*
X74442Y-49192D01*
X74500Y-49104D01*
X74521Y-49000D01*
X74521Y-45976D01*
X74522Y-45978D01*
X75022Y-46478D01*
X75085Y-46541D01*
X75527Y-46983D01*
X75527Y-47314D01*
X75557Y-47387D01*
X75613Y-47443D01*
X75685Y-47473D01*
X75764Y-47473D01*
X76314Y-47473D01*
X76387Y-47443D01*
X76443Y-47387D01*
X76473Y-47315D01*
X76473Y-47236D01*
X76473Y-46686D01*
X76443Y-46613D01*
X76387Y-46557D01*
X76315Y-46527D01*
X76290Y-46527D01*
X76290Y-45361D01*
X76000Y-45071D01*
X75929Y-45142D01*
X75929Y-45000D01*
X75639Y-44710D01*
X75548Y-44733D01*
X75481Y-44926D01*
X75492Y-45130D01*
X75548Y-45267D01*
X75639Y-45290D01*
X75929Y-45000D01*
X75929Y-45142D01*
X75710Y-45361D01*
X75733Y-45452D01*
X75926Y-45519D01*
X76130Y-45508D01*
X76267Y-45452D01*
X76290Y-45361D01*
X76290Y-46527D01*
X76236Y-46527D01*
X75983Y-46527D01*
X75541Y-46085D01*
X75478Y-46022D01*
X75073Y-45616D01*
X75073Y-44697D01*
X75124Y-44575D01*
X75124Y-44426D01*
X75073Y-44303D01*
X75073Y-43529D01*
X75271Y-43728D01*
X75272Y-43728D01*
X75273Y-43729D01*
X75527Y-43983D01*
X75527Y-44314D01*
X75557Y-44387D01*
X75613Y-44443D01*
X75685Y-44473D01*
X75764Y-44473D01*
X76314Y-44473D01*
X76387Y-44443D01*
X76443Y-44387D01*
X76473Y-44315D01*
X76473Y-44236D01*
X76473Y-43686D01*
X76443Y-43613D01*
X76387Y-43557D01*
X76315Y-43527D01*
X76290Y-43527D01*
X76290Y-42361D01*
X76000Y-42071D01*
X75710Y-42361D01*
X75733Y-42452D01*
X75926Y-42519D01*
X76130Y-42508D01*
X76267Y-42452D01*
X76290Y-42361D01*
X76290Y-43527D01*
X76236Y-43527D01*
X75983Y-43527D01*
X75729Y-43273D01*
X75728Y-43272D01*
X75728Y-43271D01*
X75573Y-43116D01*
X75573Y-42273D01*
X75639Y-42290D01*
X75929Y-42000D01*
X75639Y-41710D01*
X75573Y-41726D01*
X75573Y-39750D01*
X75548Y-39627D01*
X75548Y-39626D01*
X75513Y-39574D01*
X75478Y-39522D01*
X75478Y-39521D01*
X75323Y-39366D01*
X75323Y-37469D01*
X75387Y-37443D01*
X75427Y-37403D01*
X75427Y-39250D01*
X75452Y-39374D01*
X75522Y-39478D01*
X78026Y-41982D01*
X78026Y-42094D01*
X78098Y-42268D01*
X78231Y-42402D01*
X78405Y-42474D01*
X78594Y-42474D01*
X78768Y-42402D01*
X78902Y-42269D01*
X78974Y-42095D01*
X78974Y-41906D01*
X78902Y-41732D01*
X78769Y-41598D01*
X78595Y-41526D01*
X78558Y-41526D01*
X78558Y-35339D01*
X78558Y-35141D01*
X78558Y-34269D01*
X78558Y-34071D01*
X78558Y-33179D01*
X78558Y-32981D01*
X78558Y-32099D01*
X78558Y-31901D01*
X78528Y-31828D01*
X78528Y-28896D01*
X78525Y-28488D01*
X78375Y-28128D01*
X78230Y-28041D01*
X78160Y-28111D01*
X78160Y-27971D01*
X78073Y-27826D01*
X77695Y-27673D01*
X77287Y-27676D01*
X76927Y-27826D01*
X76840Y-27971D01*
X77500Y-28630D01*
X78160Y-27971D01*
X78160Y-28111D01*
X77571Y-28701D01*
X78230Y-29361D01*
X78375Y-29274D01*
X78528Y-28896D01*
X78528Y-31828D01*
X78482Y-31718D01*
X78342Y-31578D01*
X78160Y-31502D01*
X78160Y-29431D01*
X77500Y-28772D01*
X77429Y-28842D01*
X77429Y-28701D01*
X76770Y-28041D01*
X76625Y-28128D01*
X76472Y-28506D01*
X76475Y-28914D01*
X76625Y-29274D01*
X76770Y-29361D01*
X77429Y-28701D01*
X77429Y-28842D01*
X76840Y-29431D01*
X76927Y-29576D01*
X77305Y-29729D01*
X77713Y-29726D01*
X78073Y-29576D01*
X78160Y-29431D01*
X78160Y-31502D01*
X78159Y-31502D01*
X77961Y-31502D01*
X77778Y-31578D01*
X77638Y-31718D01*
X77562Y-31901D01*
X77562Y-32099D01*
X77638Y-32282D01*
X77778Y-32422D01*
X77961Y-32498D01*
X78159Y-32498D01*
X78342Y-32422D01*
X78482Y-32282D01*
X78558Y-32099D01*
X78558Y-32981D01*
X78482Y-32798D01*
X78342Y-32658D01*
X78159Y-32582D01*
X77961Y-32582D01*
X77778Y-32658D01*
X77638Y-32798D01*
X77562Y-32981D01*
X77562Y-33179D01*
X77638Y-33362D01*
X77778Y-33502D01*
X77961Y-33578D01*
X78159Y-33578D01*
X78342Y-33502D01*
X78482Y-33362D01*
X78558Y-33179D01*
X78558Y-34071D01*
X78482Y-33888D01*
X78342Y-33748D01*
X78159Y-33672D01*
X77961Y-33672D01*
X77778Y-33748D01*
X77638Y-33888D01*
X77562Y-34071D01*
X77562Y-34269D01*
X77638Y-34452D01*
X77778Y-34592D01*
X77961Y-34668D01*
X78159Y-34668D01*
X78342Y-34592D01*
X78482Y-34452D01*
X78558Y-34269D01*
X78558Y-35141D01*
X78482Y-34958D01*
X78342Y-34818D01*
X78159Y-34742D01*
X77961Y-34742D01*
X77778Y-34818D01*
X77638Y-34958D01*
X77562Y-35141D01*
X77562Y-35339D01*
X77638Y-35522D01*
X77778Y-35662D01*
X77961Y-35738D01*
X78159Y-35738D01*
X78342Y-35662D01*
X78482Y-35522D01*
X78558Y-35339D01*
X78558Y-41526D01*
X78528Y-41526D01*
X78528Y-38734D01*
X78525Y-38326D01*
X78375Y-37966D01*
X78230Y-37879D01*
X78160Y-37949D01*
X78160Y-37809D01*
X78073Y-37664D01*
X77695Y-37511D01*
X77483Y-37512D01*
X77483Y-31539D01*
X77472Y-31326D01*
X77412Y-31179D01*
X77318Y-31152D01*
X77248Y-31222D01*
X77248Y-31082D01*
X77221Y-30988D01*
X77019Y-30917D01*
X76806Y-30928D01*
X76659Y-30988D01*
X76632Y-31082D01*
X76940Y-31389D01*
X77248Y-31082D01*
X77248Y-31222D01*
X77011Y-31460D01*
X77318Y-31768D01*
X77412Y-31741D01*
X77483Y-31539D01*
X77483Y-37512D01*
X77438Y-37512D01*
X77438Y-36120D01*
X77438Y-36041D01*
X77438Y-35441D01*
X77438Y-34799D01*
X77438Y-34601D01*
X77438Y-33719D01*
X77438Y-33521D01*
X77438Y-32639D01*
X77438Y-32441D01*
X77362Y-32258D01*
X77248Y-32144D01*
X77248Y-31838D01*
X76940Y-31531D01*
X76869Y-31601D01*
X76869Y-31460D01*
X76562Y-31152D01*
X76468Y-31179D01*
X76397Y-31381D01*
X76408Y-31594D01*
X76468Y-31741D01*
X76562Y-31768D01*
X76869Y-31460D01*
X76869Y-31601D01*
X76632Y-31838D01*
X76659Y-31932D01*
X76861Y-32003D01*
X77074Y-31992D01*
X77221Y-31932D01*
X77248Y-31838D01*
X77248Y-32144D01*
X77222Y-32118D01*
X77039Y-32042D01*
X76841Y-32042D01*
X76658Y-32118D01*
X76518Y-32258D01*
X76442Y-32441D01*
X76442Y-32639D01*
X76518Y-32822D01*
X76658Y-32962D01*
X76841Y-33038D01*
X77039Y-33038D01*
X77222Y-32962D01*
X77362Y-32822D01*
X77438Y-32639D01*
X77438Y-33521D01*
X77362Y-33338D01*
X77222Y-33198D01*
X77039Y-33122D01*
X76841Y-33122D01*
X76658Y-33198D01*
X76518Y-33338D01*
X76442Y-33521D01*
X76442Y-33719D01*
X76518Y-33902D01*
X76658Y-34042D01*
X76841Y-34118D01*
X77039Y-34118D01*
X77222Y-34042D01*
X77362Y-33902D01*
X77438Y-33719D01*
X77438Y-34601D01*
X77362Y-34418D01*
X77222Y-34278D01*
X77039Y-34202D01*
X76841Y-34202D01*
X76658Y-34278D01*
X76518Y-34418D01*
X76442Y-34601D01*
X76442Y-34799D01*
X76518Y-34982D01*
X76658Y-35122D01*
X76841Y-35198D01*
X77039Y-35198D01*
X77222Y-35122D01*
X77362Y-34982D01*
X77438Y-34799D01*
X77438Y-35441D01*
X77408Y-35368D01*
X77352Y-35312D01*
X77280Y-35282D01*
X77201Y-35282D01*
X76601Y-35282D01*
X76528Y-35312D01*
X76472Y-35368D01*
X76442Y-35440D01*
X76442Y-35519D01*
X76442Y-36119D01*
X76472Y-36192D01*
X76528Y-36248D01*
X76600Y-36278D01*
X76679Y-36278D01*
X77279Y-36278D01*
X77352Y-36248D01*
X77408Y-36192D01*
X77438Y-36120D01*
X77438Y-37512D01*
X77287Y-37514D01*
X76927Y-37664D01*
X76840Y-37809D01*
X77500Y-38468D01*
X78160Y-37809D01*
X78160Y-37949D01*
X77571Y-38539D01*
X78230Y-39199D01*
X78375Y-39112D01*
X78528Y-38734D01*
X78528Y-41526D01*
X78482Y-41526D01*
X78160Y-41204D01*
X78160Y-39269D01*
X77500Y-38610D01*
X77429Y-38680D01*
X77429Y-38539D01*
X76770Y-37879D01*
X76625Y-37966D01*
X76472Y-38344D01*
X76475Y-38752D01*
X76625Y-39112D01*
X76770Y-39199D01*
X77429Y-38539D01*
X77429Y-38680D01*
X76840Y-39269D01*
X76927Y-39414D01*
X77305Y-39567D01*
X77713Y-39564D01*
X78073Y-39414D01*
X78160Y-39269D01*
X78160Y-41204D01*
X76073Y-39117D01*
X76073Y-28750D01*
X76048Y-28626D01*
X75978Y-28522D01*
X75978Y-28521D01*
X75474Y-28017D01*
X75474Y-27906D01*
X75402Y-27732D01*
X75323Y-27652D01*
X75323Y-27000D01*
X75298Y-26877D01*
X75298Y-26876D01*
X75228Y-26772D01*
X74974Y-26518D01*
X74974Y-26406D01*
X74902Y-26232D01*
X74769Y-26098D01*
X74595Y-26026D01*
X74406Y-26026D01*
X74232Y-26098D01*
X74098Y-26231D01*
X74026Y-26405D01*
X74026Y-26594D01*
X74098Y-26768D01*
X74231Y-26902D01*
X74405Y-26974D01*
X74518Y-26974D01*
X74677Y-27133D01*
X74677Y-27652D01*
X74598Y-27731D01*
X74526Y-27905D01*
X74526Y-28094D01*
X74598Y-28268D01*
X74731Y-28402D01*
X74905Y-28474D01*
X75017Y-28474D01*
X75069Y-28526D01*
X74906Y-28526D01*
X74732Y-28598D01*
X74598Y-28731D01*
X74526Y-28905D01*
X74526Y-29094D01*
X74598Y-29268D01*
X74731Y-29402D01*
X74905Y-29474D01*
X75094Y-29474D01*
X75268Y-29402D01*
X75402Y-29269D01*
X75427Y-29208D01*
X75427Y-29792D01*
X75402Y-29732D01*
X75269Y-29598D01*
X75095Y-29526D01*
X74906Y-29526D01*
X74732Y-29598D01*
X74598Y-29731D01*
X74526Y-29905D01*
X74526Y-30094D01*
X74598Y-30268D01*
X74731Y-30402D01*
X74905Y-30474D01*
X75094Y-30474D01*
X75268Y-30402D01*
X75402Y-30269D01*
X75427Y-30208D01*
X75427Y-30792D01*
X75402Y-30732D01*
X75269Y-30598D01*
X75095Y-30526D01*
X74906Y-30526D01*
X74732Y-30598D01*
X74598Y-30731D01*
X74526Y-30905D01*
X74526Y-31094D01*
X74598Y-31268D01*
X74731Y-31402D01*
X74905Y-31474D01*
X75094Y-31474D01*
X75268Y-31402D01*
X75402Y-31269D01*
X75427Y-31208D01*
X75427Y-31792D01*
X75402Y-31732D01*
X75269Y-31598D01*
X75095Y-31526D01*
X74906Y-31526D01*
X74732Y-31598D01*
X74598Y-31731D01*
X74526Y-31905D01*
X74526Y-32094D01*
X74598Y-32268D01*
X74731Y-32402D01*
X74905Y-32474D01*
X75094Y-32474D01*
X75268Y-32402D01*
X75402Y-32269D01*
X75427Y-32208D01*
X75427Y-32792D01*
X75402Y-32732D01*
X75269Y-32598D01*
X75095Y-32526D01*
X74906Y-32526D01*
X74732Y-32598D01*
X74598Y-32731D01*
X74526Y-32905D01*
X74526Y-33094D01*
X74598Y-33268D01*
X74731Y-33402D01*
X74905Y-33474D01*
X75094Y-33474D01*
X75268Y-33402D01*
X75402Y-33269D01*
X75427Y-33208D01*
X75427Y-33792D01*
X75402Y-33732D01*
X75269Y-33598D01*
X75095Y-33526D01*
X74906Y-33526D01*
X74732Y-33598D01*
X74598Y-33731D01*
X74526Y-33905D01*
X74526Y-34094D01*
X74598Y-34268D01*
X74731Y-34402D01*
X74905Y-34474D01*
X75094Y-34474D01*
X75268Y-34402D01*
X75402Y-34269D01*
X75427Y-34208D01*
X75427Y-34792D01*
X75402Y-34732D01*
X75269Y-34598D01*
X75095Y-34526D01*
X74906Y-34526D01*
X74732Y-34598D01*
X74598Y-34731D01*
X74526Y-34905D01*
X74526Y-35094D01*
X74598Y-35268D01*
X74731Y-35402D01*
X74905Y-35474D01*
X75094Y-35474D01*
X75268Y-35402D01*
X75402Y-35269D01*
X75427Y-35208D01*
X75427Y-35792D01*
X75402Y-35732D01*
X75269Y-35598D01*
X75095Y-35526D01*
X74906Y-35526D01*
X74732Y-35598D01*
X74598Y-35731D01*
X74526Y-35905D01*
X74526Y-36094D01*
X74598Y-36268D01*
X74731Y-36402D01*
X74905Y-36474D01*
X75094Y-36474D01*
X75268Y-36402D01*
X75402Y-36269D01*
X75427Y-36208D01*
X75427Y-36597D01*
X75387Y-36557D01*
X75315Y-36527D01*
X75236Y-36527D01*
X74686Y-36527D01*
X74613Y-36557D01*
X74557Y-36613D01*
X74527Y-36685D01*
X74527Y-36764D01*
X74527Y-37314D01*
X74557Y-37387D01*
X74613Y-37443D01*
X74677Y-37469D01*
X74677Y-38016D01*
X74574Y-37981D01*
X74370Y-37992D01*
X74233Y-38048D01*
X74210Y-38139D01*
X74465Y-38394D01*
X74500Y-38429D01*
X74571Y-38500D01*
X74500Y-38571D01*
X74465Y-38606D01*
X74429Y-38642D01*
X74429Y-38500D01*
X74139Y-38210D01*
X74048Y-38233D01*
X73981Y-38426D01*
X73992Y-38630D01*
X74048Y-38767D01*
X74139Y-38790D01*
X74429Y-38500D01*
X74429Y-38642D01*
X74210Y-38861D01*
X74233Y-38952D01*
X74426Y-39019D01*
X74630Y-39008D01*
X74677Y-38988D01*
X74677Y-39059D01*
X74595Y-39026D01*
X74406Y-39026D01*
X74232Y-39098D01*
X74098Y-39231D01*
X74026Y-39405D01*
X74026Y-39569D01*
X72974Y-38517D01*
X72974Y-38406D01*
X72902Y-38232D01*
X72823Y-38152D01*
X72823Y-37500D01*
X72798Y-37377D01*
X72798Y-37376D01*
X72728Y-37272D01*
X72474Y-37018D01*
X72474Y-36906D01*
X72402Y-36732D01*
X72269Y-36598D01*
X72095Y-36526D01*
X71906Y-36526D01*
X71732Y-36598D01*
X71598Y-36731D01*
X71529Y-36897D01*
X70771Y-36139D01*
X70771Y-35750D01*
X70771Y-33135D01*
X70808Y-33192D01*
X71526Y-33909D01*
X71526Y-34094D01*
X71598Y-34268D01*
X71731Y-34402D01*
X71905Y-34474D01*
X72094Y-34474D01*
X72176Y-34439D01*
X72090Y-34526D01*
X71906Y-34526D01*
X71732Y-34598D01*
X71598Y-34731D01*
X71526Y-34905D01*
X71526Y-35094D01*
X71598Y-35268D01*
X71731Y-35402D01*
X71905Y-35474D01*
X72094Y-35474D01*
X72176Y-35439D01*
X72090Y-35526D01*
X71906Y-35526D01*
X71732Y-35598D01*
X71598Y-35731D01*
X71526Y-35905D01*
X71526Y-36094D01*
X71598Y-36268D01*
X71731Y-36402D01*
X71905Y-36474D01*
X72094Y-36474D01*
X72268Y-36402D01*
X72402Y-36269D01*
X72474Y-36095D01*
X72474Y-35909D01*
X73939Y-34443D01*
X73941Y-34442D01*
X73942Y-34442D01*
X74000Y-34354D01*
X74021Y-34251D01*
X74020Y-34250D01*
X74021Y-34250D01*
X74021Y-34000D01*
X74021Y-26000D01*
X74000Y-25896D01*
X73942Y-25808D01*
X73939Y-25806D01*
X68692Y-20558D01*
X68604Y-20500D01*
X68585Y-20496D01*
X68500Y-20478D01*
X68495Y-20479D01*
X63000Y-20479D01*
X62896Y-20500D01*
X62808Y-20558D01*
X62806Y-20560D01*
X62558Y-20808D01*
X62556Y-20810D01*
X61308Y-22058D01*
X61250Y-22146D01*
X61246Y-22164D01*
X61228Y-22250D01*
X61229Y-22254D01*
X61229Y-22995D01*
X61228Y-23000D01*
X61246Y-23085D01*
X61250Y-23104D01*
X61308Y-23192D01*
X61526Y-23410D01*
X61526Y-23594D01*
X61598Y-23768D01*
X61731Y-23902D01*
X61905Y-23974D01*
X62070Y-23974D01*
X62018Y-24026D01*
X61906Y-24026D01*
X61732Y-24098D01*
X61652Y-24177D01*
X60500Y-24177D01*
X60376Y-24202D01*
X60272Y-24272D01*
X60018Y-24526D01*
X59906Y-24526D01*
X59732Y-24598D01*
X59598Y-24731D01*
X59526Y-24905D01*
X59526Y-25094D01*
X59598Y-25268D01*
X59731Y-25402D01*
X59905Y-25474D01*
X60094Y-25474D01*
X60268Y-25402D01*
X60402Y-25269D01*
X60474Y-25095D01*
X60474Y-24982D01*
X60633Y-24823D01*
X61543Y-24823D01*
X61058Y-25308D01*
X61000Y-25396D01*
X60996Y-25414D01*
X60978Y-25500D01*
X60979Y-25504D01*
X60979Y-28000D01*
X60979Y-28137D01*
X60519Y-28597D01*
X60519Y-27074D01*
X60508Y-26870D01*
X60452Y-26733D01*
X60361Y-26710D01*
X60290Y-26781D01*
X60290Y-26639D01*
X60267Y-26548D01*
X60074Y-26481D01*
X59870Y-26492D01*
X59733Y-26548D01*
X59710Y-26639D01*
X60000Y-26929D01*
X60290Y-26639D01*
X60290Y-26781D01*
X60071Y-27000D01*
X60361Y-27290D01*
X60452Y-27267D01*
X60519Y-27074D01*
X60519Y-28597D01*
X60290Y-28826D01*
X60290Y-27361D01*
X60000Y-27071D01*
X59929Y-27142D01*
X59929Y-27000D01*
X59639Y-26710D01*
X59548Y-26733D01*
X59481Y-26926D01*
X59492Y-27130D01*
X59548Y-27267D01*
X59639Y-27290D01*
X59929Y-27000D01*
X59929Y-27142D01*
X59710Y-27361D01*
X59733Y-27452D01*
X59926Y-27519D01*
X60130Y-27508D01*
X60267Y-27452D01*
X60290Y-27361D01*
X60290Y-28826D01*
X59137Y-29979D01*
X59000Y-29979D01*
X58404Y-29979D01*
X58939Y-29443D01*
X58941Y-29442D01*
X58942Y-29442D01*
X59000Y-29354D01*
X59021Y-29250D01*
X59021Y-27757D01*
X59067Y-27712D01*
X59124Y-27575D01*
X59124Y-27426D01*
X59067Y-27289D01*
X58962Y-27183D01*
X58825Y-27126D01*
X58676Y-27126D01*
X58539Y-27183D01*
X58519Y-27202D01*
X58519Y-25824D01*
X58508Y-25620D01*
X58452Y-25483D01*
X58361Y-25460D01*
X58290Y-25531D01*
X58290Y-25389D01*
X58267Y-25298D01*
X58074Y-25231D01*
X57870Y-25242D01*
X57733Y-25298D01*
X57710Y-25389D01*
X58000Y-25679D01*
X58290Y-25389D01*
X58290Y-25531D01*
X58071Y-25750D01*
X58361Y-26040D01*
X58452Y-26017D01*
X58519Y-25824D01*
X58519Y-27202D01*
X58433Y-27288D01*
X58376Y-27425D01*
X58376Y-27455D01*
X58290Y-27369D01*
X58290Y-26111D01*
X58000Y-25821D01*
X57929Y-25892D01*
X57929Y-25750D01*
X57639Y-25460D01*
X57548Y-25483D01*
X57481Y-25676D01*
X57492Y-25880D01*
X57548Y-26017D01*
X57639Y-26040D01*
X57929Y-25750D01*
X57929Y-25892D01*
X57710Y-26111D01*
X57733Y-26202D01*
X57926Y-26269D01*
X58130Y-26258D01*
X58267Y-26202D01*
X58290Y-26111D01*
X58290Y-27369D01*
X58269Y-27348D01*
X58095Y-27276D01*
X57906Y-27276D01*
X57732Y-27348D01*
X57598Y-27481D01*
X57526Y-27655D01*
X57526Y-27844D01*
X57598Y-28018D01*
X57729Y-28149D01*
X57729Y-28850D01*
X57598Y-28981D01*
X57526Y-29155D01*
X57526Y-29340D01*
X57385Y-29481D01*
X56417Y-29481D01*
X56474Y-29345D01*
X56474Y-29156D01*
X56402Y-28982D01*
X56271Y-28850D01*
X56271Y-28149D01*
X56402Y-28019D01*
X56474Y-27845D01*
X56474Y-27656D01*
X56402Y-27482D01*
X56269Y-27348D01*
X56095Y-27276D01*
X55906Y-27276D01*
X55732Y-27348D01*
X55598Y-27481D01*
X55526Y-27655D01*
X55526Y-27844D01*
X55598Y-28018D01*
X55729Y-28149D01*
X55729Y-28850D01*
X55600Y-28979D01*
X55500Y-28979D01*
X54750Y-28979D01*
X54500Y-28979D01*
X54499Y-28979D01*
X54396Y-29000D01*
X54308Y-29058D01*
X54306Y-29060D01*
X54271Y-29095D01*
X54271Y-28149D01*
X54402Y-28019D01*
X54474Y-27845D01*
X54474Y-27656D01*
X54402Y-27482D01*
X54269Y-27348D01*
X54103Y-27279D01*
X54612Y-26771D01*
X55995Y-26771D01*
X56000Y-26772D01*
X56000Y-26771D01*
X56085Y-26753D01*
X56103Y-26750D01*
X56104Y-26750D01*
X56192Y-26692D01*
X57189Y-25693D01*
X57191Y-25692D01*
X57192Y-25692D01*
X57250Y-25604D01*
X57250Y-25603D01*
X57271Y-25500D01*
X57271Y-25149D01*
X57402Y-25019D01*
X57474Y-24845D01*
X57474Y-24660D01*
X57692Y-24442D01*
X58689Y-23443D01*
X58691Y-23442D01*
X58692Y-23442D01*
X58750Y-23354D01*
X58750Y-23353D01*
X58771Y-23250D01*
X58771Y-23125D01*
X58771Y-23000D01*
X58771Y-22250D01*
X58750Y-22147D01*
X58750Y-22146D01*
X58692Y-22058D01*
X58493Y-21859D01*
X58498Y-21849D01*
X58498Y-21651D01*
X58422Y-21468D01*
X58282Y-21328D01*
X58099Y-21252D01*
X57901Y-21252D01*
X57718Y-21328D01*
X57578Y-21468D01*
X57502Y-21651D01*
X57502Y-21849D01*
X57515Y-21881D01*
X57493Y-21859D01*
X57498Y-21849D01*
X57498Y-21651D01*
X57422Y-21468D01*
X57282Y-21328D01*
X57099Y-21252D01*
X56901Y-21252D01*
X56718Y-21328D01*
X56578Y-21468D01*
X56502Y-21651D01*
X56502Y-21849D01*
X56515Y-21881D01*
X56493Y-21859D01*
X56498Y-21849D01*
X56498Y-21651D01*
X56422Y-21468D01*
X56282Y-21328D01*
X56099Y-21252D01*
X55901Y-21252D01*
X55718Y-21328D01*
X55578Y-21468D01*
X55502Y-21651D01*
X55502Y-21849D01*
X55515Y-21881D01*
X55493Y-21859D01*
X55498Y-21849D01*
X55498Y-21651D01*
X55422Y-21468D01*
X55282Y-21328D01*
X55099Y-21252D01*
X54901Y-21252D01*
X54889Y-21256D01*
X54442Y-20808D01*
X54354Y-20750D01*
X54335Y-20746D01*
X54250Y-20728D01*
X54245Y-20729D01*
X41500Y-20729D01*
X41396Y-20750D01*
X41308Y-20808D01*
X40808Y-21308D01*
X40750Y-21396D01*
X40746Y-21414D01*
X40728Y-21500D01*
X40729Y-21504D01*
X40729Y-30995D01*
X40728Y-31000D01*
X40746Y-31085D01*
X40750Y-31104D01*
X40808Y-31192D01*
X41527Y-31910D01*
X41527Y-32314D01*
X41534Y-32332D01*
X40558Y-33308D01*
X40500Y-33396D01*
X40496Y-33414D01*
X40478Y-33500D01*
X40479Y-33504D01*
X40479Y-47245D01*
X40478Y-47250D01*
X40496Y-47335D01*
X40500Y-47354D01*
X40558Y-47442D01*
X41126Y-48009D01*
X41126Y-48074D01*
X41183Y-48211D01*
X41288Y-48317D01*
X41296Y-48320D01*
X40808Y-48808D01*
X40750Y-48896D01*
X40746Y-48914D01*
X40728Y-49000D01*
X40729Y-49004D01*
X40729Y-49325D01*
X40274Y-49325D01*
X40274Y-21027D01*
X40334Y-20723D01*
X40490Y-20490D01*
X40723Y-20334D01*
X41027Y-20274D01*
X79972Y-20274D01*
X80276Y-20334D01*
X80509Y-20490D01*
X80665Y-20723D01*
X80726Y-21027D01*
X80726Y-48972D01*
X80726Y-48972D01*
G37*
G54D22*
X80726Y-48972D02*
X80665Y-49276D01*
X80530Y-49478D01*
X80530Y-48946D01*
X80530Y-26696D01*
X80527Y-26286D01*
X80377Y-25924D01*
X80233Y-25838D01*
X80162Y-25909D01*
X80162Y-25767D01*
X80076Y-25623D01*
X79696Y-25470D01*
X79286Y-25473D01*
X78924Y-25623D01*
X78838Y-25767D01*
X79500Y-26429D01*
X80162Y-25767D01*
X80162Y-25909D01*
X79571Y-26500D01*
X80233Y-27162D01*
X80377Y-27076D01*
X80530Y-26696D01*
X80530Y-48946D01*
X80527Y-48536D01*
X80377Y-48174D01*
X80233Y-48088D01*
X80162Y-48159D01*
X80162Y-48017D01*
X80162Y-27233D01*
X79500Y-26571D01*
X79429Y-26642D01*
X79429Y-26500D01*
X78767Y-25838D01*
X78623Y-25924D01*
X78470Y-26304D01*
X78473Y-26714D01*
X78623Y-27076D01*
X78767Y-27162D01*
X79429Y-26500D01*
X79429Y-26642D01*
X78838Y-27233D01*
X78924Y-27377D01*
X79304Y-27530D01*
X79714Y-27527D01*
X80076Y-27377D01*
X80162Y-27233D01*
X80162Y-48017D01*
X80076Y-47873D01*
X79696Y-47720D01*
X79286Y-47723D01*
X79025Y-47831D01*
X79025Y-44112D01*
X79025Y-43888D01*
X79024Y-43676D01*
X78986Y-43584D01*
X78916Y-43514D01*
X78825Y-43476D01*
X78726Y-43476D01*
X78612Y-43475D01*
X78550Y-43537D01*
X78550Y-43950D01*
X78963Y-43950D01*
X79025Y-43888D01*
X79025Y-44112D01*
X78963Y-44050D01*
X78550Y-44050D01*
X78550Y-44463D01*
X78612Y-44525D01*
X78726Y-44524D01*
X78825Y-44524D01*
X78916Y-44486D01*
X78986Y-44416D01*
X79024Y-44324D01*
X79025Y-44112D01*
X79025Y-47831D01*
X78924Y-47873D01*
X78838Y-48017D01*
X79500Y-48679D01*
X80162Y-48017D01*
X80162Y-48159D01*
X79571Y-48750D01*
X80233Y-49412D01*
X80377Y-49326D01*
X80530Y-48946D01*
X80530Y-49478D01*
X80509Y-49510D01*
X80276Y-49665D01*
X79972Y-49726D01*
X79837Y-49726D01*
X80076Y-49627D01*
X80162Y-49483D01*
X79500Y-48821D01*
X79429Y-48892D01*
X79429Y-48750D01*
X78767Y-48088D01*
X78623Y-48174D01*
X78470Y-48554D01*
X78473Y-48964D01*
X78623Y-49326D01*
X78767Y-49412D01*
X79429Y-48750D01*
X79429Y-48892D01*
X78838Y-49483D01*
X78924Y-49627D01*
X79169Y-49726D01*
X78450Y-49726D01*
X78450Y-44463D01*
X78450Y-44050D01*
X78450Y-43950D01*
X78450Y-43537D01*
X78388Y-43475D01*
X78274Y-43476D01*
X78175Y-43476D01*
X78084Y-43514D01*
X78014Y-43584D01*
X77976Y-43676D01*
X77975Y-43888D01*
X78037Y-43950D01*
X78450Y-43950D01*
X78450Y-44050D01*
X78037Y-44050D01*
X77975Y-44112D01*
X77976Y-44324D01*
X78014Y-44416D01*
X78084Y-44486D01*
X78175Y-44524D01*
X78274Y-44524D01*
X78388Y-44525D01*
X78450Y-44463D01*
X78450Y-49726D01*
X76519Y-49726D01*
X76519Y-45074D01*
X76519Y-42074D01*
X76508Y-41870D01*
X76452Y-41733D01*
X76361Y-41710D01*
X76290Y-41781D01*
X76290Y-41639D01*
X76267Y-41548D01*
X76074Y-41481D01*
X75870Y-41492D01*
X75733Y-41548D01*
X75710Y-41639D01*
X76000Y-41929D01*
X76290Y-41639D01*
X76290Y-41781D01*
X76071Y-42000D01*
X76361Y-42290D01*
X76452Y-42267D01*
X76519Y-42074D01*
X76519Y-45074D01*
X76508Y-44870D01*
X76452Y-44733D01*
X76361Y-44710D01*
X76290Y-44781D01*
X76290Y-44639D01*
X76267Y-44548D01*
X76074Y-44481D01*
X75870Y-44492D01*
X75733Y-44548D01*
X75710Y-44639D01*
X76000Y-44929D01*
X76290Y-44639D01*
X76290Y-44781D01*
X76071Y-45000D01*
X76361Y-45290D01*
X76452Y-45267D01*
X76519Y-45074D01*
X76519Y-49726D01*
X72050Y-49726D01*
X72050Y-49521D01*
X73500Y-49521D01*
X73995Y-49521D01*
X74000Y-49522D01*
X74000Y-49521D01*
X74085Y-49503D01*
X74103Y-49500D01*
X74104Y-49500D01*
X74192Y-49442D01*
X74439Y-49193D01*
X74441Y-49192D01*
X74442Y-49192D01*
X74500Y-49104D01*
X74521Y-49000D01*
X74521Y-45976D01*
X74522Y-45978D01*
X75022Y-46478D01*
X75085Y-46541D01*
X75527Y-46983D01*
X75527Y-47314D01*
X75557Y-47387D01*
X75613Y-47443D01*
X75685Y-47473D01*
X75764Y-47473D01*
X76314Y-47473D01*
X76387Y-47443D01*
X76443Y-47387D01*
X76473Y-47315D01*
X76473Y-47236D01*
X76473Y-46686D01*
X76443Y-46613D01*
X76387Y-46557D01*
X76315Y-46527D01*
X76290Y-46527D01*
X76290Y-45361D01*
X76000Y-45071D01*
X75929Y-45142D01*
X75929Y-45000D01*
X75639Y-44710D01*
X75548Y-44733D01*
X75481Y-44926D01*
X75492Y-45130D01*
X75548Y-45267D01*
X75639Y-45290D01*
X75929Y-45000D01*
X75929Y-45142D01*
X75710Y-45361D01*
X75733Y-45452D01*
X75926Y-45519D01*
X76130Y-45508D01*
X76267Y-45452D01*
X76290Y-45361D01*
X76290Y-46527D01*
X76236Y-46527D01*
X75983Y-46527D01*
X75541Y-46085D01*
X75478Y-46022D01*
X75073Y-45616D01*
X75073Y-44697D01*
X75124Y-44575D01*
X75124Y-44426D01*
X75073Y-44303D01*
X75073Y-43529D01*
X75271Y-43728D01*
X75272Y-43728D01*
X75273Y-43729D01*
X75527Y-43983D01*
X75527Y-44314D01*
X75557Y-44387D01*
X75613Y-44443D01*
X75685Y-44473D01*
X75764Y-44473D01*
X76314Y-44473D01*
X76387Y-44443D01*
X76443Y-44387D01*
X76473Y-44315D01*
X76473Y-44236D01*
X76473Y-43686D01*
X76443Y-43613D01*
X76387Y-43557D01*
X76315Y-43527D01*
X76290Y-43527D01*
X76290Y-42361D01*
X76000Y-42071D01*
X75710Y-42361D01*
X75733Y-42452D01*
X75926Y-42519D01*
X76130Y-42508D01*
X76267Y-42452D01*
X76290Y-42361D01*
X76290Y-43527D01*
X76236Y-43527D01*
X75983Y-43527D01*
X75729Y-43273D01*
X75728Y-43272D01*
X75728Y-43271D01*
X75573Y-43116D01*
X75573Y-42273D01*
X75639Y-42290D01*
X75929Y-42000D01*
X75639Y-41710D01*
X75573Y-41726D01*
X75573Y-39750D01*
X75548Y-39627D01*
X75548Y-39626D01*
X75513Y-39574D01*
X75478Y-39522D01*
X75478Y-39521D01*
X75323Y-39366D01*
X75323Y-37469D01*
X75387Y-37443D01*
X75427Y-37403D01*
X75427Y-39250D01*
X75452Y-39374D01*
X75522Y-39478D01*
X78026Y-41982D01*
X78026Y-42094D01*
X78098Y-42268D01*
X78231Y-42402D01*
X78405Y-42474D01*
X78594Y-42474D01*
X78768Y-42402D01*
X78902Y-42269D01*
X78974Y-42095D01*
X78974Y-41906D01*
X78902Y-41732D01*
X78769Y-41598D01*
X78595Y-41526D01*
X78558Y-41526D01*
X78558Y-35339D01*
X78558Y-35141D01*
X78558Y-34269D01*
X78558Y-34071D01*
X78558Y-33179D01*
X78558Y-32981D01*
X78558Y-32099D01*
X78558Y-31901D01*
X78528Y-31828D01*
X78528Y-28896D01*
X78525Y-28488D01*
X78375Y-28128D01*
X78230Y-28041D01*
X78160Y-28111D01*
X78160Y-27971D01*
X78073Y-27826D01*
X77695Y-27673D01*
X77287Y-27676D01*
X76927Y-27826D01*
X76840Y-27971D01*
X77500Y-28630D01*
X78160Y-27971D01*
X78160Y-28111D01*
X77571Y-28701D01*
X78230Y-29361D01*
X78375Y-29274D01*
X78528Y-28896D01*
X78528Y-31828D01*
X78482Y-31718D01*
X78342Y-31578D01*
X78160Y-31502D01*
X78160Y-29431D01*
X77500Y-28772D01*
X77429Y-28842D01*
X77429Y-28701D01*
X76770Y-28041D01*
X76625Y-28128D01*
X76472Y-28506D01*
X76475Y-28914D01*
X76625Y-29274D01*
X76770Y-29361D01*
X77429Y-28701D01*
X77429Y-28842D01*
X76840Y-29431D01*
X76927Y-29576D01*
X77305Y-29729D01*
X77713Y-29726D01*
X78073Y-29576D01*
X78160Y-29431D01*
X78160Y-31502D01*
X78159Y-31502D01*
X77961Y-31502D01*
X77778Y-31578D01*
X77638Y-31718D01*
X77562Y-31901D01*
X77562Y-32099D01*
X77638Y-32282D01*
X77778Y-32422D01*
X77961Y-32498D01*
X78159Y-32498D01*
X78342Y-32422D01*
X78482Y-32282D01*
X78558Y-32099D01*
X78558Y-32981D01*
X78482Y-32798D01*
X78342Y-32658D01*
X78159Y-32582D01*
X77961Y-32582D01*
X77778Y-32658D01*
X77638Y-32798D01*
X77562Y-32981D01*
X77562Y-33179D01*
X77638Y-33362D01*
X77778Y-33502D01*
X77961Y-33578D01*
X78159Y-33578D01*
X78342Y-33502D01*
X78482Y-33362D01*
X78558Y-33179D01*
X78558Y-34071D01*
X78482Y-33888D01*
X78342Y-33748D01*
X78159Y-33672D01*
X77961Y-33672D01*
X77778Y-33748D01*
X77638Y-33888D01*
X77562Y-34071D01*
X77562Y-34269D01*
X77638Y-34452D01*
X77778Y-34592D01*
X77961Y-34668D01*
X78159Y-34668D01*
X78342Y-34592D01*
X78482Y-34452D01*
X78558Y-34269D01*
X78558Y-35141D01*
X78482Y-34958D01*
X78342Y-34818D01*
X78159Y-34742D01*
X77961Y-34742D01*
X77778Y-34818D01*
X77638Y-34958D01*
X77562Y-35141D01*
X77562Y-35339D01*
X77638Y-35522D01*
X77778Y-35662D01*
X77961Y-35738D01*
X78159Y-35738D01*
X78342Y-35662D01*
X78482Y-35522D01*
X78558Y-35339D01*
X78558Y-41526D01*
X78528Y-41526D01*
X78528Y-38734D01*
X78525Y-38326D01*
X78375Y-37966D01*
X78230Y-37879D01*
X78160Y-37949D01*
X78160Y-37809D01*
X78073Y-37664D01*
X77695Y-37511D01*
X77483Y-37512D01*
X77483Y-31539D01*
X77472Y-31326D01*
X77412Y-31179D01*
X77318Y-31152D01*
X77248Y-31222D01*
X77248Y-31082D01*
X77221Y-30988D01*
X77019Y-30917D01*
X76806Y-30928D01*
X76659Y-30988D01*
X76632Y-31082D01*
X76940Y-31389D01*
X77248Y-31082D01*
X77248Y-31222D01*
X77011Y-31460D01*
X77318Y-31768D01*
X77412Y-31741D01*
X77483Y-31539D01*
X77483Y-37512D01*
X77438Y-37512D01*
X77438Y-36120D01*
X77438Y-36041D01*
X77438Y-35441D01*
X77438Y-34799D01*
X77438Y-34601D01*
X77438Y-33719D01*
X77438Y-33521D01*
X77438Y-32639D01*
X77438Y-32441D01*
X77362Y-32258D01*
X77248Y-32144D01*
X77248Y-31838D01*
X76940Y-31531D01*
X76869Y-31601D01*
X76869Y-31460D01*
X76562Y-31152D01*
X76468Y-31179D01*
X76397Y-31381D01*
X76408Y-31594D01*
X76468Y-31741D01*
X76562Y-31768D01*
X76869Y-31460D01*
X76869Y-31601D01*
X76632Y-31838D01*
X76659Y-31932D01*
X76861Y-32003D01*
X77074Y-31992D01*
X77221Y-31932D01*
X77248Y-31838D01*
X77248Y-32144D01*
X77222Y-32118D01*
X77039Y-32042D01*
X76841Y-32042D01*
X76658Y-32118D01*
X76518Y-32258D01*
X76442Y-32441D01*
X76442Y-32639D01*
X76518Y-32822D01*
X76658Y-32962D01*
X76841Y-33038D01*
X77039Y-33038D01*
X77222Y-32962D01*
X77362Y-32822D01*
X77438Y-32639D01*
X77438Y-33521D01*
X77362Y-33338D01*
X77222Y-33198D01*
X77039Y-33122D01*
X76841Y-33122D01*
X76658Y-33198D01*
X76518Y-33338D01*
X76442Y-33521D01*
X76442Y-33719D01*
X76518Y-33902D01*
X76658Y-34042D01*
X76841Y-34118D01*
X77039Y-34118D01*
X77222Y-34042D01*
X77362Y-33902D01*
X77438Y-33719D01*
X77438Y-34601D01*
X77362Y-34418D01*
X77222Y-34278D01*
X77039Y-34202D01*
X76841Y-34202D01*
X76658Y-34278D01*
X76518Y-34418D01*
X76442Y-34601D01*
X76442Y-34799D01*
X76518Y-34982D01*
X76658Y-35122D01*
X76841Y-35198D01*
X77039Y-35198D01*
X77222Y-35122D01*
X77362Y-34982D01*
X77438Y-34799D01*
X77438Y-35441D01*
X77408Y-35368D01*
X77352Y-35312D01*
X77280Y-35282D01*
X77201Y-35282D01*
X76601Y-35282D01*
X76528Y-35312D01*
X76472Y-35368D01*
X76442Y-35440D01*
X76442Y-35519D01*
X76442Y-36119D01*
X76472Y-36192D01*
X76528Y-36248D01*
X76600Y-36278D01*
X76679Y-36278D01*
X77279Y-36278D01*
X77352Y-36248D01*
X77408Y-36192D01*
X77438Y-36120D01*
X77438Y-37512D01*
X77287Y-37514D01*
X76927Y-37664D01*
X76840Y-37809D01*
X77500Y-38468D01*
X78160Y-37809D01*
X78160Y-37949D01*
X77571Y-38539D01*
X78230Y-39199D01*
X78375Y-39112D01*
X78528Y-38734D01*
X78528Y-41526D01*
X78482Y-41526D01*
X78160Y-41204D01*
X78160Y-39269D01*
X77500Y-38610D01*
X77429Y-38680D01*
X77429Y-38539D01*
X76770Y-37879D01*
X76625Y-37966D01*
X76472Y-38344D01*
X76475Y-38752D01*
X76625Y-39112D01*
X76770Y-39199D01*
X77429Y-38539D01*
X77429Y-38680D01*
X76840Y-39269D01*
X76927Y-39414D01*
X77305Y-39567D01*
X77713Y-39564D01*
X78073Y-39414D01*
X78160Y-39269D01*
X78160Y-41204D01*
X76073Y-39117D01*
X76073Y-28750D01*
X76048Y-28626D01*
X75978Y-28522D01*
X75978Y-28521D01*
X75474Y-28017D01*
X75474Y-27906D01*
X75402Y-27732D01*
X75323Y-27652D01*
X75323Y-27000D01*
X75298Y-26877D01*
X75298Y-26876D01*
X75228Y-26772D01*
X74974Y-26518D01*
X74974Y-26406D01*
X74902Y-26232D01*
X74769Y-26098D01*
X74595Y-26026D01*
X74406Y-26026D01*
X74232Y-26098D01*
X74098Y-26231D01*
X74026Y-26405D01*
X74026Y-26594D01*
X74098Y-26768D01*
X74231Y-26902D01*
X74405Y-26974D01*
X74518Y-26974D01*
X74677Y-27133D01*
X74677Y-27652D01*
X74598Y-27731D01*
X74526Y-27905D01*
X74526Y-28094D01*
X74598Y-28268D01*
X74731Y-28402D01*
X74905Y-28474D01*
X75017Y-28474D01*
X75069Y-28526D01*
X74906Y-28526D01*
X74732Y-28598D01*
X74598Y-28731D01*
X74526Y-28905D01*
X74526Y-29094D01*
X74598Y-29268D01*
X74731Y-29402D01*
X74905Y-29474D01*
X75094Y-29474D01*
X75268Y-29402D01*
X75402Y-29269D01*
X75427Y-29208D01*
X75427Y-29792D01*
X75402Y-29732D01*
X75269Y-29598D01*
X75095Y-29526D01*
X74906Y-29526D01*
X74732Y-29598D01*
X74598Y-29731D01*
X74526Y-29905D01*
X74526Y-30094D01*
X74598Y-30268D01*
X74731Y-30402D01*
X74905Y-30474D01*
X75094Y-30474D01*
X75268Y-30402D01*
X75402Y-30269D01*
X75427Y-30208D01*
X75427Y-30792D01*
X75402Y-30732D01*
X75269Y-30598D01*
X75095Y-30526D01*
X74906Y-30526D01*
X74732Y-30598D01*
X74598Y-30731D01*
X74526Y-30905D01*
X74526Y-31094D01*
X74598Y-31268D01*
X74731Y-31402D01*
X74905Y-31474D01*
X75094Y-31474D01*
X75268Y-31402D01*
X75402Y-31269D01*
X75427Y-31208D01*
X75427Y-31792D01*
X75402Y-31732D01*
X75269Y-31598D01*
X75095Y-31526D01*
X74906Y-31526D01*
X74732Y-31598D01*
X74598Y-31731D01*
X74526Y-31905D01*
X74526Y-32094D01*
X74598Y-32268D01*
X74731Y-32402D01*
X74905Y-32474D01*
X75094Y-32474D01*
X75268Y-32402D01*
X75402Y-32269D01*
X75427Y-32208D01*
X75427Y-32792D01*
X75402Y-32732D01*
X75269Y-32598D01*
X75095Y-32526D01*
X74906Y-32526D01*
X74732Y-32598D01*
X74598Y-32731D01*
X74526Y-32905D01*
X74526Y-33094D01*
X74598Y-33268D01*
X74731Y-33402D01*
X74905Y-33474D01*
X75094Y-33474D01*
X75268Y-33402D01*
X75402Y-33269D01*
X75427Y-33208D01*
X75427Y-33792D01*
X75402Y-33732D01*
X75269Y-33598D01*
X75095Y-33526D01*
X74906Y-33526D01*
X74732Y-33598D01*
X74598Y-33731D01*
X74526Y-33905D01*
X74526Y-34094D01*
X74598Y-34268D01*
X74731Y-34402D01*
X74905Y-34474D01*
X75094Y-34474D01*
X75268Y-34402D01*
X75402Y-34269D01*
X75427Y-34208D01*
X75427Y-34792D01*
X75402Y-34732D01*
X75269Y-34598D01*
X75095Y-34526D01*
X74906Y-34526D01*
X74732Y-34598D01*
X74598Y-34731D01*
X74526Y-34905D01*
X74526Y-35094D01*
X74598Y-35268D01*
X74731Y-35402D01*
X74905Y-35474D01*
X75094Y-35474D01*
X75268Y-35402D01*
X75402Y-35269D01*
X75427Y-35208D01*
X75427Y-35792D01*
X75402Y-35732D01*
X75269Y-35598D01*
X75095Y-35526D01*
X74906Y-35526D01*
X74732Y-35598D01*
X74598Y-35731D01*
X74526Y-35905D01*
X74526Y-36094D01*
X74598Y-36268D01*
X74731Y-36402D01*
X74905Y-36474D01*
X75094Y-36474D01*
X75268Y-36402D01*
X75402Y-36269D01*
X75427Y-36208D01*
X75427Y-36597D01*
X75387Y-36557D01*
X75315Y-36527D01*
X75236Y-36527D01*
X74686Y-36527D01*
X74613Y-36557D01*
X74557Y-36613D01*
X74527Y-36685D01*
X74527Y-36764D01*
X74527Y-37314D01*
X74557Y-37387D01*
X74613Y-37443D01*
X74677Y-37469D01*
X74677Y-38016D01*
X74574Y-37981D01*
X74370Y-37992D01*
X74233Y-38048D01*
X74210Y-38139D01*
X74465Y-38394D01*
X74500Y-38429D01*
X74571Y-38500D01*
X74500Y-38571D01*
X74465Y-38606D01*
X74429Y-38642D01*
X74429Y-38500D01*
X74139Y-38210D01*
X74048Y-38233D01*
X73981Y-38426D01*
X73992Y-38630D01*
X74048Y-38767D01*
X74139Y-38790D01*
X74429Y-38500D01*
X74429Y-38642D01*
X74210Y-38861D01*
X74233Y-38952D01*
X74426Y-39019D01*
X74630Y-39008D01*
X74677Y-38988D01*
X74677Y-39059D01*
X74595Y-39026D01*
X74406Y-39026D01*
X74232Y-39098D01*
X74098Y-39231D01*
X74026Y-39405D01*
X74026Y-39569D01*
X72974Y-38517D01*
X72974Y-38406D01*
X72902Y-38232D01*
X72823Y-38152D01*
X72823Y-37500D01*
X72798Y-37377D01*
X72798Y-37376D01*
X72728Y-37272D01*
X72474Y-37018D01*
X72474Y-36906D01*
X72402Y-36732D01*
X72269Y-36598D01*
X72095Y-36526D01*
X71906Y-36526D01*
X71732Y-36598D01*
X71598Y-36731D01*
X71529Y-36897D01*
X70771Y-36139D01*
X70771Y-35750D01*
X70771Y-33135D01*
X70808Y-33192D01*
X71526Y-33909D01*
X71526Y-34094D01*
X71598Y-34268D01*
X71731Y-34402D01*
X71905Y-34474D01*
X72094Y-34474D01*
X72176Y-34439D01*
X72090Y-34526D01*
X71906Y-34526D01*
X71732Y-34598D01*
X71598Y-34731D01*
X71526Y-34905D01*
X71526Y-35094D01*
X71598Y-35268D01*
X71731Y-35402D01*
X71905Y-35474D01*
X72094Y-35474D01*
X72176Y-35439D01*
X72090Y-35526D01*
X71906Y-35526D01*
X71732Y-35598D01*
X71598Y-35731D01*
X71526Y-35905D01*
X71526Y-36094D01*
X71598Y-36268D01*
X71731Y-36402D01*
X71905Y-36474D01*
X72094Y-36474D01*
X72268Y-36402D01*
X72402Y-36269D01*
X72474Y-36095D01*
X72474Y-35909D01*
X73939Y-34443D01*
X73941Y-34442D01*
X73942Y-34442D01*
X74000Y-34354D01*
X74021Y-34251D01*
X74020Y-34250D01*
X74021Y-34250D01*
X74021Y-34000D01*
X74021Y-26000D01*
X74000Y-25896D01*
X73942Y-25808D01*
X73939Y-25806D01*
X68692Y-20558D01*
X68604Y-20500D01*
X68585Y-20496D01*
X68500Y-20478D01*
X68495Y-20479D01*
X63000Y-20479D01*
X62896Y-20500D01*
X62808Y-20558D01*
X62806Y-20560D01*
X62558Y-20808D01*
X62556Y-20810D01*
X61308Y-22058D01*
X61250Y-22146D01*
X61246Y-22164D01*
X61228Y-22250D01*
X61229Y-22254D01*
X61229Y-22995D01*
X61228Y-23000D01*
X61246Y-23085D01*
X61250Y-23104D01*
X61308Y-23192D01*
X61526Y-23410D01*
X61526Y-23594D01*
X61598Y-23768D01*
X61731Y-23902D01*
X61905Y-23974D01*
X62070Y-23974D01*
X62018Y-24026D01*
X61906Y-24026D01*
X61732Y-24098D01*
X61652Y-24177D01*
X60500Y-24177D01*
X60376Y-24202D01*
X60272Y-24272D01*
X60018Y-24526D01*
X59906Y-24526D01*
X59732Y-24598D01*
X59598Y-24731D01*
X59526Y-24905D01*
X59526Y-25094D01*
X59598Y-25268D01*
X59731Y-25402D01*
X59905Y-25474D01*
X60094Y-25474D01*
X60268Y-25402D01*
X60402Y-25269D01*
X60474Y-25095D01*
X60474Y-24982D01*
X60633Y-24823D01*
X61543Y-24823D01*
X61058Y-25308D01*
X61000Y-25396D01*
X60996Y-25414D01*
X60978Y-25500D01*
X60979Y-25504D01*
X60979Y-28000D01*
X60979Y-28137D01*
X60519Y-28597D01*
X60519Y-27074D01*
X60508Y-26870D01*
X60452Y-26733D01*
X60361Y-26710D01*
X60290Y-26781D01*
X60290Y-26639D01*
X60267Y-26548D01*
X60074Y-26481D01*
X59870Y-26492D01*
X59733Y-26548D01*
X59710Y-26639D01*
X60000Y-26929D01*
X60290Y-26639D01*
X60290Y-26781D01*
X60071Y-27000D01*
X60361Y-27290D01*
X60452Y-27267D01*
X60519Y-27074D01*
X60519Y-28597D01*
X60290Y-28826D01*
X60290Y-27361D01*
X60000Y-27071D01*
X59929Y-27142D01*
X59929Y-27000D01*
X59639Y-26710D01*
X59548Y-26733D01*
X59481Y-26926D01*
X59492Y-27130D01*
X59548Y-27267D01*
X59639Y-27290D01*
X59929Y-27000D01*
X59929Y-27142D01*
X59710Y-27361D01*
X59733Y-27452D01*
X59926Y-27519D01*
X60130Y-27508D01*
X60267Y-27452D01*
X60290Y-27361D01*
X60290Y-28826D01*
X59137Y-29979D01*
X59000Y-29979D01*
X58404Y-29979D01*
X58939Y-29443D01*
X58941Y-29442D01*
X58942Y-29442D01*
X59000Y-29354D01*
X59021Y-29250D01*
X59021Y-27757D01*
X59067Y-27712D01*
X59124Y-27575D01*
X59124Y-27426D01*
X59067Y-27289D01*
X58962Y-27183D01*
X58825Y-27126D01*
X58676Y-27126D01*
X58539Y-27183D01*
X58519Y-27202D01*
X58519Y-25824D01*
X58508Y-25620D01*
X58452Y-25483D01*
X58361Y-25460D01*
X58290Y-25531D01*
X58290Y-25389D01*
X58267Y-25298D01*
X58074Y-25231D01*
X57870Y-25242D01*
X57733Y-25298D01*
X57710Y-25389D01*
X58000Y-25679D01*
X58290Y-25389D01*
X58290Y-25531D01*
X58071Y-25750D01*
X58361Y-26040D01*
X58452Y-26017D01*
X58519Y-25824D01*
X58519Y-27202D01*
X58433Y-27288D01*
X58376Y-27425D01*
X58376Y-27455D01*
X58290Y-27369D01*
X58290Y-26111D01*
X58000Y-25821D01*
X57929Y-25892D01*
X57929Y-25750D01*
X57639Y-25460D01*
X57548Y-25483D01*
X57481Y-25676D01*
X57492Y-25880D01*
X57548Y-26017D01*
X57639Y-26040D01*
X57929Y-25750D01*
X57929Y-25892D01*
X57710Y-26111D01*
X57733Y-26202D01*
X57926Y-26269D01*
X58130Y-26258D01*
X58267Y-26202D01*
X58290Y-26111D01*
X58290Y-27369D01*
X58269Y-27348D01*
X58095Y-27276D01*
X57906Y-27276D01*
X57732Y-27348D01*
X57598Y-27481D01*
X57526Y-27655D01*
X57526Y-27844D01*
X57598Y-28018D01*
X57729Y-28149D01*
X57729Y-28850D01*
X57598Y-28981D01*
X57526Y-29155D01*
X57526Y-29340D01*
X57385Y-29481D01*
X56417Y-29481D01*
X56474Y-29345D01*
X56474Y-29156D01*
X56402Y-28982D01*
X56271Y-28850D01*
X56271Y-28149D01*
X56402Y-28019D01*
X56474Y-27845D01*
X56474Y-27656D01*
X56402Y-27482D01*
X56269Y-27348D01*
X56095Y-27276D01*
X55906Y-27276D01*
X55732Y-27348D01*
X55598Y-27481D01*
X55526Y-27655D01*
X55526Y-27844D01*
X55598Y-28018D01*
X55729Y-28149D01*
X55729Y-28850D01*
X55600Y-28979D01*
X55500Y-28979D01*
X54750Y-28979D01*
X54500Y-28979D01*
X54499Y-28979D01*
X54396Y-29000D01*
X54308Y-29058D01*
X54306Y-29060D01*
X54271Y-29095D01*
X54271Y-28149D01*
X54402Y-28019D01*
X54474Y-27845D01*
X54474Y-27656D01*
X54402Y-27482D01*
X54269Y-27348D01*
X54103Y-27279D01*
X54612Y-26771D01*
X55995Y-26771D01*
X56000Y-26772D01*
X56000Y-26771D01*
X56085Y-26753D01*
X56103Y-26750D01*
X56104Y-26750D01*
X56192Y-26692D01*
X57189Y-25693D01*
X57191Y-25692D01*
X57192Y-25692D01*
X57250Y-25604D01*
X57250Y-25603D01*
X57271Y-25500D01*
X57271Y-25149D01*
X57402Y-25019D01*
X57474Y-24845D01*
X57474Y-24660D01*
X57692Y-24442D01*
X58689Y-23443D01*
X58691Y-23442D01*
X58692Y-23442D01*
X58750Y-23354D01*
X58750Y-23353D01*
X58771Y-23250D01*
X58771Y-23125D01*
X58771Y-23000D01*
X58771Y-22250D01*
X58750Y-22147D01*
X58750Y-22146D01*
X58692Y-22058D01*
X58493Y-21859D01*
X58498Y-21849D01*
X58498Y-21651D01*
X58422Y-21468D01*
X58282Y-21328D01*
X58099Y-21252D01*
X57901Y-21252D01*
X57718Y-21328D01*
X57578Y-21468D01*
X57502Y-21651D01*
X57502Y-21849D01*
X57515Y-21881D01*
X57493Y-21859D01*
X57498Y-21849D01*
X57498Y-21651D01*
X57422Y-21468D01*
X57282Y-21328D01*
X57099Y-21252D01*
X56901Y-21252D01*
X56718Y-21328D01*
X56578Y-21468D01*
X56502Y-21651D01*
X56502Y-21849D01*
X56515Y-21881D01*
X56493Y-21859D01*
X56498Y-21849D01*
X56498Y-21651D01*
X56422Y-21468D01*
X56282Y-21328D01*
X56099Y-21252D01*
X55901Y-21252D01*
X55718Y-21328D01*
X55578Y-21468D01*
X55502Y-21651D01*
X55502Y-21849D01*
X55515Y-21881D01*
X55493Y-21859D01*
X55498Y-21849D01*
X55498Y-21651D01*
X55422Y-21468D01*
X55282Y-21328D01*
X55099Y-21252D01*
X54901Y-21252D01*
X54889Y-21256D01*
X54442Y-20808D01*
X54354Y-20750D01*
X54335Y-20746D01*
X54250Y-20728D01*
X54245Y-20729D01*
X41500Y-20729D01*
X41396Y-20750D01*
X41308Y-20808D01*
X40808Y-21308D01*
X40750Y-21396D01*
X40746Y-21414D01*
X40728Y-21500D01*
X40729Y-21504D01*
X40729Y-30995D01*
X40728Y-31000D01*
X40746Y-31085D01*
X40750Y-31104D01*
X40808Y-31192D01*
X41527Y-31910D01*
X41527Y-32314D01*
X41534Y-32332D01*
X40558Y-33308D01*
X40500Y-33396D01*
X40496Y-33414D01*
X40478Y-33500D01*
X40479Y-33504D01*
X40479Y-47245D01*
X40478Y-47250D01*
X40496Y-47335D01*
X40500Y-47354D01*
X40558Y-47442D01*
X41126Y-48009D01*
X41126Y-48074D01*
X41183Y-48211D01*
X41288Y-48317D01*
X41296Y-48320D01*
X40808Y-48808D01*
X40750Y-48896D01*
X40746Y-48914D01*
X40728Y-49000D01*
X40729Y-49004D01*
X40729Y-49325D01*
X40274Y-49325D01*
X40274Y-21027D01*
X40334Y-20723D01*
X40490Y-20490D01*
X40723Y-20334D01*
X41027Y-20274D01*
X79972Y-20274D01*
X80276Y-20334D01*
X80509Y-20490D01*
X80665Y-20723D01*
X80726Y-21027D01*
X80726Y-48972D01*
M02*
