M48
INCH,TZ
T1C0.025
T2C0.032
T3C0.040
T4C0.041
T5C0.120
T6C0.120
%
G90
G05
T1
X040375Y-032000
X040500Y-021000
X040500Y-049000
X041000Y-020500
X041375Y-032000
X041500Y-045500
X041500Y-047500
X041500Y-048000
X043500Y-046000
X043750Y-040000
X044500Y-046000
X045000Y-034000
X045250Y-030000
X046000Y-029000
X046500Y-039500
X046500Y-041500
X046500Y-046250
X047250Y-046000
X047875Y-046125
X048000Y-034125
X048500Y-033000
X048500Y-049250
X048625Y-033500
X048625Y-048375
X048875Y-040375
X049000Y-029500
X049000Y-032000
X049500Y-030250
X049500Y-040000
X050125Y-032000
X050750Y-026000
X050750Y-042000
X051500Y-045250
X051750Y-047250
X052248Y-043250
X052250Y-047250
X052750Y-036500
X052750Y-039500
X053500Y-038750
X054250Y-047500
X055000Y-027750
X055000Y-032000
X055750Y-032000
X055750Y-032500
X056000Y-033000
X056500Y-032500
X057000Y-027750
X058000Y-044750
X058500Y-043500
X058750Y-027500
X059500Y-021750
X059500Y-022750
X059500Y-029500
X059500Y-043000
X060000Y-022250
X060000Y-033750
X060000Y-041750
X060000Y-045250
X060000Y-049500
X060500Y-021750
X060500Y-028500
X060500Y-030500
X060500Y-033750
X060500Y-040750
X061000Y-029000
X061000Y-030000
X061000Y-033750
X061000Y-035000
X061000Y-040250
X061000Y-040750
X061250Y-023500
X061500Y-049500
X061750Y-047875
X062000Y-035750
X062000Y-045000
X062500Y-035500
X062500Y-047750
X062750Y-046000
X063500Y-036500
X063500Y-045500
X064500Y-034250
X064500Y-038500
X065500Y-034250
X066000Y-026500
X066000Y-046000
X066750Y-033250
X068000Y-032500
X069000Y-046000
X070500Y-020750
X070500Y-039500
X071000Y-020750
X071000Y-045000
X071500Y-020750
X072750Y-035750
X072750Y-036250
X072750Y-036750
X074750Y-044500
X075000Y-049500
X075500Y-049500
X076000Y-040250
X076000Y-040750
T2
X041500Y-039500
X041500Y-041500
X041500Y-044500
X041500Y-046500
X042000Y-022750
X042000Y-028000
X042000Y-029000
X042000Y-030000
X042000Y-031000
X042000Y-032000
X042000Y-033000
X042000Y-034000
X042000Y-035000
X042000Y-036000
X043000Y-027000
X043000Y-028000
X043000Y-029000
X043000Y-030000
X043000Y-031000
X043000Y-032000
X043000Y-033000
X043000Y-034000
X043000Y-035000
X043000Y-036000
X043000Y-037000
X043000Y-039000
X043000Y-042000
X043000Y-044000
X043000Y-047000
X044000Y-027000
X044000Y-028000
X044000Y-036000
X044000Y-037000
X044000Y-039000
X044000Y-042000
X044000Y-044000
X044000Y-047000
X045000Y-027000
X045000Y-028000
X045000Y-036000
X045000Y-037000
X045000Y-039000
X045000Y-042000
X045000Y-044000
X045000Y-047000
X046000Y-027000
X046000Y-028000
X046000Y-036000
X046000Y-037000
X046000Y-039000
X046000Y-042000
X046000Y-044000
X046000Y-047000
X047000Y-024750
X047000Y-027000
X047000Y-028000
X047000Y-036000
X047000Y-037000
X047000Y-039000
X047000Y-042000
X047000Y-044000
X047000Y-047000
X048000Y-027000
X048000Y-028000
X048000Y-036000
X048000Y-037000
X048000Y-039000
X048000Y-042000
X048000Y-044000
X048000Y-047000
X049000Y-024750
X049000Y-027000
X049000Y-028000
X049000Y-036000
X049000Y-037000
X049000Y-039000
X049000Y-042000
X049000Y-044000
X049000Y-047000
X050000Y-027000
X050000Y-028000
X050000Y-036000
X050000Y-037000
X050000Y-039000
X050000Y-042000
X050000Y-044000
X050000Y-047000
X051000Y-027000
X051000Y-028000
X051000Y-029000
X051000Y-030000
X051000Y-031000
X051000Y-032000
X051000Y-033000
X051000Y-034000
X051000Y-035000
X051000Y-036000
X051000Y-037000
X051500Y-039500
X051500Y-041500
X051500Y-044500
X051500Y-046500
X052000Y-024750
X052000Y-028000
X052000Y-029000
X052000Y-030000
X052000Y-031000
X052000Y-032000
X052000Y-033000
X052000Y-034000
X052000Y-035000
X052000Y-036000
X053000Y-024750
X053000Y-039000
X053000Y-042000
X053000Y-044000
X053000Y-047000
X054000Y-024750
X054000Y-025750
X054000Y-027750
X054000Y-033000
X054000Y-035000
X054000Y-039000
X054000Y-042000
X054000Y-044000
X054000Y-047000
X055000Y-024750
X055000Y-039000
X055000Y-042000
X055000Y-044000
X055000Y-047000
X056000Y-024750
X056000Y-025750
X056000Y-027750
X056000Y-029250
X056000Y-031000
X056000Y-037000
X056000Y-039000
X056000Y-042000
X056000Y-044000
X056000Y-047000
X057000Y-024750
X057000Y-031000
X057000Y-037000
X057000Y-039000
X057000Y-042000
X057000Y-044000
X057000Y-047000
X058000Y-025750
X058000Y-027750
X058000Y-029250
X058000Y-031000
X058000Y-037000
X058000Y-039000
X058000Y-042000
X058000Y-044000
X058000Y-047000
X059000Y-031000
X059000Y-037000
X059000Y-039000
X059000Y-042000
X059000Y-044000
X059000Y-047000
X060000Y-025000
X060000Y-027000
X060000Y-031000
X060000Y-037000
X060000Y-044000
X060000Y-047000
X061000Y-031000
X061000Y-037000
X061500Y-044500
X061500Y-046500
X062000Y-022500
X062000Y-023500
X062000Y-024500
X062000Y-025500
X062000Y-026500
X062000Y-027500
X062000Y-031000
X062000Y-037000
X062000Y-043000
X063000Y-021500
X063000Y-022500
X063000Y-023500
X063000Y-024500
X063000Y-025500
X063000Y-026500
X063000Y-027500
X063000Y-028500
X063000Y-031000
X063000Y-037000
X063000Y-039000
X063000Y-042000
X063000Y-043000
X063000Y-044000
X063000Y-047000
X064000Y-021500
X064000Y-022500
X064000Y-027500
X064000Y-028500
X064000Y-031000
X064000Y-037000
X064000Y-039000
X064000Y-042000
X064000Y-043000
X064000Y-044000
X064000Y-047000
X065000Y-021500
X065000Y-022500
X065000Y-027500
X065000Y-028500
X065000Y-031000
X065000Y-037000
X065000Y-039000
X065000Y-042000
X065000Y-043000
X065000Y-044000
X065000Y-047000
X066000Y-021500
X066000Y-022500
X066000Y-027500
X066000Y-028500
X066000Y-031000
X066000Y-037000
X066000Y-039000
X066000Y-042000
X066000Y-043000
X066000Y-044000
X066000Y-047000
X067000Y-021500
X067000Y-022500
X067000Y-027500
X067000Y-028500
X067000Y-031000
X067000Y-037000
X067000Y-039000
X067000Y-042000
X067000Y-043000
X067000Y-044000
X067000Y-047000
X068000Y-021500
X068000Y-022500
X068000Y-023500
X068000Y-024500
X068000Y-025500
X068000Y-026500
X068000Y-027500
X068000Y-028500
X068000Y-031000
X068000Y-037000
X068000Y-039000
X068000Y-042000
X068000Y-043000
X068000Y-044000
X068000Y-047000
X069000Y-022500
X069000Y-023500
X069000Y-024500
X069000Y-025500
X069000Y-026500
X069000Y-027500
X069000Y-031000
X069000Y-037000
X069000Y-039000
X069000Y-042000
X069000Y-043000
X069000Y-044000
X069000Y-047000
X070000Y-039000
X070000Y-042000
X070000Y-043000
X070000Y-044000
X070000Y-047000
X071000Y-043000
X071000Y-044000
X071000Y-047000
X072000Y-028000
X072000Y-029000
X072000Y-030000
X072000Y-031000
X072000Y-032000
X072000Y-033000
X072000Y-034000
X072000Y-035000
X072000Y-036000
X072000Y-037000
X072000Y-044000
X072000Y-047000
X072500Y-026500
X072500Y-038500
X072500Y-039500
X074500Y-026500
X074500Y-038500
X074500Y-039500
X075000Y-028000
X075000Y-029000
X075000Y-030000
X075000Y-031000
X075000Y-032000
X075000Y-033000
X075000Y-034000
X075000Y-035000
X075000Y-036000
X075000Y-037000
X076000Y-042000
X076000Y-044000
X076000Y-045000
X076000Y-047000
X078500Y-042000
X078500Y-044000
T3
X042000Y-021750
X042000Y-024750
X043000Y-021750
X043000Y-022750
X043000Y-024750
X044000Y-021750
X044000Y-022750
X045000Y-021750
X045000Y-022750
X046000Y-021750
X046000Y-022750
X047000Y-021750
X047000Y-022750
X048000Y-021750
X048000Y-022750
X049000Y-021750
X049000Y-022750
X050000Y-021750
X050000Y-022750
X051000Y-021750
X051000Y-022750
X052000Y-021750
X052000Y-022750
X053000Y-021750
X053000Y-022750
X054000Y-021750
X054000Y-022750
X055000Y-021750
X055000Y-022750
X056000Y-021750
X056000Y-022750
X057000Y-021750
X057000Y-022750
X058000Y-021750
X058000Y-022750
T4
X076940Y-031460
X076940Y-032540
X076940Y-033620
X076940Y-034700
X076940Y-035780
X078060Y-032000
X078060Y-033080
X078060Y-034170
X078060Y-035240
T5
X079500Y-026500
X079500Y-048750
T6
X077500Y-028701
X077500Y-038539
T0
M30
